<svg width="92" height="69" viewBox="0 0 92 69" fill="none" xmlns="http://www.w3.org/2000/svg">
<g clip-path="url(#clip0_872_2425)">
<path d="M36.7088 42.4882C51.9288 33.1196 66.7339 23.0891 81.097 12.4175C83.7153 10.4734 81.1786 5.97868 78.5195 7.9503C64.1632 18.6219 49.3581 28.6524 34.1313 38.021C31.3294 39.7445 33.8933 44.2186 36.7088 42.4882Z" fill="#1F3A1D"/>
<path d="M64.2734 4.68805C64.2734 9.80325 64.2734 14.9184 64.2734 20.0336C64.2734 23.3633 69.374 23.3633 69.374 20.0336C69.374 14.9184 69.374 9.80325 69.374 4.68805C69.374 1.36524 64.2734 1.35835 64.2734 4.68805Z" fill="#1F3A1D"/>
<path d="M73.4668 2.49665C73.4668 5.78499 73.4668 9.07333 73.4668 12.3617C73.4668 15.6914 78.5673 15.6914 78.5673 12.3617C78.5673 9.07333 78.5673 5.78499 78.5673 2.49665C78.5673 -0.826163 73.4668 -0.833057 73.4668 2.49665Z" fill="#1F3A1D"/>
<path d="M65.204 26.5845C70.0665 26.3639 74.9358 26.1364 79.7983 25.9158C83.0694 25.7641 83.083 20.5938 79.7983 20.7455C74.9358 20.9661 70.0665 21.1936 65.204 21.4142C61.9396 21.5658 61.9192 26.7362 65.204 26.5845Z" fill="#1F3A1D"/>
<path d="M73.8548 18.2348C79.0845 18.2348 84.3075 18.2348 89.5372 18.2348C92.822 18.2348 92.822 13.0645 89.5372 13.0645C84.3075 13.0645 79.0845 13.0645 73.8548 13.0645C70.57 13.0645 70.5632 18.2348 73.8548 18.2348Z" fill="#1F3A1D"/>
<path d="M13.0428 13.9816C2.92333 22.399 -3.0681 36.2831 1.61759 49.3055C6.28288 62.2589 20.1087 68.1255 32.8464 68.9252C46.1418 69.7593 60.3417 63.617 66.2175 50.9117C71.2228 40.0747 68.3869 27.0454 60.7838 18.2075C50.7731 6.5846 33.4653 4.52336 19.8299 9.99014C16.8104 11.2034 18.1297 16.2014 21.1832 14.9744C31.3775 10.8863 43.4964 11.1 52.6637 17.6974C60.7158 23.4882 65.3742 34.47 63.096 44.3488C60.5253 55.565 49.7054 62.6794 38.8583 63.679C28.0859 64.6717 13.9337 61.211 8.05106 51.1047C1.20955 39.3508 7.07856 25.5977 16.6472 17.6354C19.1838 15.5259 15.559 11.8928 13.0428 13.9816Z" fill="#1F3A1D"/>
<path d="M29.0048 18.0981C20.5583 20.9866 13.7848 27.6667 12.5335 36.8768C11.2685 46.1627 15.961 54.4629 25.006 57.048C33.296 59.4126 44.7892 59.1437 51.8076 53.6425C59.0231 47.9758 60.2065 38.2831 56.0648 30.3346C50.5562 19.7664 38.927 17.9602 28.2023 18.5669C24.938 18.753 24.9176 23.9233 28.2023 23.7372C37.2677 23.2271 47.4007 24.1095 51.8756 33.3885C56.5885 43.1432 49.6722 51.7881 39.8451 52.829C32.1603 53.6425 20.8371 53.3667 18.0148 44.3841C15.0361 34.9258 21.7824 26.0191 30.3581 23.0892C33.4525 22.0275 32.1263 17.0295 29.0048 18.0981Z" fill="#1F3A1D"/>
<path d="M32.1598 31.5738C28.1882 33.3662 23.5229 37.4267 26.2432 42.3144C28.2018 45.8371 32.017 48.374 36.0362 47.6433C40.5655 46.816 45.8361 44.3618 45.2852 38.7779C44.7275 33.1181 38.6273 31.6979 34.0232 31.76C30.7453 31.8013 30.7317 36.9717 34.0232 36.9303C35.7914 36.9096 40.2799 36.7718 40.2459 39.5707C40.2187 41.7905 36.2947 42.5694 34.6693 42.6315C33.2547 42.6866 31.643 41.3837 30.9629 40.129C29.7796 37.9713 33.1799 36.7304 34.7441 36.0272C37.7296 34.6898 35.1317 30.2296 32.1598 31.5738Z" fill="#1F3A1D"/>
</g>
<defs>
<clipPath id="clip0_872_2425">
<rect width="92" height="69" fill="white"/>
</clipPath>
</defs>
</svg>
