<svg width="78" height="63" viewBox="0 0 78 63" fill="none" xmlns="http://www.w3.org/2000/svg">
<g clip-path="url(#clip0_588_233)">
<path d="M10.7734 21.3026C0.693189 26.1933 -1.71518 39.1528 1.06221 49.1947C4.09209 60.0182 17.6618 62.6752 27.3147 62.9813C32.494 63.1506 37.6733 62.3626 41.7391 58.9697C45.3387 55.9871 47.5657 51.5457 48.7116 47.0522C51.5408 35.7403 47.0543 25.1253 37.123 19.134C27.8845 13.5529 14.5025 14.4777 7.48455 23.3344C5.54232 25.77 8.96707 29.2476 10.9158 26.7859C17.1698 18.893 28.7196 18.8604 36.4238 24.5066C41.0657 27.9191 44.5164 32.927 44.7754 38.8337C45.002 43.8612 43.6035 49.5334 40.3794 53.4668C36.7798 57.8626 31.5423 58.351 26.2335 58.071C20.9248 57.791 15.3312 56.7686 10.6504 53.9813C5.374 50.8489 4.57117 44.825 4.94019 39.1007C5.30922 33.3764 7.89886 28.1079 13.1947 25.5355C16.0109 24.1745 13.5508 19.961 10.7475 21.3221L10.7734 21.3026Z" fill="#1F3A1D"/>
<path d="M10.5391 41.9135C13.6596 41.9135 13.6661 37.0293 10.5391 37.0293C7.41209 37.0293 7.40561 41.9135 10.5391 41.9135Z" fill="#1F3A1D"/>
<path d="M22.2969 53.7456C25.4239 53.7456 25.4304 48.8613 22.2969 48.8613C19.1634 48.8613 19.1699 53.7456 22.2969 53.7456Z" fill="#1F3A1D"/>
<path d="M23.1524 39.1186C26.2794 39.1186 26.2858 34.2344 23.1524 34.2344C20.0189 34.2344 20.0254 39.1186 23.1524 39.1186Z" fill="#1F3A1D"/>
<path d="M37.2527 50.8737L37.4987 49.2847C37.6493 48.6482 37.5617 47.9783 37.2527 47.4026C36.9272 46.844 36.3945 46.4382 35.7717 46.2746C35.1489 46.111 34.487 46.2028 33.9315 46.53C33.6575 46.6848 33.4175 46.8938 33.2261 47.1446C33.0347 47.3953 32.8959 47.6825 32.8179 47.9887L32.5719 49.5777C32.4214 50.2142 32.5089 50.8841 32.8179 51.4598C33.1433 52.004 33.6614 52.4042 34.2681 52.5799C34.5808 52.6649 34.9071 52.6868 35.2283 52.6443C35.5494 52.6018 35.859 52.4958 36.1392 52.3324C36.4134 52.1779 36.6535 51.9689 36.845 51.7182C37.0364 51.4674 37.1751 51.1801 37.2527 50.8737Z" fill="#1F3A1D"/>
<path d="M27.8589 27.5014C30.9859 27.5014 30.9859 22.6172 27.8589 22.6172C24.7319 22.6172 24.7319 27.5014 27.8589 27.5014Z" fill="#1F3A1D"/>
<path d="M38.7598 39.7651C41.8868 39.7651 41.8932 34.8809 38.7598 34.8809C35.6263 34.8809 35.6328 39.7651 38.7598 39.7651Z" fill="#1F3A1D"/>
<path d="M33.9692 19.159C34.5777 11.0577 41.1554 6.66194 48.6136 5.19667C52.5921 4.45617 56.6975 4.8575 60.4599 6.35473C64.2222 7.85196 67.4894 10.3846 69.8875 13.6627C74.7431 20.5397 73.8561 28.2502 69.3954 35.0556C66.9094 38.8457 63.7695 42.0302 59.3606 43.3913C55.4761 44.5896 51.2486 44.1988 47.2411 43.9058C44.127 43.6713 44.14 48.5556 47.2411 48.79C52.6599 49.1873 58.1499 49.4022 63.2321 47.1294C68.01 44.9933 71.4801 40.9883 74.1863 36.586C79.4756 27.9702 79.4109 17.8436 73.0339 9.78784C66.6569 1.73212 56.0523 -1.60217 46.2376 0.722718C36.8954 2.94341 29.8581 9.26034 29.1136 19.159C28.8805 22.298 33.7361 22.2784 33.9692 19.159Z" fill="#1F3A1D"/>
<path d="M43.6289 19.6811C46.7559 19.6811 46.7624 14.7969 43.6289 14.7969C40.4955 14.7969 40.5019 19.6811 43.6289 19.6811Z" fill="#1F3A1D"/>
<path d="M65.8672 27.7104C68.9942 27.7104 69.0007 22.8262 65.8672 22.8262C62.7337 22.8262 62.7402 27.7104 65.8672 27.7104Z" fill="#1F3A1D"/>
<path d="M53.5996 28.4252C56.7266 28.4252 56.7331 23.541 53.5996 23.541C50.4662 23.541 50.4726 28.4252 53.5996 28.4252Z" fill="#1F3A1D"/>
<path d="M60.4492 20.8256C63.5762 20.8256 63.5827 15.9414 60.4492 15.9414C57.3158 15.9414 57.3222 20.8256 60.4492 20.8256Z" fill="#1F3A1D"/>
<path d="M64.7281 17.6752C67.855 17.6752 67.855 12.791 64.7281 12.791C61.6011 12.791 61.6011 17.6752 64.7281 17.6752Z" fill="#1F3A1D"/>
<path d="M49.6167 11.3647C52.7437 11.3647 52.7437 6.48047 49.6167 6.48047C46.4897 6.48047 46.4897 11.3647 49.6167 11.3647Z" fill="#1F3A1D"/>
<path d="M49.8496 38.0327C52.9701 38.0327 52.9766 33.1484 49.8496 33.1484C46.7226 33.1484 46.7162 38.0327 49.8496 38.0327Z" fill="#1F3A1D"/>
<path d="M59.3086 40.3315C62.4356 40.3315 62.4421 35.4473 59.3086 35.4473C56.1751 35.4473 56.1816 40.3315 59.3086 40.3315Z" fill="#1F3A1D"/>
</g>
<defs>
<clipPath id="clip0_588_233">
<rect width="78" height="63" fill="white"/>
</clipPath>
</defs>
</svg>
