<svg width="64" height="65" viewBox="0 0 64 65" fill="none" xmlns="http://www.w3.org/2000/svg">
<g clip-path="url(#clip0_588_323)">
<path d="M20.4743 16.2616C12.821 20.9858 8.30903 31.8971 11.1683 40.6407C14.2703 50.1354 25.0386 54.1744 34.2199 53.6143C38.922 53.3244 43.7357 52.0462 47.4475 49.0021C51.3102 45.8525 53.5137 40.667 54.6023 35.8966C56.6287 27.0411 52.5037 18.3041 44.6341 13.8961C35.8201 8.97418 24.0746 10.9509 17.1952 18.2778C15.0245 20.5905 18.5068 24.0892 20.6775 21.7699C26.5142 15.5565 36.6792 14.1465 43.7422 19.1343C51.7496 24.814 51.7692 35.4222 46.3195 43.0391C40.7582 50.8008 26.4355 50.3462 19.6676 44.5677C12.1915 38.183 15.136 25.3411 22.9467 20.5114C25.6355 18.8444 23.1696 14.5814 20.4611 16.2418L20.4743 16.2616Z" fill="#1F3A1D"/>
<path d="M31.7346 21.6587L31.1379 34.7114C30.9936 37.8873 35.9121 37.8807 36.0564 34.7114L36.6531 21.6587C36.804 18.4829 31.8854 18.4894 31.7346 21.6587Z" fill="#1F3A1D"/>
<path d="M33.1649 38.4204L40.8575 41.4909C42.0904 41.9851 43.5528 40.9506 43.8807 39.7646C44.2677 38.3611 43.402 37.2213 42.1625 36.7271L34.4699 33.6303C33.237 33.1361 31.768 34.1706 31.4467 35.3566C31.0598 36.76 31.9254 37.8999 33.1649 38.3941V38.4204Z" fill="#1F3A1D"/>
<path d="M8.39416 18.5151C19.8511 0.863275 45.5062 0.487707 58.1895 16.8942C60.1241 19.398 63.5867 15.8795 61.6652 13.3955C46.9292 -5.66637 17.1557 -4.02572 4.14455 16.031C2.41323 18.7062 6.66939 21.1836 8.39416 18.5283V18.5151Z" fill="#1F3A1D"/>
<path d="M53.7031 18.403C55.7651 18.7539 57.8759 18.6912 59.9136 18.2185C60.5424 18.0438 61.0763 17.6252 61.3979 17.055C61.7195 16.4847 61.8025 15.8094 61.6286 15.1777C61.4546 14.546 61.038 14.0096 60.4704 13.6864C59.9028 13.3633 59.2308 13.2799 58.602 13.4547C57.4251 13.7496 56.2024 13.8122 55.0017 13.6392C53.6901 13.4349 52.3784 13.9752 51.9783 15.3655C51.657 16.5383 52.3784 18.1987 53.6965 18.403H53.7031Z" fill="#1F3A1D"/>
<path d="M59.1987 8.00605L57.7494 14.9772C57.0935 18.0806 61.8547 19.4115 62.4908 16.295L63.9139 9.33043C64.5697 6.22704 59.8086 4.89607 59.1725 8.01264L59.1987 8.00605Z" fill="#1F3A1D"/>
<path d="M3.17976 47.9799C6.5047 59.7741 20.5258 64.4523 31.4712 64.9596C43.761 65.5394 56.6213 59.8795 61.9596 48.2368C63.2712 45.3707 59.0346 42.8537 57.7099 45.7462C53.2439 55.4847 43.0133 60.2419 32.6647 60.0574C23.7589 59.9125 10.7018 56.5192 7.92779 46.6621C7.06212 43.6114 2.32066 44.9094 3.17976 47.9799Z" fill="#1F3A1D"/>
<path d="M1.23315 46.0893C0.457838 49.3275 0.044309 52.6424 0.000234834 55.9727C-0.0391135 59.1552 4.87942 59.1552 4.91877 55.9727C4.9506 53.0868 5.30484 50.2136 5.97469 47.4071C6.70919 44.3168 1.96765 42.999 1.23315 46.0893Z" fill="#1F3A1D"/>
<path d="M2.79441 48.8505C4.92764 49.8091 7.17995 50.474 9.49023 50.8272C10.8018 51.0117 12.1134 50.5109 12.5135 49.1009C12.8283 47.9478 12.12 46.2479 10.7953 46.0634C8.90012 45.8252 7.04519 45.3333 5.27993 44.6007C4.06013 44.0735 2.65671 44.2383 1.91565 45.4902C1.30575 46.5312 1.56805 48.3366 2.79441 48.8703V48.8505Z" fill="#1F3A1D"/>
</g>
<defs>
<clipPath id="clip0_588_323">
<rect width="64" height="65" fill="white"/>
</clipPath>
</defs>
</svg>
