<svg width="64" height="66" viewBox="0 0 64 66" fill="none" xmlns="http://www.w3.org/2000/svg">
<g clip-path="url(#clip0_872_2395)">
<path d="M0.00611038 20.5612C1.03391 34.3629 2.33794 48.1258 3.94388 61.8758C4.20083 64.0771 7.16861 65.4004 8.43409 63.0958C11.0871 58.2672 13.7337 53.4386 16.3867 48.6099C17.8128 46.0084 19.2324 43.4069 20.6714 40.8118C21.423 39.4562 21.8405 38.2103 23.5364 37.6745C24.7055 37.3001 26.4849 37.6551 27.7182 37.6487C38.9984 37.6293 50.2721 37.6164 61.5522 37.597C60.775 36.5771 60.0041 35.5571 59.2268 34.5307C55.713 43.3811 52.6425 52.3928 50.0087 61.553C50.786 60.9591 51.5569 60.3652 52.3341 59.7778C37.1226 60.2361 21.9112 60.7009 6.69968 61.1592C3.60342 61.2496 3.59057 66.0976 6.69968 66.0008C21.9112 65.5424 37.1226 65.0777 52.3341 64.6193C53.4069 64.587 54.3576 63.8899 54.6595 62.8441C57.2933 53.6839 60.3638 44.6721 63.8712 35.8153C64.4622 34.3241 62.9719 32.749 61.5458 32.749C55.1606 32.7619 48.7754 32.7684 42.3966 32.7813C36.0563 32.7942 29.3435 32.1616 23.0482 32.8846C17.7871 33.4849 15.9949 39.3012 13.7594 43.3811C10.5989 49.1393 7.43841 54.8975 4.27792 60.6557C5.77465 61.0624 7.27139 61.4691 8.76813 61.8758C7.16219 48.1258 5.85816 34.3629 4.83036 20.5612C4.59268 17.4691 -0.225145 17.4433 0.00611038 20.5612Z" fill="#1F3A1D"/>
<path d="M14.113 49.1518C15.0958 36.0925 14.6012 22.7686 12.8026 9.79967C12.3786 6.7269 7.73421 8.03735 8.15818 11.0843C9.89902 23.5949 10.2459 36.5508 9.29519 49.1453C9.05751 52.2568 13.8753 52.2439 14.113 49.1518Z" fill="#1F3A1D"/>
<path d="M16.2389 3.79699C16.483 15.3651 16.7271 26.9396 16.9712 38.5077C17.0355 41.6192 21.8533 41.6321 21.7891 38.5077C21.5449 26.9396 21.3008 15.3651 21.0567 3.79699C20.9925 0.685483 16.1747 0.679028 16.2389 3.79699Z" fill="#1F3A1D"/>
<path d="M18.8402 4.84189C29.5679 5.28086 40.302 5.64881 51.0297 6.07487C51.7556 6.10715 52.4879 6.13297 53.2138 6.16524C52.9247 5.71982 52.6357 5.28085 52.3466 4.83543C52.398 4.84189 52.398 9.31548 52.4108 9.71571C52.4815 12.3947 52.6036 15.0672 52.6999 17.7462C52.8926 23.1817 52.8798 28.5848 52.3466 34.0009C52.0447 37.0995 56.8625 37.0802 57.1644 34.0009C57.7747 27.8296 57.6655 21.6776 57.4278 15.4933C57.3058 12.356 57.203 9.2251 57.1644 6.08778C57.1387 4.09952 57.0103 2.35656 54.8647 1.60773C52.5586 0.807263 49.5201 1.17522 47.0984 1.08485C43.9957 0.962193 40.893 0.845996 37.7903 0.729798C31.4758 0.497404 25.1548 0.258554 18.8402 0.00033829C15.7375 -0.122314 15.744 4.71924 18.8402 4.84189Z" fill="#1F3A1D"/>
<path d="M10.7534 11.3174C13.0916 11.1883 15.4299 11.0592 17.7746 10.9301C20.858 10.7623 20.8772 5.91428 17.7746 6.08857C15.4363 6.21768 13.0981 6.34679 10.7534 6.4759C7.66997 6.64374 7.6507 11.4853 10.7534 11.3174Z" fill="#1F3A1D"/>
<path d="M2.41504 22.9816C5.02309 22.8266 7.61829 22.562 10.2199 22.407C13.3033 22.2263 13.3226 17.3847 10.2199 17.5655C7.61187 17.7204 5.01667 17.9851 2.41504 18.14C-0.661944 18.3143 -0.687639 23.1623 2.41504 22.9816Z" fill="#1F3A1D"/>
<path d="M28.8113 12.7503C31.4386 13.0408 34.0723 13.1311 36.7125 13.0279C39.8023 12.9052 39.8152 8.0572 36.7125 8.1863C34.0659 8.29604 31.4386 8.19921 28.8113 7.90872C27.5137 7.7667 26.4023 9.12234 26.4023 10.3295C26.4023 11.7626 27.5137 12.6083 28.8113 12.7503Z" fill="#1F3A1D"/>
<path d="M27.0558 19.5732C33.6787 20.1542 40.308 20.5609 46.9566 20.8062C50.0593 20.9224 50.0529 16.0744 46.9566 15.9647C40.3144 15.7194 33.6787 15.3127 27.0558 14.7317C23.9724 14.4605 23.9852 19.3021 27.0558 19.5732Z" fill="#1F3A1D"/>
<path d="M27.6415 28.3848C34.7654 28.4946 41.8894 28.6043 49.0133 28.7141C52.116 28.7592 52.116 23.9177 49.0133 23.8725C41.8894 23.7628 34.7654 23.653 27.6415 23.5433C24.5388 23.4981 24.5388 28.3396 27.6415 28.3848Z" fill="#1F3A1D"/>
</g>
<defs>
<clipPath id="clip0_872_2395">
<rect width="64" height="66" fill="white"/>
</clipPath>
</defs>
</svg>
