<svg width="42" height="33" viewBox="0 0 42 33" fill="none" xmlns="http://www.w3.org/2000/svg">
<g clip-path="url(#clip0_546_275)">
<path d="M0.109896 8.43246C1.00448 16.1263 1.72472 23.8356 2.31226 31.5603C2.31907 31.9422 2.471 32.3066 2.73612 32.5768C3.00124 32.8469 3.35887 33.0017 3.73374 33.0087C12.9677 33.0087 22.1902 32.437 31.4052 32.2709C32.7926 32.2439 34.8168 32.6572 35.844 31.4483C36.9471 30.1776 36.6931 27.5087 36.8637 25.9444C37.3691 21.186 37.8859 16.4224 38.4141 11.6537C38.4152 11.3363 38.3137 11.0274 38.1253 10.7747C37.9369 10.522 37.672 10.3395 37.3716 10.2555C33.8759 9.57351 30.3133 9.31423 26.7579 9.48301C24.802 9.56026 22.8612 9.78428 20.9128 9.91946C18.8317 10.0662 18.7294 9.03499 17.9144 7.4437C16.7279 5.12628 14.5863 4.31131 12.1224 4.15296C8.56678 3.92894 4.98087 3.99074 1.42148 3.86328C1.0457 3.8673 0.686435 4.02119 0.420706 4.29195C0.154978 4.56271 0.00394548 4.92878 0 5.31167C0 6.63259 0.0416671 7.95739 0.0644108 9.27832C0.0947357 11.14 2.9377 11.1477 2.90737 9.27832C2.88463 7.95739 2.86191 6.63259 2.84296 5.31167L1.42148 6.76005C4.89747 6.88365 8.39618 6.82186 11.8646 7.03429C13.324 7.12698 14.5559 7.33169 15.3557 8.67966C15.9546 9.68773 16.1139 10.8542 16.9667 11.7271C18.9492 13.805 22.8157 12.6038 25.3061 12.4532C29.0965 12.1618 32.9079 12.3656 36.6476 13.0596L35.6014 11.6653C35.1617 15.6667 34.7258 19.6706 34.2937 23.6772C34.1837 24.6853 34.0776 25.6933 33.9677 26.7053C33.9146 27.2035 33.8122 27.7211 33.8047 28.2232C33.8047 28.2232 33.8919 29.5209 34.0056 29.3394C33.854 29.5789 31.428 29.3742 31.0679 29.3819C29.961 29.3999 28.8567 29.4257 27.7549 29.4591C19.7529 29.687 11.7547 30.1119 3.74513 30.1119L5.16661 31.5603C4.57906 23.8356 3.85882 16.1108 2.96424 8.43246C2.75196 6.60556 -0.0909951 6.58239 0.121279 8.43246H0.109896Z" fill="#143B19"/>
<path d="M5.67005 4.75905C5.60182 4.04065 5.24548 2.82787 5.45776 2.12106L4.80578 2.99009C5.48051 2.60385 8.13393 3.07507 8.92238 3.09824L13.7554 3.20638C15.2451 3.23341 16.7349 3.29909 18.2246 3.29909C19.2556 3.29909 19.267 3.14459 19.7673 3.89775C20.2677 4.65091 20.4989 5.77486 20.7605 6.62845C20.8473 6.93191 21.0276 7.19892 21.2746 7.39014C21.5217 7.58137 21.8224 7.68669 22.1327 7.69059C28.1749 7.48589 34.2399 7.25801 40.1836 8.58666L39.1374 7.18849C39.2625 13.9747 38.6711 20.7067 37.9395 27.4504L39.361 26.002C38.1897 26.0986 37.0184 26.087 35.8509 26.1836C34.039 26.3303 34.0238 29.231 35.8509 29.0803C37.0184 28.9838 38.1897 28.9954 39.361 28.8988C39.7341 28.8863 40.0886 28.7297 40.3525 28.4607C40.6165 28.1917 40.7702 27.8306 40.7825 27.4504C41.5141 20.7145 42.1054 13.9747 41.9804 7.18849C41.9775 6.87259 41.8745 6.56608 41.6866 6.31477C41.4987 6.06347 41.2361 5.88084 40.9379 5.79416C34.7365 4.40371 28.4289 4.57753 22.1327 4.79382L23.5049 5.85984C23.0197 4.28786 22.4018 1.29453 20.6998 0.622482C19.521 0.155136 17.9782 0.394593 16.7348 0.371419L12.2695 0.278726C10.7836 0.247827 9.29641 0.211767 7.80796 0.170569C6.64804 0.135807 5.15453 -0.184768 4.01735 0.147395C1.96663 0.742199 2.66029 3.19094 2.80812 4.75905C2.98628 6.59754 5.84061 6.61299 5.65108 4.75905H5.67005Z" fill="#143B19"/>
<path d="M19.7829 3.4102C26.4051 3.71146 33.0501 3.84278 39.642 4.39123L38.2698 2.55661C37.9741 4.05907 37.6784 5.55768 37.3714 7.06013C36.9923 8.87544 39.7367 9.65564 40.112 7.83261C40.4191 6.33401 40.7147 4.83154 41.0104 3.32908C41.0634 3.11468 41.0683 2.89088 41.0248 2.67427C40.9812 2.45766 40.8904 2.25382 40.7589 2.07792C40.6274 1.90202 40.4587 1.75857 40.2654 1.65823C40.072 1.55789 39.8589 1.50323 39.642 1.49833C33.0349 0.949873 26.4051 0.818561 19.7829 0.517297C17.9559 0.436187 17.9597 3.33296 19.7829 3.41407V3.4102Z" fill="#143B19"/>
<path d="M7.60753 27.4158C10.4505 27.3463 13.2935 27.3347 16.144 27.4969C17.9711 27.6051 17.9635 24.7083 16.144 24.6002C13.3048 24.4379 10.4581 24.4495 7.60753 24.5191C5.78045 24.5616 5.77287 27.4583 7.60753 27.4158Z" fill="#143B19"/>
<path d="M7.71743 24.221H14.6656C16.4965 24.221 16.5003 21.3242 14.6656 21.3242H7.71743C5.89036 21.3242 5.88657 24.2249 7.71743 24.221Z" fill="#143B19"/>
</g>
<defs>
<clipPath id="clip0_546_275">
<rect width="42" height="33" fill="white"/>
</clipPath>
</defs>
</svg>
