<svg width="58" height="53" viewBox="0 0 58 53" fill="none" xmlns="http://www.w3.org/2000/svg">
<g clip-path="url(#clip0_872_2049)">
<path d="M10.7621 1.64829C2.50244 11.4669 -3.23983 24.6742 2.02912 37.2856C7.28766 49.8711 21.9346 53.1301 34.4334 52.3167C40.6646 51.9125 46.8386 49.8296 51.0048 44.9851C54.8382 40.5291 56.7887 34.6224 56.7679 28.783C56.7263 17.1353 48.9139 6.11979 38.1003 1.8659C25.6483 -3.03565 10.9026 2.11461 3.43868 12.9229C2.01351 14.9903 5.38917 16.9333 6.80914 14.8866C12.4318 6.75191 23.0893 2.35813 32.847 4.34777C42.6307 6.34259 50.339 14.5965 52.3884 24.2234C54.7186 35.1664 48.6382 46.125 37.2785 48.1042C31.7183 49.0732 25.5963 48.4255 20.1297 47.1716C14.6891 45.9229 9.86232 43.3219 6.94437 38.4307C0.135835 27.0213 5.71686 13.669 13.5188 4.39958C15.1209 2.49285 12.3746 -0.268811 10.7621 1.64829Z" fill="#1F3A1D"/>
<path d="M27.0161 3.10352C26.5948 19.0621 26.1683 35.0206 25.747 50.9792C25.6793 53.4818 29.5803 53.4766 29.648 50.9792C30.0693 35.0206 30.4958 19.0621 30.9171 3.10352C30.9795 0.600926 27.0785 0.606107 27.0161 3.10352Z" fill="#1F3A1D"/>
<path d="M26.1056 0.829297C10.7877 13.9122 13.4248 35.9951 22.5635 51.7827C23.817 53.9485 27.1875 51.9951 25.934 49.8189C17.6222 35.4614 14.8759 15.5288 28.8675 3.58059C30.7764 1.94847 28.0041 -0.787283 26.1056 0.829297Z" fill="#1F3A1D"/>
<path d="M29.1846 3.8668C39.7121 17.6958 40.2062 37.6803 26.6203 49.7373C24.7427 51.4057 27.5098 54.1466 29.377 52.4834C44.154 39.3694 44.0812 17.0533 32.5499 1.90307C31.0571 -0.0606568 27.6658 1.87199 29.1846 3.8668Z" fill="#1F3A1D"/>
<path d="M2.93497 30.7525C20.6611 30.1203 38.4028 30.2343 56.1185 31.0996C58.6256 31.224 58.6204 27.338 56.1185 27.2136C38.4028 26.3535 20.6611 26.2343 2.93497 26.8665C0.433131 26.9545 0.422728 30.8406 2.93497 30.7525Z" fill="#1F3A1D"/>
<path d="M12.8264 45.8927C22.9118 39.6803 36.0763 38.815 45.7352 46.4005C47.6857 47.9342 50.4632 45.1984 48.4919 43.6544C37.4391 34.9705 22.5841 35.3176 10.8551 42.5404C8.72774 43.8513 10.6834 47.214 12.8264 45.8927Z" fill="#1F3A1D"/>
<path d="M8.79601 9.09447C19.7708 18.6696 35.5932 18.9805 47.0154 10.0012C48.9867 8.45199 46.2092 5.72142 44.2587 7.25509C34.5842 14.8561 20.7955 14.4054 11.5579 6.34836C9.67503 4.70587 6.90272 7.44162 8.79601 9.09447Z" fill="#1F3A1D"/>
</g>
<defs>
<clipPath id="clip0_872_2049">
<rect width="58" height="53" fill="white"/>
</clipPath>
</defs>
</svg>
