<svg width="66" height="57" viewBox="0 0 66 57" fill="none" xmlns="http://www.w3.org/2000/svg">
<g clip-path="url(#clip0_872_1965)">
<path d="M6.15559 16.5526C5.50082 27.7091 4.83951 38.8722 4.18475 50.0288C3.94904 54.0774 4.4532 57.0065 9.15439 57C14.6151 56.9935 20.1609 56.3165 25.6086 55.9781C28.352 55.8088 31.0955 55.6396 33.8389 55.4704C35.777 55.3532 37.9312 55.4313 39.5419 54.1946C42.6586 51.8057 41.899 45.4724 42.1871 42.0486C42.6717 36.3272 43.1562 30.6057 43.6407 24.8777C43.9681 21.0243 44.302 17.3792 39.5288 16.8325C33.6032 16.1555 27.2717 16.6242 21.3264 16.7283C15.0014 16.839 8.67642 17.0928 2.36451 17.4769C-0.778343 17.6656 -0.797985 22.5474 2.36451 22.3587C13.3121 21.6947 24.2859 21.4279 35.2532 21.6036C35.5282 21.6101 38.9264 21.4865 39.0508 21.6817C39.1621 21.851 38.8282 23.7972 38.7955 24.2463C38.5467 27.2144 38.2913 30.1826 38.0425 33.1507C37.8264 35.6958 37.6103 38.2408 37.3943 40.7794C37.1847 43.2528 37.499 46.7352 36.6937 49.0459C35.9014 51.3176 31.5996 50.7252 29.4127 50.8619C26.8788 51.0181 24.3514 51.1744 21.8175 51.3306C19.074 51.4998 16.3306 51.6691 13.5871 51.8383C12.6377 51.8969 9.9532 52.5478 9.15439 52.1117C9.08237 52.2744 9.0169 52.4371 8.94487 52.5998C8.99725 51.7407 9.04309 50.8815 9.09547 50.0223C9.75023 38.8657 10.4115 27.7026 11.0663 16.5461C11.2496 13.4152 6.33892 13.4217 6.15559 16.5526Z" fill="#1F3A1D"/>
<path d="M17.5746 35.573C19.6633 37.9944 21.752 40.4157 23.8407 42.8436C25.0782 44.2756 26.4205 46.313 28.5812 46.3065C31.1675 46.2999 32.7978 43.3904 34.2187 41.6785C36.2681 39.2181 38.324 36.7576 40.3734 34.2972C48.7151 24.2862 57.0568 14.2818 65.3984 4.27734C67.402 1.87549 63.9449 -1.59385 61.9282 0.827531C54.8109 9.35442 47.7002 17.8813 40.5961 26.4147C37.0407 30.6782 33.4853 34.9481 29.93 39.2116C29.3211 39.9406 27.7562 40.8584 28.8824 41.2099C28.3717 41.0471 26.8919 38.8991 26.5318 38.4825C24.705 36.3606 22.8782 34.2451 21.0514 32.1232C18.9889 29.7343 15.5318 33.1972 17.5746 35.573Z" fill="#1F3A1D"/>
</g>
<defs>
<clipPath id="clip0_872_1965">
<rect width="66" height="57" fill="white"/>
</clipPath>
</defs>
</svg>
