<svg width="36" height="43" viewBox="0 0 36 43" fill="none" xmlns="http://www.w3.org/2000/svg">
<g clip-path="url(#clip0_546_252)">
<path d="M2.74531 12.5537C5.47632 11.2306 8.1169 9.73188 10.6501 8.0672C11.7628 7.34567 12.8599 6.60496 13.9609 5.86424C14.7363 5.34229 15.5116 4.8165 16.287 4.29838C16.7755 3.97216 17.6128 3.147 18.1517 3.07024C19.3148 2.92824 20.9353 4.37897 21.8967 4.9393C23.0869 5.63397 24.2771 6.3248 25.4518 7.04633C28.2129 8.71574 30.7964 10.6574 33.1627 12.8416C34.5235 14.1119 36.5821 12.074 35.2174 10.8075C32.6709 8.45545 29.8914 6.36345 26.9211 4.5632C25.475 3.6728 23.998 2.82846 22.5325 1.9726C21.4664 1.34702 20.1406 0.161097 18.8767 0.0190944C17.326 -0.153612 16.0195 1.01696 14.8216 1.81141C13.298 2.82462 11.7899 3.85701 10.2624 4.88174C7.39115 6.82167 4.3857 8.5594 1.26827 10.0821C-0.414263 10.8842 1.05894 13.3674 2.73759 12.5691L2.74531 12.5537Z" fill="#143B19"/>
<path d="M0.000552341 11.925C0.159501 18.0426 0.527802 24.2063 3.78432 29.6063C7.11061 35.1098 12.5071 38.5102 17.3183 42.5976C17.5967 42.8575 17.9648 43.0022 18.3475 43.0022C18.7302 43.0022 19.0984 42.8575 19.3768 42.5976C28.3361 34.4996 36.5201 24.237 35.9773 11.6218C35.8998 9.77575 32.9922 9.76807 33.0697 11.6218C33.5776 23.4771 25.7038 32.9721 17.3183 40.5597H19.3768C14.9262 36.7832 9.76621 33.6169 6.58336 28.6199C3.36173 23.5577 3.05935 17.7433 2.90816 11.925C2.86163 10.0751 -0.0459693 10.0674 0.000552341 11.925Z" fill="#143B19"/>
<path d="M11.9794 25.6302C13.3518 26.8007 14.8521 27.7948 16.2439 28.9308C16.5208 29.1922 16.8887 29.338 17.2713 29.338C17.6539 29.338 18.0217 29.1922 18.2986 28.9308C22.1754 25.1351 24.9435 20.4068 29.0451 16.7761C30.4447 15.5403 28.3822 13.51 26.9904 14.742C22.8887 18.3688 20.1207 23.0972 16.2439 26.8967H18.2986C16.9029 25.7453 15.3987 24.7667 14.0341 23.5961C12.6695 22.4255 10.545 24.4212 11.9756 25.6302H11.9794Z" fill="#143B19"/>
</g>
<defs>
<clipPath id="clip0_546_252">
<rect width="36" height="43" fill="white"/>
</clipPath>
</defs>
</svg>
