<svg width="78" height="74" viewBox="0 0 78 74" fill="none" xmlns="http://www.w3.org/2000/svg">
<g clip-path="url(#clip0_872_1988)">
<path d="M33.7158 3.69925C32.4838 6.79776 31.3159 10.0523 29.354 12.7924C27.7015 15.1048 25.2899 16.8795 24.449 19.6947C23.725 22.1169 23.8476 25.0593 24.741 27.4236C25.1614 28.5393 25.7628 29.551 26.738 30.2736C27.6898 30.9731 28.7992 30.736 29.6517 31.2737C29.2897 30.6493 28.9277 30.025 28.5657 29.4007C28.4839 31.9442 30.7028 32.424 32.8108 32.5628C36.2092 32.7824 39.8645 33.0368 43.1929 32.1581C48.3605 30.7996 52.5881 25.9611 53.5691 20.8046C54.4859 15.995 52.9501 10.3529 49.9313 6.5145C46.2526 1.83783 39.8645 0.623865 34.2414 0.0168807C31.4444 -0.283721 31.4677 4.05188 34.2414 4.35248C37.996 4.75714 42.387 5.46239 45.3709 7.97704C48.0043 10.1969 49.2773 14.1741 49.435 17.4865C49.6043 21.111 47.8992 24.2905 45.0322 26.4872C43.1403 27.9381 41.0265 28.3197 38.6791 28.3833C37.6339 28.4122 36.5887 28.3833 35.5493 28.3486C35.0472 28.3312 32.5422 28.5509 32.3027 28.3312C32.5188 28.8399 32.729 29.3544 32.9451 29.8631C33.0268 27.441 31.0765 27.5624 29.57 26.412C27.0533 24.487 28.6416 20.3306 30.3291 18.3651C33.8793 14.2319 35.9464 9.87892 37.9434 4.84963C38.9769 2.25405 34.7435 1.13257 33.7158 3.69925Z" fill="#1F3A1D"/>
<path d="M37.3123 18.0641C40.1326 18.0641 40.1326 13.7285 37.3123 13.7285C34.4978 13.7285 34.4919 18.0641 37.3123 18.0641Z" fill="#1F3A1D"/>
<path d="M40.4827 18.9958C43.303 18.9958 43.303 14.6602 40.4827 14.6602C37.6623 14.6602 37.6565 18.9958 40.4827 18.9958Z" fill="#1F3A1D"/>
<path d="M30.2877 22.4637C34.1824 25.2385 39.0173 26.6258 43.42 24.1574C45.8725 22.7816 43.6653 19.0357 41.207 20.4115C38.2056 22.0995 35.0349 20.5271 32.4949 18.7177C30.2059 17.0875 28.0162 20.845 30.2877 22.4637Z" fill="#1F3A1D"/>
<path d="M19.8296 71.4496C19.9989 65.9058 19.9581 59.8071 16.4779 55.1478C14.6386 52.6909 11.6723 51.3498 9.8913 48.8814C7.78919 45.9679 7.18775 41.4242 6.39362 38.0077C5.55861 34.4236 4.66521 30.6776 4.39077 27.0011C4.22727 24.7986 4.81703 26.2496 5.62284 27.4809C6.44033 28.7295 7.22278 30.0013 8.01107 31.2673C11.1058 36.2619 14.3057 41.0484 19.1698 44.5227C20.5945 45.5401 22.4047 44.1527 22.4631 42.6497C22.4981 41.7883 22.5273 40.9328 22.5624 40.0714C22.6032 39.0829 22.1828 38.2736 23.5725 38.6262C24.7053 38.9095 25.6863 40.9212 26.1535 41.823C27.7009 44.829 28.7344 48.1935 29.6103 51.4423C31.4087 58.1307 32.0452 64.9982 31.689 71.9063C31.543 74.6926 35.9224 74.6869 36.0684 71.9063C36.6115 61.4546 34.8597 50.9047 30.6847 41.2623C29.3183 38.1118 27.0877 34.4409 23.2572 34.071C17.9202 33.5565 18.2297 38.869 18.0837 42.6439C19.1815 42.0196 20.2792 41.3952 21.377 40.7709C15.275 36.4064 12.4372 29.3134 8.15122 23.4459C6.70309 21.4573 4.35574 19.8676 1.95583 21.4631C-0.420727 23.0412 -0.117089 26.3247 0.221585 28.7411C0.846379 33.1576 1.71058 37.5337 2.82587 41.8577C3.74262 45.4013 4.53091 49.3959 7.00673 52.2285C9.43584 55.009 12.7992 56.4773 14.259 60.0557C15.7188 63.6282 15.5612 67.6632 15.4444 71.4438C15.3626 74.2417 19.742 74.236 19.8296 71.4496Z" fill="#1F3A1D"/>
<path d="M62.5483 71.4506C62.4374 67.8549 62.2856 64.0338 63.5235 60.5942C64.9249 56.698 68.4051 55.1776 70.9918 52.2294C73.4735 49.4026 74.2618 45.4023 75.1668 41.8702C76.2763 37.552 77.1405 33.1701 77.7711 28.7536C78.1215 26.3141 78.4018 23.0884 76.0369 21.4756C73.6487 19.8512 71.2838 21.4929 69.8415 23.4584C65.5438 29.3201 62.7235 36.4189 56.6157 40.7834C57.7135 41.4077 58.8113 42.0321 59.909 42.6564C59.763 38.87 60.0784 33.569 54.7355 34.0835C50.905 34.4534 48.6686 38.1243 47.308 41.2748C43.133 50.9114 41.3812 61.4613 41.9243 71.9188C42.0703 74.6936 46.4497 74.7109 46.3037 71.9188C45.9475 65.0107 46.584 58.1432 48.3824 51.4548C49.2233 48.3331 50.2218 45.1248 51.6466 42.2055C52.1429 41.1881 53.1823 38.9451 54.4143 38.6387C55.588 38.3497 55.2026 38.7081 55.407 39.5695C55.6172 40.4539 55.4946 41.7546 55.5296 42.6622C55.588 44.1594 57.3982 45.5526 58.8229 44.5352C63.5527 41.1534 66.7234 36.523 69.7422 31.6613C70.5305 30.3953 71.3071 29.1178 72.1246 27.8691C72.545 27.2274 73.491 24.6608 73.6662 26.4181C73.8355 28.1639 73.1465 30.2913 72.837 32.0197C72.475 34.0314 72.0662 36.0316 71.5991 38.026C70.8283 41.3499 70.2269 45.5757 68.3525 48.495C66.6766 51.1021 63.5994 52.5069 61.6841 54.9464C58.0288 59.6057 57.9879 65.8432 58.1631 71.4679C58.2565 74.2369 62.6359 74.2485 62.5483 71.4506Z" fill="#1F3A1D"/>
</g>
<defs>
<clipPath id="clip0_872_1988">
<rect width="78" height="74" fill="white"/>
</clipPath>
</defs>
</svg>
