<svg width="102" height="54" viewBox="0 0 102 54" fill="none" xmlns="http://www.w3.org/2000/svg">
<g clip-path="url(#clip0_144_1460)">
<path d="M8.9564 15.2695C10.2607 10.3326 13.7607 7.12145 18.6521 5.89815C21.3477 5.22097 23.8912 5.33019 26.5868 5.81077C28.6086 6.16029 30.4347 6.24767 32.3042 5.2865C34.2825 4.2598 36.2825 2.27194 38.1086 4.78407C39.5434 6.75009 38.6521 9.74281 39.0216 12.0365C39.739 16.602 43.5868 19.4855 45.0216 23.7234C46.5868 28.3981 44.4999 34.0559 42.7825 38.4249C41.8912 40.6967 40.826 43.0559 39.0434 44.7816C37.2607 46.5074 34.739 47.4248 32.3912 48.4079C30.5434 49.1943 28.6955 50.0899 26.6955 50.3957C23.8912 50.8545 21.2173 49.8933 18.6086 49.0195C16.3477 48.2549 14.1086 47.5559 11.7173 47.5122C8.99988 47.4467 6.26075 47.8836 4.43466 45.3496C2.80422 43.0996 3.52162 39.8884 3.63031 37.2889C3.73901 34.1214 3.89118 30.954 4.23901 27.7865C4.89118 21.7574 5.93466 15.7064 8.06509 10.0049C8.8477 7.9297 5.52162 7.03407 4.76075 9.08747C2.43466 15.204 1.41292 21.7355 0.739006 28.2452C0.39118 31.5219 0.304224 34.7986 0.15205 38.0972C0.0216149 40.8933 -0.34795 43.7549 0.999876 46.3326C4.15205 52.3399 10.6738 50.1336 15.9781 51.7501C18.6738 52.5802 21.2825 53.6724 24.1303 53.8909C26.9781 54.1093 29.6303 53.2355 32.2607 52.1433C37.4564 49.9588 41.9347 48.0147 44.6086 42.7064C47.1303 37.704 49.4129 31.2816 48.8912 25.602C48.6521 23.0244 47.6086 20.7088 46.2173 18.5681C44.5216 15.9685 42.4347 13.6312 42.2825 10.3545C42.1738 7.79864 42.5651 5.37388 41.1521 3.08019C39.9999 1.26708 37.9347 -0.0872853 35.7173 9.32924e-05C34.4999 0.0437826 33.3912 0.589899 32.3694 1.20155C30.6521 2.18456 29.5651 2.81805 27.4999 2.46854C24.0434 1.87873 20.7607 1.70398 17.326 2.66514C11.4781 4.30349 7.21727 8.43213 5.63031 14.352C5.06509 16.4928 8.36944 17.4103 8.93466 15.2695H8.9564Z" fill="#143B19"/>
<path d="M54.5868 11.5999C54.7389 9.32808 55.5215 4.58779 58.4346 4.21643C60.7607 3.91061 63.5433 5.59265 65.8476 5.89847C68.152 6.2043 70.2824 5.72372 72.5215 5.5708C74.7607 5.41789 77.152 5.65818 79.3694 6.35721C84.1737 7.84265 87.2607 11.3815 89.6085 15.6849C91.9563 19.9883 94.5215 24.4883 96.7607 28.9664C97.9346 31.3038 99.0215 33.7504 98.4563 36.4155C97.8259 39.4082 95.6737 41.1339 92.8476 41.964C90.0215 42.7941 87.5215 42.1825 84.8259 42.6194C82.9781 42.9252 81.5868 43.93 80.3476 45.3062C79.0215 46.7698 77.9563 48.2553 76.1085 49.1509C73.8259 50.265 71.1955 50.5271 68.6955 50.549C67.565 50.549 66.4129 50.549 65.2824 50.4397C63.4563 50.265 62.6737 49.1291 61.7824 47.6655C60.2607 45.1752 58.8259 42.5975 57.7389 39.8888C56.652 37.18 55.8911 34.0781 55.8694 31.0198C55.8476 27.9616 56.8694 25.0562 56.6085 22.1727C56.2607 18.3936 51.4129 16.1218 51.6737 12.4519C51.8259 10.2456 48.3911 10.2456 48.2389 12.4519C48.0868 14.4834 49.0215 16.1655 50.1955 17.7383C50.7824 18.5247 51.4563 19.2674 52.0215 20.0757C53.1737 21.6922 53.1955 22.7189 52.9346 24.6849C52.0868 31.1509 52.5868 36.8305 55.2607 42.8378C56.5868 45.7868 58.152 48.9325 60.1737 51.4664C61.8911 53.6072 64.1737 53.8475 66.7607 53.9349C71.8476 54.1315 77.5215 53.4761 81.1737 49.5441C81.9998 48.6485 82.6955 47.5126 83.6737 46.7698C85.0215 45.7431 86.3259 45.9834 87.8911 46.0053C90.9998 46.049 94.3042 45.5247 97.0215 43.93C101.826 41.0902 102.978 35.1266 101.022 30.1679C98.8259 24.5538 95.3911 19.2237 92.5215 13.9373C89.7824 8.93488 86.065 4.95915 80.565 3.1242C77.9781 2.27226 75.1737 1.94459 72.4563 2.11935C70.8042 2.22857 69.1737 2.59993 67.5215 2.57809C65.5215 2.57809 63.652 1.81352 61.7389 1.31109C58.8694 0.568376 56.065 0.284396 54.0868 2.81838C52.1085 5.35236 51.2824 8.4543 51.0868 11.5781C50.9563 13.8062 54.3911 13.7844 54.5215 11.5781L54.5868 11.5999Z" fill="#143B19"/>
<path d="M60.6308 16.5582C60.7395 16.3616 60.8482 16.1868 60.9786 16.012C60.8047 16.2523 61.0221 15.9684 61.0439 15.9247C61.1091 15.8373 61.1743 15.7718 61.2612 15.7062C61.3917 15.5533 61.5656 15.4222 61.696 15.2912C61.8699 15.1164 61.3917 15.4878 61.7612 15.2475C61.8482 15.1819 61.9352 15.1383 62.0004 15.0727C62.1743 14.9635 62.3482 14.8761 62.5221 14.7887C62.6091 14.7451 62.696 14.7014 62.783 14.6577C62.4569 14.7887 62.783 14.6577 62.8482 14.6577C63.0439 14.5921 63.2178 14.5484 63.4134 14.4829C63.5221 14.4611 64.1308 14.3518 63.7612 14.3955C63.8699 14.3955 63.9569 14.3955 64.0656 14.3737C64.0656 14.3737 64.7612 14.3082 64.4134 14.33C64.6525 14.33 64.8699 14.3082 65.1091 14.33C65.1526 14.33 65.5873 14.3737 65.4134 14.3518C65.2612 14.33 65.5873 14.3955 65.6091 14.3955C65.8482 14.4392 66.0656 14.5048 66.283 14.5921C66.4134 14.6358 66.5656 14.6795 66.696 14.7451C66.5221 14.6795 66.696 14.7451 66.783 14.7887C67.0004 14.898 67.196 14.9853 67.4134 15.0946C67.8482 15.3349 68.283 15.6188 68.696 15.9028C69.4352 16.4271 70.6308 16.0557 71.0439 15.2912C71.5004 14.3955 71.2178 13.4781 70.4352 12.9319C69.4134 12.2111 68.3047 11.6213 67.1091 11.2499C66.4569 11.0533 65.783 10.9222 65.0873 10.9004C64.8047 10.9004 64.5004 10.9004 64.2178 10.9441L63.7612 11.0096C63.9134 10.9878 63.9352 10.9878 63.8265 11.0096C63.6091 11.0096 63.3699 11.0751 63.1525 11.097C60.8482 11.4465 58.8482 12.8883 57.6526 14.898C57.196 15.6844 57.4569 16.8203 58.2612 17.2572C59.0656 17.6941 60.1308 17.4756 60.6091 16.6455L60.6308 16.5582Z" fill="#143B19"/>
<path d="M75.304 14.3958C75.891 13.5438 76.4344 12.67 77.0649 11.8399C76.9562 11.9929 77.0431 11.8618 77.1084 11.7963C77.1953 11.687 77.2823 11.5997 77.3692 11.4904C77.5214 11.3157 77.6953 11.1409 77.8475 10.9662C77.9997 10.7914 78.1953 10.6166 78.3692 10.4637C78.4562 10.3982 78.5214 10.3327 78.6083 10.2453C78.8257 10.0705 78.2823 10.4637 78.717 10.1798C79.1083 9.91762 79.4996 9.69917 79.9127 9.50257C80.0866 9.43703 79.7388 9.54626 80.0214 9.45888C80.1301 9.41519 80.2388 9.39335 80.3257 9.34966C80.5649 9.28412 80.804 9.24043 81.0431 9.1749C81.217 9.13121 80.8475 9.1749 81.1518 9.1749C81.2605 9.1749 81.3692 9.1749 81.4779 9.15305C81.717 9.15305 81.9779 9.15305 82.217 9.15305C82.4779 9.15305 81.8692 9.06568 82.3257 9.15305C82.4344 9.15305 82.5431 9.19674 82.6518 9.21859C82.9127 9.28412 83.1736 9.3715 83.4344 9.48072C84.2605 9.83024 85.3692 9.10936 85.5431 8.27927C85.7605 7.27441 85.2388 6.53169 84.3475 6.16034C81.9997 5.17733 79.1736 5.72344 77.0866 7.09966C74.9997 8.47587 73.717 10.6166 72.304 12.6482C71.7823 13.3909 72.1518 14.5924 72.9127 15.0074C73.804 15.4662 74.717 15.1822 75.2605 14.3958H75.304Z" fill="#143B19"/>
<path d="M62.826 18.1317H62.8478L62.4347 18.2846C62.4347 18.2846 62.5869 18.2409 62.6738 18.219C62.8912 18.1535 63.0869 18.0661 63.3043 17.9787C63.4999 17.8695 63.6738 17.7166 63.7825 17.5418C63.9347 17.3671 64.0434 17.1705 64.0869 16.952C64.1521 16.7118 64.1738 16.4933 64.1086 16.253C64.1086 16.0127 64.0217 15.8161 63.913 15.6195L63.6521 15.27C63.4347 15.0516 63.1956 14.8986 62.8912 14.8331L62.4347 14.7676C62.1304 14.7676 61.826 14.855 61.5652 15.0079L61.9782 14.8331C61.9782 14.8331 61.826 14.8768 61.7391 14.8986C61.5217 14.9642 61.3043 15.0516 61.0869 15.1608C60.8912 15.27 60.7173 15.4229 60.6086 15.5977C60.4565 15.7724 60.3478 15.969 60.3043 16.1875C60.2391 16.4278 60.2173 16.6462 60.2825 16.8865C60.2825 17.1268 60.3695 17.3234 60.4782 17.52L60.7391 17.8695C60.9565 18.088 61.1956 18.2409 61.4999 18.3064L61.9565 18.3719C62.2608 18.3719 62.5652 18.2846 62.826 18.1317Z" fill="#143B19"/>
<path d="M77.0213 11.1184H76.9779C76.8474 11.2276 76.7387 11.3368 76.6083 11.4242H76.5866C76.5866 11.4242 76.5213 11.4897 76.4996 11.5334C76.4344 11.599 76.3692 11.6645 76.3257 11.73L79.0213 13.8271H79.0431L78.7822 14.1548C78.8692 14.0237 78.9996 13.9363 79.1083 13.8271C79.1735 13.7834 79.217 13.7397 79.2605 13.6961C79.2822 13.6742 79.3257 13.6305 79.3474 13.6087C79.4779 13.4558 79.5866 13.3028 79.6953 13.1718C79.8257 12.9752 79.8909 12.7567 79.8909 12.5383C79.9344 12.298 79.9344 12.0795 79.8692 11.8393C79.8257 11.6208 79.717 11.4242 79.5648 11.2495C79.4344 11.0528 79.2822 10.9218 79.0866 10.8126L78.6735 10.6378C78.3692 10.5504 78.0648 10.5504 77.7605 10.6378L77.3474 10.8126C77.0866 10.9655 76.8909 11.1621 76.7387 11.4242H76.717L76.9779 11.0965C76.8909 11.2276 76.7605 11.315 76.6518 11.4242C76.5866 11.4679 76.5431 11.5116 76.4996 11.5553C76.4779 11.5771 76.4344 11.6208 76.4126 11.6427C76.2822 11.7956 76.1735 11.9485 76.0648 12.0795C75.9344 12.2761 75.8692 12.4946 75.8692 12.713C75.8257 12.9533 75.8257 13.1718 75.8909 13.4121L76.0648 13.8271C76.1735 14.0237 76.3257 14.1985 76.4996 14.3077C76.6083 14.4169 76.7387 14.4825 76.8692 14.5261C77.0648 14.6354 77.3039 14.6791 77.5213 14.6791L77.9779 14.6135C78.2605 14.5261 78.5213 14.3732 78.7387 14.1766C78.8257 14.0674 78.9126 13.9582 79.0213 13.8708L78.6735 14.1329C78.6735 14.1329 78.717 14.1111 78.7387 14.0893C78.9344 13.98 79.1083 13.8271 79.217 13.6524C79.3692 13.4776 79.4779 13.281 79.5213 13.0626C79.5866 12.8223 79.6083 12.6038 79.5431 12.3635C79.5431 12.1232 79.4561 11.9266 79.3474 11.73L79.0866 11.3805C78.8692 11.1621 78.63 11.0092 78.3257 10.9436L77.8692 10.8781C77.5648 10.8781 77.2605 10.9655 76.9996 11.1184H77.0213Z" fill="#143B19"/>
<path d="M81.8047 15.9025C80.7395 17.9559 79.1743 19.2666 77.0439 20.337C75.0656 21.3419 72.6091 21.9754 70.283 22.3249C68.3482 22.6089 65.8265 22.6744 63.6526 22.4778C63.4134 22.4778 63.196 22.4341 62.9569 22.4123C62.6526 22.3686 63.37 22.4778 62.8917 22.4123C62.8047 22.4123 62.696 22.3904 62.6091 22.3686C62.1743 22.303 61.7613 22.2157 61.3482 22.1064C61.0439 22.0191 60.7395 21.9098 60.4352 21.8225C60.196 21.7351 60.7613 22.0409 60.4352 21.8225C60.3265 21.7569 60.196 21.6695 60.0656 21.604C59.8917 21.5166 60.4134 21.9317 60.2395 21.7351C60.1091 21.5822 60.1743 21.5603 60.3482 21.9098C60.2613 21.7351 60.4569 22.3686 60.4569 22.4778C60.4569 22.6525 60.4352 22.7836 60.3047 23.0239C60.4569 22.7399 60.0004 23.439 60.3047 23.0676C60.0873 23.3297 60.1091 23.1768 60.3917 23.0239C60.5439 22.9584 60.7178 22.871 60.87 22.7836C60.4352 22.9802 61.0656 22.7181 61.196 22.6744C61.5004 22.5652 61.8047 22.4778 62.1308 22.3904C64.2613 21.8006 63.3482 18.4802 61.2178 19.07C59.4786 19.5506 56.5221 20.5555 57.1091 22.9584C57.5221 24.6841 59.6743 25.2958 61.1743 25.6016C66.4134 26.6501 72.3917 26.0822 77.3265 24.0288C80.3917 22.7399 83.2178 20.7084 84.783 17.672C85.8047 15.7059 82.8265 13.9584 81.8265 15.9244L81.8047 15.9025Z" fill="#143B19"/>
<path d="M33.8262 13.4777C33.8262 13.4777 33.8262 13.5432 33.8045 13.5651V13.6087C33.761 13.7617 33.7393 13.9364 33.7393 14.0893C33.7393 14.2859 33.7393 14.4825 33.8045 14.6791C33.8262 14.7665 33.8697 14.8539 33.8914 14.9194C33.9132 14.985 33.9566 15.0723 33.9784 15.1379C33.9784 15.1379 33.9784 15.1816 34.0219 15.2034C34.1088 15.3126 34.2175 15.4655 34.3045 15.5748H34.3262C34.3262 15.5748 34.3697 15.6403 34.3914 15.6621L34.7393 15.9243C34.9349 16.0553 35.1523 16.1209 35.3697 16.1209C35.5219 16.1646 35.674 16.1646 35.8262 16.1209C36.0653 16.1209 36.261 16.0335 36.4566 15.9243C36.5436 15.8806 36.6088 15.8151 36.6958 15.7495C36.761 15.7058 36.848 15.6403 36.9132 15.5748C37.0436 15.4437 37.174 15.2689 37.261 15.116C37.261 15.0942 37.2827 15.0723 37.3045 15.0505C37.3697 14.8976 37.4566 14.7447 37.5001 14.5699C37.5001 14.5262 37.5219 14.4607 37.5436 14.3952C37.5653 14.2204 37.6088 13.9801 37.6088 13.7835C37.6088 13.5869 37.5653 13.3685 37.5219 13.1719C37.5219 13.1282 37.5001 13.0626 37.4784 13.0189C37.4132 12.866 37.348 12.6257 37.2393 12.4728C37.1306 12.2762 36.9784 12.1015 36.8045 11.9922C36.6306 11.8393 36.4349 11.7301 36.2175 11.6864C35.9784 11.6209 35.761 11.599 35.5219 11.6646C35.2827 11.6646 35.0871 11.7519 34.8914 11.8612L34.5436 12.1233C34.3262 12.3418 34.174 12.582 34.1088 12.8879L34.0436 13.3466C34.0436 13.6524 34.1306 13.9583 34.2827 14.2204C34.3045 14.2641 34.348 14.3078 34.3697 14.3515L34.1958 13.9364C34.1958 13.9364 34.2393 14.0675 34.2393 14.133L34.174 13.6743C34.174 13.6743 34.174 13.849 34.174 13.9364L34.2393 13.4777C34.2393 13.4777 34.2175 13.6306 34.174 13.6961L34.348 13.2811C34.348 13.2811 34.3045 13.3903 34.261 13.434L34.5219 13.0845C34.5219 13.0845 34.4566 13.15 34.4349 13.1719L34.7827 12.9097C34.7827 12.9097 34.7393 12.9316 34.7175 12.9534L36.8045 13.2155C36.8045 13.2155 36.7393 13.15 36.7175 13.1282L36.9784 13.4777C36.9784 13.4777 36.9349 13.4121 36.9349 13.3903L37.1088 13.8053C37.1088 13.8053 37.1088 13.7617 37.1088 13.7398L37.174 14.1985C37.174 14.1985 37.174 14.133 37.174 14.1112L37.1088 14.5699C37.1088 14.5699 37.1088 14.4825 37.1523 14.4388C37.2175 14.1985 37.2393 13.9801 37.174 13.7398C37.174 13.4995 37.0871 13.3029 36.9784 13.1063C36.8697 12.9097 36.7175 12.735 36.5436 12.6257C36.3697 12.4728 36.174 12.3636 35.9567 12.3199L35.5001 12.2544C35.1958 12.2544 34.8914 12.3418 34.6306 12.4947L34.2827 12.7568C34.0653 12.9752 33.9132 13.2155 33.848 13.5214L33.8262 13.4777Z" fill="#143B19"/>
<path d="M31.7174 12.6036C31.5653 12.7346 31.3696 12.8439 31.2392 12.9968C31.2174 13.0186 31.1957 13.0405 31.174 13.0623C31.0653 13.1934 30.9566 13.3244 30.8696 13.4774C30.8261 13.5429 30.8044 13.5866 30.7827 13.6521C30.6957 13.8487 30.6087 14.0453 30.5435 14.2419C30.5435 14.3075 30.5 14.373 30.5 14.4604C30.4783 14.6788 30.4348 14.8973 30.4131 15.0939C30.4131 15.1594 30.4131 15.2468 30.4131 15.3123C30.4348 15.5308 30.4566 15.771 30.5218 15.9895L30.6957 16.4045L30.9566 16.7541L31.3044 17.0162C31.5 17.1473 31.7174 17.2128 31.9348 17.2128C32.087 17.2565 32.2392 17.2565 32.3913 17.2128C32.5435 17.2128 32.6957 17.1691 32.8261 17.1036C32.9783 17.0599 33.1087 16.9943 33.1957 16.8851C33.3913 16.7541 33.5218 16.6011 33.6305 16.4045C33.7174 16.2079 33.8044 16.0332 33.8696 15.8366C33.8696 15.771 33.9131 15.7274 33.9131 15.6618C33.9566 15.4652 33.9783 15.2468 33.9783 15.0502C33.9783 14.8536 33.9348 14.6133 33.9131 14.4167C33.8696 14.1982 33.7609 14.0016 33.6087 13.8269C33.4783 13.6303 33.3261 13.4992 33.1305 13.39C32.9348 13.2589 32.7174 13.1934 32.5 13.1934C32.2609 13.1497 32.0435 13.1497 31.8044 13.2152L31.3913 13.39C31.1305 13.5429 30.9348 13.7395 30.7827 14.0016L30.6087 14.4167C30.5218 14.7225 30.5218 15.0283 30.6087 15.3342L30.5435 14.8973C30.5435 14.8973 30.5435 15.072 30.5435 15.1594L30.6087 14.7007C30.6087 14.7007 30.5653 14.8754 30.5218 14.9846L30.6957 14.5696L30.6522 14.657L33.7827 15.072C33.7827 15.072 33.7609 14.9628 33.7392 14.8973L33.8044 15.356C33.8044 15.2249 33.8044 15.072 33.8044 14.941L33.7392 15.3997C33.7392 15.2686 33.7827 15.1594 33.8261 15.0283L33.6522 15.4434C33.6522 15.4434 33.7392 15.2468 33.8044 15.1594L33.5435 15.5089C33.5435 15.5089 33.6522 15.3778 33.7174 15.3342L33.3696 15.5963C33.5653 15.4871 33.7392 15.3342 33.8479 15.1376C34 14.9628 34.1087 14.7662 34.1522 14.5477C34.2174 14.3075 34.2392 14.089 34.174 13.8487C34.174 13.6084 34.087 13.4118 33.9783 13.2152L33.7174 12.8657C33.5 12.6473 33.2609 12.4943 32.9566 12.4288L32.5 12.3633C32.1957 12.3633 31.8913 12.4507 31.6305 12.6036H31.7174Z" fill="#143B19"/>
<path d="M39.4996 19.115C39.63 22.7194 39.0431 26.1053 35.8691 28.2679C34.4561 29.2291 32.8039 29.7097 31.1735 30.1684C29.2387 30.7145 27.2387 31.1296 25.2387 31.348C23.6952 31.5228 21.5431 31.9378 20.1735 30.9111C18.8909 29.9499 18.2604 28.0713 17.717 26.6296C16.3691 22.9596 15.9344 19.1587 16.2822 15.2485C16.4778 13.0422 13.043 13.0422 12.8474 15.2485C12.4344 20.098 13.1952 24.7946 15.1083 29.2509C15.9126 31.1514 16.9561 33.0519 18.8039 34.1004C20.7604 35.2145 23.1083 35.0179 25.2387 34.7776C29.4996 34.297 34.5213 33.5106 38.0648 30.8893C41.9778 28.0058 43.1083 23.7679 42.9344 19.0931C42.8474 16.8868 39.4126 16.865 39.4996 19.0931V19.115Z" fill="#143B19"/>
</g>
<defs>
<clipPath id="clip0_144_1460">
<rect width="102" height="54" fill="white"/>
</clipPath>
</defs>
</svg>
