<svg width="148" height="35" viewBox="0 0 148 35" fill="none" xmlns="http://www.w3.org/2000/svg">
<path d="M73.9153 18.8263C72.8468 18.8294 71.8032 19.1491 70.9163 19.745C70.0294 20.3409 69.339 21.1863 68.9322 22.1743C68.5255 23.1624 68.4207 24.2488 68.6311 25.2964C68.8414 26.344 69.3575 27.3057 70.1142 28.0602C70.8708 28.8146 71.8341 29.3279 72.8822 29.5352C73.9304 29.7425 75.0166 29.6345 76.0034 29.2249C76.9903 28.8153 77.8336 28.1224 78.4269 27.2338C79.0202 26.3451 79.3369 25.3006 79.3369 24.2321C79.3476 23.5179 79.2146 22.8088 78.9457 22.1471C78.6768 21.4854 78.2776 20.8844 77.7718 20.3801C77.266 19.8758 76.6639 19.4783 76.0014 19.2114C75.3389 18.9445 74.6294 18.8135 73.9153 18.8263ZM73.9153 27.5199C73.2566 27.5675 72.5989 27.4157 72.0278 27.0842C71.4567 26.7527 70.9986 26.257 70.7133 25.6615C70.4279 25.066 70.3285 24.3984 70.4279 23.7456C70.5273 23.0928 70.8211 22.485 71.2708 22.0015C71.7205 21.518 72.3054 21.1811 72.9493 21.0347C73.5932 20.8883 74.2663 20.9392 74.8809 21.1808C75.4954 21.4223 76.023 21.8434 76.3949 22.389C76.7668 22.9347 76.9658 23.5797 76.9659 24.24C76.9818 24.6559 76.9154 25.0708 76.7705 25.4609C76.6256 25.851 76.4051 26.2087 76.1217 26.5134C75.8383 26.8182 75.4975 27.0639 75.1188 27.2366C74.7402 27.4093 74.3312 27.5056 73.9153 27.5199ZM62.0604 18.8263C60.9919 18.8294 59.9483 19.1491 59.0614 19.745C58.1745 20.3409 57.4841 21.1863 57.0773 22.1743C56.6706 23.1624 56.5658 24.2488 56.7762 25.2964C56.9865 26.344 57.5026 27.3057 58.2593 28.0602C59.0159 28.8146 59.9792 29.3279 61.0274 29.5352C62.0756 29.7425 63.1617 29.6345 64.1485 29.2249C65.1354 28.8153 65.9788 28.1224 66.5721 27.2338C67.1654 26.3451 67.482 25.3006 67.482 24.2321C67.4927 23.5193 67.3601 22.8115 67.0922 22.1508C66.8243 21.4902 66.4265 20.89 65.9224 20.3859C65.4183 19.8818 64.8181 19.484 64.1575 19.2161C63.4968 18.9482 62.789 18.8156 62.0762 18.8263H62.0604ZM62.0604 27.5199C61.4018 27.5675 60.7441 27.4157 60.173 27.0842C59.6018 26.7527 59.1438 26.257 58.8584 25.6615C58.573 25.066 58.4736 24.3984 58.573 23.7456C58.6725 23.0928 58.9662 22.485 59.4159 22.0015C59.8656 21.518 60.4505 21.1811 61.0944 21.0347C61.7384 20.8883 62.4114 20.9392 63.026 21.1808C63.6406 21.4223 64.1681 21.8434 64.54 22.389C64.9119 22.9347 65.1109 23.5797 65.111 24.24C65.1431 25.0773 64.8415 25.893 64.2724 26.508C63.7034 27.123 62.9134 27.487 62.0762 27.5199H62.0604ZM48.0084 20.5097V22.7779H53.4933C53.4134 23.8526 52.9735 24.8689 52.2446 25.6626C51.6973 26.2278 51.0375 26.6719 50.3077 26.9659C49.578 27.26 48.7947 27.3976 48.0084 27.3697C46.3902 27.3697 44.8384 26.7269 43.6941 25.5827C42.5499 24.4384 41.9071 22.8866 41.9071 21.2684C41.9071 19.6502 42.5499 18.0983 43.6941 16.9541C44.8384 15.8099 46.3902 15.1671 48.0084 15.1671C49.5481 15.1454 51.034 15.7335 52.1418 16.8031L53.762 15.2224C53.0087 14.4657 52.1115 13.8674 51.1234 13.4629C50.1352 13.0584 49.0761 12.8559 48.0084 12.8672C46.884 12.8327 45.7641 13.0244 44.7152 13.4309C43.6662 13.8374 42.7096 14.4504 41.9021 15.2335C41.0945 16.0167 40.4524 16.9541 40.014 17.99C39.5755 19.026 39.3496 20.1395 39.3496 21.2644C39.3496 22.3894 39.5755 23.5029 40.014 24.5388C40.4524 25.5748 41.0945 26.5122 41.9021 27.2954C42.7096 28.0785 43.6662 28.6915 44.7152 29.098C45.7641 29.5045 46.884 29.6961 48.0084 29.6616C49.0968 29.7037 50.1817 29.5141 51.1913 29.1054C52.2009 28.6966 53.1122 28.0781 53.8647 27.2907C55.2024 25.8302 55.9145 23.9037 55.8484 21.9244C55.8533 21.4449 55.8136 20.966 55.7299 20.4939L48.0084 20.5097ZM105.599 22.2879C105.277 21.3031 104.659 20.4419 103.828 19.8223C102.998 19.2026 101.996 18.8547 100.96 18.8263C100.266 18.8307 99.5793 18.9758 98.9425 19.253C98.3057 19.5302 97.7317 19.9336 97.2552 20.4389C96.7787 20.9442 96.4096 21.5409 96.1703 22.1928C95.9309 22.8448 95.8262 23.5385 95.8626 24.2321C95.8477 24.9428 95.976 25.6491 96.2399 26.3092C96.5038 26.9692 96.8979 27.5693 97.3986 28.0737C97.8994 28.5782 98.4966 28.9767 99.1547 29.2454C99.8127 29.5141 100.518 29.6476 101.229 29.6379C102.117 29.6459 102.994 29.4334 103.78 29.0197C104.566 28.6059 105.237 28.0037 105.734 27.267L103.892 26.034C103.616 26.4933 103.226 26.8731 102.759 27.1363C102.292 27.3995 101.765 27.5371 101.229 27.5357C100.674 27.56 100.126 27.416 99.6544 27.1226C99.1833 26.8292 98.812 26.4001 98.5892 25.8918L105.821 22.9044L105.599 22.2879ZM98.2257 24.0898C98.1989 23.6954 98.2514 23.2996 98.38 22.9258C98.5085 22.5519 98.7106 22.2076 98.9742 21.913C99.2379 21.6184 99.5578 21.3796 99.9151 21.2105C100.272 21.0414 100.66 20.9456 101.055 20.9285C101.465 20.9025 101.874 20.9972 102.23 21.2009C102.587 21.4045 102.876 21.7083 103.062 22.0745L98.2257 24.0898ZM92.3535 29.3376H94.7245V13.4442H92.3535V29.3376ZM88.4572 20.0592H88.3782C88.0176 19.6664 87.5772 19.3553 87.0865 19.1467C86.5958 18.9381 86.0661 18.837 85.533 18.85C84.1499 18.9248 82.848 19.527 81.8954 20.5326C80.9427 21.5381 80.4117 22.8706 80.4117 24.2558C80.4117 25.641 80.9427 26.9735 81.8954 27.9791C82.848 28.9847 84.1499 29.5868 85.533 29.6616C86.0677 29.6758 86.5991 29.5736 87.0904 29.3621C87.5816 29.1506 88.0211 28.8348 88.3782 28.4366H88.4572V29.227C88.4572 31.2976 87.3508 32.3883 85.5726 32.3883C84.978 32.3738 84.4011 32.1828 83.9156 31.8393C83.43 31.4959 83.0576 31.0157 82.8459 30.4599L80.7832 31.3213C81.1772 32.2644 81.8432 33.0687 82.6962 33.6317C83.5492 34.1948 84.5505 34.491 85.5726 34.4826C88.3545 34.4826 90.7097 32.8466 90.7097 28.8555V19.174H88.4572V20.0592ZM85.7227 27.5199C85.3096 27.5088 84.9029 27.4152 84.5264 27.2446C84.15 27.074 83.8116 26.8297 83.531 26.5263C83.2504 26.2229 83.0334 25.8664 82.8926 25.4778C82.7519 25.0893 82.6903 24.6764 82.7116 24.2637C82.673 23.4264 82.9685 22.608 83.5331 21.9885C84.0978 21.369 84.8854 20.9991 85.7227 20.9602C87.3034 20.9602 88.6074 22.359 88.6074 24.2637C88.6385 24.6684 88.588 25.0751 88.4587 25.4598C88.3295 25.8445 88.1242 26.1993 87.8551 26.5031C87.586 26.8069 87.2585 27.0534 86.8922 27.2281C86.5259 27.4028 86.1282 27.502 85.7227 27.5199ZM116.711 13.4284H111.029V29.3376H113.4V23.3153H116.711C117.376 23.3419 118.039 23.234 118.661 22.9979C119.283 22.7619 119.851 22.4026 120.331 21.9417C120.811 21.4807 121.193 20.9276 121.453 20.3156C121.714 19.7035 121.848 19.045 121.848 18.3798C121.848 17.7145 121.714 17.056 121.453 16.4439C121.193 15.8319 120.811 15.2788 120.331 14.8178C119.851 14.3569 119.283 13.9976 118.661 13.7616C118.039 13.5255 117.376 13.4176 116.711 13.4442V13.4284ZM116.775 21.0866H113.4V15.665H116.767C117.137 15.645 117.507 15.7007 117.854 15.8285C118.202 15.9563 118.52 16.1537 118.789 16.4084C119.058 16.6632 119.272 16.9701 119.418 17.3104C119.565 17.6507 119.64 18.0172 119.64 18.3877C119.64 18.7581 119.565 19.1246 119.418 19.4649C119.272 19.8052 119.058 20.1121 118.789 20.3669C118.52 20.6216 118.202 20.819 117.854 20.9468C117.507 21.0746 117.137 21.1303 116.767 21.1103L116.775 21.0866ZM131.427 18.8263C130.562 18.7761 129.701 18.9798 128.95 19.4122C128.199 19.8446 127.59 20.487 127.199 21.2605L129.301 22.1377C129.511 21.7539 129.829 21.4396 130.215 21.2333C130.601 21.0269 131.039 20.9375 131.475 20.976C132.7 20.976 133.948 21.711 133.964 23.0229V23.181C133.202 22.7774 132.353 22.5684 131.49 22.5724C129.222 22.5724 126.914 23.8132 126.914 26.1447C126.914 28.2707 128.772 29.6458 130.866 29.6458C131.466 29.6779 132.063 29.5481 132.596 29.27C133.129 28.9919 133.576 28.5758 133.893 28.0652H133.972V29.2902H136.264V23.2126C136.256 20.4069 134.154 18.8263 131.427 18.8263ZM131.143 27.5199C130.352 27.5199 129.285 27.1326 129.285 26.1684C129.285 24.9434 130.637 24.4771 131.799 24.4771C132.555 24.4552 133.303 24.6381 133.964 25.0066C133.878 25.6962 133.545 26.3311 133.026 26.7933C132.507 27.2556 131.838 27.5137 131.143 27.5199ZM144.578 19.1582L141.859 26.0499H141.78L138.959 19.1582H136.406L140.634 28.7923L138.224 34.1428H140.698L147.218 19.1266L144.578 19.1582ZM123.239 29.3297H125.61V13.4442H123.239V29.3297Z" fill="white"/>
<path d="M0.589523 0.792014C0.174523 1.29135 -0.0346115 1.93006 0.00468265 2.57815V30.6821C-0.0337474 31.3253 0.175523 31.9587 0.589523 32.4524L0.684363 32.5473L16.396 16.8119V16.4563L0.660652 0.705078L0.589523 0.792014Z" fill="#5BC9F4"/>
<path d="M21.6433 22.0582L16.3955 16.8104V16.4548L21.6433 11.207L21.7618 11.2703L27.9738 14.803C29.752 15.8146 29.752 17.4664 27.9738 18.4701L21.7618 21.9871L21.6433 22.0582Z" fill="url(#paint0_linear_3001_1149)"/>
<path d="M21.7626 21.9874L16.3963 16.6211L0.589844 32.4276C1.17468 33.044 2.17049 33.1231 3.22953 32.5066L21.7626 21.9874Z" fill="url(#paint1_linear_3001_1149)"/>
<path d="M21.7619 11.2548L3.20511 0.711828C2.11447 0.0953743 1.15027 0.174407 0.56543 0.79086L16.3719 16.5974L21.7619 11.2548Z" fill="url(#paint2_linear_3001_1149)"/>
<path d="M45.5828 1.69132C45.0852 1.2505 44.4456 1.00361 43.7809 0.99583C43.4093 1.00095 43.0425 1.07962 42.7016 1.22728C42.3606 1.37493 42.0523 1.58866 41.7943 1.85613C41.5364 2.12359 41.3341 2.4395 41.1989 2.7856C41.0637 3.1317 40.9984 3.50115 41.0068 3.87261C40.9974 4.24397 41.062 4.6135 41.1968 4.95963C41.3317 5.30576 41.5342 5.62157 41.7924 5.88862C42.0506 6.15567 42.3594 6.36863 42.7009 6.51506C43.0423 6.66149 43.4094 6.73846 43.7809 6.74149C44.0702 6.76852 44.362 6.73725 44.6391 6.64953C44.9161 6.56181 45.1728 6.41942 45.3938 6.23079C45.6149 6.04216 45.7958 5.81111 45.926 5.55131C46.0562 5.29152 46.133 5.00825 46.1518 4.71826H44.0575V3.80939H47.3294C47.3294 6.43327 45.9306 7.67408 43.7967 7.67408C42.8092 7.62925 41.8769 7.20541 41.194 6.49073C40.511 5.77606 40.1299 4.82558 40.1299 3.83705C40.1299 2.84851 40.511 1.89804 41.194 1.18336C41.8769 0.468691 42.8092 0.044851 43.7967 2.17128e-05C44.7344 -0.00318963 45.6384 0.349927 46.3257 0.987928L45.5828 1.69132Z" fill="white"/>
<path d="M53.1221 0.119141V1.05963H49.7079V3.4306H52.6874V4.37899H49.7079V6.65513H53.2328V7.59561H48.6963V0.119141H53.1221Z" fill="white"/>
<path d="M59.6663 0.119141V1.07543H57.3981V7.59561H56.3786V1.07543H54.1104V0.119141H59.6663Z" fill="white"/>
<path d="M64.5106 0.119141V7.59561H63.499V0.119141H64.5106Z" fill="white"/>
<path d="M71.3949 0.119141V1.07543H69.1266V7.59561H68.1071V1.07543H65.8389V0.119141H71.3949Z" fill="white"/>
<path d="M78.5163 0.0317706C79.2786 0.0192217 80.0273 0.233781 80.6672 0.648132C81.3071 1.06248 81.8093 1.65788 82.1097 2.35853C82.4101 3.05918 82.4953 3.83338 82.3543 4.58258C82.2133 5.33177 81.8525 6.02207 81.318 6.56558C80.7834 7.10909 80.0992 7.48124 79.3525 7.63464C78.6057 7.78804 77.8302 7.71576 77.1247 7.427C76.4191 7.13823 75.8155 6.64605 75.3906 6.01311C74.9656 5.38016 74.7387 4.63509 74.7386 3.87275C74.7323 3.37192 74.8253 2.87481 75.0121 2.41011C75.199 1.9454 75.476 1.52229 75.8272 1.1652C76.1784 0.808107 76.5969 0.5241 77.0584 0.329565C77.52 0.13503 78.0155 0.0338184 78.5163 0.0317706ZM78.5163 6.72582C78.8871 6.72489 79.2539 6.64987 79.5952 6.50517C79.9365 6.36046 80.2455 6.149 80.5039 5.8832C80.7623 5.6174 80.965 5.30262 81.1001 4.95737C81.2352 4.61212 81.2999 4.24336 81.2904 3.87275C81.3192 3.49191 81.269 3.10923 81.1431 2.74867C81.0171 2.38812 80.8181 2.05745 80.5584 1.77739C80.2987 1.49733 79.984 1.2739 79.634 1.12111C79.284 0.968325 78.9062 0.889459 78.5242 0.889459C78.1423 0.889459 77.7645 0.968325 77.4145 1.12111C77.0644 1.2739 76.7497 1.49733 76.4901 1.77739C76.2304 2.05745 76.0313 2.38812 75.9054 2.74867C75.7794 3.10923 75.7293 3.49191 75.7581 3.87275C75.7486 4.24203 75.8128 4.6095 75.9469 4.95372C76.081 5.29793 76.2823 5.61199 76.539 5.87758C76.7958 6.14317 77.1029 6.35496 77.4424 6.50059C77.7818 6.64623 78.1469 6.7228 78.5163 6.72582Z" fill="white"/>
<path d="M88.3164 7.59561L84.9101 1.9606V7.59561H83.8984V0.119141H84.8942L88.2689 5.70674V0.119141H89.2805V7.59561H88.3164Z" fill="white"/>
<defs>
<linearGradient id="paint0_linear_3001_1149" x1="26.8199" y1="16.6208" x2="-3.91584" y2="16.6208" gradientUnits="userSpaceOnUse">
<stop stop-color="#FEE000"/>
<stop offset="0.42" stop-color="#FBBC0E"/>
<stop offset="0.78" stop-color="#FAA418"/>
<stop offset="1" stop-color="#F99B1C"/>
</linearGradient>
<linearGradient id="paint1_linear_3001_1149" x1="18.8463" y1="19.5374" x2="-10.0558" y2="48.4396" gradientUnits="userSpaceOnUse">
<stop stop-color="#EF4547"/>
<stop offset="1" stop-color="#C6186D"/>
</linearGradient>
<linearGradient id="paint2_linear_3001_1149" x1="-10.1909" y1="-15.3239" x2="13.4082" y2="8.27524" gradientUnits="userSpaceOnUse">
<stop stop-color="#279E6F"/>
<stop offset="0.04" stop-color="#2BA06F"/>
<stop offset="0.46" stop-color="#53B26C"/>
<stop offset="0.8" stop-color="#6BBD6A"/>
<stop offset="1" stop-color="#74C169"/>
</linearGradient>
</defs>
</svg>
