<svg width="140" height="38" viewBox="0 0 140 38" fill="none" xmlns="http://www.w3.org/2000/svg">
<path d="M41.6622 7.64062L40.943 10.0116H39.3623L42.0258 1.69727H43.9621L46.6809 10.0037H45.0527L44.3019 7.63272L41.6622 7.64062ZM44.0332 6.49463L43.3772 4.44765C43.2192 3.94183 43.0848 3.37279 42.9583 2.86697C42.8398 3.34117 42.7133 3.92602 42.5632 4.44765L41.923 6.49463H44.0332Z" fill="white"/>
<path d="M48.9485 3.98633L49.9206 7.03704C50.0945 7.56657 50.2209 8.04867 50.3316 8.53868C50.4422 8.04867 50.5766 7.58237 50.7347 7.03704L51.6989 3.98633H53.2796L50.9876 10.0008H49.5413L47.3125 3.98633H48.9485Z" fill="white"/>
<path d="M59.3803 8.55498C59.3726 9.03915 59.407 9.52308 59.483 10.0013H58.1157L58.0051 9.32951C57.7901 9.58991 57.5176 9.79682 57.209 9.93397C56.9004 10.0711 56.5642 10.1347 56.2268 10.1199C55.9831 10.1339 55.7391 10.0978 55.5098 10.0139C55.2806 9.92993 55.071 9.79988 54.894 9.63175C54.717 9.46362 54.5763 9.26099 54.4807 9.03637C54.385 8.81175 54.3364 8.56991 54.3379 8.32578C54.3379 6.82414 55.6894 6.0496 57.9103 6.05751V5.96267C57.9103 5.5675 57.7443 4.91152 56.6852 4.91152C56.1286 4.9173 55.5833 5.06997 55.1046 5.35411L54.741 4.38199C55.4071 4.01958 56.1562 3.83707 56.9144 3.85246C58.835 3.85246 59.3882 5.07749 59.3882 6.39735L59.3803 8.55498ZM57.9024 7.06124C56.8275 7.06124 55.808 7.27463 55.808 8.18352C55.7957 8.30001 55.8095 8.41777 55.8483 8.52827C55.8872 8.63877 55.9501 8.73926 56.0326 8.82246C56.115 8.90566 56.2149 8.9695 56.3251 9.00935C56.4352 9.04921 56.5528 9.06408 56.6694 9.0529C56.9318 9.06655 57.1918 8.99766 57.4129 8.85589C57.6341 8.71413 57.8052 8.50663 57.9024 8.26256C57.9179 8.15246 57.9179 8.04071 57.9024 7.93061V7.06124Z" fill="white"/>
<path d="M62.2825 3.12239C62.13 3.10861 61.9848 3.05081 61.8645 2.95602C61.7442 2.86123 61.654 2.73353 61.605 2.58846C61.5559 2.44339 61.5501 2.28718 61.5881 2.13884C61.6262 1.9905 61.7065 1.85641 61.8194 1.75288C61.9322 1.64935 62.0727 1.58084 62.2238 1.55567C62.3748 1.5305 62.53 1.54976 62.6703 1.61112C62.8106 1.67247 62.9301 1.77327 63.0142 1.90126C63.0983 2.02924 63.1434 2.17891 63.144 2.33205C63.1444 2.44211 63.1219 2.55104 63.0778 2.65188C63.0337 2.75272 62.9691 2.84324 62.888 2.91764C62.8069 2.99204 62.7111 3.04869 62.6069 3.08395C62.5026 3.1192 62.3921 3.1323 62.2825 3.12239ZM61.4922 9.99835V3.98386H63.0096V9.99835H61.4922Z" fill="white"/>
<path d="M65.2285 1.22656H66.746V9.99933H65.2285V1.22656Z" fill="white"/>
<path d="M73.6072 8.55486C73.6 9.03902 73.6344 9.52291 73.71 10.0012H72.3427L72.232 9.3294H72.1925C71.9787 9.58916 71.7075 9.79576 71.4003 9.9329C71.0931 10.07 70.7583 10.134 70.4221 10.1197C70.1784 10.1338 69.9344 10.0977 69.7052 10.0138C69.4759 9.92981 69.2663 9.79976 69.0893 9.63163C68.9123 9.46351 68.7716 9.26088 68.676 9.03625C68.5803 8.81163 68.5318 8.56979 68.5332 8.32566C68.5332 6.82402 69.8768 6.04949 72.0977 6.05739V5.96255C72.0977 5.56738 71.9396 4.9114 70.8726 4.9114C70.316 4.91718 69.7707 5.06986 69.292 5.35399L68.9679 4.38187C69.6345 4.02048 70.3833 3.83804 71.1414 3.85234C73.0698 3.85234 73.623 5.07737 73.623 6.39724L73.6072 8.55486ZM72.1293 7.06112C71.0623 7.06112 70.0349 7.27451 70.0349 8.1834C70.0228 8.29917 70.0365 8.41617 70.0749 8.52605C70.1133 8.63593 70.1755 8.73597 70.257 8.81903C70.3386 8.90208 70.4374 8.9661 70.5466 9.00651C70.6557 9.04692 70.7725 9.06272 70.8884 9.05278C71.1521 9.06813 71.4139 9.00004 71.6366 8.85816C71.8594 8.71629 72.0317 8.50785 72.1293 8.26244C72.1449 8.15234 72.1449 8.04059 72.1293 7.93049V7.06112Z" fill="white"/>
<path d="M75.749 1.22656H77.2665V4.8147C77.4815 4.49402 77.7776 4.23592 78.1246 4.06658C78.4716 3.89724 78.8572 3.82269 79.2423 3.85049C80.7124 3.85049 81.7556 5.07552 81.7477 6.9012C81.7477 9.05883 80.3725 10.1337 79.021 10.1337C78.639 10.1531 78.2591 10.0667 77.923 9.884C77.5869 9.70133 77.3078 9.42946 77.1163 9.09834L77.0452 9.99933H75.749C75.749 9.58836 75.7964 8.92447 75.7964 8.31591L75.749 1.22656ZM77.2665 7.54928C77.2544 7.66752 77.2544 7.78669 77.2665 7.90493C77.3392 8.20658 77.5112 8.47503 77.7549 8.66711C77.9986 8.8592 78.2998 8.96376 78.61 8.96399C79.5585 8.96399 80.1433 8.17365 80.1433 6.99604C80.1433 5.92908 79.6375 5.06761 78.6259 5.06761C78.3086 5.07597 78.0032 5.1902 77.7583 5.39213C77.5134 5.59406 77.343 5.8721 77.2744 6.18199C77.2445 6.31165 77.2286 6.44412 77.227 6.57716L77.2665 7.54928Z" fill="white"/>
<path d="M83.5107 1.22656H85.0282V9.99933H83.5107V1.22656Z" fill="white"/>
<path d="M88.2911 7.41963C88.2969 7.64898 88.3509 7.87456 88.4495 8.0817C88.5482 8.28885 88.6893 8.47293 88.8637 8.62199C89.0381 8.77106 89.2419 8.88177 89.4619 8.94695C89.6818 9.01213 89.9131 9.03031 90.1405 9.00031C90.7078 9.00794 91.272 8.91702 91.8081 8.73159L92.0294 9.76694C91.3635 10.0313 90.6514 10.1603 89.935 10.1463C89.5239 10.1854 89.1092 10.1343 88.7198 9.99649C88.3305 9.85871 87.976 9.63759 87.6809 9.34859C87.3859 9.05958 87.1575 8.70965 87.0117 8.32324C86.866 7.93683 86.8063 7.52325 86.8369 7.1114C86.8369 5.45168 87.8485 3.87891 89.777 3.87891C91.7054 3.87891 92.3614 5.45959 92.3614 6.80316C92.3635 7.0175 92.3476 7.23164 92.314 7.44334L88.2911 7.41963ZM90.9309 6.36057C90.9566 6.18073 90.9439 5.99748 90.8938 5.82287C90.8437 5.64825 90.7572 5.48621 90.64 5.34738C90.5228 5.20856 90.3776 5.09609 90.2139 5.01735C90.0502 4.93862 89.8716 4.8954 89.69 4.89054C89.3146 4.91439 88.962 5.07902 88.7026 5.35155C88.4433 5.62407 88.2963 5.98441 88.2911 6.36057H90.9309Z" fill="white"/>
<path d="M99.854 10.1363C99.447 10.1516 99.0413 10.0812 98.6632 9.92972C98.2852 9.77825 97.9431 9.54906 97.6593 9.257C97.3754 8.96494 97.156 8.61651 97.0154 8.23429C96.8747 7.85206 96.8159 7.44456 96.8428 7.03816C96.8143 6.62039 96.8747 6.20134 97.02 5.80861C97.1653 5.41588 97.3921 5.05839 97.6856 4.7597C97.979 4.461 98.3325 4.22789 98.7226 4.07571C99.1127 3.92352 99.5306 3.85573 99.9488 3.8768C100.353 3.85933 100.757 3.9272 101.133 4.07599C101.51 4.22478 101.851 4.45115 102.134 4.74039C102.417 5.02963 102.637 5.37526 102.778 5.7548C102.919 6.13434 102.978 6.53929 102.952 6.94332C102.979 7.35802 102.918 7.77374 102.775 8.16362C102.631 8.5535 102.407 8.90887 102.117 9.20679C101.827 9.50471 101.478 9.73855 101.093 9.89321C100.707 10.0479 100.293 10.1199 99.8777 10.1047L99.854 10.1363ZM99.9014 9.03772C100.763 9.03772 101.371 8.19996 101.371 6.97493C101.371 6.04233 100.953 4.95166 99.9093 4.95166C98.866 4.95166 98.4077 6.00281 98.4077 6.99864C98.4077 8.16044 98.9846 9.03772 99.8856 9.03772H99.9014Z" fill="white"/>
<path d="M104.722 5.78058C104.722 5.08508 104.722 4.50813 104.675 3.98651H105.995L106.066 4.8875H106.113C106.316 4.56316 106.6 4.29716 106.936 4.11564C107.273 3.93412 107.651 3.84332 108.034 3.85215C109.085 3.85215 110.168 4.53184 110.168 6.42866V10.001H108.642V6.60253C108.642 5.74106 108.326 5.08508 107.496 5.08508C107.231 5.09351 106.974 5.18385 106.762 5.34373C106.55 5.50361 106.392 5.72521 106.311 5.97816C106.26 6.13365 106.236 6.29669 106.24 6.46027V10.001H104.722V5.78058Z" fill="white"/>
<path d="M117.181 2.44531V3.98647H118.627V5.10085H117.181V7.74059C117.181 8.4835 117.378 8.85496 117.971 8.85496C118.171 8.86327 118.37 8.84196 118.564 8.79174V9.93773C118.209 10.052 117.838 10.1054 117.465 10.0958C117.226 10.1084 116.986 10.0714 116.762 9.9871C116.537 9.90278 116.333 9.77295 116.161 9.60579C115.789 9.12466 115.617 8.51919 115.679 7.91446V5.10085H114.81V3.98647H115.663V2.86419L117.181 2.44531Z" fill="white"/>
<path d="M120.284 1.22656H121.802V4.7989C122.001 4.50909 122.274 4.2773 122.592 4.12711C122.91 3.94636 123.269 3.85106 123.635 3.85049C124.663 3.85049 125.738 4.53018 125.738 6.45861V9.99933H124.212V6.61668C124.212 5.75521 123.888 5.08342 123.05 5.08342C122.789 5.08557 122.534 5.16882 122.322 5.3217C122.11 5.47458 121.95 5.68955 121.865 5.93698C121.819 6.08534 121.798 6.24016 121.802 6.39538V9.99933H120.284V1.22656Z" fill="white"/>
<path d="M128.955 7.41963C128.961 7.64975 129.015 7.87608 129.114 8.08384C129.213 8.2916 129.355 8.4761 129.53 8.62529C129.706 8.77448 129.91 8.88499 130.131 8.94962C130.352 9.01424 130.584 9.03151 130.812 9.00031C131.377 9.00799 131.939 8.91705 132.472 8.73159L132.694 9.76694C132.028 10.0313 131.316 10.1603 130.599 10.1463C130.188 10.1854 129.773 10.1343 129.384 9.99649C128.995 9.85871 128.64 9.63759 128.345 9.34859C128.05 9.05958 127.822 8.70965 127.676 8.32324C127.53 7.93683 127.47 7.52325 127.501 7.1114C127.501 5.45168 128.513 3.87891 130.441 3.87891C132.369 3.87891 133.033 5.45959 133.033 6.80316C133.034 7.01776 133.015 7.23198 132.978 7.44334L128.955 7.41963ZM131.595 6.36057C131.621 6.18073 131.608 5.99748 131.558 5.82287C131.508 5.64825 131.421 5.48621 131.304 5.34738C131.187 5.20856 131.042 5.09609 130.878 5.01735C130.714 4.93862 130.536 4.8954 130.354 4.89054C129.979 4.91439 129.626 5.07902 129.367 5.35155C129.107 5.62407 128.96 5.98441 128.955 6.36057H131.595Z" fill="white"/>
<path d="M22.7884 18.0621C22.802 16.8156 23.1301 15.5928 23.7421 14.5069C24.3541 13.421 25.2304 12.5071 26.2896 11.85C25.613 10.885 24.7206 10.091 23.6834 9.53126C22.6462 8.97149 21.4927 8.66133 20.3147 8.62542C17.8014 8.3567 15.3671 10.1271 14.0868 10.1271C12.8064 10.1271 10.8069 8.64913 8.68877 8.69655C7.31572 8.74009 5.97737 9.13864 4.80419 9.85335C3.63101 10.5681 2.66303 11.5745 1.9946 12.7747C-0.898043 17.7855 1.25958 25.1435 4.03368 29.198C5.42467 31.1817 7.04487 33.3947 9.16298 33.3156C11.2811 33.2366 12.0635 31.972 14.5373 31.972C17.011 31.972 17.754 33.2919 19.9116 33.2445C22.0692 33.1971 23.5393 31.2449 24.8828 29.2454C25.8821 27.8359 26.648 26.2748 27.1511 24.6219C25.8548 24.0784 24.7486 23.163 23.9721 21.9912C23.1956 20.8195 22.7837 19.444 22.7884 18.0384" fill="white"/>
<path d="M18.6953 5.96243C19.9163 4.50793 20.5154 2.63116 20.3629 0.738281C18.5091 0.934314 16.7967 1.82013 15.5656 3.21995C14.9631 3.90668 14.5022 4.70562 14.2092 5.57091C13.9163 6.43621 13.7971 7.35083 13.8584 8.26231C14.7854 8.27515 15.703 8.07604 16.5413 7.68019C17.3796 7.28434 18.1163 6.70221 18.6953 5.97823" fill="white"/>
<path d="M52.7729 32.9839H49.8803L48.2996 28.0126H42.7672L41.3051 32.9839H38.4678L43.929 16.0469H47.2959L52.7729 32.9839ZM47.8254 25.9182L46.3949 21.5002C46.2368 21.0497 45.9523 19.9828 45.5334 18.3389H45.486C45.32 19.0581 45.0513 20.125 44.6956 21.5002L43.2888 25.9182H47.8254Z" fill="white"/>
<path d="M66.8014 26.7268C66.8997 28.5266 66.2963 30.2945 65.1179 31.6585C64.6411 32.1724 64.0606 32.579 63.4147 32.8515C62.7689 33.124 62.0725 33.2562 61.3717 33.2392C60.6928 33.2971 60.011 33.1687 59.3996 32.8679C58.7883 32.5671 58.2705 32.1052 57.9021 31.5321H57.8547V37.9654H55.1359V24.7905C55.1359 23.4864 55.1359 22.1507 55.0332 20.7756H57.4042L57.5623 22.7119H57.6097C58.0207 22.0819 58.5733 21.5566 59.2232 21.1779C59.8732 20.7993 60.6027 20.5777 61.3535 20.5309C62.1042 20.484 62.8556 20.6132 63.5476 20.9082C64.2396 21.2032 64.8531 21.6557 65.3392 22.2298C66.3479 23.5053 66.8616 25.1024 66.7855 26.7268M64.0194 26.8296C64.0677 25.7912 63.7915 24.7636 63.229 23.8895C62.9669 23.5053 62.6123 23.1933 62.198 22.982C61.7837 22.7707 61.3229 22.6669 60.858 22.6803C60.1925 22.679 59.5482 22.9143 59.0402 23.3442C58.4979 23.7915 58.1243 24.4104 57.9812 25.0987C57.9077 25.3562 57.8652 25.6215 57.8547 25.8891V27.9281C57.8243 28.7518 58.1067 29.5565 58.6451 30.1806C58.9105 30.48 59.2385 30.7174 59.6059 30.8758C59.9733 31.0343 60.3711 31.1099 60.7711 31.0974C61.2338 31.1134 61.6932 31.0132 62.1073 30.8062C62.5215 30.5991 62.8772 30.2917 63.1421 29.9119C63.7503 28.991 64.0493 27.9003 63.9956 26.7979" fill="white"/>
<path d="M80.8227 26.7268C80.9223 28.5282 80.3155 30.2974 79.1314 31.6585C78.6568 32.173 78.0777 32.5801 77.433 32.8527C76.7883 33.1253 76.0928 33.2571 75.3931 33.2392C74.7119 33.2946 74.0285 33.1627 73.417 32.8576C72.8054 32.5525 72.2889 32.0859 71.9235 31.5084H71.8761V37.9417H69.1573V24.7905C69.1573 23.4864 69.1573 22.1507 69.0625 20.7756H71.4335L71.5916 22.7119H71.639C72.05 22.0819 72.6026 21.5566 73.2525 21.1779C73.9025 20.7993 74.632 20.5777 75.3828 20.5309C76.1335 20.484 76.8849 20.6132 77.5769 20.9082C78.2689 21.2032 78.8824 21.6557 79.3685 22.2298C80.3801 23.5042 80.8966 25.1014 80.8227 26.7268ZM78.0566 26.8296C78.1049 25.7912 77.8287 24.7636 77.2662 23.8895C77.0367 23.5671 76.7432 23.2955 76.4039 23.0918C76.0647 22.888 75.6871 22.7564 75.2947 22.7052C74.9023 22.654 74.5035 22.6844 74.1234 22.7943C73.7432 22.9042 73.3898 23.0914 73.0853 23.3442C72.5401 23.7903 72.1636 24.4093 72.0184 25.0987C71.9449 25.3562 71.9024 25.6215 71.8919 25.889V27.9281C71.8615 28.7518 72.1439 29.5565 72.6822 30.1806C72.9473 30.4805 73.2753 30.7181 73.6428 30.8766C74.0103 31.0351 74.4083 31.1105 74.8083 31.0974C75.271 31.1134 75.7304 31.0132 76.1445 30.8062C76.5587 30.5991 76.9144 30.2917 77.1793 29.9119C77.7875 28.991 78.0865 27.9003 78.0329 26.7979" fill="white"/>
<path d="M96.5673 28.2351C96.5894 28.8969 96.4648 29.5555 96.2025 30.1635C95.9401 30.7716 95.5465 31.3141 95.0498 31.7521C93.7537 32.8116 92.1051 33.3423 90.4342 33.2379C88.902 33.3112 87.3805 32.9466 86.0479 32.1868L86.6722 29.9185C87.8614 30.6439 89.2311 31.0192 90.6239 31.0013C91.4695 31.0491 92.3061 30.8065 92.9949 30.3137C93.2722 30.0921 93.4937 29.8087 93.6419 29.4862C93.7901 29.1637 93.8609 28.8111 93.8485 28.4564C93.8574 28.1349 93.7995 27.8151 93.6784 27.5171C93.5573 27.2192 93.3757 26.9496 93.1451 26.7255C92.4563 26.1256 91.6482 25.6785 90.7741 25.4136C87.8287 24.3071 86.3561 22.6869 86.3561 20.553C86.3417 19.8999 86.4766 19.2521 86.7506 18.659C87.0245 18.066 87.4302 17.5433 87.9368 17.1308C89.1072 16.1937 90.5807 15.7185 92.0781 15.7951C93.4062 15.7426 94.7272 16.0138 95.9271 16.5855L95.2474 18.7905C94.2508 18.2592 93.1364 17.9874 92.007 18.0002C91.2 17.9488 90.4027 18.1995 89.7704 18.7036C89.554 18.8957 89.3814 19.132 89.2642 19.3965C89.1469 19.661 89.0877 19.9475 89.0907 20.2368C89.0863 20.5556 89.1553 20.871 89.2924 21.1588C89.4294 21.4466 89.6308 21.699 89.881 21.8965C90.6274 22.4611 91.4601 22.9015 92.3469 23.2006C93.5642 23.6302 94.6653 24.3363 95.5635 25.2634C96.2622 26.0806 96.6314 27.1288 96.5989 28.2035" fill="white"/>
<path d="M105.537 22.8023H102.549V28.7378C102.549 30.2473 103.071 30.9981 104.13 30.9981C104.537 31.008 104.943 30.9655 105.339 30.8717L105.41 32.9345C104.729 33.1557 104.016 33.2573 103.3 33.2348C102.835 33.2621 102.37 33.1886 101.936 33.0195C101.503 32.8503 101.11 32.5895 100.787 32.2548C100.092 31.3038 99.7688 30.1317 99.8779 28.9591V22.8023H98.0996V20.7632H99.8779V18.5345L102.549 17.7441V20.779H105.537V22.8023Z" fill="white"/>
<path d="M119.036 26.7799C119.107 28.4646 118.543 30.1145 117.455 31.4034C116.89 32.0195 116.196 32.5049 115.424 32.8257C114.651 33.1464 113.818 33.2949 112.982 33.2607C112.179 33.2975 111.378 33.1565 110.636 32.8477C109.895 32.539 109.23 32.07 108.69 31.4745C107.614 30.2295 107.049 28.6225 107.11 26.9775C107.042 25.2735 107.633 23.6089 108.762 22.3303C109.324 21.7232 110.012 21.2466 110.778 20.9339C111.544 20.6213 112.369 20.4801 113.195 20.5204C114.003 20.4843 114.808 20.6255 115.555 20.9341C116.302 21.2427 116.972 21.7112 117.519 22.3066C118.598 23.541 119.163 25.1416 119.099 26.7799M116.286 26.8668C116.314 25.8516 116.063 24.848 115.559 23.9663C115.327 23.5055 114.967 23.1211 114.523 22.859C114.079 22.5969 113.569 22.4683 113.053 22.4883C112.543 22.4746 112.039 22.6044 111.599 22.8629C111.159 23.1213 110.8 23.4982 110.564 23.9505C110.056 24.8482 109.805 25.8678 109.836 26.8984C109.808 27.9137 110.06 28.9172 110.564 29.799C110.8 30.2464 111.155 30.6198 111.59 30.8779C112.025 31.1359 112.524 31.2686 113.029 31.2611C113.533 31.2641 114.028 31.1266 114.458 30.8642C114.888 30.6017 115.236 30.2246 115.464 29.7753C115.996 28.894 116.27 27.8806 116.254 26.851" fill="white"/>
<path d="M127.857 23.1589C127.576 23.1034 127.29 23.0769 127.003 23.0799C126.573 23.0619 126.146 23.1515 125.759 23.3406C125.373 23.5297 125.04 23.8122 124.79 24.1627C124.319 24.8759 124.084 25.7191 124.118 26.5732V32.9828H121.4V24.6132C121.4 23.2063 121.368 21.926 121.305 20.7721H123.676L123.771 23.1431H123.85C124.105 22.3837 124.574 21.7141 125.201 21.2147C125.769 20.7884 126.459 20.5581 127.169 20.5587C127.394 20.5571 127.618 20.5729 127.841 20.6061L127.857 23.1589Z" fill="white"/>
<path d="M139.996 26.2984C140.002 26.7114 139.971 27.1241 139.901 27.5313H131.761C131.743 28.0504 131.84 28.5671 132.043 29.045C132.246 29.5229 132.552 29.9504 132.938 30.2975C133.692 30.9021 134.637 31.2162 135.602 31.1827C136.727 31.1982 137.845 31.0025 138.898 30.6057L139.324 32.4947C138.026 33.0362 136.63 33.3052 135.223 33.285C134.404 33.3296 133.585 33.2036 132.818 32.9152C132.051 32.6268 131.352 32.1822 130.765 31.6095C130.21 31.0082 129.781 30.302 129.503 29.5324C129.224 28.7629 129.103 27.9455 129.145 27.1282C129.076 25.4509 129.611 23.8044 130.654 22.489C131.163 21.8513 131.814 21.3424 132.555 21.0032C133.297 20.6641 134.108 20.5043 134.922 20.5368C135.7 20.492 136.477 20.648 137.177 20.9899C137.877 21.3317 138.478 21.848 138.921 22.489C139.668 23.6305 140.043 24.9748 139.996 26.3379M137.412 25.6345C137.447 24.9018 137.263 24.1753 136.882 23.548C136.659 23.1821 136.34 22.8837 135.96 22.6847C135.58 22.4857 135.153 22.3934 134.725 22.4178C134.301 22.4104 133.881 22.5075 133.504 22.7004C133.126 22.8934 132.802 23.1763 132.559 23.5243C132.1 24.1378 131.825 24.8701 131.769 25.6345H137.412Z" fill="white"/>
</svg>
