<svg width="62" height="68" viewBox="0 0 62 68" fill="none" xmlns="http://www.w3.org/2000/svg">
<path d="M34.473 30.4909C34.685 30.6748 34.8472 30.9392 34.8917 31.3089C34.8506 32.5784 34.7821 33.853 34.6965 35.137L34.6964 35.1373C34.633 36.0968 33.8624 36.6051 33.0407 36.6062C32.6339 36.6067 32.2648 36.477 32.0145 36.2519C31.777 36.0384 31.6086 35.7068 31.6416 35.2036C31.6544 35.0126 31.6667 34.8216 31.6787 34.6308C31.721 34.1245 31.7558 33.6176 31.7827 33.1103L31.8176 33.1623L31.8506 31.5801C31.8612 31.0756 32.0604 30.7267 32.3353 30.4966C32.6203 30.2581 33.0121 30.1277 33.4176 30.1277C33.8234 30.1277 34.2045 30.2581 34.473 30.4909ZM33.042 37.6062C33.5338 37.6055 34.0482 37.4743 34.4921 37.2093C33.7868 42.9419 32.2333 48.6556 30.0929 53.9496L30.0927 53.9501C28.614 57.6179 26.5854 60.8348 23.8947 63.4796C22.399 63.4633 20.9011 63.4248 19.3993 63.3862C19.3642 63.3853 19.3291 63.3844 19.294 63.3835C23.1094 60.6239 25.7652 56.8329 27.4393 52.3701C29.2872 47.463 30.7344 42.3024 31.4184 37.0579C31.8763 37.4344 32.4666 37.6069 33.042 37.6062ZM31.8772 29.5904C31.8963 27.8818 31.8581 26.1735 31.7375 24.456C32.9514 25.8573 34.0214 27.3701 34.9342 28.9712C34.9337 29.1747 34.9322 29.3781 34.9299 29.5817C34.4841 29.273 33.9441 29.1277 33.4176 29.1277C32.8837 29.1277 32.3341 29.2769 31.8772 29.5904ZM19.3731 64.3859C20.5234 64.4155 21.6765 64.4451 22.8312 64.4647C21.8392 65.3303 20.7659 66.1252 19.6066 66.8444L18.9334 64.3746C19.0799 64.3784 19.2264 64.3821 19.3731 64.3859ZM17.883 64.3238L18.7192 67.3913C18.5729 67.3875 18.4266 67.3837 18.2803 67.38C17.533 67.3588 17.006 66.8534 16.8305 66.2303C16.6569 65.6136 16.8418 64.938 17.4971 64.5552L17.4976 64.5548C17.6273 64.4789 17.7557 64.4019 17.883 64.3238ZM20.538 67.4383C21.9073 66.5539 23.1572 65.5659 24.2953 64.4834C25.4295 64.4925 26.5647 64.4878 27.6996 64.4596C28.5123 64.4401 29.3272 64.3825 30.1279 64.3258C30.2782 64.3152 30.4281 64.3046 30.5774 64.2942C31.5277 64.2286 32.459 64.1744 33.3809 64.1914C33.6672 64.197 33.9555 64.2041 34.2453 64.2113C35.0828 64.232 35.933 64.253 36.7836 64.239C36.782 64.2452 36.7806 64.2513 36.7792 64.2572C36.7754 64.2738 36.7681 64.3061 36.7641 64.3427C36.7625 64.3575 36.7579 64.401 36.7634 64.455C36.766 64.4811 36.7734 64.5368 36.8009 64.6016C36.8276 64.665 36.8965 64.7888 37.0505 64.8608L37.2622 64.4078L37.0505 64.8608C37.1676 64.9156 37.2726 64.9103 37.3196 64.9052C37.3724 64.8994 37.4133 64.8865 37.4354 64.8787C37.4799 64.863 37.5139 64.8443 37.5293 64.8355C37.5637 64.8159 37.5948 64.794 37.6154 64.779C37.6602 64.7465 37.7133 64.7042 37.7657 64.6613C37.8555 64.5877 37.9662 64.4937 38.073 64.403C38.0928 64.3862 38.1124 64.3695 38.1318 64.3531C38.2274 64.272 38.3147 64.1983 38.384 64.1419C38.3893 64.1394 38.3952 64.1365 38.4016 64.1332C38.4941 64.0962 38.5995 64.0283 38.6769 63.9025L38.6812 63.8955L38.6853 63.8883C38.6949 63.8715 38.7238 63.8203 38.7414 63.7504L38.7414 63.7504C38.7479 63.7242 38.8238 63.4222 38.5539 63.2216C38.4374 63.1349 38.3177 63.1222 38.2539 63.1221C38.2379 63.1221 38.2228 63.1228 38.2087 63.124C38.2204 63.0908 38.232 63.0574 38.2438 63.0239C38.3622 62.6854 38.4857 62.3357 38.5915 62.0361C38.7272 61.652 38.8338 61.3501 38.8634 61.2597C40.1823 57.3396 40.807 53.222 40.7097 49.0898C40.5986 44.0655 39.795 39.0801 38.3211 34.2725L38.3205 34.2706C37.7185 32.3342 36.9178 30.4711 35.9345 28.7092C35.933 26.7784 35.8527 24.8458 35.6577 22.8979C38.529 26.5551 40.6177 30.7667 41.7845 35.2741L41.7845 35.2742L41.7859 35.2793C43.2097 40.5487 43.8716 45.9924 43.7518 51.4469C43.6187 56.1038 42.3939 60.4103 40.856 64.8423L40.8462 64.8704C40.4495 66.0083 40.2037 66.7134 39.2814 67.0139C38.7669 67.1525 38.2371 67.2276 37.704 67.2376L37.6927 67.2379L37.6814 67.2386C36.594 67.3083 35.4949 67.2784 34.3742 67.2479C34.0142 67.2381 33.6519 67.2282 33.2871 67.2215C32.2851 67.1996 31.2886 67.2574 30.3098 67.3246C30.152 67.3354 29.9948 67.3465 29.8382 67.3575C29.0162 67.4153 28.2079 67.4721 27.3979 67.4899C25.1142 67.5381 22.8302 67.4956 20.538 67.4383ZM34.7186 21.7541L31.6169 23.0179C31.5868 22.7095 31.5538 22.4007 31.5178 22.0915C31.4513 21.5199 31.8262 21.0312 32.4431 20.7929C33.0688 20.5512 33.7397 20.6512 34.1071 21.0611L34.109 21.0631C34.3155 21.2909 34.5187 21.5213 34.7186 21.7541ZM34.9117 27.0138C34.1712 25.8752 33.3505 24.7866 32.4545 23.7565L34.649 22.8623C34.7917 24.2503 34.8749 25.6322 34.9117 27.0138Z" fill="#143B19" stroke="#143B19"/>
<path d="M33.7879 16.9026C33.3579 17.6715 32.9796 18.4723 32.6589 19.3029C32.4483 19.3817 32.2204 19.4219 31.9896 19.4223C31.5818 19.423 31.2185 19.2936 30.9771 19.073C30.7495 18.8649 30.5887 18.5393 30.6334 18.0379L30.6334 18.0375C30.9549 14.3996 31.4582 10.8017 33.4546 7.8087C35.6919 4.51438 39.0866 2.16629 42.9756 1.22458L42.9756 1.22459L42.9784 1.2239C46.1354 0.440429 50.5332 0.150595 54.2631 1.08284C57.3457 1.85329 59.8937 3.42959 60.9923 6.18888L60.7016 6.10476C59.3505 5.71381 57.9587 5.46484 56.55 5.34907C55.7111 4.6795 54.6628 4.23291 53.4889 4.00922C50.2085 3.38117 46.5752 3.34407 43.3099 4.25479L43.3096 4.2549C40.2405 5.11339 37.4459 7.03244 35.7852 9.81108L33.7879 16.9026ZM33.7879 16.9026C34.0378 14.4915 34.4758 11.9973 35.7851 9.81118L33.7879 16.9026ZM59.6238 9.98723C59.154 9.85109 58.6772 9.73586 58.195 9.641L58.4212 9.41632L60.9149 6.93983L61.1703 6.68622C61.3079 7.11726 61.4123 7.57494 61.4805 8.0605L61.4809 8.06335C61.5664 8.64813 61.3889 9.23474 61.0499 9.61485C60.7287 9.97509 60.2505 10.169 59.6239 9.98727L59.6238 9.98723ZM57.5735 9.12958L57.6298 9.53952C53.5761 8.88012 49.19 9.62318 45.4065 11.4633C43.7798 12.2545 42.2572 13.2523 40.9162 14.4353C38.6376 14.9739 36.489 15.9497 34.7343 17.4942C34.7432 17.4005 34.7523 17.3068 34.7617 17.2131C36.8147 13.6363 40.0642 10.7745 43.858 8.87368C47.6612 6.96817 51.9855 6.04199 56.1512 6.32217C56.9132 7.01809 57.4123 7.9556 57.5735 9.12958ZM33.5264 20.3914C34.9673 18.2118 37.0495 16.7738 39.4206 15.9183C37.9784 17.5306 36.8503 19.4043 36.1762 21.5008L33.5264 20.3914ZM33.9653 22.9887C33.2961 22.707 32.8567 22.0648 33.0577 21.2793L35.8367 22.4428C35.4037 23.1392 34.6323 23.2695 33.9653 22.9887ZM37.754 20.213C38.6135 18.37 39.8677 16.7352 41.3923 15.3508C43.1573 14.9604 45.0189 14.8387 46.8534 14.9298L46.8549 14.9298C49.1256 15.0358 51.5974 16.2208 53.4251 18.0162C55.252 19.8108 56.3696 22.1467 56.0732 24.5212L56.0732 24.5213C56.0157 24.983 55.8445 25.3816 55.5908 25.657C55.3458 25.9228 55.0059 26.0955 54.5431 26.0955C54.1896 26.0955 53.7664 25.9221 53.4449 25.6247C53.1252 25.329 52.9713 24.9756 53.0128 24.6456L53.0129 24.6449C53.2833 22.4725 51.8787 20.707 50.4889 19.5161C49.7788 18.9077 49.1474 18.5122 48.4651 18.2696C47.7854 18.028 47.0887 17.9503 46.2713 17.931L46.2705 17.931C43.3589 17.8669 40.1069 18.3295 37.754 20.213ZM59.5916 6.84467L58.3657 8.06206C58.1908 7.46904 57.9335 6.93852 57.6063 6.4705C58.2753 6.56237 58.9381 6.68677 59.5916 6.84467Z" fill="#143B19" stroke="#143B19"/>
<path d="M4.76718 26.5974C4.57569 27.3823 4.51409 28.2215 4.59635 29.134L4.65413 29.7749C5.51161 29.4661 6.37511 29.1849 7.2327 28.9092C7.35176 28.8709 7.47069 28.8328 7.58947 28.7946C8.91979 28.3676 10.2321 27.9464 11.5124 27.442L11.514 27.4414C12.8748 26.9103 14.2099 26.3074 15.5579 25.6967L15.6517 25.6542C16.9651 25.059 18.2918 24.4579 19.6468 23.922C21.869 23.043 24.6112 21.9923 27.2275 22.3598L27.2284 22.3599C29.7555 22.7201 31.7715 24.4698 33.4397 26.0039C34.1533 26.6561 35.0447 26.4827 35.6218 25.9109C35.9085 25.6269 36.0806 25.2728 36.1011 24.9296C36.1207 24.6024 36.0063 24.2389 35.6311 23.8948C34.565 22.9235 33.4591 21.9783 32.2735 21.2019C31.5846 21.1218 30.9576 20.7412 30.4956 20.2111C29.9253 19.9509 29.335 19.7385 28.7213 19.5867L4.76718 26.5974ZM4.76718 26.5974C5.25174 26.4348 5.73893 26.2751 6.22793 26.1148L6.23926 26.111C7.92964 25.5568 9.64173 24.9952 11.299 24.2893C12.3919 23.83 13.4583 23.3472 14.5176 22.8677C16.4227 22.0053 18.3046 21.1533 20.2761 20.467L20.2763 20.4669C23.0326 19.5058 25.9403 18.9002 28.7211 19.5867L4.76718 26.5974ZM4.33726 29.8904L3.8509 29.6134L0.803313 27.8774L0.508554 27.7095C0.488763 28.1766 0.499842 28.6514 0.543672 29.1336L4.33726 29.8904ZM4.33726 29.8904C3.85541 30.0684 3.37593 30.256 2.90096 30.4572C2.90112 30.4571 2.90128 30.4571 2.90144 30.457L4.33726 29.8904ZM33.8453 18.0097L33.9103 18.096C34.0608 18.3628 34.0835 18.7091 33.9747 19.0722C33.8507 19.4863 33.5773 19.8405 33.2721 20.0128L33.2717 20.013C33.0459 20.1407 32.8136 20.2053 32.584 20.2128C32.1152 19.917 31.6306 19.6444 31.1288 19.4038C29.3541 17.0453 26.8123 15.37 23.9354 14.662C21.0492 13.9519 18.0042 14.2592 15.3207 15.5318L15.3207 15.5317L15.3143 15.5349C12.1809 17.0759 9.31155 19.0979 6.81212 21.5267C5.46834 22.8158 4.46301 24.2071 3.9476 25.8191C2.9096 26.1739 1.87313 26.5514 0.855663 26.9826L0.55103 27.1118C0.838739 24.2322 2.30352 21.6684 4.48446 19.5513L4.48488 19.5509C7.38744 16.7268 10.8504 14.1775 14.5636 12.5707L14.5639 12.5706C21.5801 9.52956 29.3205 12.0044 33.8453 18.0097ZM3.67064 26.9735C3.60116 27.399 3.5638 27.8397 3.56084 28.2973L2.19373 27.5186C2.68198 27.3285 3.17458 27.148 3.67064 26.9735Z" fill="#143B19" stroke="#143B19"/>
<path d="M34.3206 19.3507L34.3844 19.4358C34.5344 19.7032 34.5571 20.0503 34.4487 20.4138C34.3252 20.8274 34.0531 21.1817 33.7477 21.3552C33.0004 21.7767 32.1763 21.5059 31.622 20.7686C30.7032 19.5422 30.0153 18.1581 29.303 16.7247C29.1923 16.502 29.0809 16.278 28.9681 16.0532C28.1392 14.4025 27.2323 12.7242 25.8772 11.3294L25.8766 11.3287C24.7492 10.1725 23.2159 9.5274 21.8468 8.95135C21.7068 8.89245 21.5686 8.83427 21.4326 8.77635C19.3942 7.90606 17.269 7.28985 14.958 7.48769C14.4485 7.5313 14.1197 7.36873 13.9112 7.14158C13.6905 6.90111 13.5624 6.54034 13.5645 6.13605C13.5686 5.31812 14.0823 4.53594 15.0403 4.45967C17.4912 4.26455 19.8738 4.88643 22.1795 5.82903C22.3112 5.88447 22.4429 5.93962 22.5743 5.99467C24.3769 6.74981 26.1352 7.48634 27.5256 8.70765L27.5258 8.7078C29.1014 10.0905 30.1443 11.8475 31.1243 13.7301C31.3127 14.0921 31.4993 14.4598 31.6872 14.8304C32.465 16.3637 33.2666 17.944 34.3206 19.3507Z" fill="#143B19" stroke="#143B19"/>
<path d="M24.3476 39.1132L21.0552 37.7605C21.0612 38.0675 21.0687 38.376 21.0768 38.686L24.3476 39.1132ZM24.3476 39.1132C24.1292 39.3318 23.9089 39.5492 23.6867 39.7654C22.7391 40.6865 21.1118 40.0066 21.0768 38.6862L24.3476 39.1132ZM25.0453 29.9018C24.6104 31.0529 24.3642 32.2137 24.2302 33.3782C23.2127 34.5257 22.149 35.6326 21.0418 36.6961C21.0296 34.0025 21.212 31.4189 22.1807 28.9147L22.1807 28.9147L22.1819 28.9114C23.2606 26.0646 24.546 23.1811 26.6612 21.0625L26.6705 21.0532L26.6705 21.0532L26.6723 21.0514C27.0316 20.691 27.4136 20.5795 27.763 20.605C28.126 20.6316 28.491 20.8101 28.7767 21.0938C29.0625 21.3776 29.2425 21.7404 29.2706 22.1013C29.2977 22.4483 29.1881 22.8292 28.8284 23.189L28.8278 23.1896C26.9902 25.0343 25.9111 27.6172 25.0455 29.9013L25.0453 29.9018ZM24.1096 37.9343L22.0673 37.0952C22.7654 36.4139 23.4461 35.7156 24.1088 35.0008C24.0701 35.979 24.0854 36.958 24.1096 37.9343ZM25.1202 38.3274C25.0792 36.7686 25.0484 35.2665 25.1906 33.8011C25.8695 33.0271 26.5278 32.2352 27.1649 31.4262L27.1649 31.4262L27.1694 31.4204C28.0527 30.2641 29.0537 29.2287 30.1474 28.715C30.6858 28.4621 31.2385 28.3395 31.8108 28.3844C32.3825 28.4293 33.0053 28.6436 33.6809 29.1123C34.4803 29.6727 34.5243 30.6064 34.1133 31.3097C33.9095 31.6585 33.6139 31.9062 33.2971 32.0037C32.9968 32.0961 32.6265 32.0703 32.2072 31.7797C32.0251 31.6527 31.831 31.5383 31.6266 31.491C31.3832 31.4347 31.158 31.4799 30.9631 31.607C30.8049 31.7103 30.6798 31.8613 30.5875 31.9759C30.5549 32.0163 30.5234 32.0562 30.4914 32.0967C30.4175 32.1904 30.3411 32.2871 30.2437 32.3999L30.2427 32.401C29.8834 32.8195 29.5477 33.2549 29.2211 33.6784L29.1934 33.7143C28.8553 34.1526 28.526 34.5782 28.1749 34.9828C27.1795 36.1299 26.1687 37.2437 25.1202 38.3274Z" fill="#143B19" stroke="#143B19"/>
<path d="M38.0584 26.661L37.9268 26.7327C37.1243 27.0892 36.3787 26.7088 35.9914 26.0503C35.7877 25.704 35.7104 25.3151 35.7777 24.9718C35.8422 24.6431 36.0464 24.3141 36.4943 24.0699C39.0516 22.6781 41.6389 21.6384 44.5161 21.3786L44.5171 21.3785C48.0458 21.0531 51.6615 21.979 55.0822 23.0766C56.0033 23.3722 56.2893 24.2282 56.0739 25.0082C55.9668 25.396 55.7419 25.7198 55.4507 25.9068C55.1725 26.0855 54.796 26.165 54.3082 26.0072L54.308 26.0071C51.2804 25.0291 48.058 24.1416 44.7468 24.3743L44.7463 24.3743C42.3065 24.5486 40.0916 25.5527 38.0584 26.661Z" fill="#143B19" stroke="#143B19"/>
</svg>
