<svg width="71" height="71" viewBox="0 0 71 71" fill="none" xmlns="http://www.w3.org/2000/svg">
<path d="M42.9594 34.3824C43.8284 34.7296 44.7599 34.9083 45.7006 34.9083L45.7006 36.0917C44.7599 36.0917 43.8284 36.2704 42.9594 36.6176C42.0903 36.9647 41.3007 37.4736 40.6355 38.1151C39.9704 38.7566 39.4427 39.5181 39.0828 40.3563C38.7228 41.1945 38.5375 42.0928 38.5375 43L37.4056 43C37.4056 42.7883 37.4143 42.577 37.4316 42.3667C37.5003 41.533 37.7041 40.7136 38.037 39.9385C38.4539 38.9679 39.0649 38.086 39.8351 37.3432C40.3846 36.8132 41.0075 36.3614 41.6848 36L26 36L26 34.9233L41.5443 34.9233C40.9213 34.5754 40.3464 34.15 39.8351 33.6568C39.0649 32.914 38.4539 32.0321 38.037 31.0615C37.7041 30.2864 37.5003 29.467 37.4316 28.6333C37.4143 28.423 37.4056 28.2117 37.4056 28L38.5375 28C38.5375 28.9072 38.7228 29.8055 39.0828 30.6437C39.4427 31.4819 39.9704 32.2434 40.6355 32.8849C41.3007 33.5264 42.0903 34.0353 42.9594 34.3824Z" fill="#1F3A1D" stroke="#1F3A1D" stroke-width="0.5"/>
<circle cx="35.5" cy="35.5" r="35" transform="rotate(-90 35.5 35.5)" stroke="#1F3A1D"/>
</svg>
