<svg width="18" height="14" viewBox="0 0 18 14" fill="none" xmlns="http://www.w3.org/2000/svg">
<path d="M15.2869 6.03146C16.0369 6.33234 16.8406 6.4872 17.6523 6.4872L17.6523 7.5128C16.8406 7.5128 16.0369 7.66766 15.2869 7.96854C14.537 8.26943 13.8556 8.71044 13.2816 9.26641C12.7077 9.82237 12.2524 10.4824 11.9417 11.2088C11.6311 11.9352 11.4712 12.7137 11.4712 13.5L10.4944 13.5C10.4944 13.3165 10.502 13.1334 10.5169 12.9511C10.5761 12.2286 10.7521 11.5184 11.0393 10.8467C11.399 10.0055 11.9263 9.24122 12.5909 8.5974C13.0651 8.1381 13.6026 7.74654 14.1871 7.43332L0.652343 7.43332L0.652343 6.50021L14.0659 6.50022C13.5282 6.19868 13.0322 5.82997 12.5909 5.4026C11.9263 4.75878 11.399 3.99446 11.0393 3.15327C10.7521 2.48158 10.5761 1.77138 10.5169 1.04889C10.502 0.866569 10.4944 0.683466 10.4944 0.500001L11.4712 0.500001C11.4712 1.28625 11.6311 2.0648 11.9417 2.7912C12.2524 3.51761 12.7077 4.17763 13.2816 4.73359C13.8556 5.28956 14.537 5.73057 15.2869 6.03146Z" fill="#143B19" stroke="#143B19" stroke-width="0.5"/>
</svg>
