<svg width="43" height="42" viewBox="0 0 43 42" fill="none" xmlns="http://www.w3.org/2000/svg">
<path fill-rule="evenodd" clip-rule="evenodd" d="M42.2819 21.0781C42.2819 26.5051 40.0547 31.71 36.0904 35.5475C32.126 39.385 26.7491 41.5409 21.1427 41.5409C18.3664 41.5414 15.6172 41.0124 13.052 39.9843C10.4869 38.9561 8.1561 37.4489 6.19278 35.5487C4.22945 33.6485 2.67205 31.3925 1.60949 28.9097C0.546927 26.4268 -3.80889e-08 23.7656 0 21.0781C-3.80889e-08 18.3906 0.546927 15.7294 1.60949 13.2465C2.67205 10.7636 4.22945 8.50767 6.19278 6.60747C8.1561 4.70728 10.4869 3.20006 13.052 2.1719C15.6172 1.14375 18.3664 0.614789 21.1427 0.615235C26.7491 0.615235 32.126 2.77115 36.0904 6.60867C40.0547 10.4462 42.2819 15.651 42.2819 21.0781Z" fill="#143B19"/>
<path fill-rule="evenodd" clip-rule="evenodd" d="M15.6344 11.4349H26.647C27.8349 11.4385 28.9732 11.8966 29.8135 12.7094C30.6538 13.5222 31.1279 14.6237 31.1325 15.7736V26.3761C31.1316 27.5301 30.6576 28.6366 29.8147 29.4526C28.9717 30.2686 27.8286 30.7274 26.6365 30.7283H15.6239C14.4321 30.7265 13.2896 30.2674 12.4468 29.4516C11.604 28.6358 11.1297 27.5298 11.1279 26.3761V15.7736C11.1297 14.6198 11.604 13.5138 12.4468 12.698C13.2896 11.8822 14.4321 11.4231 15.6239 11.4213L15.6344 11.4349ZM21.111 16.9023H21.1705C22.3145 16.9103 23.4093 17.354 24.218 18.1374C25.0266 18.9208 25.4841 19.9809 25.4915 21.0884C25.4952 22.2041 25.0431 23.2761 24.2336 24.0705C23.4242 24.8648 22.3231 25.3171 21.1705 25.3287H21.111C19.9584 25.3171 18.8573 24.8648 18.0478 24.0705C17.2384 23.2761 16.7862 22.2041 16.79 21.0884C16.7973 19.9809 17.2548 18.9208 18.0635 18.1374C18.8721 17.354 19.9669 16.9103 21.111 16.9023ZM21.111 14.7261H21.1705C22.9071 14.7464 24.5667 15.4232 25.7948 16.612C27.0229 17.8008 27.7221 19.4073 27.743 21.0884C27.7329 22.7727 27.0372 24.3853 25.8068 25.5763C24.5764 26.7674 22.9105 27.4408 21.1705 27.4506H21.111C19.377 27.439 17.7184 26.7631 16.4978 25.5708C15.2773 24.3785 14.5942 22.7669 14.598 21.0884C14.6034 19.4126 15.2894 17.806 16.508 16.6156C17.7265 15.4253 19.3799 14.7466 21.111 14.7261ZM27.6274 13.4991C27.9989 13.4991 28.3552 13.642 28.6179 13.8963C28.8805 14.1505 29.0281 14.4954 29.0281 14.855C29.0281 15.2145 28.8805 15.5594 28.6179 15.8137C28.3552 16.068 27.9989 16.2108 27.6274 16.2108C27.4422 16.2154 27.2579 16.1835 27.0858 16.1171C26.9137 16.0506 26.7574 15.9509 26.6263 15.824C26.4953 15.6972 26.3923 15.5459 26.3236 15.3793C26.2549 15.2127 26.222 15.0343 26.2268 14.855C26.222 14.6756 26.2549 14.4972 26.3236 14.3306C26.3923 14.164 26.4953 14.0127 26.6263 13.8859C26.7574 13.759 26.9137 13.6593 27.0858 13.5928C27.2579 13.5264 27.4422 13.4945 27.6274 13.4991ZM15.5784 9.43164H26.703C28.4284 9.43967 30.0807 10.107 31.3004 11.2883C32.5202 12.4696 33.2086 14.0694 33.216 15.7396V26.4507C33.2086 28.1209 32.5202 29.7207 31.3004 30.902C30.0807 32.0834 28.4284 32.7507 26.703 32.7587H15.5784C13.853 32.7507 12.2007 32.0834 10.981 30.902C9.76124 29.7207 9.0728 28.1209 9.06543 26.4507V15.7396C9.0728 14.0694 9.76124 12.4696 10.981 11.2883C12.2007 10.107 13.853 9.43967 15.5784 9.43164Z" fill="#FFC452"/>
</svg>
