<svg width="44" height="42" viewBox="0 0 44 42" fill="none" xmlns="http://www.w3.org/2000/svg">
<path fill-rule="evenodd" clip-rule="evenodd" d="M43.1256 20.9179C43.1256 26.345 40.8985 31.5498 36.9341 35.3873C32.9698 39.2249 27.5929 41.3808 21.9864 41.3808C19.2101 41.3812 16.4609 40.8523 13.8957 39.8241C11.3306 38.7959 8.99985 37.2887 7.03653 35.3885C5.0732 33.4883 3.51576 31.2324 2.4532 28.7495C1.39063 26.2666 0.84375 23.6054 0.84375 20.9179C0.84375 18.2304 1.39063 15.5692 2.4532 13.0864C3.51576 10.6035 5.0732 8.34751 7.03653 6.44732C8.99985 4.54712 11.3306 3.0399 13.8957 2.01175C16.4609 0.983594 19.2101 0.454633 21.9864 0.455078C27.5929 0.455078 32.9698 2.61099 36.9341 6.44852C40.8985 10.286 43.1256 15.4908 43.1256 20.9179Z" fill="#143B19"/>
<path fill-rule="evenodd" clip-rule="evenodd" d="M19.1208 16.1083H23.3752V18.0641C23.8268 17.4131 24.4372 16.8799 25.1524 16.5116C25.8676 16.1433 26.6655 15.9512 27.4756 15.9524H28.6451C29.9453 15.9524 31.1922 16.4524 32.1116 17.3423C33.0309 18.2322 33.5474 19.4393 33.5474 20.6978V30.1242H29.2999V28.8362V22.5553C29.2474 20.9554 28.1304 19.7216 26.4986 19.7216C25.7047 19.7139 24.9387 20.0051 24.3624 20.5338C23.7861 21.0626 23.4447 21.7874 23.4102 22.5553V30.1242H19.1558V16.1151L19.1208 16.1083ZM14.3831 8.99023C15.0741 8.99113 15.7365 9.25699 16.2255 9.72963C16.7144 10.2023 16.9899 10.8432 16.9918 11.5121C16.9909 12.1815 16.7157 12.8233 16.2267 13.2967C15.7377 13.77 15.0747 14.0364 14.3831 14.0373C14.0437 14.0356 13.7079 13.9686 13.3954 13.8404C13.0828 13.7122 12.7997 13.5253 12.5622 13.2905C12.3248 13.0556 12.1379 12.7775 12.0123 12.4722C11.8867 12.167 11.8249 11.8406 11.8304 11.5121C11.8249 11.1837 11.8867 10.8575 12.0124 10.5524C12.138 10.2474 12.325 9.96948 12.5625 9.73489C12.7999 9.5003 13.0831 9.31369 13.3956 9.18586C13.7082 9.05804 14.0438 8.99154 14.3831 8.99023ZM12.2541 16.1083H16.5646V30.1174H12.2541V16.1083Z" fill="#FFC452"/>
</svg>
