<svg width="184" height="30" viewBox="0 0 184 30" fill="none" xmlns="http://www.w3.org/2000/svg">
<g clip-path="url(#clip0_144_1380)">
<path d="M31.8489 12.2187L23.9649 27.3166C23.058 29.0445 22.6503 29.4877 22.0633 29.4877C21.3849 29.4877 20.7487 28.8247 20.0703 27.4506L12.4148 11.645L8.5624 23.7749C8.33744 24.4825 8.24605 25.0596 8.24605 25.4581C8.24605 25.9459 8.5167 26.3444 9.01582 26.6089C10.1476 27.1414 10.3761 27.4059 10.3761 28.1582C10.3761 29.0892 9.74342 29.5323 8.42883 29.5323H1.36028C0.59051 29.5323 0 28.914 0 28.2029C0 27.4506 0.316345 27.0521 1.40598 26.6536C2.67487 26.2551 2.94552 25.8566 3.53603 23.9535L8.74166 6.50932C8.96661 5.757 9.1037 5.13522 9.1037 4.60619C9.1037 3.76456 8.92092 3.58936 7.51846 2.83361C6.97364 2.61375 6.70299 2.1706 6.70299 1.54883C6.70299 0.487334 7.42707 -0.000471004 9.24078 -0.000471004H17.1248C18.5308 -0.000471004 19.2092 0.487334 19.2092 1.45951C19.2092 2.07785 18.8014 2.65497 17.9403 3.14278C17.3497 3.49661 17.0791 3.85044 17.0791 4.15961C17.0791 4.51344 17.2162 5.00125 17.5325 5.66425L22.8787 15.8463C23.2408 16.5986 23.5571 16.9525 23.7856 16.9525C24.0563 16.9525 24.3761 16.554 24.7382 15.8017L29.8137 5.66425C30.0844 5.13179 30.2215 4.68864 30.2215 4.29015C30.2215 3.53783 30.0387 3.31454 28.5905 2.74086C28.0457 2.47634 27.7751 2.03319 27.7751 1.41142C27.7751 0.480464 28.4534 -0.00390625 29.8137 -0.00390625H37.9684C39.645 -0.00390625 40.232 0.349924 40.232 1.41142C40.232 2.07442 39.8243 2.60688 39.0545 2.91605C38.102 3.31454 37.6485 3.847 37.6485 4.42069C37.6485 4.77452 37.7856 5.43752 38.0106 6.41313L42.8577 23.768C43.2654 25.4066 43.6274 25.8051 45.0791 26.3788C46.1652 26.8666 46.4851 27.2651 46.4851 27.9727C46.4851 28.9896 45.8524 29.522 44.5835 29.522H34.2988C33.2127 29.522 32.5308 28.9037 32.5308 28.0174C32.5308 27.2651 32.9842 26.7326 33.8454 26.4234C34.6151 26.1589 35.0229 25.7158 35.0229 25.1387C35.0229 25.0047 34.8401 24.2524 34.5238 22.8817L31.8524 12.2118L31.8489 12.2187Z" fill="#143B19"/>
<path d="M113.828 10.9791C114.914 10.2268 116.137 9.87293 117.452 9.87293C120.306 9.87293 122.162 11.3776 123.114 14.3903L125.923 23.3769C126.331 24.617 126.647 25.4586 126.963 25.9018C127.28 26.3449 127.779 26.7881 128.549 27.2759C129.048 27.5851 129.318 27.9389 129.318 28.382C129.318 29.1344 128.773 29.5328 127.733 29.5328H119.396C117.947 29.5328 117.22 29.0897 117.22 28.2481C117.22 27.5851 117.445 27.3171 118.851 26.7434C119.621 26.3896 119.983 25.9464 119.983 25.3693C119.983 24.9262 119.846 24.2632 119.575 23.3769L117.491 16.6026C116.991 14.964 116.085 14.1223 114.773 14.1223C113.097 14.1223 112.011 15.6716 112.011 18.1519V20.323C112.011 23.2017 112.102 24.9262 112.327 25.5926C112.51 26.1697 112.689 26.3896 113.775 27.0526C114.366 27.4064 114.636 27.8049 114.636 28.2927C114.636 29.1344 113.958 29.5328 112.598 29.5328H105.396C104.081 29.5328 103.403 29.1344 103.403 28.3374C103.403 27.8496 103.673 27.4064 104.264 27.0526C105.35 26.3896 105.578 26.1216 105.758 25.3693C105.895 24.7063 105.983 23.0231 105.983 20.323V17.9767C105.983 15.3212 105.121 13.9918 103.399 13.9918C102.359 13.9918 101.406 14.4349 100.636 15.3212C99.958 16.0736 99.6381 17.0492 99.6381 18.2446V20.3264C99.6381 23.2051 99.7295 24.9296 99.9088 25.5961C100.134 26.1732 100.316 26.393 101.357 27.056C101.947 27.4099 102.218 27.8084 102.218 28.2962C102.218 29.1378 101.54 29.5363 100.225 29.5363H93.023C91.7084 29.5363 91.03 29.1378 91.03 28.3408C91.03 27.853 91.3007 27.4099 91.8912 27.056C92.9773 26.393 93.1601 26.1251 93.385 25.3728C93.5221 24.7098 93.61 23.0265 93.61 20.3264V18.5126C93.61 16.3415 93.4729 15.9877 92.204 15.6338C91.2515 15.3693 90.7559 14.9262 90.7559 14.3044C90.7559 13.8166 91.1179 13.3734 91.842 12.975L97.8666 9.96569C98.1829 9.78705 98.4993 9.70117 98.7277 9.70117C99.3183 9.70117 99.6346 10.1443 99.6346 10.986V12.9337C101.944 10.6768 103.803 9.79049 106.204 9.79049C108.605 9.79049 110.552 10.852 111.73 12.9337C112.499 12.0028 113.178 11.3844 113.814 10.986L113.828 10.9791Z" fill="#143B19"/>
<path d="M135.501 22.2265C135.908 23.1128 136.362 23.8205 136.907 24.3529C138.13 25.6377 139.669 26.256 141.483 26.256C143.522 26.256 145.697 25.3251 147.283 23.7758C147.873 23.1987 148.323 22.9342 148.643 22.9342C149.188 22.9342 149.596 23.3327 149.596 23.9957C149.596 24.8373 148.871 25.8095 147.465 26.8744C144.973 28.7775 141.532 29.8424 138.27 29.8424C135.191 29.8424 132.653 29.0008 130.706 27.2729C128.53 25.3698 127.444 22.8895 127.444 19.8356C127.444 16.7816 128.53 14.4354 130.752 12.4429C132.928 10.4951 135.462 9.51953 138.316 9.51953C141.532 9.51953 144.116 10.715 146.154 13.0613C147.107 14.1674 148.056 15.8507 148.056 16.4244C148.056 16.6442 148.01 16.6889 146.334 17.5305L145.293 18.0183L135.508 22.2231L135.501 22.2265ZM139.715 17.8431C140.53 17.4893 140.938 17.1355 140.938 16.8263C140.938 16.2938 140.348 15.0125 139.669 14.1262C138.808 12.9754 137.813 12.3983 136.59 12.3983C134.643 12.3983 133.42 13.8582 133.42 16.1186C133.42 18.0218 134.01 19.9249 134.689 19.9249C134.914 19.9249 135.188 19.8356 135.55 19.6604L139.719 17.8466L139.715 17.8431Z" fill="#143B19"/>
<path d="M157.382 20.3684C157.382 23.0685 157.473 24.7517 157.652 25.4594C157.877 26.1671 158.014 26.3457 159.058 26.8335C159.782 27.1873 160.144 27.6305 160.144 28.1629C160.144 29.0939 159.42 29.537 157.969 29.537H150.721C149.315 29.537 148.591 29.0939 148.591 28.2076C148.591 27.6305 148.953 27.1908 149.677 26.8335C150.763 26.3457 150.9 26.1258 151.083 25.2395C151.22 24.5319 151.308 22.8933 151.308 20.3684V10.3168C151.308 8.50302 151.216 7.34878 150.992 6.90907C150.809 6.51058 150.721 6.51058 149.406 6.02278C148.907 5.80292 148.637 5.44565 148.637 4.96129C148.637 4.38416 148.907 4.03033 150.176 3.36733L155.568 0.39928C155.884 0.220647 156.201 0.134766 156.475 0.134766C157.065 0.134766 157.382 0.842426 157.382 2.21652V20.3684Z" fill="#143B19"/>
<path d="M180.249 6.07741C180.59 7.51334 179.251 10.1173 175.515 9.79091C171.747 9.46456 174.622 6.53773 175.395 5.91595C176.914 4.614 179.908 4.64148 180.246 6.07741H180.249Z" fill="#143B19"/>
<path d="M53.9824 29.8449C51.768 29.8449 49.9788 29.2713 48.6045 28.1239C47.2759 27.0212 46.6326 25.6539 46.6748 23.9741C46.724 21.9439 47.8523 20.2228 50.007 18.8556C51.7961 17.7529 54.0667 17.1792 56.9138 17.1792C57.5008 17.1792 58.3585 17.2239 59.3954 17.2685C58.9314 15.9013 58.5061 14.8845 58.0245 14.3108C57.2794 13.3833 56.2987 12.8989 55.079 12.8989C53.4551 12.8989 52.6326 13.1634 50.5658 14.5753C50.246 14.7505 49.9718 14.8398 49.6555 14.8398C49.1142 14.8398 48.6748 14.3554 48.6889 13.8264C48.71 13.0329 49.4094 12.15 50.7838 11.2225C52.3901 10.1644 54.847 9.41211 56.9701 9.41211C59.4551 9.41211 61.7785 10.3396 63.0122 11.6175C63.9367 12.5897 64.7943 14.3554 65.5465 16.9147L67.5008 23.6684C68.0035 25.3001 68.9209 26.4921 69.9613 26.4921C70.2776 26.4921 71.3673 26.5437 71.4094 27.5227C71.4727 28.9758 69.8804 29.8449 67.3954 29.8449C64.9103 29.8449 63.5746 29.1819 62.355 27.2857C59.5571 29.0067 56.7838 29.8449 53.9824 29.8449ZM53.3426 22.9161C53.3145 24.1081 53.7855 25.0803 54.7627 25.7398C55.5184 26.2689 56.4147 26.5334 57.4973 26.5334C59.4832 26.5334 61.1318 25.6059 61.1177 24.4138C61.0931 23.6203 60.7592 22.5176 60.2073 21.1022C59.8277 20.0442 59.1142 19.6904 57.7152 19.6904C55.188 19.6904 53.3919 21.0129 53.3462 22.9126L53.3426 22.9161Z" fill="#143B19"/>
<path d="M84.2816 10.87C85.4099 10.1211 86.7667 9.72266 88.3906 9.72266C90.0145 9.72266 90.7842 10.0765 90.7842 10.8254C90.7842 11.0899 90.7386 11.3544 90.6472 11.6189L89.0865 16.1225C88.6577 17.6031 87.1006 17.3249 86.6507 16.6825C86.1375 16.0023 85.3642 15.4149 84.3273 15.4149C83.199 15.4149 82.25 15.8992 81.5259 16.9161C81.0303 17.5791 80.8018 18.9016 80.8018 20.8013V22.8316C80.8018 24.1988 80.8932 25.1263 81.0725 25.6107C81.2974 26.095 81.7508 26.4935 82.4257 26.8027C83.192 27.1565 83.554 27.5962 83.554 28.1699C83.554 29.0528 82.8756 29.4925 81.5224 29.4925H74.2078C72.7631 29.4925 72.0391 29.0528 72.0391 28.1699C72.0391 27.5962 72.4011 27.1565 73.1674 26.8027C74.2078 26.3183 74.387 26.095 74.5663 25.2156C74.7034 24.508 74.7913 22.8762 74.7913 20.3616V17.3592C74.7913 15.992 74.5663 15.7275 73.1674 15.5488C72.6261 15.4149 72.1726 14.9305 72.1726 14.3568C72.1726 13.9583 72.3976 13.6491 72.8967 13.3846L78.8124 10.0318C79.1744 9.81197 79.5364 9.72266 79.8493 9.72266C80.257 9.72266 80.5276 9.85663 80.6612 10.1624C80.7983 10.3822 80.8405 11.2204 80.8862 12.5911C80.8862 13.34 80.8862 13.8278 80.9319 14.1369C82.3765 12.5052 83.5048 11.3991 84.2746 10.87H84.2816Z" fill="#143B19"/>
<path d="M178.098 15.3076C179.62 16.6714 181.958 17.1626 183.005 19.0176C183.922 20.6425 183.82 22.5834 183.016 24.2289C182.14 26.0221 180.636 27.166 178.868 28.0626C175.124 29.9623 170.474 30.5669 166.39 29.423C164.914 29.0108 163.529 28.3134 162.386 27.3034C160.541 25.6854 159.462 22.975 159.462 20.0482C159.462 16.9462 160.587 14.4968 162.836 12.6178C165.044 10.7833 167.617 9.62567 170.534 9.8627C175.23 10.2474 175.666 13.0815 178.098 15.311V15.3076ZM167.529 14.8575C165.961 17.4821 165.321 20.9688 166.717 23.7961C167.146 24.6686 167.778 25.4381 168.569 26.0255C169.958 27.0527 171.929 27.6435 173.581 26.8191C175.096 26.0633 176.218 24.3835 176.351 22.7311C176.474 21.2368 175.979 19.8215 175.233 18.5401C174.759 17.7191 174.284 16.8981 173.806 16.0771C173.019 14.7133 172.306 13.0334 170.446 12.9647C169.107 12.9132 168.161 13.7995 167.529 14.8575Z" fill="#143B19"/>
</g>
<defs>
<clipPath id="clip0_144_1380">
<rect width="183.652" height="30" fill="white"/>
</clipPath>
</defs>
</svg>
