<svg width="48" height="50" viewBox="0 0 48 50" fill="none" xmlns="http://www.w3.org/2000/svg">
<path d="M40.8611 2.18037C41.5312 5.00437 38.8988 10.1254 31.5543 9.48358C24.1476 8.84176 29.7994 3.08567 31.3194 1.86283C34.3042 -0.697684 40.1909 -0.643636 40.8541 2.18037H40.8611Z" fill="#FFC452"/>
<path d="M36.6327 20.3337C39.6244 23.0159 44.219 23.982 46.278 27.6302C48.0813 30.8258 47.8809 34.6429 46.2987 37.879C44.5783 41.4056 41.6212 43.6554 38.1458 45.4187C30.7875 49.1548 21.6466 50.3438 13.6181 48.0941C10.7162 47.2834 7.99396 45.9119 5.74846 43.9256C2.12112 40.7436 0 35.4131 0 29.657C0 23.5563 2.21093 18.7393 6.63284 15.0438C10.9718 11.4361 16.0294 9.15934 21.7641 9.6255C30.9948 10.3822 31.8515 15.9559 36.6327 20.3405V20.3337ZM15.8567 19.4487C12.7751 24.6103 11.5177 31.4676 14.2606 37.0278C15.1036 38.7438 16.3472 40.2571 17.9018 41.4124C20.6309 43.4324 24.507 44.5945 27.7543 42.973C30.7322 41.4867 32.9363 38.183 33.1988 34.9334C33.4406 31.9946 32.4664 29.2111 31.0017 26.6911C30.0689 25.0764 29.1362 23.4618 28.1965 21.8471C26.6489 19.1649 25.2463 15.8613 21.5913 15.7262C18.9589 15.6248 17.1003 17.3679 15.8567 19.4487Z" fill="#FFC452"/>
</svg>
