<svg width="71" height="71" viewBox="0 0 71 71" fill="none" xmlns="http://www.w3.org/2000/svg">
<path d="M36.6176 42.9594C36.2704 43.8284 36.0917 44.7599 36.0917 45.7006H34.9083C34.9083 44.7599 34.7296 43.8284 34.3824 42.9594C34.0353 42.0903 33.5264 41.3007 32.8849 40.6355C32.2434 39.9704 31.4819 39.4427 30.6437 39.0828C29.8055 38.7228 28.9072 38.5375 28 38.5375L28 37.4056C28.2117 37.4056 28.423 37.4143 28.6333 37.4316C29.467 37.5003 30.2864 37.7041 31.0615 38.037C32.0321 38.4539 32.914 39.0649 33.6568 39.8351C34.1868 40.3846 34.6386 41.0075 35 41.6848L35 26L36.0767 26L36.0767 41.5443C36.4246 40.9213 36.85 40.3464 37.3432 39.8351C38.086 39.0649 38.9679 38.4539 39.9385 38.037C40.7136 37.7041 41.533 37.5003 42.3667 37.4316C42.577 37.4143 42.7883 37.4056 43 37.4056V38.5375C42.0928 38.5375 41.1945 38.7228 40.3563 39.0828C39.5181 39.4427 38.7566 39.9704 38.1151 40.6355C37.4736 41.3007 36.9647 42.0903 36.6176 42.9594Z" fill="#FFC452" stroke="#FFC452" stroke-width="0.5"/>
<circle cx="35.5" cy="35.5" r="35.25" stroke="#FFC452" stroke-width="0.5"/>
</svg>
