<svg width="19" height="15" viewBox="0 0 19 15" fill="none" xmlns="http://www.w3.org/2000/svg">
<path d="M15.6346 6.53146C16.3845 6.83234 17.1883 6.9872 18 6.9872L18 8.0128C17.1883 8.0128 16.3845 8.16766 15.6346 8.46854C14.8847 8.76943 14.2033 9.21044 13.6293 9.76641C13.0553 10.3224 12.6 10.9824 12.2894 11.7088C11.9787 12.4352 11.8189 13.2137 11.8189 14L10.8421 14C10.8421 13.8165 10.8496 13.6334 10.8646 13.4511C10.9238 12.7286 11.0997 12.0184 11.387 11.3467C11.7467 10.5055 12.2739 9.74122 12.9386 9.0974C13.4128 8.6381 13.9503 8.24654 14.5347 7.93332L1 7.93332L1 7.00021L14.4135 7.00022C13.8758 6.69868 13.3798 6.32997 12.9386 5.9026C12.2739 5.25878 11.7467 4.49446 11.387 3.65327C11.0997 2.98158 10.9238 2.27138 10.8646 1.54889C10.8496 1.36657 10.8421 1.18347 10.8421 1L11.8189 1C11.8189 1.78625 11.9787 2.5648 12.2894 3.2912C12.6 4.01761 13.0553 4.67763 13.6293 5.23359C14.2033 5.78956 14.8847 6.23057 15.6346 6.53146Z" fill="#FFC452" stroke="#FFC452" stroke-width="0.5"/>
</svg>
