<svg width="104" height="67" viewBox="0 0 104 67" fill="none" xmlns="http://www.w3.org/2000/svg">
<g clip-path="url(#clip0_336_946)">
<path d="M57.3586 13.8408C52.7291 18.5709 48.0997 23.6512 42.3747 27.1132C40.3532 28.3346 37.1511 29.0737 35.9938 31.2598C34.5818 33.9205 36.503 36.2156 38.0693 38.2617C42.2813 43.5989 47.2161 48.3129 52.7291 52.2654C55.1364 54.047 57.6055 55.7508 60.005 57.5479C62.042 59.1039 64.025 61.1033 66.7795 60.1308C69.2176 59.275 71.5246 56.8555 73.4536 55.1828C76.1618 52.8489 78.7233 50.336 81.2695 47.8231C85.899 43.2641 90.4512 38.2383 95.9834 34.7763C97.8274 33.6249 100.312 32.8936 100.813 30.4585C101.377 27.6578 98.7919 24.7403 97.3491 22.6398C93.5189 17.1729 89.1586 12.104 84.3327 7.50798C80.7526 4.02261 76.1232 -2.56691 70.5833 1.08961C65.244 4.6061 60.6532 10.2309 56.3633 14.9144C53.8402 17.6684 57.9064 21.8073 60.4526 19.0377C63.1531 16.0969 65.9333 13.2443 68.7932 10.4799C69.9737 9.34403 71.5632 7.21234 73.0678 6.55105C75.0199 5.70305 76.5244 8.10702 77.8824 9.39848C80.8452 12.2381 83.8003 15.0856 86.5239 18.1664C89.4559 21.4728 94.0622 26.1174 95.2273 30.4896L95.5205 28.2413C95.0421 29.3616 90.891 31.2598 89.6642 32.2012C87.3442 34.0324 85.1167 35.9798 82.9902 38.0361C78.4302 42.3694 74.1171 46.9673 69.3642 51.0906C68.5926 51.7597 66.2008 54.4438 65.244 54.3893C64.6422 54.3893 62.9679 52.5688 62.4664 52.2032C60.3677 50.6472 58.215 49.1457 56.1009 47.5975C53.4372 45.6737 50.9011 43.5765 48.5087 41.3192C47.467 40.3311 41.0013 34.4418 41.4102 33.2048L40.0831 34.9475C43.7327 32.8314 47.3127 31.0576 50.6228 28.3735C54.403 25.1175 58.0088 21.6609 61.4248 18.0186C64.0558 15.3501 59.9665 11.2268 57.3277 13.8875L57.3586 13.8408Z" fill="#143B19"/>
<path d="M36.511 32.8385C33.8182 36.2461 29.7906 38.2844 27.2521 41.8164C24.814 45.2473 24.7599 49.2073 26.6734 52.9105C28.695 56.8004 31.8584 61.5383 35.1607 64.5025C38.5633 67.5599 43.4551 66.7275 47.6833 66.7197C65.522 66.6808 83.3607 66.8286 101.199 66.9998C104.918 66.9998 104.926 61.196 101.199 61.1649C87.0797 61.0326 72.9676 60.8848 58.8556 60.8693H47.6833C45.6232 60.8693 43.3471 61.1882 41.3256 60.8693C38.8488 60.4803 37.6992 58.6676 36.2718 56.7615C33.7873 53.4395 29.127 48.6627 32.4139 44.6249C34.7981 41.7075 38.2393 39.957 40.608 36.9462C42.9767 33.9354 38.8334 29.8822 36.511 32.8229V32.8385Z" fill="#143B19"/>
<path d="M1.98278 52.2878C7.38377 54.2249 13.1551 54.8629 18.6101 56.6912C22.1516 57.8815 23.6716 52.2489 20.1533 51.0663C14.6983 49.2381 8.95006 48.6001 3.52592 46.6629C0.00755987 45.4104 -1.50472 51.043 1.98278 52.2878Z" fill="#143B19"/>
<path d="M9.98353 66.7753C12.6069 66.6509 15.2302 66.3941 17.8535 66.2852C21.5648 66.1296 21.5879 60.2947 17.8535 60.4503C15.2302 60.5592 12.6069 60.816 9.98353 60.9405C6.27228 61.1116 6.24913 66.9465 9.98353 66.7753Z" fill="#143B19"/>
</g>
<defs>
<clipPath id="clip0_336_946">
<rect width="104" height="67" fill="white"/>
</clipPath>
</defs>
</svg>
