<svg width="85" height="94" viewBox="0 0 85 94" fill="none" xmlns="http://www.w3.org/2000/svg">
<g clip-path="url(#clip0_336_911)">
<path d="M32.4299 21.7059C20.2574 23.9712 11.7438 34.4586 10.0826 48.0213C9.20189 54.9102 9.92508 62.3582 13.0183 68.5805C16.2405 75.0321 22.1119 78.3941 28.1409 80.5804C40.2203 85.0607 54.8846 87.6055 65.8041 79.8636C76.3011 72.2507 79.4087 56.8098 74.1315 46.3941C70.981 40.007 65.0881 34.0858 58.0423 29.3761C50.8462 24.6163 43.0487 22.4084 34.8931 21.2256C31.3129 20.7238 31.3917 25.8994 34.9647 26.4658C47.1372 28.4514 58.2213 33.8349 65.754 43.5769C72.8499 52.4944 73.573 64.8887 65.8256 73.5195C58.0853 81.8923 45.5762 80.2507 35.4516 77.0464C30.3892 75.455 24.3388 73.8421 20.2502 69.6271C16.04 65.2686 14.8442 58.2005 14.9946 52.3367C15.2523 39.8421 22.6991 28.9532 33.9551 26.9676C37.2273 26.3296 35.7523 20.9676 32.4013 21.6844L32.4299 21.7059Z" fill="#143B19"/>
<path d="M33.7533 23.6704C33.9806 28.2448 34.635 32.7879 35.708 37.2403C36.5386 40.7456 41.7513 40.423 40.9565 36.8961C40.027 32.8709 39.4804 28.7666 39.324 24.6381C39.2023 21.1901 33.5957 20.2869 33.7533 23.6704Z" fill="#143B19"/>
<path d="M46.334 82.8381C46.2911 79.5645 46.2505 76.2742 46.2123 72.9671C46.1765 69.5908 40.9924 68.7521 41.0712 72.2503C41.15 75.6624 41.2144 79.0675 41.286 82.4797C41.3648 86.0137 46.3698 86.1571 46.334 82.8094V82.8381Z" fill="#143B19"/>
<path d="M11.1205 59.6711C14.3426 58.9899 17.6176 58.5893 20.9087 58.474C24.2454 58.3736 24.1093 52.7392 20.7082 52.7894C17.3861 52.8752 14.0786 53.2639 10.827 53.9507C7.45445 54.7535 7.76951 60.4596 11.1205 59.6854V59.6711Z" fill="#143B19"/>
<path d="M61.936 60.2085C65.4087 60.0365 68.8887 59.8501 72.3757 59.4917C75.8628 59.1332 76.0919 53.9576 72.655 54.3734C69.218 54.7891 65.6164 54.8967 62.115 55.0472C60.6829 55.1117 59.4299 55.8716 59.3726 57.3985C59.3225 58.6673 60.5183 60.2658 61.936 60.2085Z" fill="#143B19"/>
<path d="M55.6061 71.2545C58.2936 73.3381 60.9525 75.2497 63.5827 76.9892C66.2248 78.7383 69.003 74.4731 66.3609 72.8028C63.7187 71.1326 61.0408 69.2186 58.3413 67.1469C55.6419 65.0752 52.8995 69.1111 55.6061 71.2401V71.2545Z" fill="#143B19"/>
<path d="M27.108 78.4944C27.6455 75.317 28.8037 72.2769 30.5163 69.5481C32.3565 66.7238 27.8025 63.3331 25.991 66.2435C24.0571 69.4857 22.7571 73.0667 22.1602 76.7955C21.5229 80.5589 26.4564 82.1718 27.108 78.4944Z" fill="#143B19"/>
<path d="M16.5404 37.2898C19.5048 39.1895 22.4477 41.297 25.3548 43.555C28.2618 45.8131 30.8825 41.5765 27.954 39.254C25.0254 36.9314 22.0753 34.745 19.0967 32.745C16.118 30.745 13.5474 35.4547 16.5404 37.3185V37.2898Z" fill="#143B19"/>
<path d="M58.6924 34.8236C55.6862 36.4747 53.0592 38.7384 50.9808 41.4687C49.0761 44.0493 53.6945 47.6479 55.6135 45.0099C57.1559 42.9263 59.1047 41.1778 61.3417 39.8701C61.6557 39.7026 61.9333 39.4742 62.1584 39.1983C62.3835 38.9224 62.5515 38.6045 62.6528 38.263C62.7541 37.9215 62.7865 37.5632 62.7483 37.209C62.7101 36.8549 62.6019 36.5118 62.4301 36.1999C61.7713 34.9454 59.9383 34.0924 58.6924 34.7662V34.8236Z" fill="#143B19"/>
<path d="M40.7494 50.0144C38.0141 51.7993 34.8636 52.7455 32.0997 54.552C30.855 55.2444 29.8903 56.3497 29.3717 57.6775C28.7487 59.6058 29.8442 61.4051 29.8084 63.4122C29.8084 64.8029 31.1116 66.5735 32.4578 66.5592C35.0355 66.5592 37.2552 65.8065 38.8662 63.8351C40.1837 62.2222 39.9976 59.5341 41.3795 58.1792L37.2194 54.1219C35.8051 55.9607 34.604 57.9543 33.6392 60.0645C32.3933 62.6954 35.5582 65.8782 37.7779 64.0789C41.1693 61.3408 43.7328 57.7121 45.1816 53.5986C46.2843 50.5592 41.1146 48.043 40.0477 51.104C38.877 54.4337 36.7954 57.3671 34.0402 59.5699L38.186 63.5914C39.1572 61.516 40.3581 59.5562 41.7662 57.7491C43.5133 55.5986 39.5751 51.7492 37.5989 53.6488C36.5408 54.6524 35.8139 55.9553 35.5152 57.3835C35.0856 59.2115 34.4913 60.9678 32.336 60.9678L34.9853 64.1434C34.9853 63.2187 34.1691 60.8316 34.3982 60.2079C34.7491 59.2258 36.6895 58.724 37.5416 58.3584C39.9559 57.3106 42.279 56.0638 44.4871 54.6309C47.1077 52.9391 43.3343 48.3728 40.7207 50.043L40.7494 50.0144Z" fill="#143B19"/>
<path d="M28.5478 12.7963C12.5159 15.8501 1.96159 31.8931 0.286073 50.6386C-0.594644 59.7713 0.493729 68.4164 4.25289 75.5992C8.39871 83.4845 16.0889 87.8573 23.9724 90.3806C39.41 95.4487 57.8048 96.2229 71.6314 85.9075C85.4508 74.3949 88.1574 52.1082 81.5985 40.316C77.7606 32.7462 70.6289 24.7031 60.9052 19.2479C51.5968 14.1655 41.2287 13.5777 31.1685 12.4451C27.5883 12.0795 27.6957 17.0257 31.2616 17.463C38.873 18.4522 46.9426 19.0042 54.3392 22.0365C62.1225 25.2623 68.5668 31.1978 72.8343 37.1691C81.5126 48.6386 82.9232 64.782 72.9059 78.3161C62.7956 90.7103 46.2624 90.0078 32.6005 86.6816C25.7338 84.9397 17.5639 82.9469 12.1507 77.2551C6.93084 71.7928 5.26251 63.205 5.20522 55.4774C4.99757 38.0365 14.5136 20.61 30.1374 17.7784C33.4025 17.0257 31.8845 11.9361 28.5478 12.7605V12.7963Z" fill="#143B19"/>
<path d="M38.8736 16.4868C39.568 12.4638 39.7412 8.36785 39.3892 4.30043C39.0884 0.924085 33.2886 0.637364 33.6609 3.87034C34.0461 7.35123 33.9714 10.8677 33.4389 14.3291C32.9377 17.4617 38.3581 19.7198 38.9023 16.4796L38.8736 16.4868Z" fill="#143B19"/>
<path d="M49.2489 18.0208C50.012 13.765 50.2524 9.43177 49.9649 5.11755C49.7215 1.53332 43.9216 1.21075 44.2367 4.68029C44.5653 8.38173 44.4282 12.1098 43.8286 15.777C43.2772 19.0674 48.6689 21.4329 49.2704 18.0064L49.2489 18.0208Z" fill="#143B19"/>
<path d="M26.3996 5.269C36.1804 4.87058 45.9773 5.27339 55.6924 6.47334C59.38 6.93212 59.5232 1.00378 55.807 0.66686C45.4672 -0.171428 35.0787 -0.221768 24.7313 0.516306C21.0724 0.745697 22.8052 5.41237 26.3996 5.269Z" fill="#143B19"/>
</g>
<defs>
<clipPath id="clip0_336_911">
<rect width="85" height="94" fill="white"/>
</clipPath>
</defs>
</svg>
