<svg width="86" height="87" viewBox="0 0 86 87" fill="none" xmlns="http://www.w3.org/2000/svg">
<g clip-path="url(#clip0_336_936)">
<path d="M40.0053 18.4359C39.9186 13.3674 39.8321 8.26308 39.7455 3.12307C39.7455 0.726605 36.2073 -1.17219 34.3963 0.94098C23.1018 14.5847 10.3019 29.4688 0.627459 36.1223C-0.480591 36.8879 -0.136738 39.1236 1.60558 41.03C15.3607 55.6768 25.7993 63.9993 36.9104 71.1811C38.7673 72.3908 41.3808 70.8825 41.4954 68.2869C41.8622 62.0163 41.9463 55.7304 41.7246 49.5134C41.6024 45.8766 35.8787 47.3849 36.0545 51.0447C36.3525 57.231 36.3372 63.3868 36.0545 69.4201C37.5828 68.4809 39.129 67.5034 40.693 66.4877C29.2304 59.2294 18.3868 51.0447 4.09679 37.2325C4.41264 38.8709 4.72599 40.4966 5.03675 42.1096C14.7265 33.9478 27.4957 18.7651 38.8131 5.29749C37.0403 4.64414 35.2572 3.94996 33.4639 3.21494C33.6066 8.69694 33.7518 14.0794 33.8995 19.3624C34.0141 23.3514 40.0129 22.2718 39.9365 18.4895L40.0053 18.4359Z" fill="#143B19"/>
<path d="M38.0866 22.2115C53.7904 18.6436 76.364 16.852 79.6652 36.9731C81.0484 44.7214 79.8028 53.1282 78.0223 60.5473C76.2417 67.9664 73.2156 75.1634 67.8053 81.3575C69.2725 82.1231 70.7244 82.9347 72.1764 83.7233C73.7888 71.8022 75.3935 58.4571 67.9581 49.8206C61.0271 41.8043 48.7774 44.4611 38.9195 47.3859C35.2439 48.3965 35.3432 54.0853 38.973 53.0976C47.0962 50.8006 57.9933 47.8759 63.8087 54.2384C70.1131 61.1292 68.1721 73.456 66.9265 83.7539C66.5444 86.8854 69.6699 87.942 71.2823 86.0891C76.8671 79.6402 80.938 72.0189 83.1957 63.7859C85.4042 55.6472 87.1083 46.1762 85.1215 36.2917C80.6587 12.4037 56.4497 13.154 38.0255 16.2319C34.1129 16.7372 34.2046 22.9312 38.0866 22.2115Z" fill="#143B19"/>
</g>
<defs>
<clipPath id="clip0_336_936">
<rect width="86" height="87" fill="white"/>
</clipPath>
</defs>
</svg>
