<svg width="85" height="78" viewBox="0 0 85 78" fill="none" xmlns="http://www.w3.org/2000/svg">
<g clip-path="url(#clip0_872_2323)">
<path d="M15.7903 2.39698C3.7304 16.7742 -4.70864 36.1762 2.90319 54.6923C10.5803 73.3681 32.2331 78.2331 50.6712 76.9697C59.6473 76.3525 68.5507 73.3246 74.5952 66.3756C80.422 59.6807 83.3317 50.6768 83.1721 41.8472C82.8601 24.8487 71.4677 8.87399 55.7144 2.69469C37.5156 -4.44308 15.9427 3.14489 5.04379 19.0179C3.05557 21.9151 7.77215 24.6381 9.74586 21.7699C18.0543 9.6582 33.8875 3.13037 48.3202 6.15829C62.7747 9.18622 74.2033 21.5376 77.0913 35.893C80.2478 51.5845 71.8523 67.6172 55.6636 70.8703C47.3769 72.5331 38.2122 71.6109 30.0271 69.8101C21.9074 68.0239 14.5713 64.2771 10.1304 57.0013C-0.202498 40.0682 8.04063 20.078 19.6362 6.24543C21.8711 3.58056 18.0398 -0.296929 15.7903 2.39698Z" fill="#1F3A1D"/>
<path d="M39.7288 4.44483C39.1048 28.0147 38.4807 51.5919 37.8567 75.1618C37.7623 78.669 43.2046 78.6617 43.2989 75.1618C43.9229 51.5919 44.547 28.0147 45.171 4.44483C45.2653 0.937661 39.8231 0.937661 39.7288 4.44483Z" fill="#1F3A1D"/>
<path d="M38.3565 1.18359C28.488 9.63565 23.0966 22.1177 22.1678 34.9555C21.1084 49.4925 25.9918 63.8261 33.1683 76.2718C34.9171 79.307 39.6191 76.5695 37.8704 73.5198C25.6145 52.2808 21.5655 22.7058 42.2024 5.0393C44.8654 2.75201 41.0051 -1.08191 38.3565 1.18359Z" fill="#1F3A1D"/>
<path d="M42.9069 5.48975C58.4281 25.9519 59.1392 55.5849 39.1119 73.4257C36.4924 75.7638 40.3527 79.5977 42.9577 77.2741C64.6467 57.9593 64.5233 25.0515 47.6017 2.74501C45.5119 -0.0142486 40.7881 2.70145 42.9069 5.48975Z" fill="#1F3A1D"/>
<path d="M4.17937 45.1292C30.2439 44.1925 56.3302 44.3667 82.3802 45.6375C85.8778 45.8117 85.8705 40.3658 82.3802 40.1915C56.3302 38.9208 30.2439 38.7466 4.17937 39.6833C0.681845 39.8067 0.667333 45.2526 4.17937 45.1292Z" fill="#1F3A1D"/>
<path d="M18.6494 67.5149C33.5247 58.3004 52.9715 57.0369 67.2156 68.2918C69.9367 70.4411 73.8116 66.6145 71.0614 64.4434C54.8799 51.6564 33.0603 52.1864 15.8992 62.8168C12.9314 64.6539 15.6598 69.3665 18.6494 67.5149Z" fill="#1F3A1D"/>
<path d="M12.9019 13.1794C28.9528 27.2735 52.1729 27.7382 68.8913 14.5228C71.6415 12.3517 67.7666 8.51774 65.0455 10.6743C50.7724 21.9583 30.3895 21.2975 16.755 9.331C14.1282 7.02919 10.2606 10.8631 12.9019 13.1794Z" fill="#1F3A1D"/>
</g>
<defs>
<clipPath id="clip0_872_2323">
<rect width="85" height="78" fill="white"/>
</clipPath>
</defs>
</svg>
