<svg width="85" height="89" viewBox="0 0 85 89" fill="none" xmlns="http://www.w3.org/2000/svg">
<g clip-path="url(#clip0_336_873)">
<path d="M16.8942 77.1932C15.7432 50.6229 14.237 26.4849 12.2595 4.77932C11.2708 5.65959 10.2898 6.54758 9.30876 7.45874C30.8523 6.36226 52.3881 7.59 73.9162 6.55529C72.9378 5.52574 71.9516 4.48332 70.9577 3.42803C71.3233 17.9448 71.3723 31.8283 71.1045 45.0787C70.9757 51.5855 70.7801 57.9456 70.5174 64.159C70.3887 67.1395 70.2471 70.0867 70.0926 73.0003C69.9613 75.6334 70.4556 79.8803 69.3588 82.2045L70.7028 80.5753C69.0575 81.6177 65.203 81.2084 63.3955 81.2856C61.0163 81.4015 58.6372 81.4632 56.2658 81.5096C51.2835 81.5945 46.3167 81.5713 41.3653 81.6022C31.6943 81.6022 22.0541 81.9266 12.5067 82.8223C9.09249 83.162 9.4169 89.1772 12.8311 88.9996C24.3715 88.2274 36.0045 87.5093 47.6762 87.185C53.7553 86.9842 59.8577 86.8298 65.9832 86.4978C69.7141 86.2893 74.1093 86.7449 74.9822 81.8648C76.0404 76.0349 75.8319 69.6723 76.1408 63.6416C76.4653 57.3408 76.7227 50.9369 76.9133 44.4301C77.3072 31.1488 77.3999 17.4583 77.1682 3.10371C77.1682 1.35089 76.0018 -0.0930653 74.2097 -0.0312919C52.4731 0.766614 30.7287 1.56711 8.97662 2.37016C7.31586 2.43193 5.88684 3.6674 6.01816 5.04185C8.28915 27.0486 10.0503 50.9935 11.4639 77.1546C11.6802 81.0154 17.0719 81.1158 16.9097 77.1546L16.8942 77.1932Z" fill="#143B19"/>
<path d="M24.6633 74.4375C32.3878 74.6074 40.0582 75.2869 47.7827 75.8352C51.2896 76.0668 51.4286 70.4918 47.8445 70.1675C40.0428 69.4879 32.2488 68.6231 24.478 68.376C20.9247 68.2834 21.1487 74.3758 24.6633 74.4375Z" fill="#143B19"/>
<path d="M25.7694 66.39C34.9152 66.0426 44.1536 67.0464 53.423 67.8263C56.9994 68.1042 57.1925 62.4674 53.5466 62.1586C44.1768 61.3169 34.8379 60.1509 25.5917 60.4366C22.0462 60.5679 22.2393 66.5445 25.7694 66.39Z" fill="#143B19"/>
<path d="M25.0655 57.604C37.6796 58.6078 50.2936 61.5652 62.9154 62.0594C66.5382 62.1675 66.824 56.4148 63.1394 56.3222C50.3786 55.8666 37.6487 52.7702 24.8879 51.7664C21.211 51.5039 21.435 57.3415 25.0655 57.604Z" fill="#143B19"/>
<path d="M22.9344 49.7748C36.3364 50.1686 49.7692 53.1723 63.2484 53.2032C66.933 53.2032 67.2265 47.273 63.4724 47.327C49.8542 47.3734 36.2746 44.3851 22.7336 44.0376C19.0181 43.9758 19.2499 49.6899 22.9344 49.7748Z" fill="#143B19"/>
<path d="M4.99047 60.4134C11.1087 52.66 17.9047 45.466 25.2981 38.9163C27.9321 36.5998 23.645 32.2757 21.0187 34.708C13.5439 41.5625 6.74127 49.1152 0.703399 57.263C-1.69118 60.452 2.60361 63.3245 4.99047 60.398V60.4134Z" fill="#143B19"/>
<path d="M25.1114 30.7165C18.5224 27.458 23.6283 19.1726 28.2012 17.1495C32.4033 15.2886 38.3898 16.5241 41.2015 20.5548C44.0132 24.5855 43.4029 30.3999 39.9192 32.9944C36.1497 35.8128 30.1786 34.6082 26.4477 31.2339C23.5511 28.6162 19.4957 32.3612 22.4001 34.9017C28.5333 40.3068 38.019 42.4535 44.0904 37.6506C50.1618 32.8477 50.7103 22.0451 44.7779 15.7674C38.8455 9.48964 28.2939 9.39698 22.1838 14.223C15.788 19.3116 12.4742 30.6625 22.2688 35.3495C25.6985 37.0946 28.5642 32.5388 25.0882 30.7165H25.1114Z" fill="#143B19"/>
<path d="M36.7528 17.4981C40.3634 17.4515 43.9738 17.6062 47.5671 17.9614C51.0122 18.3244 55.2916 18.3707 58.4972 19.6525L56.4271 17.4132C57.2922 20.5791 56.8133 24.6716 56.7824 27.8375C56.7824 31.2196 56.6202 34.563 56.4348 37.8756C57.4647 36.9645 58.4741 36.0353 59.4628 35.0881C52.9742 34.8951 46.4934 34.4163 40.0203 33.7677C36.2199 33.3971 36.2739 39.0957 40.0203 39.5358C46.4239 40.308 52.8429 40.8408 59.2619 41.0801C59.6483 41.0946 60.0338 41.0323 60.396 40.897C60.7582 40.7617 61.09 40.556 61.3723 40.2918C61.6545 40.0276 61.8816 39.7102 62.0405 39.3577C62.1993 39.0053 62.2867 38.6249 62.2977 38.2385C62.6066 33.6055 62.792 28.903 62.792 24.1079C62.792 21.0192 63.7344 15.614 60.6215 13.7763C57.7171 12.1084 52.8197 12.4404 49.5137 12.1239C45.2526 11.7522 40.9717 11.6619 36.6988 11.8536C35.951 11.8608 35.2367 12.1646 34.7131 12.6982C34.1894 13.2318 33.8992 13.9515 33.9064 14.699C33.9136 15.4465 34.2175 16.1605 34.7513 16.684C35.2851 17.2075 36.0051 17.4976 36.7528 17.4904V17.4981Z" fill="#143B19"/>
<path d="M56.5585 76.0271C64.7155 67.7804 73.8381 59.6263 83.9108 48.2291C86.9156 44.8007 83.0997 41.9205 80.1103 45.0169C70.0685 55.6728 60.9073 63.5489 52.758 71.7262C50.3634 74.1739 54.1484 78.5212 56.5585 76.0349V76.0271Z" fill="#143B19"/>
</g>
<defs>
<clipPath id="clip0_336_873">
<rect width="85" height="89" fill="white"/>
</clipPath>
</defs>
</svg>
