<svg width="81" height="89" viewBox="0 0 81 89" fill="none" xmlns="http://www.w3.org/2000/svg">
<g clip-path="url(#clip0_336_952)">
<path d="M11.31 65.0943C9.94047 71.8024 8.31709 78.4566 7.37076 85.2418C7.10147 87.1133 8.61714 89.7396 10.9176 88.7923C14.2995 87.4637 17.5226 85.7614 20.5271 83.7169C23.0506 81.9378 27.1437 77.4169 30.4367 78.4643C33.9835 79.5888 35.4992 74.0128 31.9754 72.8961C28.1285 71.6869 24.8894 73.4352 21.8196 75.6302C17.7881 78.5029 14.0028 81.3216 9.38652 83.2239L12.941 86.7744C13.8951 79.997 15.5108 73.3351 16.8802 66.6269C17.6496 62.9995 12.064 61.4515 11.3177 65.0866L11.31 65.0943Z" fill="#143B19"/>
<path d="M14.7951 64.3094C7.66294 56.6078 3.08515 42.4984 7.19362 32.2937C11.456 21.6732 22.835 11.0218 33.614 7.32506C44.6238 3.55126 61.6193 5.15321 68.7668 15.4272C75.7605 25.4932 76.3991 40.4113 73.7447 52.0022C71.752 60.7204 67.7282 67.8907 59.4266 71.8955C50.8173 76.039 40.9615 73.9672 31.9675 72.5347C28.3361 71.9571 26.7665 77.5177 30.4288 78.103C39.5382 79.5509 49.217 81.5456 58.2418 78.5574C62.1749 77.2966 65.8086 75.2434 68.9193 72.5242C72.03 69.805 74.5519 66.4773 76.3298 62.746C82.5772 49.1449 82.4848 31.0692 76.4067 17.4681C69.7439 2.58857 53.4793 -1.53181 38.4303 0.470613C23.7121 2.41912 10.6866 14.0794 3.53908 26.7409C-3.77 39.7104 1.06165 57.9247 10.7173 68.3989C13.2409 71.133 17.3109 67.0435 14.7951 64.3094Z" fill="#143B19"/>
<path d="M30.891 36.6822C35.1995 36.6822 39.3541 35.627 43.5549 34.8492L42.0162 29.2809C41.4161 29.512 40.8083 29.7276 40.1928 29.9278C39.1079 30.2975 37.8846 31.4297 38.077 32.7159C39.0156 40.4175 39.5388 48.2423 40.2082 56.0056C40.5313 59.6869 46.3016 59.7178 45.9785 56.0056C45.3091 48.2423 44.7859 40.456 43.8473 32.7159L41.7392 35.5346C42.3547 35.3421 42.9548 35.1264 43.5549 34.8877C44.2926 34.6834 44.919 34.1942 45.2963 33.5277C45.6736 32.8611 45.7709 32.0718 45.5669 31.3334C45.3628 30.595 44.8741 29.968 44.2082 29.5903C43.5423 29.2126 42.7538 29.1152 42.0162 29.3194C38.3001 29.9972 34.6763 30.9367 30.8833 30.9444C27.0903 30.9521 27.1595 36.7284 30.8833 36.7207L30.891 36.6822Z" fill="#143B19"/>
<path d="M32.7136 60.8513C40.2381 59.8963 47.7318 58.7257 55.3333 58.7411C59.0494 58.7411 59.0571 52.9725 55.3333 52.9648C47.7318 52.9648 40.2381 54.1201 32.7136 55.0751C29.0821 55.5372 29.036 61.3211 32.7136 60.8513Z" fill="#143B19"/>
<path d="M37.9386 17.4436C39.2773 17.5822 39.9698 18.3446 39.7774 19.4229C39.8698 19.1071 39.8467 19.1225 39.7236 19.4614C39.5209 19.7616 39.2226 19.9843 38.8773 20.0929C38.4772 20.0929 38.4387 20.0929 38.7695 20.0929C38.5544 20.1069 38.34 20.0559 38.1541 19.9466C37.8309 19.754 37.8001 19.523 37.6539 19.2303C37.6374 19.1245 37.6564 19.0162 37.7078 18.9223C37.6155 19.2457 37.6078 19.2688 37.7078 18.9762C37.8078 18.6835 37.8463 18.7836 37.6078 19.0301C37.8078 18.8838 37.7694 18.8992 37.477 19.0917C38.1694 18.9454 38.2464 18.8915 37.7617 18.9377H37.6155C37.277 18.8376 37.2231 18.8222 37.4385 18.8915C37.1385 18.7297 37.0769 18.6835 37.2539 18.7605C36.7053 18.2343 35.9749 17.9405 35.215 17.9405C34.4552 17.9405 33.7247 18.2343 33.1762 18.7605C32.6414 19.305 32.3418 20.0379 32.3418 20.8015C32.3418 21.565 32.6414 22.2979 33.1762 22.8424C35.4843 25.0065 38.9542 25.3993 41.4547 23.3122C43.7166 21.433 44.2013 17.7131 41.9394 15.6106C41.4281 15.1307 40.8158 14.7717 40.1475 14.5601C39.4793 14.3486 38.7721 14.2898 38.0781 14.3881C37.3842 14.4863 36.721 14.7392 36.1376 15.1281C35.5542 15.5169 35.0654 16.0318 34.7072 16.6349C34.3848 17.2167 34.1837 17.858 34.1163 18.52C34.0488 19.1819 34.1164 19.8507 34.3149 20.4857C34.5671 21.2613 35.0515 21.9405 35.7026 22.431C36.3536 22.9215 37.1397 23.1996 37.954 23.2275C39.4928 23.3892 40.8392 21.7796 40.8392 20.3394C40.8235 19.5783 40.5144 18.8528 39.9767 18.3146C39.439 17.7763 38.7143 17.467 37.954 17.4512L37.9386 17.4436Z" fill="#143B19"/>
</g>
<defs>
<clipPath id="clip0_336_952">
<rect width="81" height="89" fill="white"/>
</clipPath>
</defs>
</svg>
