<svg width="29" height="40" viewBox="0 0 29 40" fill="none" xmlns="http://www.w3.org/2000/svg">
<g clip-path="url(#clip0_872_2315)">
<path d="M13.0608 34.2175C9.17296 29.9044 5.76831 25.8551 4.01691 20.1822C2.38252 14.8823 1.64648 8.36191 6.88558 4.82862C11.4339 1.75865 19.8172 2.12027 23.7466 6.20728C27.238 9.83851 26.5813 15.5603 24.2071 19.5155C22.4972 22.367 20.5004 25.0301 18.8321 27.9118C16.9146 31.2228 15.1292 34.6092 13.1627 37.8939C12.2266 39.4571 14.6725 40.881 15.6086 39.3215C17.6997 35.8334 19.5757 32.221 21.6366 28.7141C23.4597 25.6065 25.7773 22.77 27.4268 19.5645C29.8538 14.8484 29.5821 8.43348 25.9094 4.3766C21.697 -0.27167 12.9626 -1.08531 7.46686 1.3104C1.29167 4.00369 -0.727725 10.0269 0.227241 16.3175C0.834946 20.3103 2.21644 24.2127 4.2396 27.7084C6.09292 30.9139 8.59923 33.4867 11.0602 36.2176C12.2794 37.5662 14.2762 35.566 13.0608 34.2175Z" fill="#1F3A1D"/>
<path d="M10.92 10.0202C10.2293 12.8077 10.2293 17.2262 13.4754 18.4354C16.5252 19.5692 19.643 17.2413 21.3303 14.8418C25.471 8.93917 13.4376 5.90687 10.6898 10.4836C9.74989 12.0468 12.1958 13.4707 13.1357 11.9112C13.7623 10.8678 15.876 11.2068 16.8763 11.3047C17.45 11.3612 18.7296 11.4215 19.1146 11.9715C19.6959 12.7926 18.8504 13.4518 18.3446 13.9717C17.4613 14.8682 16.0685 16.3523 14.638 15.8513C12.879 15.2373 13.3093 12.1523 13.649 10.7736C14.0831 9.00697 11.3541 8.2536 10.92 10.0202Z" fill="#1F3A1D"/>
</g>
<defs>
<clipPath id="clip0_872_2315">
<rect width="29" height="40" fill="white"/>
</clipPath>
</defs>
</svg>
