<svg width="45" height="62" viewBox="0 0 45 62" fill="none" xmlns="http://www.w3.org/2000/svg">
<g clip-path="url(#clip0_872_2307)">
<path d="M20.2656 53.037C14.2328 46.3519 8.94974 40.0754 6.23205 31.2825C3.69593 23.0676 2.5538 12.961 10.6834 7.48436C17.7412 2.72591 30.7498 3.28642 36.847 9.62129C42.2649 15.2497 41.2457 24.1185 37.5616 30.249C34.9083 34.6688 31.8099 38.7967 29.2211 43.2632C26.2457 48.3954 23.4753 53.6443 20.4238 58.7355C18.9712 61.1585 22.7666 63.3655 24.2192 60.9483C27.464 55.5418 30.375 49.9426 33.5729 44.5069C36.4019 39.69 39.9982 35.2936 42.5577 30.3249C46.3238 23.015 45.9021 13.0719 40.2032 6.78373C33.6666 -0.421089 20.1133 -1.68222 11.5854 2.03112C2.00324 6.20571 -1.13031 15.5416 0.351537 25.2921C1.29453 31.481 3.43822 37.5298 6.57762 42.948C9.45345 47.9166 13.3426 51.9044 17.1614 56.1373C19.0532 58.2276 22.1516 55.1273 20.2656 53.037Z" fill="#1F3A1D"/>
<path d="M16.9448 15.5311C15.873 19.8516 15.873 26.7003 20.9101 28.5745C25.6426 30.3319 30.4806 26.7237 33.0987 23.0045C39.5239 13.8554 20.8515 9.15535 16.5876 16.2492C15.1291 18.6723 18.9245 20.8792 20.3829 18.4621C21.3552 16.8448 24.6352 17.3702 26.1873 17.5221C27.0776 17.6096 29.0631 17.703 29.6606 18.5555C30.5626 19.8283 29.2506 20.85 28.4657 21.6558C27.0952 23.0454 24.9339 25.3458 22.7141 24.5692C19.9847 23.6175 20.6524 18.8357 21.1795 16.6988C21.8531 13.9605 17.6184 12.7928 16.9448 15.5311Z" fill="#1F3A1D"/>
</g>
<defs>
<clipPath id="clip0_872_2307">
<rect width="45" height="62" fill="white"/>
</clipPath>
</defs>
</svg>
