<svg width="34" height="48" viewBox="0 0 34 48" fill="none" xmlns="http://www.w3.org/2000/svg">
<g clip-path="url(#clip0_944_2424)">
<path d="M13.2429 13.5382C6.55428 16.7611 7.48806 25.0933 7.30477 31.2024C7.25334 32.9227 6.96952 34.6285 6.4609 36.2738C5.94905 37.9574 5.51674 39.617 5.67929 41.3899C5.94905 44.3345 7.57452 46.616 10.5211 47.3031C13.872 48.0829 17.3446 48.1996 20.7408 47.6467C24.393 46.9905 27.4986 44.7021 30.5386 42.7196C33.34 40.8951 34.2634 38.6824 33.9141 35.3908C33.6807 33.0418 33.0603 30.7469 32.0776 28.5979C31.6522 27.6668 30.7703 26.581 30.7876 25.5365C30.7876 24.8046 31.1335 24.1621 31.0712 23.3856C30.9346 22.5053 30.6026 21.6661 30.0994 20.9289C29.2281 19.4457 28.2109 18.0519 27.0629 16.768C24.4068 13.8371 20.7962 11.9096 17.0022 10.8582C15.3906 10.4115 14.7058 12.8957 16.3106 13.3424C19.1465 14.1292 21.9167 15.4486 24.0955 17.4483C25.0667 18.344 25.9386 19.3404 26.6963 20.4204C27.5021 21.568 28.6641 22.9218 28.4255 24.3786C28.2491 25.4918 28.0797 26.2924 28.5396 27.385C29.138 28.7766 29.9541 29.9895 30.4383 31.4463C31.1542 33.5869 32.3163 37.3389 30.7323 39.294C29.9196 40.2973 28.6054 40.8951 27.5263 41.572C26.2052 42.4001 24.929 43.3071 23.5387 44.0218C20.772 45.4477 17.6594 45.5165 14.6159 45.2553C13.2326 45.1351 11.7108 45.0835 10.4139 44.5681C8.85415 43.96 8.31809 42.431 8.23509 40.8779C8.10021 38.2907 9.48704 35.8271 9.76372 33.2639C10.3689 27.6736 8.18668 18.833 14.5537 15.7406C16.0546 15.0157 14.7404 12.7926 13.2429 13.5142V13.5382Z" fill="#1F3A1D"/>
<path d="M9.4454 33.2666C8.98889 30.8958 6.24979 29.3737 3.97067 30.3873C1.92327 31.2978 1.15551 34.7749 3.83235 35.3625V32.8783C2.31063 33.1154 0.0799294 33.7064 0.0038436 35.5687C-0.05495 37.0255 1.26618 38.5476 2.7706 38.1112L1.30422 36.218C0.847708 37.2729 -0.0065351 38.4686 0.346227 39.6711C0.698988 40.8737 1.5394 40.7672 2.53543 41.1383L1.76074 40.5439C2.41785 41.4029 2.31408 42.3065 3.36891 42.9147C3.79158 43.1527 4.26447 43.289 4.74971 43.3129C5.23495 43.3368 5.71907 43.2475 6.16334 43.0521C7.6816 42.4233 7.01412 39.9288 5.47165 40.5679C4.43411 41.0009 4.35802 39.4032 3.66633 38.8843C3.36856 38.6484 3.00798 38.5039 2.62879 38.4686C2.25182 38.4033 2.38672 38.4686 3.03691 38.685C3.21675 38.3002 3.38967 37.912 3.55568 37.5203C3.97415 36.5513 3.27898 35.2869 2.08928 35.6271L1.82645 35.7026L2.82593 35.8332C2.41783 35.9157 2.60114 35.8332 3.37929 35.5996C3.75078 35.4828 4.13312 35.4034 4.52058 35.3625C5.79674 35.1666 5.71374 33.1429 4.52058 32.8783C4.79541 32.7395 5.09936 32.6672 5.40767 32.6672C5.71598 32.6672 6.01993 32.7395 6.29476 32.8783C6.48951 32.9864 6.65194 33.1438 6.76555 33.3345C6.87915 33.5252 6.93986 33.7425 6.94149 33.9641C7.25275 35.5927 9.7532 34.9021 9.44194 33.2769L9.4454 33.2666Z" fill="#1F3A1D"/>
<path d="M25.6583 15.7845C26.8238 13.0048 27.6988 10.1186 28.7916 7.31148C29.7773 4.78263 29.6216 2.65579 27.512 0.738539C25.4992 -1.09625 23.6766 0.817565 22.8396 2.8001C22.1892 4.35564 21.6789 5.96536 21.3145 7.6104C21.1312 8.41785 20.9928 9.2356 20.8856 10.0534C20.813 10.6134 20.9133 11.9259 20.5156 12.3554C19.3916 13.5786 21.2072 15.4031 22.352 14.1765C23.5728 12.8502 23.3238 10.8264 23.6385 9.16001C23.8448 8.06355 24.1174 6.98041 24.4547 5.91649C24.7176 5.07812 25.2087 2.63174 26.3015 2.43933L25.302 2.30876C27.8855 3.43918 26.4641 6.08829 25.807 7.91964C24.9458 10.3248 24.1435 12.7299 23.1578 15.087C22.5145 16.616 25.0219 17.2826 25.6583 15.7742V15.7845Z" fill="#1F3A1D"/>
<path d="M11.6213 14.7978C9.89492 14.0905 8.4359 12.8621 7.4504 11.2862C7.00081 10.575 4.5384 5.44514 6.03245 5.08093C6.82443 4.89196 8.27007 6.34879 8.84763 6.77485C9.71707 7.384 10.554 8.03771 11.355 8.73333C13.1317 10.3407 14.2917 12.5108 14.6371 14.8733C14.8722 16.5089 17.3727 15.8148 17.1375 14.1862C16.6568 10.8602 14.6786 8.02896 12.0743 5.97771C10.1203 4.44528 6.693 1.04028 4.11992 3.22897C1.78892 5.21494 3.59424 9.58544 4.73207 11.7604C6.05938 14.2825 8.25907 16.2433 10.9262 17.2819C12.4721 17.9107 13.143 15.4197 11.6179 14.7978H11.6213Z" fill="#1F3A1D"/>
<path d="M17.0638 22.0074C17.4771 21.778 17.9189 21.6036 18.378 21.4886C18.6051 21.4295 18.8363 21.387 19.0697 21.3614C19.2046 21.3614 19.3394 21.3443 19.4778 21.3443C19.7752 21.3752 19.7406 21.3202 19.3706 21.1828C20.5291 22.3785 22.3621 20.554 21.2035 19.3617C19.9032 18.0217 17.1122 19.0181 15.7427 19.7844C14.2866 20.5918 15.5939 22.8183 17.0534 22.0074H17.0638Z" fill="#1F3A1D"/>
<path d="M17.9589 20.3159L17.9243 20.3572L18.1872 20.1579L18.1457 20.1854L18.4569 20.0583L18.4085 20.0754L18.7543 20.0273H18.7025L19.0483 20.0754H18.9964V22.563C19.3042 22.4497 19.5636 22.2813 19.8576 22.1473L19.5463 22.2779C19.6057 22.2544 19.6671 22.236 19.7296 22.2229L18.1353 21.3227C18.186 21.4842 18.2231 21.6497 18.246 21.8174L18.201 21.4739C18.201 21.6182 18.2287 21.7659 18.2356 21.9102C18.2356 22.2519 18.3722 22.5797 18.6154 22.8213C18.8587 23.0629 19.1885 23.1987 19.5325 23.1987C19.8765 23.1987 20.2063 23.0629 20.4496 22.8213C20.6928 22.5797 20.8294 22.2519 20.8294 21.9102V21.8552L20.781 22.1988C20.7837 22.1612 20.7918 22.1242 20.8052 22.0889L20.6738 22.3981C20.686 22.366 20.7049 22.3367 20.7291 22.3122L20.5251 22.5699L20.5597 22.5424L20.3003 22.7417L20.3418 22.7245C20.5614 22.5958 20.7381 22.4058 20.8498 22.178C20.9616 21.9503 21.0035 21.695 20.9703 21.4438C20.9371 21.1926 20.8304 20.9567 20.6633 20.7653C20.4962 20.5739 20.2761 20.4356 20.0305 20.3675C19.6921 20.2966 19.3395 20.3427 19.031 20.498C18.7811 20.6387 18.5748 20.8447 18.4346 21.0936C18.2943 21.3426 18.2255 21.6251 18.2356 21.9102H20.8156C20.8086 21.4798 20.7434 21.0522 20.6219 20.6389C20.5236 20.314 20.3031 20.0392 20.0062 19.8715C19.7093 19.7039 19.3588 19.6563 19.0276 19.7387C18.6802 19.8526 18.3462 20.0035 18.0315 20.1888L18.3428 20.0583L18.2909 20.0754C18.0206 20.1566 17.783 20.3206 17.6122 20.544C17.4413 20.7674 17.346 21.0387 17.3398 21.3192C17.3439 21.6003 17.4384 21.8727 17.6095 22.0965C17.7807 22.3203 18.0195 22.4838 18.2909 22.563C18.5538 22.6334 18.8308 22.6322 19.093 22.5597C19.3553 22.4872 19.5931 22.3459 19.7815 22.1507C20.0173 21.9044 20.1528 21.58 20.1619 21.2402C20.1588 20.8982 20.0225 20.5706 19.7815 20.3263C19.2939 19.883 18.4189 19.7834 17.9451 20.3263L17.9589 20.3159Z" fill="#1F3A1D"/>
<path d="M24.3917 21.3846C25.4742 20.5943 26.5359 19.8006 27.902 19.6082C28.5937 19.512 28.9741 18.6324 28.8081 18.0242C28.6006 17.2821 27.9089 17.0244 27.2103 17.124C25.6402 17.3439 24.3329 18.2476 23.0844 19.1615C22.7952 19.341 22.5859 19.6233 22.4991 19.9509C22.4124 20.2784 22.4547 20.6266 22.6175 20.9242C22.9426 21.4774 23.8245 21.8003 24.3917 21.3846Z" fill="#1F3A1D"/>
<path d="M25.3541 22.0656C25.482 21.9797 25.6031 21.8835 25.7276 21.7907L25.9213 21.6395L25.7933 21.7392C25.8458 21.6879 25.9052 21.6439 25.9697 21.6086C26.0804 21.5296 26.1945 21.4643 26.3155 21.3956C26.4366 21.3269 26.3155 21.4368 26.2464 21.4196C26.2868 21.4039 26.3285 21.3913 26.3709 21.3819C26.4712 21.3578 26.4262 21.3612 26.2394 21.3819L24.9667 19.7601C24.9598 19.8162 24.947 19.8715 24.9287 19.925L24.991 19.7807C24.991 19.8013 24.7869 20.1415 24.8941 19.9697C25.0013 19.7979 24.8007 20.0659 24.7696 20.1002C24.6831 20.1861 24.5967 20.2652 24.5033 20.3442L26.7167 21.2547C26.7167 21.1173 26.7167 21.1585 26.6994 21.375C26.7409 21.2444 26.7306 21.2753 26.6614 21.4643C26.53 21.6121 26.5127 21.6361 26.606 21.5365C26.44 21.6498 26.4193 21.6773 26.5403 21.6155C27.1594 21.3372 27.3565 20.3957 27.0038 19.8529C26.8232 19.5655 26.5387 19.3577 26.2088 19.2721C25.8789 19.1865 25.5286 19.2296 25.2296 19.3924C24.8924 19.5739 24.6112 19.8431 24.4163 20.1711C24.2213 20.4992 24.1199 20.8738 24.1229 21.2547C24.126 21.5071 24.2032 21.7531 24.3452 21.9625C24.4871 22.1719 24.6875 22.3355 24.9218 22.4332C25.159 22.5292 25.419 22.5549 25.6706 22.5073C25.9222 22.4598 26.1546 22.341 26.3397 22.1652C26.8929 21.7283 27.2895 21.1259 27.4707 20.4473C27.5194 20.2547 27.5239 20.0538 27.4837 19.8593C27.4436 19.6648 27.36 19.4817 27.2389 19.3237C27.1218 19.1603 26.9657 19.0284 26.7847 18.9396C26.6036 18.8509 26.4032 18.8081 26.2014 18.8152C25.6952 18.8532 25.206 19.0136 24.7765 19.2825C24.6416 19.3684 24.5137 19.468 24.3857 19.5642L24.1229 19.767L24.192 19.712C24.1291 19.7513 24.069 19.7949 24.0122 19.8426C23.721 20.0202 23.5102 20.3028 23.4239 20.6313C23.3375 20.9598 23.3823 21.3087 23.5488 21.6052C23.8946 22.1549 24.7281 22.4779 25.323 22.0656H25.3541Z" fill="#1F3A1D"/>
<path d="M30.7702 20.2453C29.2134 20.8437 27.7095 21.5701 26.2742 22.4168C24.7248 23.3136 23.1097 24.4784 21.301 24.7189C17.6523 25.2171 13.9102 23.7671 11.1746 21.4445C9.91228 20.3724 8.06201 22.1866 9.33818 23.2655C12.2959 25.8561 16.089 27.3101 20.0317 27.3646C24.3824 27.423 27.5642 24.1795 31.4446 22.7329C32.9905 22.1557 32.323 19.6646 30.7529 20.2453H30.7702Z" fill="#1F3A1D"/>
</g>
<defs>
<clipPath id="clip0_944_2424">
<rect width="34" height="48" fill="white"/>
</clipPath>
</defs>
</svg>
