<svg width="69" height="63" viewBox="0 0 69 63" fill="none" xmlns="http://www.w3.org/2000/svg">
<g clip-path="url(#clip0_742_470)">
<path d="M22.6896 1.97681C14.6755 4.62075 9.93235 14.6207 13.6586 22.4314C17.8326 31.2344 33.3219 30.9844 40.4784 26.5677C48.6822 21.5071 51.1032 9.51469 42.6945 3.3556C34.5969 -2.57622 21.3691 -0.129236 14.1519 6.06773C11.3667 8.4541 15.4117 12.4617 18.1742 10.0829C22.6745 6.22682 30.4684 4.68134 36.1451 6.37074C43.8708 8.64346 43.9922 17.6359 37.6022 21.6662C33.2157 24.4313 23.7141 25.1056 19.7147 21.1586C15.5634 17.0829 19.4263 8.99195 24.2074 7.41619C27.6681 6.27225 26.1882 0.787422 22.6896 1.93894V1.97681Z" fill="#1F3A1D"/>
<path d="M36.5705 47.2506C25.4701 47.4526 14.3673 47.647 3.26193 47.8339C-0.396014 47.8945 -0.403603 53.5763 3.26193 53.5157C14.3622 53.3289 25.4651 53.1344 36.5705 52.9324C40.2284 52.8642 40.236 47.1824 36.5705 47.2506Z" fill="#1F3A1D"/>
<path d="M5.29723 49.272C8.78821 43.0145 13.4935 34.8099 20.1111 31.4084C25.8333 28.4614 35.7902 28.3781 41.2771 31.8023C44.3887 33.7493 47.2498 28.8326 44.1534 26.8933C37.3232 22.6205 26.3494 22.7342 19.0184 25.6963C10.5489 29.1205 4.59904 38.7872 0.379511 46.4008C-1.40392 49.5978 3.51379 52.4614 5.29723 49.272Z" fill="#1F3A1D"/>
<path d="M35.9856 37.6139C40.0002 34.8639 44.455 31.5533 48.8871 29.5684L46.6938 29.8563C51.1562 31.3715 55.4517 35.0912 59.5346 37.4321C62.7144 39.2654 65.6058 34.3563 62.4108 32.523C59.7318 31.0078 57.0984 29.3639 54.465 27.7578C52.507 26.576 49.8585 24.2654 47.4451 24.2578C45.1684 24.2578 42.5806 26.7654 40.7516 27.8942C38.1941 29.47 35.6062 30.9927 33.1625 32.6896C30.1269 34.7427 33.0031 39.6745 36.0311 37.5988L35.9856 37.6139Z" fill="#1F3A1D"/>
<path d="M31.7969 37.007C32.5558 43.4009 33.383 50.0524 37.1548 55.4767C39.4315 58.7873 44.7439 64.1509 49.2974 62.7873C51.4147 62.1509 53.2512 59.8706 54.7083 58.3176C56.673 56.2345 58.3896 53.9313 59.8234 51.4539C62.8591 46.2342 64.4148 40.3857 63.4282 34.4009C62.8363 30.8024 57.3569 32.3327 57.9412 35.916C59.11 42.9767 53.9949 53.3403 47.8098 57.0827C47.2432 57.507 47.1825 57.6055 47.6277 57.3782C48.3866 57.1509 48.0072 56.9085 46.588 56.6206C45.873 56.1877 45.1814 55.7173 44.5162 55.2115C43.0699 53.9594 41.8638 52.4551 40.9569 50.7721C38.6801 46.5827 38.0731 41.6812 37.5191 36.9843C37.0941 33.4009 31.4023 33.3555 31.8273 36.9843L31.7969 37.007Z" fill="#1F3A1D"/>
<path d="M42.1177 46.5227C43.9846 48.0833 45.8592 50.2651 48.5153 49.9166C50.9135 49.5984 52.3706 47.5454 54.0933 46.053C58.3302 42.5391 62.8624 39.3961 67.6398 36.659C70.7741 34.7727 67.913 29.8408 64.7711 31.7499C61.3105 33.8333 57.941 36.0454 54.6701 38.4242C53.0991 39.5757 51.5357 40.7575 50.071 42.0302C48.2345 43.6287 48.2421 44.303 46.1399 42.5075C43.3547 40.1742 39.3097 44.1742 42.1177 46.5227Z" fill="#1F3A1D"/>
</g>
<defs>
<clipPath id="clip0_742_470">
<rect width="69" height="63" fill="white"/>
</clipPath>
</defs>
</svg>
