<svg xmlns="http://www.w3.org/2000/svg" viewBox="0 0 116.17 114.76"><defs><style>.cls-1{fill:#1f3a1d;}</style></defs><title>Asset 40</title><g id="Layer_2" data-name="Layer 2"><g id="Layer_1-2" data-name="Layer 1"><path class="cls-1" d="M51.52,42.09C40.55,46,35,60.16,39.72,70.79c5.28,12,25.51,12.06,35,5.77C85.43,69.45,88.52,53.11,78,44.35s-28.31-5.16-37.59,3.54c-3.53,3.3,1.78,8.6,5.3,5.3,6-5.6,17.58-8.46,25.21-4.59,8.75,4.44,7.44,16.13.22,21.34a18.55,18.55,0,0,1-12.27,3.14c-3.77-.26-9.88-1.12-12-4.64-3.65-6.1.1-16.78,6.65-19.12,4.51-1.61,2.57-8.86-2-7.23Z"/><path class="cls-1" d="M28.93,108.86A101.55,101.55,0,0,1,41.49,89.42c5.32-6.27,11.39-8.66,19.55-8.77,5.92-.08,13.84.19,16.92,6.24,3.28,6.46,2.72,16,2.69,23l3.75-3.75q-29.08.6-58.15,1.12c-4.82.09-4.84,7.59,0,7.5q29.07-.56,58.15-1.12a3.81,3.81,0,0,0,3.75-3.75c0-8.56.43-19.81-4.1-27.45-4.16-7-12.3-9-19.93-9.26-8.82-.32-17.73,1.11-24.45,7.24-7.28,6.64-12.77,16-17.21,24.65-2.2,4.29,4.27,8.09,6.47,3.79Z"/><path class="cls-1" d="M17.54,12.09.5,40c-1.43,2.34.39,5.79,3.24,5.64l51.31-2.75a3.8,3.8,0,0,0,3.24-5.64A116.39,116.39,0,0,0,31.78,2.45c-3.59-3.2-8.92,2.08-5.3,5.3A110.51,110.51,0,0,1,51.81,41l3.24-5.64L3.74,38.13,7,43.77,24,15.88c2.52-4.13-4-7.9-6.48-3.79Z"/><path class="cls-1" d="M67.57,10.41c0,7.67-.08,15.34,0,23,0,4.39,1,7.28,5.77,7.82,6.91.77,14.41,0,21.34-.35,4.16-.22,11,.8,12.38-4.33.77-2.83.14-6.23.07-9.12l-.28-11.26c-.09-4,1.65-13-2.59-15.5-2-1.19-4.37-.51-6.58-.25q-4.93.6-9.86,1.28c-7.08,1-14.13,2-21.2,3-4.76.69-2.73,7.92,2,7.23,5.62-.81,11.24-1.65,16.86-2.44,2.87-.4,5.73-.79,8.6-1.16l3.6-.45c.83-.1,4.18.06,3.08-.6L99.05,5.09c1,4.59.29,10.14.4,14.84s1.16,10.55.27,15.25l1.72-2.24c-1.29.86-5.19.37-6.75.45q-3.93.21-7.86.31c-3.16.08-11.24,1.21-13.25,0L75.31,36c-1.25-3-.23-8.76-.23-12.12V10.41c0-4.83-7.5-4.83-7.5,0Z"/><path class="cls-1" d="M13.79,40.6C3.67,48.6,2.51,62.17,1.85,74.12A3.78,3.78,0,0,0,5.6,77.87c13-.32,25.89-2.18,38.89-2.5,4.82-.12,4.83-7.62,0-7.5-13,.32-25.9,2.18-38.89,2.5l3.75,3.75C9.91,64,10.54,52.67,19.1,45.91c3.78-3-1.56-8.27-5.31-5.31Z"/><path class="cls-1" d="M46.46,43l2.23,5.08c.79,1.81,3.56,2.36,5.13,1.35a3.87,3.87,0,0,0,1.35-5.13l-2.24-5.09c-.79-1.8-3.56-2.36-5.13-1.34A3.86,3.86,0,0,0,46.46,43Z"/><path class="cls-1" d="M79.08,70.78a330.45,330.45,0,0,1,33.3-1.19,3.82,3.82,0,0,0,3.75-3.75C116.69,56,110.19,42.9,101,38.5c-4.58-2.19-10.59-2.88-15.64-3-5.74-.15-10.17,2.26-14,6.47-3.23,3.57,2,8.89,5.3,5.3,2.93-3.24,5.49-4.53,9.84-4.2,3.72.28,8.25.58,11.6,2.37,6.44,3.46,10.9,13.47,10.5,20.41l3.75-3.75a330.45,330.45,0,0,0-33.3,1.19c-4.78.38-4.82,7.89,0,7.5Z"/></g></g></svg>