<svg width="61" height="57" viewBox="0 0 61 57" fill="none" xmlns="http://www.w3.org/2000/svg">
<g clip-path="url(#clip0_872_2678)">
<path d="M11.3168 1.77239C2.62982 12.3321 -3.40946 26.5361 2.13202 40.0993C7.66255 53.6346 23.0671 57.1397 36.2124 56.2648C42.7659 55.8302 49.2592 53.5901 53.6409 48.3799C57.6726 43.5876 59.724 37.2351 59.7021 30.955C59.6583 18.4283 51.4419 6.58137 40.069 2.00643C26.9729 -3.26505 11.4645 2.27391 3.61449 13.8979C2.11561 16.1213 5.66587 18.2109 7.15928 16.0099C13.0727 7.2612 24.2815 2.53581 34.5439 4.67561C44.8337 6.82098 52.9407 15.6978 55.0961 26.0513C57.5468 37.8202 51.1519 49.6058 39.2047 51.7345C33.3568 52.7765 26.9182 52.0799 21.1689 50.7314C15.4469 49.3885 10.3704 46.5911 7.30151 41.3308C0.140806 29.0604 6.0105 14.7003 14.216 4.73133C15.9009 2.68069 13.0126 -0.289394 11.3168 1.77239Z" fill="#1F3A1D"/>
<path d="M28.4099 3.33878C27.9668 20.5017 27.5182 37.6647 27.0751 54.8277C27.004 57.5191 31.1068 57.5136 31.1779 54.8277C31.621 37.6647 32.0696 20.5017 32.5127 3.33878C32.5783 0.64731 28.4755 0.652882 28.4099 3.33878Z" fill="#1F3A1D"/>
<path d="M27.453 0.891923C11.3428 14.9622 14.1163 38.7118 23.7277 55.6908C25.046 58.0201 28.5908 55.9193 27.2725 53.5789C18.5308 38.1378 15.6425 16.7008 30.3578 3.85086C32.3654 2.09556 29.4497 -0.846664 27.453 0.891923Z" fill="#1F3A1D"/>
<path d="M30.6914 4.15691C41.7634 19.0296 42.2831 40.5223 27.9945 53.4893C26.0197 55.2836 28.93 58.2314 30.8938 56.4427C46.4351 42.3389 46.3585 18.3386 34.2307 2.04497C32.6607 -0.0669667 29.0941 2.01154 30.6914 4.15691Z" fill="#1F3A1D"/>
<path d="M3.08301 33.072C21.726 32.3922 40.3854 32.5148 59.0174 33.4454C61.6542 33.5791 61.6487 29.3998 59.0174 29.2661C40.3854 28.3411 21.726 28.2129 3.08301 28.8927C0.451763 28.9875 0.440822 33.1667 3.08301 33.072Z" fill="#1F3A1D"/>
<path d="M13.4875 49.3549C24.0946 42.6736 37.94 41.7431 48.0985 49.901C50.1499 51.5505 53.0711 48.6082 50.9978 46.9477C39.3733 37.6083 23.7499 37.9817 11.4143 45.7496C9.17688 47.1594 11.2337 50.7759 13.4875 49.3549Z" fill="#1F3A1D"/>
<path d="M9.24872 9.77941C20.7912 20.0772 37.432 20.4115 49.4449 10.7546C51.5182 9.08843 48.597 6.15178 46.5456 7.80121C36.3708 15.9759 21.8688 15.4911 12.1535 6.82604C10.1732 5.0596 7.2575 8.00182 9.24872 9.77941Z" fill="#1F3A1D"/>
</g>
<defs>
<clipPath id="clip0_872_2678">
<rect width="61" height="57" fill="white"/>
</clipPath>
</defs>
</svg>
