<svg width="89" height="75" viewBox="0 0 89 75" fill="none" xmlns="http://www.w3.org/2000/svg">
<g clip-path="url(#clip0_872_2624)">
<path d="M45.6431 69.0008C36.9888 63.6895 28.2186 58.5865 21.0093 51.322C14.1709 44.428 7.56428 35.2257 6.06523 25.3982C4.38074 14.3277 15.4149 7.44139 25.4524 9.47176C35.992 11.6025 45.4886 19.0909 50.5961 28.409C50.9439 27.0888 51.2916 25.7687 51.6393 24.4486C46.7017 26.8341 41.4396 30.4316 39.5928 35.8742C38.0938 40.2978 39.616 46.2422 44.4222 47.8789C46.7017 48.6586 48.9812 48.1027 51.0366 46.9602C53.9806 45.3235 55.9896 42.0811 58.555 45.8871C59.6213 47.4697 60.6567 49.0755 61.669 50.6889C62.1867 51.515 62.6967 52.341 63.1989 53.1748C63.4307 53.5531 64.7907 55.1048 64.8216 55.2746C65.463 55.4831 65.4707 55.5526 64.8525 55.4831C64.4584 55.4985 64.0721 55.4522 63.6857 55.3518C62.7971 55.2283 61.9162 55.0044 61.0508 54.7728C58.9645 54.217 57.0096 53.445 55.101 52.4414C52.3502 50.9977 48.8653 54.8809 51.5929 56.9885C53.9574 58.8104 53.4088 61.7209 51.7706 63.8593C53.092 63.5119 54.4133 63.1645 55.7346 62.8171C52.3888 60.8253 48.9735 58.9957 45.4268 57.3822C42.8459 56.2088 40.0256 58.6406 41.4628 61.3426C43.4409 65.0559 44.9168 68.9236 46.1067 72.9535C47.1576 76.5201 52.752 74.9993 51.6934 71.4172C50.3643 66.9087 48.6798 62.5701 46.4699 58.4244C45.1486 59.7445 43.8273 61.0647 42.5059 62.3848C46.0526 63.9983 49.468 65.8279 52.8138 67.8197C54.2819 68.692 55.8273 68.0127 56.7778 66.7775C59.8531 62.7708 59.9227 56.1547 55.696 52.8892C54.5292 54.4023 53.3547 55.9231 52.1879 57.4362C56.3064 59.5979 65.038 63.7126 69.3033 59.8681C71.521 57.8686 70.8951 55.0662 69.6742 52.6884C67.7347 48.9288 65.2311 45.2541 62.7894 41.7955C61.2826 39.657 59.5518 37.5958 56.7005 37.5881C53.8338 37.5804 51.6547 39.6262 49.4371 41.1238C47.9999 42.0888 46.3772 43.2391 45.249 41.2474C44.4068 39.7497 44.8936 37.9741 45.6508 36.5613C47.4976 33.1259 51.2066 31.0647 54.591 29.428C56.0282 28.7332 56.3373 26.7492 55.6342 25.4676C49.5993 14.5515 38.1479 5.75843 25.7151 3.65086C15.0209 1.82894 2.5417 7.86599 0.354952 19.2607C-1.71589 30.0533 5.5707 42.0502 12.0769 50.0482C20.4684 60.3699 31.5258 67.1326 42.7146 74.0034C45.9058 75.9566 48.8189 70.954 45.6431 69.0008Z" fill="#1F3A1D"/>
<path d="M53.1233 29.1736C56.5309 23.206 60.1549 17.2925 64.8375 12.2204C67.6656 9.15558 71.1814 5.36505 75.7094 5.64297C79.6656 5.89001 81.6592 9.1247 82.4474 12.6913C85.7855 27.8457 75.7944 44.3898 66.1279 55.275C63.663 58.0542 67.7428 62.1612 70.2232 59.3666C76.9071 51.8396 82.3237 42.9075 86.0173 33.5431C89.1931 25.4911 90.5762 14.6908 86.4191 6.70061C81.9838 -1.81457 71.7918 -1.63701 65.0538 3.98317C57.8522 9.98934 52.7215 18.2034 48.1162 26.2477C46.2617 29.4901 51.2688 32.4083 53.1233 29.1736Z" fill="#1F3A1D"/>
</g>
<defs>
<clipPath id="clip0_872_2624">
<rect width="89" height="75" fill="white"/>
</clipPath>
</defs>
</svg>
