<svg xmlns="http://www.w3.org/2000/svg" viewBox="0 0 87.73 110.12"><defs><style>.cls-1{fill:#1f3a1d;}</style></defs><title>Asset 30</title><g id="Layer_2" data-name="Layer 2"><g id="Layer_1-2" data-name="Layer 1"><path class="cls-1" d="M47.28,25.81a145.86,145.86,0,0,0,.58,20.37,3.83,3.83,0,0,0,4.75,3.62c9.29-1.64,19-1.18,28.46-1.3,2.2,0,3.5-1.71,3.75-3.75.88-7.38,1.85-14.75,2.85-22.11.34-2.54-1-4.53-3.62-4.75C73.23,17,62.39,16.3,51.56,15.42c-2.16-.18-3.57,1.87-3.75,3.75q-.33,3.31-.53,6.64c-.29,4.82,7.21,4.8,7.5,0q.19-3.33.53-6.64l-3.75,3.75c10.83.88,21.67,1.59,32.49,2.47l-3.61-4.75c-1.09,8-2.17,16.07-3.12,24.11L81.07,41c-10.13.13-20.46-.19-30.46,1.57l4.75,3.61a145.86,145.86,0,0,1-.58-20.37c.21-4.83-7.29-4.82-7.5,0Z"/><path class="cls-1" d="M61.62,18.77c0-2.58-.76-5.6-.21-8.13.74-3.4,3.59-3.34,6.47-3.07,2.26.22,6.38-.07,7.34,2.23.87,2.11-.16,6.24-.6,8.28-1,4.7,6.23,6.71,7.23,2,1-4.54,2.09-10.53-.28-14.84C79.11.76,73.75.68,69.28.22c-4.88-.5-9.5-.47-12.84,3.64-3.51,4.33-2.31,9.78-2.32,14.91,0,4.82,7.49,4.83,7.5,0Z"/><path class="cls-1" d="M30.72,82.36c-1.54-7.54-6.67-12-12.25-16.76C12.56,60.5,7.67,52.5,7.41,44.5,7.18,37.1,14.29,28,20.16,24.08c7.37-5,20.93-2.8,28.32,1.45,4.19,2.41,8-4.06,3.79-6.47-8.49-4.88-22.53-7.15-31.82-3.57C12,18.74,5.39,27.57,1.8,35.58-2.15,44.37,1,54.31,5.74,62.17c4.94,8.14,15.78,12.51,17.75,22.19,1,4.72,8.2,2.72,7.23-2Z"/><path class="cls-1" d="M63,46.3c-.09,2.82-2.57,6.12-3.88,8.5-2,3.68-4,7.45-6.34,10.94-3.63,5.46-8.07,9.6-7.64,16.66.3,4.8,7.8,4.83,7.5,0-.23-3.9,1.7-6.26,3.95-9.23a89.91,89.91,0,0,0,6.38-10c2.82-4.95,7.34-11,7.53-16.92.17-4.83-7.33-4.82-7.5,0Z"/><path class="cls-1" d="M23.76,91.2c9.45,1.34,17.59.58,26.37-3.26,4.41-1.94.6-8.4-3.79-6.48A36.48,36.48,0,0,1,25.76,84c-4.72-.67-6.76,6.56-2,7.23Z"/><path class="cls-1" d="M24.74,99.41c8.9,3,16.85.69,25.26-2.71,4.41-1.78,2.48-9-2-7.23-7.16,2.9-13.61,5.31-21.26,2.71-4.58-1.56-6.55,5.68-2,7.23Z"/><path class="cls-1" d="M26.23,105.13c6.42,6.34,14.23,6.36,21.63,1.63,4-2.6.29-9.09-3.79-6.48-4.55,2.91-8.43,3.61-12.54-.45-3.44-3.39-8.75,1.91-5.3,5.3Z"/><path class="cls-1" d="M38,76.19a10.1,10.1,0,0,0-2.45-11c-3.22-3.12-7.86-3.95-9.64-8.52C24.46,53,26.85,54,29.42,55a59.41,59.41,0,0,0,7.78,2.65c3.53.87,9.69,2.62,12.92.2a4,4,0,0,0,1.72-4.24l-.11-.6a3.65,3.65,0,0,0-2.61-2.62c-.81-.19-1.62-.35-2.44-.48-4.72-.81-6.75,6.41-2,7.24.81.12,1.63.28,2.43.47L44.5,55l.11.61,1.72-4.24c-1.59,1.2-7.95-1.13-9.71-1.67-2.9-.9-5.65-2.47-8.64-3.09-3.92-.8-8.18.68-9.67,4.61-1.6,4.19.47,9.17,3.08,12.47,2.41,3.06,11,6.31,9.34,10.51-1.79,4.48,5.46,6.43,7.23,2Z"/><path class="cls-1" d="M68.65,26.31l-.31-.09,2.24,1.72-.17-.32.38,2.89,0-.36-1,1.65-1.94.56L65.7,30.63c-.62-.89.57-2.19-.49-1A4.78,4.78,0,0,0,64,32.21a33,33,0,0,0-.18,4.66c-.11,4.83,7.39,4.83,7.5,0a24.21,24.21,0,0,1,.12-3.58l-1,1.65c1.24-1.5,2.47-2.78,2.55-4.87a4.77,4.77,0,0,0-4-5.13,5,5,0,0,0-5.28,2.77,4.29,4.29,0,0,0,2.86,5.84c4.64,1.35,6.62-5.89,2-7.24Z"/></g></g></svg>