<svg width="97" height="55" viewBox="0 0 97 55" fill="none" xmlns="http://www.w3.org/2000/svg">
<g clip-path="url(#clip0_763_425)">
<path d="M2.7811 55.0081C33.2558 54.8911 63.7382 54.6961 94.2206 54.6416C97.9225 54.6416 97.9301 48.7852 94.2206 48.793C63.7382 48.8476 33.2558 49.0425 2.7811 49.1595C-0.928401 49.1595 -0.936081 55.0159 2.7811 55.0081Z" fill="#1F3A1D"/>
<path d="M14.5292 47.0545C37.201 46.8439 59.842 46.5086 82.5368 46.4072C86.2463 46.4072 86.254 40.543 82.5368 40.5586C59.8728 40.66 37.224 40.9953 14.5292 41.2059C10.8274 41.2059 10.8197 47.0856 14.5292 47.0545Z" fill="#1F3A1D"/>
<path d="M21.0428 44.9712C21.9491 36.7364 21.5804 29.1957 27.8628 23.043C33.5921 17.4361 41.1955 15.2449 49.0062 15.1669C55.9183 15.1123 64.8887 15.2215 69.9499 20.6256C75.2569 26.287 77.1615 34.7635 77.2307 42.3433C77.2307 46.1019 83.0291 46.1097 82.9907 42.3433C82.9063 33.2819 80.464 23.7604 74.3814 16.8903C68.1835 9.872 57.7001 9.25593 49.0369 9.31832C39.8822 9.3885 31.027 12.11 24.2224 18.5123C21.1871 21.3155 18.8566 24.8155 17.4255 28.72C15.6207 33.8745 15.8895 39.6373 15.3135 44.9712C14.9064 48.7065 20.6896 48.6753 21.0736 44.9712H21.0428Z" fill="#1F3A1D"/>
<path d="M48.4228 12.2739C48.4535 9.27945 48.5124 6.28501 48.5994 3.29054L45.7194 6.21483C47.2554 6.21483 48.7914 6.08223 50.3275 5.98865C51.5179 5.91847 53.3996 6.23043 54.4901 5.87952C55.4271 5.96789 54.9945 5.47921 53.1922 4.41347L53.0924 5.10746C52.9396 5.80338 52.8369 6.5097 52.7852 7.22077C52.5701 8.7102 52.3781 10.1996 52.1861 11.6891C51.9941 13.1785 53.653 14.5978 55.0661 14.6133C56.7865 14.6133 57.7542 13.2487 57.9462 11.6891C58.192 9.77853 58.4684 7.86802 58.7142 5.96528C58.96 4.06255 59.1289 2.1676 57.3779 0.888713C55.9263 -0.171829 53.9371 -0.00808229 52.2398 0.0465044C50.0356 0.116687 47.8468 0.327263 45.6426 0.366253C44.8831 0.38026 44.1586 0.692853 43.6214 1.23826C43.0843 1.78366 42.7764 2.51935 42.7626 3.29054C42.6755 6.28501 42.6167 9.27945 42.5859 12.2739C42.5859 16.0404 48.3153 16.0404 48.346 12.2739H48.4228Z" fill="#1F3A1D"/>
</g>
<defs>
<clipPath id="clip0_763_425">
<rect width="97" height="55" fill="white"/>
</clipPath>
</defs>
</svg>
