<svg width="67" height="74" viewBox="0 0 67 74" fill="none" xmlns="http://www.w3.org/2000/svg">
<path d="M57.4439 3.25637C58.3836 7.47401 54.6925 15.1223 44.3943 14.1637C34.0089 13.2052 41.9336 4.60844 44.0649 2.78214C48.2501 -1.04199 56.5042 -0.961269 57.4342 3.25637H57.4439Z" fill="#143B19"/>
<path d="M51.6816 30.2907C55.8764 34.3054 62.3189 35.7515 65.2059 41.2123C67.7344 45.9956 67.4534 51.7092 65.2349 56.5532C62.8226 61.832 58.6762 65.1995 53.8032 67.8389C43.4856 73.4312 30.6686 75.211 19.4112 71.8435C15.3423 70.63 11.5253 68.5771 8.37671 65.604C3.29057 60.8409 0.316406 52.8621 0.316406 44.2461C0.316406 35.1144 3.41651 27.9041 9.61676 22.3725C15.7007 16.9723 22.7923 13.5644 30.8333 14.2622C43.7763 15.3948 44.9776 23.7377 51.6816 30.3008V30.2907ZM22.5501 28.9659C18.2293 36.692 16.4661 46.9563 20.3122 55.279C21.4941 57.8476 23.2379 60.1128 25.4177 61.8421C29.2444 64.8658 34.6793 66.6051 39.2326 64.1781C43.4081 61.9533 46.4986 57.0083 46.8667 52.1441C47.2058 47.7451 45.8398 43.5787 43.786 39.8067C42.4781 37.3897 41.1702 34.9728 39.8527 32.5559C37.6826 28.5412 35.716 23.5961 30.5911 23.3939C26.9 23.2422 24.2939 25.8512 22.5501 28.9659Z" fill="#143B19"/>
</svg>
