<svg width="77" height="74" viewBox="0 0 77 74" fill="none" xmlns="http://www.w3.org/2000/svg">
<g clip-path="url(#clip0_763_431)">
<path d="M5.96717 61.0889L6.68144 21.1655C6.75286 17.0735 5.26587 7.6009 10.1944 5.6261C12.7918 4.57719 16.4476 5.134 19.1619 5.2635C22.56 5.42848 25.9475 5.76562 29.3113 6.27358L27.5191 3.9297C26.8697 26.1597 26.2204 48.3897 25.571 70.6197L28.0061 68.1917C19.5107 68.9447 10.9823 69.2645 2.45416 69.1499L4.88922 71.578L5.79183 62.1896C6.09702 59.0817 1.24637 59.1011 0.921699 62.1896L0.0125919 71.5456C-0.117278 72.8406 1.23337 73.9607 2.44766 73.9736C10.9758 74.0882 19.5042 73.7684 27.9996 73.0153C28.6407 73.0005 29.2515 72.74 29.705 72.2878C30.1585 71.8356 30.4198 71.2266 30.4347 70.5873C31.0927 48.3573 31.742 26.1273 32.3827 3.89733C32.3821 3.36669 32.2072 2.85084 31.8847 2.42872C31.5622 2.0066 31.1099 1.70144 30.597 1.55994C24.136 0.588723 16.3113 -0.881037 9.81777 0.659955C3.97361 2.0585 2.22039 7.50376 1.96714 12.8908C1.22688 28.9158 1.37625 45.0379 1.09054 61.0824C1.03209 64.2032 5.90222 64.2097 5.96067 61.0824L5.96717 61.0889Z" fill="#1F3A1D"/>
<path d="M31.988 7.15474L44.04 6.94754C45.1569 6.94754 48.4815 6.53964 48.8776 7.08352C49.5659 8.03531 48.9555 11.3245 48.962 12.5806C49.04 20.8424 49.04 29.1063 48.962 37.3724C48.9101 45.427 48.791 53.4795 48.6049 61.5297C48.6049 62.7405 49.1504 65.9585 48.4231 66.9232C47.6958 67.888 43.8776 67.3635 42.8386 67.3894L30.0984 67.7002C26.9685 67.7779 26.9555 72.634 30.0984 72.5563L46.027 72.1678C49.4945 72.0836 52.3841 71.6822 53.1698 67.8167C54.1179 63.2261 53.5464 57.9427 53.6308 53.268C53.7131 48.1788 53.7759 43.0918 53.8192 38.007C53.8906 27.8869 54.3062 17.605 53.7412 7.4979C53.5529 4.07923 52.0075 2.14975 48.4425 2.02026C42.9815 1.81307 37.4036 2.20802 31.9491 2.29867C28.8192 2.35694 28.8127 7.21301 31.9491 7.15474H31.988Z" fill="#1F3A1D"/>
<path d="M43.2651 72.4786C51.9664 72.3297 60.6677 72.252 69.369 72.0384C72.0444 71.9736 74.5184 71.5657 75.2586 68.5938C76.2067 64.7672 76.0119 60.3126 76.2521 56.3889C77.3237 38.7928 77.2326 21.1455 75.9794 3.56133C75.9661 2.92152 75.7053 2.31159 75.2515 1.85908C74.7977 1.40657 74.186 1.14652 73.5443 1.13329C64.682 0.840336 55.8103 1.24518 47.0119 2.34407C43.9404 2.72608 43.9015 7.58862 47.0119 7.20014C55.8103 6.10125 64.682 5.6964 73.5443 5.98936L71.1093 3.56133C72.2217 19.0236 72.4385 34.537 71.7586 50.0242C71.5854 53.8443 71.356 57.6601 71.0703 61.4716C70.9989 62.4622 71.2326 66.6902 70.6027 67.1823C70.1287 67.5578 66.9729 67.2211 66.291 67.2341L43.2976 67.6226C40.1677 67.6744 40.1547 72.5304 43.2976 72.4786H43.2651Z" fill="#1F3A1D"/>
<path d="M14.3374 18.1612C16.5653 18.332 18.8055 18.2429 21.0127 17.8957C22.3114 17.7079 23.0322 16.0634 22.714 14.9109C22.3309 13.5123 21.0257 13.0202 19.7205 13.2145C17.9356 13.4518 16.1293 13.4822 14.3374 13.3051C13.6932 13.3102 13.0767 13.5676 12.6211 14.0219C12.1656 14.4761 11.9074 15.0908 11.9023 15.7331C11.914 16.3735 12.1743 16.9843 12.6284 17.4372C13.0826 17.89 13.6952 18.1495 14.3374 18.1612Z" fill="#1F3A1D"/>
<path d="M11.7004 26.0677C14.9617 25.8927 18.2319 25.9771 21.4797 26.3202C24.5966 26.6504 24.5706 21.7879 21.4797 21.4642C18.2319 21.121 14.9617 21.0366 11.7004 21.2116C8.58356 21.38 8.56408 26.236 11.7004 26.0677Z" fill="#1F3A1D"/>
<path d="M16.2063 36.5299C19.3426 36.5299 19.3491 31.6738 16.2063 31.6738C13.0634 31.6738 13.0699 36.5299 16.2063 36.5299Z" fill="#1F3A1D"/>
<path d="M37.2522 17.7936H41.7976C44.934 17.7936 44.934 12.9375 41.7976 12.9375H37.2522C34.1223 12.9375 34.1158 17.7936 37.2522 17.7936Z" fill="#1F3A1D"/>
<path d="M36.8821 27.9127H44.0249C47.1613 27.9127 47.1678 23.0566 44.0249 23.0566H36.8821C33.7457 23.0566 33.7392 27.9127 36.8821 27.9127Z" fill="#1F3A1D"/>
<path d="M58.3039 17.0416H66.1936C69.3299 17.0416 69.3299 12.1855 66.1936 12.1855H58.3039C55.1676 12.1855 55.1611 17.0416 58.3039 17.0416Z" fill="#1F3A1D"/>
<path d="M57.927 26.8127C60.3441 26.6484 62.7717 26.7244 65.1738 27.0393C66.4725 27.2206 67.7712 26.7221 68.1738 25.343C68.4985 24.2099 67.7712 22.5329 66.4725 22.3581C63.6446 21.9398 60.7818 21.8053 57.927 21.9567C54.8101 22.138 54.7906 26.994 57.927 26.8127Z" fill="#1F3A1D"/>
<path d="M62.0579 31.6754H61.7007C61.3762 31.6621 61.0539 31.7335 60.7657 31.8826C60.3324 32.076 59.9622 32.3866 59.6971 32.7791C59.4319 33.1717 59.2825 33.6305 59.2656 34.1034L59.3565 34.7509C59.478 35.1564 59.7016 35.5242 60.0059 35.8192L60.4994 36.2013C60.8716 36.4186 61.2954 36.5326 61.7267 36.5315H62.1033C62.4299 36.5457 62.7545 36.4742 63.0448 36.3243C63.3463 36.2268 63.6171 36.0528 63.8306 35.8192C64.0606 35.6067 64.2326 35.3393 64.3306 35.0423C64.4839 34.7539 64.5557 34.4294 64.5383 34.1034L64.4539 33.456C64.3325 33.0504 64.1089 32.6827 63.8046 32.3876L63.3111 32.0056C62.9369 31.7875 62.5108 31.6734 62.0773 31.6754H62.0579Z" fill="#1F3A1D"/>
<path d="M6.80597 55.2033C13.0593 54.5363 19.3526 54.3199 25.6371 54.5558C28.7735 54.6659 28.767 49.8098 25.6371 49.6997C19.3526 49.4638 13.0593 49.6802 6.80597 50.3472C3.72156 50.6774 3.68909 55.527 6.80597 55.2033Z" fill="#1F3A1D"/>
<path d="M31.6184 54.8146C37.5015 54.439 43.3889 54.3527 49.2807 54.5556C52.4171 54.6656 52.4106 49.8096 49.2807 49.6995C43.3846 49.5009 37.4972 49.5873 31.6184 49.9585C28.5015 50.1527 28.482 55.0088 31.6184 54.8146Z" fill="#1F3A1D"/>
<path d="M53.7791 55.1463C59.3892 54.4236 65.0556 54.2372 70.7012 54.5895C73.831 54.7837 73.8181 49.9276 70.7012 49.7334C65.0556 49.3811 59.3892 49.5676 53.7791 50.2902C50.7077 50.6852 50.6688 55.5477 53.7791 55.1463Z" fill="#1F3A1D"/>
<path d="M60.9351 63.5488L66.1884 63.0891C66.8295 63.0743 67.4403 62.8137 67.8938 62.3615C68.3473 61.9093 68.6086 61.3004 68.6234 60.6611C68.6234 59.4373 67.5065 58.123 66.1884 58.233L60.9351 58.6927C60.2939 58.7075 59.6832 58.9681 59.2297 59.4203C58.7762 59.8725 58.5149 60.4815 58.5 61.1207C58.5 62.3445 59.6169 63.6589 60.9351 63.5488Z" fill="#1F3A1D"/>
<path d="M37.5394 63.4853C39.0506 63.1586 40.6007 63.0474 42.1432 63.1551C42.7891 63.1551 43.4084 62.8993 43.8651 62.4439C44.3217 61.9886 44.5783 61.371 44.5783 60.727C44.5783 60.0831 44.3217 59.4655 43.8651 59.0102C43.4084 58.5548 42.7891 58.299 42.1432 58.299C40.1638 58.1912 38.1791 58.3612 36.2472 58.8041C35.9389 58.8891 35.6504 59.0338 35.3982 59.23C35.146 59.4262 34.9352 59.6699 34.7775 59.9474C34.6198 60.2249 34.5185 60.5306 34.4793 60.8471C34.4401 61.1637 34.4638 61.4848 34.5491 61.7922C34.6344 62.0995 34.7795 62.3871 34.9763 62.6386C35.173 62.89 35.4175 63.1004 35.6958 63.2576C35.9741 63.4148 36.2806 63.5158 36.5981 63.5549C36.9155 63.594 37.2376 63.5703 37.5459 63.4853H37.5394Z" fill="#1F3A1D"/>
<path d="M12.9411 63.7698C14.3427 64.1186 15.825 63.9194 17.084 63.213C17.6382 62.885 18.0407 62.3528 18.2048 61.7313C18.3688 61.1098 18.2811 60.449 17.9606 59.8915C17.6236 59.3459 17.0884 58.9511 16.4665 58.7894C15.8447 58.6278 15.1842 58.7117 14.6229 59.0238C14.5406 59.0768 14.4537 59.1223 14.3632 59.1598L14.6749 59.0238C14.6749 59.0238 13.8891 59.1728 14.4281 59.108C14.8697 59.0627 14.3308 59.108 14.2399 59.108C14.045 59.108 14.1424 59.108 14.519 59.1598C14.4226 59.1466 14.3272 59.1272 14.2334 59.1015C13.6108 58.9298 12.9453 59.0117 12.3833 59.3293C11.8213 59.6468 11.4088 60.1739 11.2366 60.7947C11.0644 61.4154 11.1465 62.079 11.465 62.6394C11.7834 63.1998 12.3121 63.6111 12.9346 63.7828L12.9411 63.7698Z" fill="#1F3A1D"/>
</g>
<defs>
<clipPath id="clip0_763_431">
<rect width="77" height="74" fill="white"/>
</clipPath>
</defs>
</svg>
