<svg width="64" height="78" viewBox="0 0 64 78" fill="none" xmlns="http://www.w3.org/2000/svg">
<g clip-path="url(#clip0_872_2734)">
<path d="M27.5487 20.8324C21.0316 22.9607 17.2058 31.1004 20.2059 37.4616C22.0416 41.3506 26.509 42.4533 30.4537 42.9632C34.5647 43.4908 38.8955 42.8979 42.4125 40.5799C48.7691 36.3886 50.5038 26.9328 43.9393 22.0477C37.345 17.139 26.509 19.1191 20.5979 24.1879C18.4177 26.0553 21.5841 29.1915 23.7466 27.33C27.5784 24.0456 34.5588 22.605 39.347 24.5199C44.9848 26.7727 44.8126 33.5133 40.1609 36.7443C38.1173 38.1611 35.6459 38.7006 33.1983 38.7243C30.7686 38.7481 26.0041 38.3212 24.4713 36.0447C21.9762 32.3454 24.8575 26.3873 28.7368 25.1187C31.4458 24.2294 30.2814 19.9372 27.5487 20.8324Z" fill="#1F3A1D"/>
<path d="M50.527 56.9372C37.5404 56.789 24.6014 58.1288 11.6208 58.3778C8.75734 58.4312 8.74546 62.8775 11.6208 62.8241C24.6014 62.5692 37.5404 61.2294 50.527 61.3835C53.3964 61.4131 53.3964 56.9668 50.527 56.9372Z" fill="#1F3A1D"/>
<path d="M13.1927 59.4017C15.9849 54.3922 19.7395 47.8473 24.9258 44.9898C29.7081 42.3576 38.1084 42.1323 42.8016 45.0669C45.2373 46.5905 47.477 42.7429 45.0531 41.2253C39.4094 37.6979 30.2843 37.8105 24.2842 40.3656C17.5295 43.2409 12.7709 51.0131 9.34311 57.1549C7.94703 59.6567 11.7966 61.9035 13.1927 59.4017Z" fill="#1F3A1D"/>
<path d="M3.2378 22.5924C7.6518 19.5215 12.2618 16.747 16.8541 13.9547C21.476 11.1387 25.9553 7.88992 30.6664 5.24585C32.9357 3.97125 35.4903 6.43746 37.522 7.64686C40.0647 9.16453 42.5955 10.7059 45.1203 12.2473C50.1878 15.3419 55.2493 18.4603 60.4059 21.4067C62.8951 22.8295 65.1466 18.9938 62.6575 17.5651C57.0612 14.3637 51.5838 10.9727 46.0827 7.61722C43.4509 6.01062 40.8132 4.40995 38.1577 2.84485C35.9834 1.56432 33.4348 -0.569909 30.7733 0.129643C28.4802 0.73434 26.2227 2.89821 24.2384 4.16689C21.6067 5.85055 18.9393 7.47493 16.2659 9.10524C11.1272 12.2354 5.94085 15.3182 0.998126 18.7508C-1.34254 20.3811 0.87931 24.2345 3.2378 22.5924Z" fill="#1F3A1D"/>
<path d="M0.427273 23.542C2.51249 41.5407 4.08679 60.9917 20.0734 72.481C23.2517 74.7634 27.5469 77.4016 31.4975 77.9529C35.561 78.5161 38.7453 74.3781 41.4721 71.9593C48.3218 65.8886 53.918 59.148 57.934 50.872C62.5322 41.3984 65.3719 30.6502 63.3223 20.1391C62.7757 17.335 58.4806 18.5207 59.0271 21.3189C61.0767 31.8299 57.3756 42.9516 52.2903 52.0814C49.8486 56.4684 46.9317 60.5056 43.4029 64.0804C41.7751 65.7226 40.0582 67.2758 38.3294 68.8054C36.7611 70.1926 34.0937 73.643 31.8718 73.4947C29.7391 73.3584 27.0241 71.5562 25.2063 70.495C23.1686 69.3034 21.2556 67.922 19.515 66.3273C16.1169 63.2267 13.4198 59.4859 11.4237 55.3538C6.68885 45.5483 6.11854 34.1776 4.88286 23.542C4.55611 20.732 0.10053 20.7023 0.427273 23.542Z" fill="#1F3A1D"/>
<path d="M42.2436 44.5691C45.3744 48.636 47.1507 53.2305 47.3527 58.3704C47.4655 61.222 51.9211 61.2338 51.8082 58.3704C51.5766 52.5072 49.6815 46.9879 46.0873 42.3282C44.3645 40.0872 40.497 42.2985 42.2436 44.5691Z" fill="#1F3A1D"/>
<path d="M14.9658 39.4779C17.0867 39.1637 19.2372 39.1519 21.37 39.3238C24.2275 39.555 24.2156 35.1087 21.37 34.8775C18.8154 34.67 16.3144 34.8182 13.7777 35.1917C12.5836 35.3696 11.9301 36.8695 12.2212 37.9247C12.5776 39.1993 13.7717 39.6558 14.9658 39.4779Z" fill="#1F3A1D"/>
<path d="M45.784 38.8312C48.4395 38.3984 51.1188 38.3154 53.804 38.4933C56.6675 38.683 56.6556 34.2308 53.804 34.047C50.7029 33.8454 47.6613 34.0411 44.5958 34.545C41.7799 35.0015 42.974 39.2877 45.784 38.8312Z" fill="#1F3A1D"/>
<path d="M30.4055 7.93229C22.9796 12.8054 14.9476 16.6293 7.52165 21.5024C5.13346 23.0675 7.36719 26.921 9.7732 25.344C17.1992 20.4709 25.2311 16.647 32.6571 11.7739C35.0393 10.2088 32.8056 6.35533 30.4055 7.93229Z" fill="#1F3A1D"/>
<path d="M31.0099 11.3937C38.8339 16.0831 47.0857 20.6835 53.977 26.7127C56.1216 28.592 59.288 25.4618 57.1256 23.5707C49.9432 17.2806 41.4182 12.443 33.2615 7.55212C30.7961 6.07594 28.5505 9.92348 31.0099 11.3937Z" fill="#1F3A1D"/>
</g>
<defs>
<clipPath id="clip0_872_2734">
<rect width="64" height="78" fill="white"/>
</clipPath>
</defs>
</svg>
