<svg width="77" height="89" viewBox="0 0 77 89" fill="none" xmlns="http://www.w3.org/2000/svg">
<g clip-path="url(#clip0_763_470)">
<path d="M28.2013 23.1791C30.9015 18.1188 35.6532 15.6914 41.1516 15.1588C44.7417 14.8163 44.7795 9.07121 41.1516 9.45168C33.6922 10.167 27.0021 13.3858 23.3214 20.3027C21.5942 23.5367 26.4741 26.3903 28.2013 23.1791Z" fill="#1F3A1D"/>
<path d="M67.7986 59.5061C68.055 61.4998 67.3913 63.2195 66.7351 65.1979C66.535 65.9285 66.6309 66.7093 67.0014 67.3686C67.372 68.0279 67.987 68.5117 68.7112 68.7135C69.4353 68.9153 70.2093 68.8186 70.8628 68.4448C71.5162 68.0709 71.9957 67.4504 72.1957 66.7198C72.95 64.437 73.7797 61.9868 73.4554 59.5137C73.2593 57.9918 72.3014 56.6602 70.627 56.6602C69.2543 56.6602 67.61 57.969 67.7986 59.5137V59.5061Z" fill="#1F3A1D"/>
<path d="M28.3535 10.8433C22.5514 19.102 17.2398 27.7005 12.4466 36.5936C8.25309 44.3324 3.81818 52.4669 1.04259 60.8601C-1.49164 68.4696 0.476942 76.8399 8.23804 80.1957C9.74651 80.8349 11.3455 81.223 12.8389 81.8774C14.7697 82.7296 14.9959 83.9776 16.2932 85.4386C16.7893 86.0294 17.4289 86.4803 18.1495 86.7471C18.87 87.0138 19.6467 87.0873 20.4039 86.9605C22.9457 86.5191 24.0241 84.3276 25.8041 87.6377C26.7168 89.3499 28.9267 89.3803 30.2391 88.216C34.5985 84.4113 40.459 83.4297 45.9121 82.1285C51.9913 80.6979 58.2213 79.2293 64.0138 76.8019C67.3249 75.417 65.8768 69.8925 62.5053 71.2927C56.0264 74.0016 49.0272 75.5463 42.2013 77.1215C36.3786 78.4607 30.8274 80.1044 26.2492 84.145L30.6917 84.7233C29.1002 81.748 26.6715 79.0163 22.9909 79.488C22.1374 79.5156 21.3079 79.7788 20.5924 80.249C19.6873 81.1088 20.3661 81.0099 20.0644 80.7816C19.0009 79.8913 18.4805 78.5368 17.2285 77.7379C14.5736 75.9877 11.1946 75.7822 8.59251 73.9331C4.51963 71.0568 5.33424 65.4714 6.84272 61.4156C13.1104 44.5379 22.9306 28.3145 33.241 13.6892C35.3529 10.6911 30.4502 7.83754 28.3535 10.8052V10.8433Z" fill="#1F3A1D"/>
<path d="M62.5337 27.0133C63.2801 32.6064 63.2801 38.2752 62.5337 43.8682C62.0586 47.4979 67.7153 47.4675 68.1905 43.8682C68.9326 37.7597 68.8513 31.578 67.9491 25.4914C67.4588 21.8694 62.0057 23.4141 62.496 27.0133H62.5337Z" fill="#1F3A1D"/>
<path d="M18.2678 36.1449C23.0497 41.6617 29.5814 41.5476 36.3243 40.8247C43.0671 40.1018 49.7874 38.7853 55.3989 34.8741C58.3706 32.7967 55.5498 27.8506 52.5403 29.9432C48.2261 32.9869 43.2104 34.1892 38.0665 34.8969C32.5907 35.6579 26.2778 36.7308 22.2728 32.1119C19.8744 29.3344 15.8844 33.3902 18.2678 36.1449Z" fill="#1F3A1D"/>
<path d="M62.8968 13.5685C64.1186 10.3497 65.9137 6.72 69.1192 5.19811C72.3247 3.67622 69.5491 -1.26991 66.2682 0.267199C61.6673 2.41306 59.1633 7.48095 57.4436 12.0238C56.1464 15.4556 61.6146 16.9395 62.8968 13.5457V13.5685Z" fill="#1F3A1D"/>
<path d="M31.1576 27.9713C31.1008 27.8973 31.055 27.8152 31.0218 27.7278L31.3084 28.4127C31.2633 28.2952 31.2329 28.1725 31.2179 28.0474L31.3159 28.8084C31.3084 28.7071 31.3084 28.6053 31.3159 28.504L31.2103 29.2649C31.2239 29.1683 31.2492 29.0738 31.2857 28.9834L30.9991 29.6606C31.0157 29.6146 31.0386 29.571 31.0671 29.5313L27.8691 30.8477C28.1934 30.9618 28.5403 30.9847 28.8571 31.1064C29.2214 31.2058 29.6015 31.2313 29.9757 31.1817C30.3498 31.1321 30.7104 31.0082 31.0369 30.8173C31.671 30.4374 32.1377 29.8278 32.3417 29.1128C32.4401 28.7453 32.4655 28.3617 32.4163 27.9843C32.3671 27.6068 32.2443 27.243 32.0551 26.9136L31.6101 26.3353C31.2664 25.9787 30.838 25.7167 30.3656 25.5744C30.0413 25.4526 29.6943 25.4298 29.37 25.3156L28.6158 25.2091C28.2364 25.1924 27.8593 25.2764 27.5221 25.4526C26.9582 25.6854 26.4844 26.0966 26.1721 26.6245C25.8024 27.268 25.6219 28.0043 25.6516 28.7475C25.6626 29.4858 25.8739 30.2069 26.2626 30.8325C26.6493 31.4615 27.2499 31.9268 27.9521 32.1413C28.6871 32.34 29.4701 32.2389 30.1318 31.8598C30.7684 31.4808 31.2336 30.8668 31.4291 30.1476C31.5325 29.7811 31.5611 29.3972 31.5131 29.0192C31.4652 28.6412 31.3416 28.2769 31.15 27.9485L31.1576 27.9713Z" fill="#1F3A1D"/>
<path d="M40.2684 27.4708C40.0659 27.3738 39.8694 27.2646 39.6801 27.1436L40.2533 27.5926C40.1735 27.5288 40.1025 27.4546 40.0421 27.3719L40.4796 27.9502L40.3815 27.7981L38.6921 31.9833C39.0557 31.8977 39.406 31.762 39.7329 31.5799L39.0541 31.8615L39.2653 31.7854C39.9742 31.5804 40.5803 31.113 40.9623 30.4766C41.3118 29.8004 41.4108 29.0206 41.2414 28.2774C41.0449 27.5608 40.5796 26.9495 39.944 26.5729C39.281 26.1982 38.5008 26.0947 37.7644 26.2838C37.4234 26.397 37.0906 26.5343 36.7687 26.6947L37.4475 26.4055C37.3641 26.4449 37.275 26.4706 37.1836 26.4816C36.7101 26.6214 36.281 26.8837 35.9391 27.2426C35.4296 27.7912 35.1349 28.5077 35.1094 29.2591C35.1062 29.7648 35.2392 30.2618 35.4941 30.6973C35.8454 31.2861 36.3285 31.7838 36.9045 32.1506C37.0629 32.2496 37.2439 32.3181 37.4098 32.417C38.0776 32.7768 38.8523 32.8795 39.5896 32.7061C40.2874 32.4831 40.8853 32.0199 41.279 31.3973C41.4679 31.0678 41.5905 30.704 41.6397 30.3266C41.6889 29.9492 41.6637 29.5657 41.5656 29.1982C41.3595 28.4865 40.8967 27.8784 40.2684 27.4937V27.4708Z" fill="#1F3A1D"/>
<path d="M54.0041 8.66014C59.0499 8.78189 65.8682 9.68741 68.7041 14.4966C70.1447 16.9316 71.0498 20.8429 68.229 22.6159C66.5018 23.704 63.0926 24.0464 61.1542 23.9627C56.2215 23.7497 50.512 19.9982 46.869 16.8707C45.9266 16.105 45.0602 15.2488 44.282 14.314C43.5967 13.5562 43.1345 12.6208 42.947 11.6126L43.9501 10.8517C45.7452 8.77429 50.4516 8.45469 52.8576 8.7895C56.4176 9.29172 57.9638 3.79771 54.3661 3.28788C48.1437 2.41279 34.6579 5.1598 37.7729 14.2987C39.2814 18.5905 43.5956 21.8397 47.2084 24.191C50.9796 26.6336 55.4523 29.1828 59.9852 29.6165C63.7564 29.9818 68.674 29.2209 71.9323 27.0826C75.6582 24.6324 76.2617 19.8688 75.2812 15.8054C72.9355 6.11859 62.7683 3.19657 54.0041 2.98351C50.3611 2.89219 50.3687 8.59927 54.0041 8.69059V8.66014Z" fill="#1F3A1D"/>
<path d="M24.5349 67.8606C27.1748 57.7781 39.5442 50.3589 48.9345 47.9239C54.2745 46.5542 60.7685 46.0672 66.1009 47.7565C68.4466 48.5175 71.4711 50.2144 71.3806 53.0831C71.3202 55.754 67.9412 57.2759 66.0556 58.4097C63.2725 60.1066 60.4743 63.4319 63.4083 66.5062C64.0382 67.0732 64.7569 67.5309 65.5352 67.8606C67.5264 68.9107 67.466 68.5075 65.588 69.7326C63.2649 71.2545 61.2512 72.4948 58.4831 73.0122C52.4387 74.0893 46.2907 74.4544 40.1627 74.1004C34.1892 73.7656 27.0465 72.7003 25.3268 65.8974C24.4293 62.3438 18.9686 63.8505 19.8737 67.4193C23.0491 79.9901 38.1112 80.3554 48.58 79.7162C53.8597 79.389 59.8935 79.2976 64.7508 76.9691C68.4164 75.219 74.4805 71.1555 72.4139 66.2398C71.7652 64.718 69.5478 62.8384 67.8884 62.6786C66.38 62.534 68.2656 63.4396 68.9293 63.3407C69.4432 63.1318 69.9236 62.8471 70.3548 62.496C71.48 61.8269 72.5472 61.0632 73.5452 60.2132C76.9921 57.1085 78.0707 52.4439 75.7325 48.2892C70.4529 38.8611 54.8552 40.1927 46.1664 42.7571C35.2677 45.9759 22.1214 54.6354 19.0667 66.3464C18.139 69.9 23.5921 71.4143 24.5198 67.8683L24.5349 67.8606Z" fill="#1F3A1D"/>
<path d="M53.4381 49.1638C50.2099 50.6248 45.8957 53.6306 47.0119 57.7625C48.362 62.6934 53.9208 62.5641 57.9032 61.6738C61.4104 60.9128 66.1319 58.2343 65.174 53.8893C64.1105 49.103 57.6317 49.2095 53.8605 49.2019C50.2251 49.2019 50.2175 54.9013 53.8605 54.909C54.7957 54.909 55.731 54.909 56.6662 55.0003C57.5512 55.1881 58.4487 55.3102 59.3513 55.3655C59.9748 55.6851 60.0955 55.6319 59.7134 55.2057C59.5399 54.7035 59.2683 54.734 58.8912 55.2742C58.1369 55.4949 57.5412 55.8982 56.7869 56.0884C56.0327 56.2787 52.6537 56.7428 52.6311 56.4993C52.5632 55.8069 55.9045 54.2774 56.3193 54.0947C59.6304 52.5729 56.7567 47.6724 53.4607 49.1638H53.4381Z" fill="#1F3A1D"/>
</g>
<defs>
<clipPath id="clip0_763_470">
<rect width="77" height="89" fill="white"/>
</clipPath>
</defs>
</svg>
