<svg width="98" height="82" viewBox="0 0 98 82" fill="none" xmlns="http://www.w3.org/2000/svg">
<g clip-path="url(#clip0_872_2579)">
<path d="M0.944309 61.3582C-0.531284 63.6536 -0.229819 66.4476 1.51551 68.5293C3.87963 71.347 7.79074 71.165 11.1307 71.0858C20.8172 70.8405 30.4958 70.5476 40.1824 70.2785C44.0062 70.1756 44.0221 64.2393 40.1824 64.3422C34.5736 64.5005 28.9726 64.6509 23.3638 64.8092C20.8172 64.8804 18.2706 64.9517 15.7161 65.0229C14.185 65.0625 12.6539 65.11 11.1307 65.1495C10.5595 65.1654 5.57735 65.1495 6.08508 64.358C8.14774 61.1287 3.00697 58.1447 0.944309 61.3582Z" fill="#1F3A1D"/>
<path d="M6.78333 61.6667C7.08479 50.4748 7.38626 39.275 7.69566 28.0752C7.75912 25.677 7.69566 23.2312 7.90192 20.8409C8.19545 17.4453 9.45685 16.1789 12.8126 15.5378C18.2469 14.5009 23.9113 14.4692 29.4329 14.493C33.2647 14.5088 33.2647 8.57252 29.4329 8.55669C23.0942 8.53294 16.3509 8.5092 10.155 10.021C5.1332 11.2478 2.53902 14.6513 2.03922 19.709C1.36489 26.5001 1.59495 33.4812 1.41249 40.2961C1.22209 47.4196 1.02376 54.5432 0.833357 61.6746C0.730224 65.4897 6.6802 65.4897 6.78333 61.6667Z" fill="#1F3A1D"/>
<path d="M43.213 14.8087C55.4937 15.1332 67.9728 14.8404 80.2138 15.7902C86.2352 16.2572 88.3772 20.1355 89.1785 25.7157C89.9797 31.3195 89.6386 37.2242 89.4561 42.8597C89.3451 46.1128 89.1626 49.3659 88.9167 52.611C88.7342 55.0014 89.0674 59.3547 88.0202 61.5155C86.8619 63.9137 82.5462 63.1618 80.4518 63.2251C77.7704 63.2964 75.0969 63.3755 72.4154 63.4467C61.6737 63.7475 50.9241 64.0404 40.1824 64.3411C36.3586 64.444 36.3427 70.3803 40.1824 70.2774C53.2089 69.9213 66.2354 69.5572 79.2619 69.1931C84.2122 69.0585 91.3205 69.9846 93.4386 64.2224C94.5731 61.1435 94.47 57.2651 94.7397 54.0357C95.057 50.3157 95.2712 46.5877 95.3982 42.8597C95.7155 33.2112 97.6195 16.7321 87.0523 11.3419C81.3721 8.445 73.1135 9.65601 66.9335 9.49771C59.024 9.29191 51.1066 9.08612 43.1971 8.87242C39.3812 8.76952 39.3812 14.7058 43.213 14.8087Z" fill="#1F3A1D"/>
<path d="M95.1281 49.5484C86.9092 49.7859 78.6982 50.0391 70.4793 50.2766C66.6555 50.3874 66.6396 56.3237 70.4793 56.2129C78.6982 55.9675 86.9092 55.7142 95.1281 55.4847C98.9519 55.3739 98.9678 49.4376 95.1281 49.5484Z" fill="#1F3A1D"/>
<path d="M73.9446 50.1736C50.8508 50.8622 27.749 51.5429 4.64728 52.2395C0.823428 52.3582 0.807562 58.2945 4.64728 58.1758C27.749 57.4792 50.8429 56.8065 73.9446 56.1099C77.7685 55.9912 77.7843 50.0549 73.9446 50.1736Z" fill="#1F3A1D"/>
<path d="M64.0145 63.1785C67.8462 63.1785 67.8462 57.2422 64.0145 57.2422C60.1827 57.2422 60.1827 63.1785 64.0145 63.1785Z" fill="#1F3A1D"/>
<path d="M72.6287 62.7019C76.4605 62.7019 76.4605 56.7656 72.6287 56.7656C68.8048 56.7656 68.7969 62.7019 72.6287 62.7019Z" fill="#1F3A1D"/>
<path d="M80.7684 62.7019C84.6001 62.7019 84.6001 56.7656 80.7684 56.7656C76.9366 56.7656 76.9366 62.7019 80.7684 62.7019Z" fill="#1F3A1D"/>
<path d="M31.7658 67.3798C31.9166 70.5854 31.3295 77.6536 33.9316 80.0677C35.3358 81.3736 37.4937 81.1362 39.2469 81.1045C41.9998 81.0491 44.7526 81.0016 47.5055 80.9462C50.0124 80.8987 52.5114 80.8512 55.0183 80.8038C56.8112 80.7721 59.1992 81.0887 60.7858 80.0122C63.9988 77.8435 63.7291 71.179 63.6418 67.8547C63.5466 64.0397 57.5966 64.0238 57.6918 67.8547C57.7236 69.0736 57.7474 70.2767 57.6363 71.4877C57.5966 71.8993 57.4776 74.7883 57.6284 74.5509C58.4693 74.9862 58.1044 75.0733 56.5256 74.8279C56.0258 74.8358 55.526 74.8437 55.0263 74.8595C53.7728 74.8833 52.5193 74.907 51.2738 74.9308C46.8232 75.0178 41.1827 76.0468 36.8352 75.1049C37.5254 75.7935 38.2235 76.4901 38.9137 77.1787C37.7317 74.3451 37.8665 70.4271 37.7237 67.3798C37.5333 63.5806 31.5834 63.5568 31.7658 67.3798Z" fill="#1F3A1D"/>
<path d="M24.7596 81.4776C39.7615 81.3351 54.7633 81.5093 69.7573 81.9921C73.5891 82.1187 73.5811 76.1824 69.7573 76.0558C54.7633 75.5651 39.7615 75.3988 24.7596 75.5413C20.9278 75.5809 20.9199 81.5172 24.7596 81.4776Z" fill="#1F3A1D"/>
<path d="M18.7371 45.0753C38.8639 45.6689 58.9431 44.9407 79.054 44.1888C82.8699 44.0463 82.8857 38.1101 79.054 38.2525C58.9431 39.0045 38.8639 39.7326 18.7371 39.139C14.9053 39.0282 14.9053 44.9645 18.7371 45.0753Z" fill="#1F3A1D"/>
<path d="M41.0965 32.1199C53.3772 32.3732 65.6342 32.2386 77.9149 32.017C81.7388 31.9458 81.7546 26.0095 77.9149 26.0807C65.6342 26.3023 53.3772 26.4369 41.0965 26.1836C37.2647 26.1045 37.2647 32.0408 41.0965 32.1199Z" fill="#1F3A1D"/>
<path d="M20.7685 33.5438C23.5372 29.2222 25.9489 24.6868 28.3527 20.1594C30.9152 15.3392 33.3586 8.77759 37.6347 5.20789C36.9365 5.50075 36.2305 5.78569 35.5323 6.07855C38.5232 5.77778 42.5771 7.28955 45.4331 8.09689C44.8381 6.64052 44.251 5.19206 43.656 3.73569C40.0781 10.4952 34.9611 16.4394 31.1611 23.1276C27.5277 29.5071 24.4733 36.5357 17.4524 39.8284C18.9438 40.6832 20.4353 41.538 21.9267 42.3928C21.6649 39.2031 21.4031 36.0133 21.1493 32.8314C20.8478 29.048 14.8978 29.0164 15.1993 32.8314C15.4532 36.0212 15.715 39.211 15.9768 42.3928C16.1672 44.7357 18.333 45.9546 20.4512 44.9573C27.4087 41.6884 31.2563 35.2139 34.8184 28.7394C36.9841 24.8056 39.2451 20.9114 41.7441 17.1755C44.0844 13.6691 46.8056 10.4635 48.781 6.71967C49.6774 5.02585 48.9158 2.8967 47.0039 2.35847C43.6957 1.43241 38.6263 -0.633418 35.1357 0.189748C31.9386 0.949593 29.8045 5.31871 28.2416 7.8911C23.7673 15.2917 20.2925 23.2463 15.6198 30.544C13.5651 33.7812 18.7138 36.7573 20.7685 33.5438Z" fill="#1F3A1D"/>
<path d="M18.23 34.5813C22.0777 35.175 25.9729 35.3966 29.8126 36.014C33.5571 36.6155 35.1676 30.8929 31.3913 30.2914C27.5516 29.674 23.6564 29.4524 19.8087 28.8588C18.2062 28.6134 16.6275 29.2624 16.1515 30.9325C15.7469 32.3335 16.6433 34.336 18.23 34.5813Z" fill="#1F3A1D"/>
</g>
<defs>
<clipPath id="clip0_872_2579">
<rect width="98" height="82" fill="white"/>
</clipPath>
</defs>
</svg>
