<svg width="43" height="42" viewBox="0 0 43 42" fill="none" xmlns="http://www.w3.org/2000/svg">
<path fill-rule="evenodd" clip-rule="evenodd" d="M42.5182 21.0781C42.5182 26.5051 40.291 31.71 36.3267 35.5475C32.3623 39.385 26.9855 41.5409 21.379 41.5409C18.6027 41.5414 15.8534 41.0124 13.2883 39.9843C10.7232 38.9561 8.39239 37.4489 6.42906 35.5487C4.46574 33.6485 2.90834 31.3925 1.84577 28.9097C0.783213 26.4268 0.236328 23.7656 0.236328 21.0781C0.236328 18.3906 0.783213 15.7294 1.84577 13.2465C2.90834 10.7636 4.46574 8.50767 6.42906 6.60747C8.39239 4.70728 10.7232 3.20006 13.2883 2.1719C15.8534 1.14375 18.6027 0.614789 21.379 0.615235C26.9855 0.615235 32.3623 2.77115 36.3267 6.60867C40.291 10.4462 42.5182 15.651 42.5182 21.0781Z" fill="#143B19"/>
<path fill-rule="evenodd" clip-rule="evenodd" d="M31.3756 14.9587C30.2073 14.7707 29.1495 14.178 28.3992 13.291C27.4036 12.2452 26.8609 10.8693 26.883 9.44727H22.7581V25.3782C22.7582 25.8277 22.6659 26.2726 22.4867 26.6872C22.3074 27.1018 22.0448 27.4778 21.7141 27.7932C21.3833 28.1086 20.9911 28.3572 20.5602 28.5245C20.1292 28.6918 19.6682 28.7746 19.204 28.7678C18.6454 28.7614 18.0959 28.6306 17.5979 28.3854C17.1 28.1403 16.6671 27.7875 16.3327 27.3543C15.917 26.7758 15.6979 26.0863 15.7059 25.3816C15.7059 24.4827 16.0748 23.6205 16.7315 22.9849C17.3882 22.3492 18.2788 21.9921 19.2075 21.9921C19.5636 21.9877 19.9182 22.038 20.258 22.1412V18.0975C19.9113 18.0357 19.56 18.0017 19.2075 17.9957H19.0535C17.0588 18.0382 15.1604 18.8343 13.764 20.2139C12.3677 21.5934 11.5842 23.4469 11.5811 25.3782C11.5865 27.2356 12.3141 29.0229 13.619 30.3846C14.3427 31.1178 15.2121 31.7017 16.1749 32.1013C17.1377 32.5009 18.174 32.7079 19.2215 32.7099C21.2434 32.7207 23.1872 31.955 24.6267 30.5806C26.0662 29.2062 26.8839 27.3354 26.9006 25.3782V17.0874C27.669 17.7563 28.5701 18.2669 29.5489 18.588C30.5278 18.9091 31.5639 19.034 32.5941 18.955V14.9621C32.2007 15.0639 31.7866 15.0639 31.3931 14.9621L31.3756 14.9587Z" fill="#FFC452"/>
</svg>
