<svg width="43" height="42" viewBox="0 0 43 42" fill="none" xmlns="http://www.w3.org/2000/svg">
<path fill-rule="evenodd" clip-rule="evenodd" d="M42.9971 20.9296C42.9971 26.3567 40.7699 31.5615 36.8056 35.399C32.8412 39.2365 27.4644 41.3924 21.8579 41.3924C16.2515 41.3924 10.8746 39.2365 6.91024 35.399C2.94588 31.5615 0.71875 26.3567 0.71875 20.9296C0.71875 15.5025 2.94588 10.2978 6.91024 6.46024C10.8746 2.62271 16.2515 0.466797 21.8579 0.466797C27.4644 0.466797 32.8412 2.62271 36.8056 6.46024C40.7699 10.2978 42.9971 15.5025 42.9971 20.9296Z" fill="#143B19"/>
<path d="M24.0437 19.3754L31.8908 10.5625H29.6043L23.0282 17.9348L17.8284 10.6371L17.7758 10.5625H11.2033L19.3761 22.0328L11.1543 31.2457H13.4373L20.388 23.4496L25.889 31.1677L25.9416 31.2423H32.5141L24.0437 19.3754ZM16.7219 12.2403L29.3486 29.6627H26.9816L14.3513 12.2403H16.7219Z" fill="#FFC452"/>
</svg>
