<svg xmlns="http://www.w3.org/2000/svg" viewBox="0 0 1024 1024"><defs><style>.cls-1{fill:#143b19;}.cls-2{fill:#ffc352;}</style></defs><g id="Layer_2" data-name="Layer 2"><g id="Layer_1-2" data-name="Layer 1"><g id="Layer_2-2" data-name="Layer 2"><g id="Layer_1-2-2" data-name="Layer 1-2"><path class="cls-1" d="M512,0h0c282.77,0,512,229.23,512,512h0c0,282.77-229.23,512-512,512h0C229.23,1024,0,794.77,0,512H0C0,229.23,229.23,0,512,0Z"/><path class="cls-2" d="M732.46,197.72c8.53,36.74-25,103.39-118.4,95.06-94.25-8.33-22.4-83.14-2.95-99.2C649.16,160.31,724,161,732.46,197.72Z"/><path class="cls-2" d="M678.72,433.9c38.06,35,96.53,47.37,122.67,94.93,22.87,41.48,20.41,91.14.33,133.34C779.83,708,742.1,737.3,698,760.3c-93.58,48.67-209.87,64-312,34.78-36.92-10.66-71.54-28.41-100.13-54.23-46.22-41.48-73.17-110.93-73.17-185.7,0-79.38,28.09-142.1,84.44-190.13,55.21-47,119.57-76.6,192.41-70.4C607,304.21,618,376.73,678.72,433.9ZM414.44,422.3c-39.2,67.13-55.2,156.31-20.26,228.67a156.8,156.8,0,0,0,46.21,57c34.63,26.29,84,41.32,125.28,20.27C603.57,709,631.5,666,634.93,623.71c3.11-38.22-9.31-74.47-27.93-107.3-11.93-21.08-23.68-42-35.61-63.06-19.76-34.78-37.57-77.86-84.12-79.7C454,372.65,430.29,395.19,414.44,422.3Z"/></g></g></g></g></svg>