<svg width="87" height="67" viewBox="0 0 87 67" fill="none" xmlns="http://www.w3.org/2000/svg">
<g clip-path="url(#clip0_872_2452)">
<path d="M0.827134 48.3454C-0.491151 50.4636 -0.204271 53.1471 1.53067 54.9861C3.49786 57.0703 6.47595 57.0907 9.13301 57.0226C17.9648 56.7978 26.8035 56.5186 35.6353 56.2666C38.9276 56.1712 38.9413 51.063 35.6353 51.1583C30.4237 51.3082 25.2188 51.458 20.0072 51.601C17.514 51.6692 15.0277 51.7441 12.5346 51.8122C12.3297 51.819 4.56341 52.0369 5.26012 50.9199C6.98824 48.1206 2.56208 45.5529 0.827134 48.3454Z" fill="#1F3A1D"/>
<path d="M35.6276 56.2668C49.1657 55.8785 62.9359 56.2055 76.4262 55.0816C84.3017 54.4278 83.6802 46.3772 84.1446 40.2541C84.7252 32.578 85.1965 24.6364 84.5203 16.9536C84.09 12.036 82.8537 6.44416 78.5641 3.41325C76.03 1.62195 73.1134 1.34951 70.0943 1.22691C65.9004 1.06345 61.6996 1.00215 57.5057 0.886364C49.3296 0.668411 41.1535 0.443648 32.9842 0.225695C25.1223 0.0213645 16.6662 -0.509895 8.95455 1.42443C0.635012 3.50861 1.69374 12.0632 1.51615 18.9356C1.25659 28.8047 0.997028 38.6807 0.737469 48.5499C0.648673 51.8396 5.77154 51.8396 5.86034 48.5499C6.04476 41.5958 6.22236 34.6418 6.40678 27.6809C6.49558 24.3163 6.58437 20.9516 6.67317 17.587C6.74147 14.9988 5.90815 9.3729 7.97779 7.3364C9.89033 5.45656 14.7127 5.62683 17.1443 5.44294C20.6552 5.17731 24.1797 5.15687 27.6974 5.21136C34.5416 5.31353 41.3857 5.55872 48.2231 5.74943C55.0672 5.93333 61.9182 6.11042 68.7624 6.30112C71.6653 6.38286 74.6844 6.25345 76.7335 8.65093C78.3114 10.4967 78.892 13.153 79.2267 15.4824C80.0873 21.4625 79.6775 27.8035 79.4111 33.8176C79.2745 36.8349 79.0764 39.8522 78.81 42.8627C78.6802 44.3066 78.8442 47.1809 78.2226 48.4545C77.3346 50.2731 75.1557 50.0279 73.5232 50.0755C60.8936 50.4365 48.2572 50.7975 35.6276 51.1585C32.3353 51.2539 32.3217 56.3621 35.6276 56.2668Z" fill="#1F3A1D"/>
<path d="M84.5267 37.6105C76.9995 37.8285 69.4723 38.06 61.9451 38.278C58.6528 38.3733 58.6391 43.4816 61.9451 43.3863C69.4723 43.1683 76.9995 42.9299 84.5267 42.7188C87.819 42.6302 87.8326 37.522 84.5267 37.6105Z" fill="#1F3A1D"/>
<path d="M65.1293 38.1832C44.5695 38.803 24.0166 39.4568 3.45677 40.0766C0.164473 40.1788 0.150812 45.287 3.45677 45.1849C24.0166 44.5651 44.5695 43.9112 65.1293 43.2914C68.4148 43.1893 68.4284 38.081 65.1293 38.1832Z" fill="#1F3A1D"/>
<path d="M56.0232 49.7684C59.3223 49.7684 59.3223 44.6602 56.0232 44.6602C52.724 44.6602 52.724 49.7684 56.0232 49.7684Z" fill="#1F3A1D"/>
<path d="M63.9203 49.3329C67.2194 49.3329 67.2194 44.2246 63.9203 44.2246C60.6211 44.2246 60.6143 49.3329 63.9203 49.3329Z" fill="#1F3A1D"/>
<path d="M71.3722 49.3329C74.6713 49.3329 74.6713 44.2246 71.3722 44.2246C68.0799 44.2246 68.073 49.3329 71.3722 49.3329Z" fill="#1F3A1D"/>
<path d="M26.6383 53.7799C26.7613 56.3136 26.9662 58.8337 27.2872 61.3538C27.4648 62.716 27.4989 64.2621 28.5713 65.2838C29.7735 66.4212 31.6792 66.2101 33.1887 66.1828C35.757 66.1351 38.3253 66.0875 40.8935 66.033C43.2501 65.9853 45.5998 65.9444 47.9563 65.8968C49.5341 65.8695 51.5833 66.142 52.9767 65.202C55.8455 63.2677 55.5996 57.1923 55.5176 54.2159C55.422 50.9329 50.2991 50.9193 50.3948 54.2159C50.4562 56.2932 50.3265 58.3093 49.9166 60.3526C50.7431 60.7272 50.7363 60.8634 49.8825 60.7612C49.2404 60.7749 48.5983 60.7885 47.9563 60.7953C46.8839 60.8157 45.8183 60.8362 44.7459 60.8566C42.608 60.8975 40.4632 60.9383 38.3253 60.9792C36.0985 61.0201 33.2366 61.4832 31.0645 61.0133C31.5768 61.4015 32.0822 61.7965 32.5945 62.1847C31.5084 60.5365 31.85 55.7143 31.7543 53.7799C31.6041 50.5107 26.4812 50.4902 26.6383 53.7799Z" fill="#1F3A1D"/>
<path d="M20.0538 66.5232C33.7968 66.3938 47.5397 66.5504 61.2758 67C64.575 67.1089 64.5681 62.0007 61.2758 61.8917C47.5397 61.4422 33.7968 61.2855 20.0538 61.4149C16.7615 61.449 16.7547 66.5572 20.0538 66.5232Z" fill="#1F3A1D"/>
<path d="M37.1723 19.5751C39.5834 16.2854 43.7979 15.4477 47.6503 15.652C49.3715 15.7473 52.9712 15.7337 54.4808 16.7622C55.9152 17.743 56.2225 20.6853 56.3865 22.1974C56.5845 24.0023 56.5436 25.8549 56.325 27.653C56.1406 29.1991 55.5873 30.7929 55.922 32.3594C56.5436 35.2337 59.9861 36.8547 60.1296 39.9265C60.2798 43.2026 65.4095 43.2162 65.2524 39.9265C65.15 37.7878 64.344 35.9352 63.1486 34.1848C62.6022 33.3879 61.3932 32.4343 61.1063 31.5693C60.7307 30.4047 61.3181 28.8449 61.4479 27.653C61.8987 23.4029 61.8235 17.6136 59.0094 14.0855C56.1201 10.4688 49.4194 10.2849 45.1366 10.5165C40.1572 10.7889 35.7037 12.9616 32.7461 16.987C30.7994 19.6501 35.2461 22.2042 37.1723 19.5751Z" fill="#1F3A1D"/>
<path d="M23.6747 43.9173C23.7703 43.8628 23.8659 43.8151 23.9615 43.7606C23.3058 43.8491 22.6433 43.9309 21.9875 44.0194C24.5968 44.6733 25.5599 43.0114 26.441 40.8795C27.65 37.9508 28.9 35.0425 30.2661 32.1819C32.7865 26.9101 35.751 20.4397 40.7304 17.0274C43.4284 15.1748 40.8738 10.7476 38.1416 12.6138C29.1049 18.805 24.9315 31.167 20.9493 40.8523C21.3386 40.3415 21.7348 39.8375 22.1241 39.3266C22.0217 39.3743 21.9192 39.4152 21.8168 39.4628C22.4725 39.3743 23.1351 39.2926 23.7908 39.204C22.7594 38.9452 22.0012 38.9997 21.0791 39.5037C18.1966 41.0907 20.7785 45.5042 23.6747 43.9173Z" fill="#1F3A1D"/>
<path d="M30.8732 29.6763C36.1122 35.3362 47.642 32.8979 53.4001 29.0973C56.1392 27.2924 53.5709 22.8653 50.8114 24.6838C47.1434 27.1085 37.9427 29.7853 34.4933 26.0596C32.2598 23.6417 28.6396 27.2652 30.8732 29.6763Z" fill="#1F3A1D"/>
<path d="M52.9365 13.5332C53.5034 11.0267 55.1086 8.19336 57.1851 6.62002C58.2984 5.78226 58.8449 4.42687 58.1072 3.12596C57.4856 2.0362 55.7028 1.37553 54.6031 2.20647C51.4474 4.59033 48.8723 8.2819 47.998 12.171C47.274 15.379 52.2125 16.7412 52.9365 13.5332Z" fill="#1F3A1D"/>
<path d="M39.7668 22.1632C39.7326 22.1155 39.7121 22.0746 39.6916 22.0269C39.7804 22.2313 39.8624 22.4356 39.9512 22.6399C39.9239 22.5718 39.9102 22.5037 39.8965 22.4356C39.9239 22.6604 39.958 22.8851 39.9853 23.1167C39.9785 23.0554 39.9785 23.0009 39.9853 22.9464C39.958 23.1712 39.9239 23.396 39.8965 23.6275C39.9034 23.573 39.917 23.5186 39.9375 23.4641C39.8487 23.6684 39.7668 23.8727 39.678 24.0771C39.6916 24.0498 39.6984 24.0294 39.7121 24.0021C38.749 24.3904 37.7859 24.7854 36.8228 25.1736C37.0072 25.2417 37.2121 25.2486 37.3966 25.3235C37.7381 25.4325 38.0796 25.4461 38.4211 25.3712C38.7627 25.3575 39.0769 25.2554 39.3706 25.0647C39.6711 24.9012 39.9102 24.6832 40.0878 24.404C40.3132 24.1588 40.4703 23.8659 40.5454 23.5322C40.6957 22.8783 40.6615 22.1427 40.2859 21.5638C40.1493 21.3935 40.0195 21.2164 39.8829 21.0462C39.5618 20.7329 39.1862 20.5081 38.7558 20.3923C38.5714 20.3174 38.3733 20.3106 38.1821 20.2425C37.9567 20.2152 37.7313 20.1812 37.499 20.1539C37.1438 20.1403 36.816 20.2152 36.5154 20.3719C36.2969 20.4332 36.1124 20.5421 35.9485 20.6988C35.6685 20.8759 35.4499 21.1211 35.2859 21.414C35.0059 21.9112 34.8215 22.5105 34.8556 23.0895C34.8898 23.648 35.0059 24.2746 35.3406 24.7445C35.5045 25.0442 35.7231 25.2826 36.0031 25.4597C36.249 25.6845 36.5428 25.8411 36.8775 25.916C37.219 26.025 37.5605 26.0386 37.902 25.9637C38.2436 25.9501 38.5578 25.8479 38.8515 25.6572C39.3979 25.303 39.8829 24.7854 40.0263 24.1316C40.1697 23.4913 40.1561 22.7217 39.7668 22.1632Z" fill="#1F3A1D"/>
<path d="M44.6915 21.5364C44.5822 21.4751 44.4592 21.4274 44.3568 21.3525C44.5275 21.4887 44.7051 21.6182 44.8759 21.7544C44.8281 21.7203 44.7871 21.6795 44.7529 21.6318C44.8895 21.8021 45.0193 21.9791 45.1559 22.1494C45.1354 22.1222 45.1149 22.0949 45.0945 22.0609C44.5822 23.3141 44.0767 24.5605 43.5644 25.8137C43.6054 25.8069 43.6464 25.7933 43.6805 25.7797C43.9196 25.6911 44.1518 25.5822 44.3841 25.4868C44.1792 25.5754 43.9743 25.6571 43.7693 25.7456C43.8103 25.7252 43.8513 25.7116 43.8923 25.7048C44.227 25.623 44.5139 25.4732 44.7666 25.2484C45.0466 25.0713 45.2652 24.8261 45.4292 24.5333C45.6136 24.2404 45.716 23.9203 45.7365 23.5865C45.8117 23.246 45.798 22.9054 45.6887 22.5649C45.5999 22.3606 45.5179 22.1562 45.4292 21.9519C45.2037 21.5705 44.8964 21.264 44.507 21.0324C44.3021 20.9439 44.0972 20.8621 43.8923 20.7736C43.4415 20.651 42.9838 20.651 42.533 20.7736C42.2598 20.8485 42.0002 20.9915 41.7339 21.1005C41.9388 21.012 42.1437 20.9302 42.3486 20.8417C42.3008 20.8621 42.253 20.8758 42.1983 20.8826C41.7612 21.0052 41.3855 21.2231 41.0713 21.5364C40.8186 21.768 40.6478 22.0404 40.5385 22.3606C40.3814 22.6671 40.3063 22.994 40.3199 23.3413C40.3199 23.8045 40.4361 24.2336 40.6683 24.6286C40.7434 24.7512 40.8391 24.8602 40.9279 24.976C40.9962 25.0645 41.085 25.2008 41.1806 25.2961C41.2011 25.3165 41.2284 25.337 41.2557 25.3642C41.4333 25.5072 41.6246 25.6707 41.8158 25.7933C41.9114 25.8546 42.0139 25.8955 42.1095 25.95C42.4032 26.1339 42.7243 26.236 43.059 26.2565C43.4005 26.3314 43.742 26.3178 44.0835 26.2088C44.4182 26.1271 44.7051 25.9772 44.9578 25.7524C45.2379 25.5754 45.4565 25.3302 45.6204 25.0373C45.7092 24.833 45.7912 24.6286 45.88 24.4243C46.0029 23.9748 46.0029 23.5184 45.88 23.0689C45.7912 22.8646 45.7092 22.6602 45.6204 22.4559C45.3882 22.0745 45.0808 21.768 44.6915 21.5364Z" fill="#1F3A1D"/>
</g>
<defs>
<clipPath id="clip0_872_2452">
<rect width="87" height="67" fill="white"/>
</clipPath>
</defs>
</svg>
