<svg width="56" height="66" viewBox="0 0 56 66" fill="none" xmlns="http://www.w3.org/2000/svg">
<g clip-path="url(#clip0_872_2218)">
<path d="M24.7512 10.0266C14.8564 9.72277 5.92754 15.5985 2.21473 24.8222C-1.47393 33.9851 -0.495919 45.1897 4.67786 53.5992C9.99653 62.2396 19.5774 66.9426 29.6352 65.8428C39.4937 64.7673 47.9034 58.5878 52.3467 49.7104C56.953 40.511 58.2087 27.1008 50.0828 19.4326C49.2497 18.6427 47.6921 18.4665 46.8831 19.4326C45.7723 20.7572 43.4842 23.85 41.7697 22.0575C40.7193 20.9577 40.8521 18.3875 40.031 16.9474C39.4515 15.9327 37.9422 15.4405 36.934 16.1271C34.7184 17.6401 32.4967 19.147 30.2811 20.66C31.3135 20.9334 32.3458 21.2068 33.3782 21.4803C33.2574 21.0367 33.1367 20.5931 33.0159 20.1496C33.4446 18.2659 31.4403 16.5099 29.6895 17.5793C26.3268 19.6209 25.4334 13.4414 25.2402 11.497C24.9504 8.60474 20.4226 8.57436 20.7124 11.497C21.0504 14.8754 21.5334 18.5333 24.3105 20.824C26.5381 22.6591 29.5084 23.0115 31.9776 21.5107C30.8667 20.6539 29.7619 19.7972 28.6511 18.9404C28.2346 20.7572 28.4036 22.2337 29.4722 23.7832C30.1362 24.7432 31.4946 25.3326 32.5692 24.6035C34.7848 23.0905 37.0064 21.5836 39.2221 20.0706C38.1897 19.7972 37.1574 19.5237 36.125 19.2503C37.103 20.9699 36.7046 23.0783 37.8396 24.7797C38.6606 26.0131 39.9525 26.7727 41.3773 27.0582C45.072 27.8056 47.8792 25.284 50.0888 22.653C49.0202 22.653 47.9517 22.653 46.8892 22.653C54.514 29.8472 51.6766 43.2332 46.37 50.9439C40.3208 59.7301 28.8383 63.9045 18.7443 59.9975C-1.83615 52.0316 0.150049 13.8303 24.7512 14.5838C27.661 14.6749 27.661 10.1177 24.7512 10.0266Z" fill="#1F3A1D"/>
<path d="M44.4146 2.25586C41.541 2.57182 39.6031 5.43372 40.6958 8.25309C41.704 10.8537 44.9338 11.911 47.4453 11.0239C50.0472 10.1063 52.0817 7.26874 51.146 4.44937C50.2766 1.82444 46.9985 0.390453 44.6078 1.90343C42.1447 3.45895 44.4146 7.4085 46.8959 5.84083C46.8838 5.84691 46.7027 5.81045 46.6846 5.78614C47.2943 6.44845 46.9019 5.86514 46.8717 5.93197C46.6906 6.27832 46.4008 6.58213 46.0265 6.71581C45.5858 6.87987 45.2779 6.74011 44.8795 6.57605C44.6622 6.48491 45.1451 6.76442 44.8795 6.80695C44.8493 6.55783 44.8795 6.46668 44.9761 6.53352C44.8433 6.73404 44.6561 6.83126 44.4146 6.81303C45.6281 6.67935 46.6785 5.85906 46.6785 4.53444C46.6785 3.40426 45.6341 2.1161 44.4146 2.25586Z" fill="#1F3A1D"/>
<path d="M33.1007 0.274348C31.1266 1.19793 29.8045 3.51905 30.046 5.70042C30.1547 6.66046 30.6678 7.67519 31.7062 7.90002C33.5415 8.29497 35.4371 8.24636 37.212 7.5962C38.359 7.17087 39.1378 6.04677 38.7937 4.79506C38.4919 3.68311 37.1637 2.77775 36.0106 3.20309C34.9662 3.58589 33.952 3.73172 32.9136 3.5069C33.469 4.24213 34.0244 4.97127 34.5738 5.7065C34.5617 5.61535 34.5617 4.76468 34.5436 5.14141C34.5617 5.06242 34.5859 4.9895 34.604 4.91051C34.5134 5.08672 34.5255 5.05026 34.6583 4.80114C34.8575 4.3758 34.5496 4.84367 34.8757 4.50948C35.0749 4.32112 35.1051 4.29681 34.9662 4.43049C35.099 4.34542 35.2379 4.27251 35.3828 4.21174C36.4936 3.69526 36.7713 2.08506 36.1978 1.09464C35.5337 -0.0537681 34.2176 -0.242131 33.1007 0.274348Z" fill="#1F3A1D"/>
<path d="M35.8774 44.3695C33.1245 45.2444 30.1181 46.5387 29.2548 49.595C28.3673 52.7364 30.269 55.8535 33.5894 56.048C36.451 56.2181 39.9827 54.9482 41.2082 52.1531C42.3552 49.5403 41.1357 46.1862 38.2802 45.4328C35.4609 44.6915 34.2535 49.0846 37.0788 49.8259C37.3022 49.8867 37.0245 50.4092 36.8856 50.5733C36.2819 51.3024 34.5976 51.6549 33.7101 51.4969C33.6316 51.4847 33.4505 51.3875 33.5833 51.5212C33.7403 51.6792 33.523 51.3632 33.5532 51.2234C33.6377 50.8528 33.6196 50.6644 33.8792 50.3302C34.5795 49.4188 36.0525 49.0846 37.0788 48.7565C39.8498 47.8815 38.6666 43.4823 35.8774 44.3695Z" fill="#1F3A1D"/>
<path d="M34.7974 30.1992C31.5857 31.299 28.1325 33.1462 28.1446 37.0593C28.1566 41.1364 32.2136 42.2544 35.54 41.8899C39.0838 41.501 43.0381 39.3135 42.8207 35.1756C42.6396 31.7426 38.7095 29.4397 35.7573 31.3598C33.3183 32.9457 35.5883 36.8952 38.0454 35.2972C38.5706 34.9569 37.9488 36.2997 37.6771 36.5489C36.7836 37.3631 34.9604 37.5089 33.8375 37.4299C32.9622 37.3691 32.3222 37.3145 32.9078 36.3058C33.4813 35.3215 35.0148 34.9326 35.9988 34.5923C38.7457 33.6566 37.5685 29.2513 34.7974 30.1992Z" fill="#1F3A1D"/>
<path d="M19.2085 39.5929C18.1279 39.3438 16.7092 39.1432 15.8881 38.3169C15.6587 38.086 15.5983 37.8429 15.4595 37.5817C15.4776 37.6181 15.4897 37.1381 15.4293 37.3447C15.4172 37.3872 15.0912 37.3872 15.4353 37.3629C15.5863 37.3508 15.5621 37.3386 15.7855 37.4176C15.9485 37.4784 16.0391 37.5087 16.1296 37.7214C16.4435 38.4506 15.8036 39.2952 15.3146 39.7569C13.1956 41.7743 16.4013 44.9947 18.5143 42.9774C20.4582 41.1241 21.3939 38.0617 20.102 35.5643C18.9731 33.3891 16.2383 32.2467 13.914 33.0549C11.312 33.9602 10.3461 36.9072 11.2939 39.3741C12.3987 42.2482 15.218 43.3358 17.989 43.986C20.8446 44.6483 22.052 40.2552 19.2085 39.5929Z" fill="#1F3A1D"/>
<path d="M24.2259 49.5893C23.9301 49.1822 24.1656 49.6015 24.238 49.8567C24.2561 50.0815 24.2622 50.0997 24.2501 49.9113C24.1777 50.3063 24.1716 50.3853 24.2199 50.1422C24.3407 49.7534 23.9301 50.5676 24.1897 50.2091C24.4554 49.8384 23.8034 50.5494 24.1535 50.2455C24.5519 49.8931 24.1656 50.2881 24.0992 50.2638C24.1716 50.2152 24.2441 50.1726 24.3225 50.1362C23.9905 50.2638 23.912 50.3063 24.0811 50.2577C24.2561 50.2152 24.1595 50.2273 23.7852 50.2942C24.0267 50.3002 23.9482 50.2881 23.5498 50.2577C23.4472 50.2091 23.3506 50.1666 23.2479 50.1179C23.4592 50.2455 23.4109 50.203 23.097 49.9782C23.2178 50.1058 23.2057 50.0936 23.0668 49.9296C22.94 49.7959 22.8555 49.6379 22.8253 49.4556C22.9521 49.8324 22.8555 49.5164 22.8314 49.3037C22.8374 49.3827 22.8314 49.4617 22.8253 49.5407C22.8857 49.1579 22.8978 49.0546 22.8616 49.2308C22.7952 49.3584 22.5959 49.8931 22.9038 49.2065C22.8253 49.3766 22.5658 49.644 22.9944 49.1518C22.8616 49.3037 22.608 49.4617 23.1091 49.1214C22.7891 49.3402 23.0366 49.164 23.2419 49.0971C23.0125 49.1518 23.097 49.1457 23.5075 49.0728C23.2721 49.0668 23.3506 49.0789 23.749 49.1093C22.5959 48.8602 21.2436 49.4556 20.9659 50.7013C20.7063 51.8497 21.31 53.235 22.5476 53.5024C24.3105 53.8852 26.0069 53.071 26.84 51.4486C27.6188 49.9174 27.5584 47.8819 26.2061 46.6788C24.6606 45.3116 22.4933 45.5608 21.0444 46.9279C19.7585 48.1432 19.2152 50.3731 20.32 51.8861C21.0203 52.8462 22.3122 53.4173 23.417 52.7064C24.3588 52.0988 24.9806 50.6162 24.2259 49.5893Z" fill="#1F3A1D"/>
<path d="M21.3103 26.7063C21.099 26.8156 21.0688 26.8339 21.2077 26.761C21.3465 26.6941 21.3103 26.6941 21.0869 26.767C21.1533 26.7549 21.2137 26.7427 21.2801 26.7367C21.2137 26.7367 21.1413 26.7367 21.0749 26.7367C21.2982 26.7853 21.3284 26.7853 21.1654 26.7549C21.0628 26.7366 20.9662 26.7063 20.8636 26.6759C21.2379 26.7974 20.6945 26.6759 20.9119 26.7063C21.0266 26.8096 20.9964 26.7853 20.8273 26.6273C20.8575 26.6759 20.8937 26.7245 20.9239 26.7731C20.8092 26.5665 20.7851 26.5361 20.8515 26.682C20.8938 26.7974 20.8998 26.7913 20.8636 26.6637C20.9662 26.3417 20.8394 26.9615 20.8455 26.9615C20.7911 26.9554 21.093 26.2506 20.9058 26.7306C20.942 26.6698 20.9783 26.6151 21.0145 26.5544C20.8877 26.7184 20.8817 26.7427 20.9903 26.6273C21.2439 26.4875 20.8032 26.7123 20.7489 26.7427C21.0266 26.5847 20.8636 26.7731 20.6281 26.7184C20.5134 26.7184 20.4047 26.6759 20.3082 26.603C20.3625 26.6334 20.4108 26.6637 20.4651 26.6941C20.278 26.5422 20.2417 26.5179 20.3565 26.6334C20.4651 26.7549 20.447 26.7184 20.29 26.5422C20.3202 26.5969 20.3504 26.6516 20.3806 26.7063C20.2961 26.4754 20.2719 26.4389 20.3202 26.5969C20.4047 26.767 20.3866 26.2141 20.3202 26.6273C20.3625 26.3599 20.4168 26.2262 20.5919 26.0075C19.8312 26.9675 19.6622 28.2922 20.5919 29.2279C21.3828 30.0239 23.0248 30.194 23.7916 29.2279C25.2163 27.4415 25.162 24.9867 23.4897 23.3461C21.8114 21.6995 19.1007 21.8757 17.5734 23.6317C16.046 25.3817 15.895 28.1646 17.6217 29.8538C19.2275 31.4275 21.6423 31.6949 23.5984 30.6497C24.679 30.0725 25.011 28.5656 24.4134 27.5326C23.7674 26.4268 22.397 26.129 21.3103 26.7063Z" fill="#1F3A1D"/>
</g>
<defs>
<clipPath id="clip0_872_2218">
<rect width="56" height="66" fill="white"/>
</clipPath>
</defs>
</svg>
