<svg width="69" height="65" viewBox="0 0 69 65" fill="none" xmlns="http://www.w3.org/2000/svg">
<path d="M25.2392 27.3236C23.696 27.0891 22.5386 26.5571 21.2545 25.6706C21.6115 26.2883 21.9685 26.9061 22.3255 27.5238C22.4637 25.2416 22.6077 22.9537 22.7459 20.6715C21.6633 21.2892 20.5808 21.9069 19.4983 22.5247C22.2104 23.8231 26.0453 24.1319 27.1969 20.6257C27.6691 19.1957 27.2948 17.5427 26.3159 16.4159C26.005 16.0556 25.0376 15.6094 24.8994 15.2319C24.5482 14.3053 26.3044 13.2014 26.8284 12.6866C27.3006 12.2176 28.1701 10.8448 28.8322 10.7533C28.9186 10.7419 30.577 11.6113 30.7785 11.6627C32.2929 12.0688 34.0203 11.7943 35.3793 11.0336C38.4426 9.32334 39.5885 5.53682 38.4311 2.34516C37.7344 3.24889 37.0434 4.15262 36.3466 5.06207C40.2679 4.80468 44.1835 4.54729 48.1048 4.29562C47.385 3.58064 46.6653 2.86566 45.9455 2.15069C45.8994 3.655 45.8476 5.15931 45.8015 6.6579C45.7727 7.59023 46.4925 8.48252 47.385 8.72848C49.5271 9.30618 51.6749 9.14602 53.6787 8.15077C54.5021 7.73895 55.4695 6.6579 56.3217 6.69222C57.4215 6.73798 59.2641 8.53972 60.053 9.15746C59.9378 8.29377 59.8284 7.42436 59.7132 6.56067C58.8322 8.11646 56.8284 10.4387 56.8226 12.2748C56.8169 13.9049 58.1413 15.598 59.2756 16.6447C60.5251 17.8001 62.5347 18.0632 63.6461 19.1385C65.1547 20.6028 64.694 25.3903 64.6653 27.4151C65.575 26.723 66.4848 26.0366 67.4004 25.3445C64.5155 24.1777 60.6806 23.926 58.3313 26.3341C55.1297 29.6172 58.2622 33.8213 60.2487 36.91C60.3639 36.0463 60.4733 35.1769 60.5885 34.3132C59.3159 35.3485 58.0837 36.4238 56.886 37.5392C56.3908 38.0025 55.8956 38.4772 55.4061 38.9463C55.4522 38.9005 53.2065 40.9425 53.2065 40.6737C53.2123 39.9358 52.7977 39.1808 52.1355 38.8204C50.1317 37.7279 47.9436 37.9625 46.1931 39.4553C45.41 40.1245 44.8169 40.9654 44.5117 41.9492C44.2814 42.6985 44.5981 44.4201 44.2699 44.9292C44.7017 44.6032 45.1278 44.2714 45.5597 43.9454C44.4369 44.3801 42.7727 43.9225 41.6038 43.831C40.1528 43.7166 38.696 43.6079 37.2449 43.4992C37.8668 44.5746 38.4887 45.6499 39.1106 46.7252C40.8956 44.403 40.0664 41.0855 37.8265 39.3638C34.4349 36.7556 31.4637 39.5697 28.0146 40.2218C28.7171 40.4048 29.4138 40.5879 30.1163 40.7709C28.0491 38.5974 25.9532 36.4524 23.9263 34.2389C23.6096 35.4343 23.2929 36.6297 22.9762 37.8252C24.3869 37.339 25.7689 36.7956 27.1451 36.2179C28.0722 35.829 28.2852 34.6507 28.1355 33.7984C27.8649 32.2655 27.6 30.7326 27.3409 29.1997C26.8802 26.4828 22.7171 27.6382 23.1777 30.3379C23.4369 31.8709 23.7017 33.4038 23.9724 34.9367C24.3006 34.1302 24.6345 33.3237 24.9628 32.5172C23.9263 32.9519 22.8841 33.3294 21.8246 33.6955C20.2583 34.2331 19.7401 36.0406 20.8745 37.2818C22.2564 38.7918 23.6729 40.279 25.0952 41.7547C26.0971 42.7957 27.0357 44.3057 28.5904 44.443C30.1048 44.5746 31.5213 43.4764 32.863 43.0073C34.0088 42.6069 36.9225 42.5726 35.385 44.5746C34.3025 45.9874 35.8169 47.6976 37.2507 47.8005C39.0645 47.9378 40.8841 48.0694 42.6979 48.2124C44.1029 48.321 45.6633 48.6814 46.9704 47.9779C47.8399 47.5088 48.3524 46.7653 48.577 45.81C48.7267 45.1751 48.2488 41.6003 49.9589 42.5269C49.6019 41.9091 49.2449 41.2914 48.8879 40.6737C48.8706 43.6651 51.6115 45.9302 54.6 44.9063C56.1605 44.3744 57.3063 43.0874 58.4637 41.9835C60.1393 40.3762 61.8438 38.8147 63.6461 37.3504C64.3543 36.7785 64.458 35.4915 63.9858 34.7536C63.3409 33.7527 60.6173 30.2064 61.6134 29.1654C62.6499 28.0843 65.195 29.0624 66.2603 29.4914C67.6077 30.0348 68.9724 28.6792 68.9954 27.4208C69.0472 24.2521 69.1163 19.9336 67.671 17.0279C66.2372 14.1394 62.172 15.0603 61.0837 11.7085C61.0088 12.2576 60.9397 12.8124 60.8649 13.3615C61.7228 11.8115 62.5866 10.2671 63.4618 8.72848C63.8821 7.9849 63.8706 6.70938 63.1221 6.13168C61.2161 4.65025 58.7056 2.10493 56.1086 2.13925C53.0914 2.18501 51.8994 5.50822 48.5482 4.59877C49.0779 5.29087 49.6077 5.97724 50.1317 6.66934C50.1777 5.16503 50.2238 3.66072 50.2756 2.16213C50.3102 1.0582 49.2564 -0.0571627 48.1163 0.0171949C44.195 0.268867 40.2795 0.520539 36.3582 0.78365C35.0683 0.869448 33.767 2.09921 34.2737 3.50056C34.838 5.05635 34.504 7.17269 32.5693 7.44152C31.3716 7.60739 30.3869 6.5721 29.1777 6.39479C26.6096 6.01728 25.0664 8.41961 23.4484 9.99256C21.9397 11.4511 20.0107 12.8811 20.1202 15.1919C20.1662 16.17 20.6038 17.0908 21.2775 17.7944C21.6921 18.2348 24.0702 19.9622 21.6979 18.8297C20.1835 18.1033 18.5539 18.9898 18.4503 20.6829C18.3236 22.7649 17.3793 26.4427 18.2142 28.3646C19.0434 30.2636 22.2679 31.1959 24.1163 31.4762C26.8111 31.8766 27.9858 27.7411 25.2392 27.3236Z" fill="#1F3A1D"/>
<path d="M20.9256 21.3516C18.202 18.9035 14.298 18.0055 10.8316 19.3783C9.0811 20.0704 7.29607 21.4946 6.14444 22.9818C4.62429 24.9379 5.61469 27.1172 6.09837 29.2621C6.25385 29.9599 6.60509 30.8865 6.18475 31.5443C5.67227 32.3451 5.75289 31.7903 4.89492 31.7846C3.97361 31.7788 3.16747 31.5386 2.28072 32.0477C0.397799 33.1287 0.45538 35.8628 0.305668 37.716C0.14444 39.7523 -0.546539 43.5102 0.904517 45.1575C1.5667 45.9068 2.90836 46.2786 3.80663 46.6561C4.14636 46.7991 5.71258 47.1766 5.93715 47.5999C6.1502 47.9945 6.21354 48.3892 5.54559 48.3777C4.28455 48.3549 2.91411 49.7905 3.46114 51.0947C5.25193 55.3445 7.83158 58.7192 11.5801 61.4533C12.3172 61.9909 13.5955 61.7621 14.1943 61.1158C14.7817 60.4866 15.392 59.8803 16.3076 59.7831C16.3249 59.7831 18.3633 59.846 17.9199 60.3608C16.6531 61.8136 17.5398 63.8727 19.4458 64.0215C23.1713 64.3189 26.8911 64.6392 30.6051 64.9881C32.0849 65.1254 32.9602 63.5124 32.6895 62.2712C32.488 61.5162 32.6435 60.8355 33.156 60.2349C33.8469 59.6687 34.4688 59.6858 35.0158 60.2921C35.6838 60.5381 36.2481 61.1444 36.9391 61.4247C38.3498 61.9966 39.7433 61.9795 41.1425 61.3732C44.0561 60.1148 45.5821 57.0261 47.8393 54.9841C48.5878 54.3092 48.5821 53.2224 48.179 52.3873C46.797 49.5331 45.4151 46.6732 43.9813 43.8419C42.7318 41.3767 39.0062 43.5445 40.25 46.0097C41.6838 48.8411 43.0657 51.6952 44.4477 54.5551C44.5629 53.6915 44.6723 52.822 44.7874 51.9584C43.2961 53.3082 42.2193 55.0185 40.774 56.4084C38.465 58.6334 37.4285 56.0709 34.9179 55.5561C30.4151 54.6409 27.7087 59.6172 28.5379 63.4151C29.2347 62.5114 29.9256 61.6077 30.6224 60.6982C26.9026 60.3493 23.1828 60.0233 19.4631 59.7316C19.9698 60.9499 20.4823 62.174 20.989 63.3923C22.9007 61.1959 22.5609 57.9928 20.108 56.2768C17.2116 54.252 13.3364 55.7506 11.154 58.0843C12.0235 57.9699 12.8988 57.8612 13.7682 57.7468C11.0216 55.7449 8.9429 53.0737 7.63004 49.9507C6.93331 50.8544 6.24233 51.7582 5.54559 52.6676C8.23465 52.7134 10.3191 50.7744 10.4228 48.0746C10.5897 43.7733 6.58206 43.3615 3.52448 41.7885C3.88148 42.4063 4.23849 43.024 4.5955 43.6417C4.49761 41.8343 4.46306 40.0383 4.58398 38.2365C4.61853 37.6359 4.67611 37.0411 4.75672 36.4462C5.08494 35.594 4.86613 35.4395 4.10029 35.9829C4.60125 35.92 5.32102 36.3204 5.85077 36.3433C8.29799 36.4576 10.0485 34.6902 10.5667 32.3966C11.0907 30.0686 8.86805 26.5223 10.3709 24.8922C12.3863 22.7129 15.6051 22.3469 17.8796 24.3888C19.9295 26.2363 22.9928 23.2106 20.9256 21.3516Z" fill="#1F3A1D"/>
<path d="M21.7609 32.7284C16.1985 35.8114 13.6303 43.0069 19.3136 47.4741C24.4787 51.5295 31.2561 48.7554 33.2887 42.8697C34.1927 40.25 30.0238 39.1289 29.1255 41.7314C28.0545 44.8258 24.5305 46.2558 21.8645 44.0422C18.6745 41.3882 21.139 37.9849 23.9374 36.4349C26.3674 35.0907 24.1966 31.3843 21.7609 32.7284Z" fill="#1F3A1D"/>
<path d="M40.2158 14.8782C36.162 17.5207 32.615 21.9994 34.2215 27.0671C35.7417 31.8489 41.7705 32.6096 46.1121 31.7631C51.0354 30.8022 54.1851 25.7859 52.9586 20.9755C51.4212 14.9354 45.8473 14.4892 40.5267 15.2157C37.7858 15.5932 38.9547 19.7229 41.6726 19.3511C44.5114 18.9621 48.0008 18.6704 48.7954 22.1195C49.5325 25.3226 46.9125 27.6219 43.8722 27.6906C41.5344 27.7421 38.3789 27.6849 38.1601 24.7964C37.9528 22.1252 40.354 19.9174 42.3981 18.5846C44.7071 17.0746 42.5478 13.3567 40.2158 14.8782Z" fill="#1F3A1D"/>
</svg>
