<svg width="77" height="74" viewBox="0 0 77 74" fill="none" xmlns="http://www.w3.org/2000/svg">
<path d="M2.18581 54.5816C16.539 56.1523 30.9593 56.8886 45.3735 57.5696C46.6134 57.631 47.6578 56.4652 47.6639 55.2688C47.7616 37.6109 47.8593 19.9591 47.957 2.30122C47.9632 1.12321 46.9004 -0.0854788 45.6667 0.000417895C36.9509 0.60783 28.2719 1.61405 19.5867 2.55891C15.4457 3.01294 11.2985 3.44856 7.15139 3.81055C4.45789 4.04983 2.34462 4.27685 2.00258 7.40594C1.58726 11.1977 1.90486 15.2225 1.86211 19.0388C1.81935 22.8121 1.7766 26.5854 1.73384 30.3588C1.64834 37.7336 1.55672 45.1146 1.47121 52.4894C1.43457 55.4529 6.01535 55.4529 6.052 52.4894C6.13751 45.1146 6.22302 37.7397 6.30852 30.3588C6.35128 26.5854 6.39403 22.8121 6.43679 19.0388C6.45511 17.2043 6.47954 15.3637 6.49786 13.5291C6.51619 11.664 6.07032 8.99503 6.6872 7.24028C6.33906 7.70044 5.98481 8.15447 5.63667 8.61463C6.50397 7.98267 9.04478 8.24037 10.1075 8.1422C11.8849 7.97654 13.6622 7.79247 15.4396 7.60841C18.7988 7.25869 22.1519 6.87829 25.5112 6.51016C32.2175 5.7739 38.9298 5.07446 45.6605 4.60816C44.8971 3.84123 44.1336 3.07429 43.3702 2.30736C43.2724 19.9653 43.1747 37.617 43.077 55.2749C43.8404 54.508 44.6039 53.7411 45.3674 52.9741C30.9471 52.2931 16.5328 51.5568 2.17971 49.9862C-0.739782 49.661 -0.715351 54.2626 2.18581 54.5816Z" fill="#1F3A1D"/>
<path d="M30.819 55.4713C31.2282 60.2262 31.6496 64.9812 32.0894 69.7362C32.2054 71.0247 33.0422 71.9696 34.3798 72.037C43.1627 72.4849 51.9517 72.9021 60.7407 73.3255C62.9395 73.4298 65.1321 73.5402 67.3309 73.6445C69.2182 73.7366 71.4536 74.1906 73.3226 73.89C76.4986 73.3807 76.3642 70.5523 76.4558 67.9324C77.091 50.3911 77.1704 32.8252 76.7063 15.2777C76.6757 14.0813 75.6802 12.9156 74.4159 12.9769C64.784 13.4616 55.146 13.9709 45.5141 14.4617C42.5824 14.609 42.5641 19.2106 45.5141 19.0633C55.146 18.5786 64.784 18.0632 74.4159 17.5785C73.6524 16.8116 72.8889 16.0447 72.1255 15.2777C72.5408 31.0336 72.5225 46.8018 72.0522 62.5577C71.9972 64.3493 71.9422 66.1408 71.8751 67.9324C71.8506 68.6871 71.2643 70.8038 72.2537 69.816C73.3653 68.7055 71.0627 69.227 70.3237 69.1902C66.3293 68.9877 62.3348 68.7975 58.3404 68.6073C50.3515 68.2208 42.3626 67.8404 34.3798 67.4354C35.1432 68.2024 35.9067 68.9693 36.6702 69.7362C36.2304 64.9812 35.8151 60.2262 35.3998 55.4713C35.1432 52.5446 30.5624 52.5201 30.819 55.4713Z" fill="#1F3A1D"/>
<path d="M46.4661 27.4759C50.5399 27.4145 54.6077 27.2734 58.6815 27.1998C61.6254 27.1445 61.6377 22.5429 58.6815 22.5981C54.6077 22.6718 50.5399 22.8129 46.4661 22.8742C43.5222 22.9172 43.5161 27.5188 46.4661 27.4759Z" fill="#1F3A1D"/>
<path d="M46.6324 41.3052C53.3021 41.4341 59.9717 41.4525 66.6352 41.385C69.5791 41.3543 69.5914 36.7527 66.6352 36.7834C59.9656 36.857 53.296 36.8325 46.6324 36.7036C43.6824 36.6484 43.6824 41.25 46.6324 41.3052Z" fill="#1F3A1D"/>
<path d="M46.1852 48.1937C53.0503 47.9974 59.9031 47.5433 66.7682 47.3102C69.706 47.212 69.7243 42.6104 66.7682 42.7086C59.9031 42.9417 53.0503 43.3958 46.1852 43.5921C43.2413 43.678 43.229 48.2796 46.1852 48.1937Z" fill="#1F3A1D"/>
<path d="M47.4492 55.8881C53.8378 54.9064 60.2754 54.3972 66.7373 54.7776C69.6813 54.9494 69.6752 50.3478 66.7373 50.176C59.8539 49.7772 53.0255 50.403 46.2276 51.4521C43.3265 51.9 44.5602 56.336 47.4492 55.8881Z" fill="#1F3A1D"/>
<path d="M40.8239 62.6185C49.8877 62.3362 58.9516 62.0601 68.0215 62.0724C70.9715 62.0724 70.9715 57.4708 68.0215 57.4708C58.9516 57.4647 49.8877 57.7346 40.8239 58.0169C37.8799 58.1089 37.8677 62.7105 40.8239 62.6185Z" fill="#1F3A1D"/>
<path d="M9.14825 54.5206C9.06274 56.9994 8.8673 60.3003 9.91782 62.6195C10.8095 64.589 12.6113 64.4785 14.5169 64.5153C20.6369 64.6319 26.7568 64.2883 32.8645 64.0122C35.8023 63.8772 35.8145 59.2756 32.8645 59.4106C29.5114 59.564 26.1582 59.7358 22.799 59.8401C19.678 59.9383 15.8423 60.515 12.7762 59.8278C13.2343 60.1775 13.6863 60.5334 14.1444 60.8831C13.3443 59.2081 13.6619 56.3613 13.7229 54.5268C13.8268 51.5572 9.24597 51.5572 9.14825 54.5206Z" fill="#1F3A1D"/>
<path d="M18.5109 16.725C17.1917 20.0811 15.9457 23.5844 13.7347 26.4742C12.0673 28.6462 9.94792 30.4132 9.19667 33.1558C8.5065 35.6775 8.68362 38.8127 9.70361 41.2178C10.1617 42.2976 10.8274 43.2732 11.8169 43.9358C12.6109 44.4696 13.9302 44.4082 14.5104 44.7764C14.1317 44.1137 13.753 43.4511 13.3743 42.7885C13.2888 45.439 15.5548 45.9544 17.7169 46.0955C20.9662 46.3164 24.4293 46.5373 27.6298 45.8071C32.8519 44.6168 37.2738 39.8373 38.4343 34.6222C39.5642 29.542 38.0312 23.5783 34.8613 19.4982C31.1661 14.7493 24.7652 13.5222 19.14 12.9026C16.2144 12.5835 16.2389 17.1851 19.14 17.5042C22.9818 17.9275 27.5443 18.6699 30.4821 21.437C32.9496 23.7624 34.1528 27.7504 34.2261 31.0574C34.3055 34.6528 32.4121 38.0396 29.456 40.0582C27.5381 41.365 25.3333 41.6227 23.0673 41.6534C22.0107 41.6718 20.9479 41.635 19.8974 41.5921C19.4332 41.5736 17.3871 41.727 17.2772 41.6166C17.5032 42.1565 17.723 42.7026 17.949 43.2425C18.0223 41.0583 16.7336 41.003 15.2311 40.1932C11.9696 38.4384 13.4354 33.9227 15.3105 31.671C18.8346 27.4314 20.9296 23.0629 22.9451 17.9337C24.014 15.1972 19.5859 14.0008 18.5109 16.725Z" fill="#1F3A1D"/>
<path d="M22.207 31.42C25.157 31.42 25.157 26.8184 22.207 26.8184C19.257 26.8184 19.2509 31.42 22.207 31.42Z" fill="#1F3A1D"/>
<path d="M25.3645 32.3536C28.3146 32.3536 28.3146 27.752 25.3645 27.752C22.4206 27.752 22.4145 32.3536 25.3645 32.3536Z" fill="#1F3A1D"/>
<path d="M15.1345 35.8561C19.0556 38.6846 23.9235 40.0896 28.3516 37.5679C30.9168 36.1077 28.6081 32.1319 26.0367 33.5921C23.0745 35.2794 19.9473 33.6842 17.4432 31.8803C15.0489 30.1563 12.7585 34.1443 15.1345 35.8561Z" fill="#1F3A1D"/>
</svg>
