<svg width="77" height="87" viewBox="0 0 77 87" fill="none" xmlns="http://www.w3.org/2000/svg">
<g clip-path="url(#clip0_336_897)">
<path d="M27.9826 80.7589C20.767 80.2966 13.559 79.788 6.34332 79.4335L9.21274 82.3232C7.68238 57.3791 6.48107 32.4196 5.73885 7.44465L3.6346 10.2342C23.6134 6.65864 43.906 5.61065 64.1756 5.79559L61.3062 2.90587C61.6122 29.9845 60.9618 57.0554 59.5998 84.1033L62.4692 81.2135C49.6372 81.2983 36.8128 80.782 23.9807 80.6973C20.2926 80.6973 20.2849 86.4459 23.9807 86.4767C36.8128 86.5615 49.6372 87.0778 62.4692 86.993C63.2253 86.9773 63.9461 86.6678 64.4809 86.1292C65.0157 85.5907 65.323 84.8647 65.3387 84.1033C66.7007 57.0554 67.3511 29.9845 67.045 2.90587C67.0332 2.14318 66.7271 1.41507 66.1915 0.875699C65.6559 0.336333 64.9329 0.0280616 64.1756 0.0161425C43.3857 -0.153388 22.6034 0.98709 2.11188 4.6397C1.50608 4.80935 0.97191 5.17367 0.590674 5.67723C0.209439 6.1808 0.00203394 6.79602 0 7.42925C0.765179 32.4042 1.95884 57.3637 3.4739 82.3078C3.49326 83.0681 3.80179 83.7918 4.33578 84.3296C4.86976 84.8673 5.58841 85.178 6.34332 85.1976C13.559 85.552 20.767 86.0606 27.9826 86.5229C31.6708 86.7541 31.6555 80.9747 27.9826 80.7435V80.7589Z" fill="#143B19"/>
<path d="M16.4508 19.8588C21.5392 19.5583 26.6353 19.435 31.7543 19.1576C35.4272 18.9572 35.4502 13.1778 31.7543 13.3781C26.6659 13.6556 21.5698 13.7788 16.4508 14.0794C12.7779 14.3029 12.7549 20.0823 16.4508 19.8588Z" fill="#143B19"/>
<path d="M16.9708 29.2602C22.0592 28.6976 27.1783 28.4896 32.2744 27.9502C35.9166 27.5803 35.9549 21.7854 32.2744 22.1707C27.1783 22.6793 22.0592 22.9413 16.9708 23.4807C13.3362 23.8737 13.2979 29.6455 16.9708 29.2602Z" fill="#143B19"/>
<path d="M17.2544 40.9348C22.5365 40.316 27.8629 40.1742 33.1701 40.511C36.8583 40.6805 36.8506 34.9011 33.1701 34.7316C27.3503 34.4099 21.5135 34.6214 15.7317 35.3634C12.0894 35.872 13.6351 41.4357 17.2621 40.9348H17.2544Z" fill="#143B19"/>
<path d="M17.6459 59.5061C21.0133 58.7053 24.4721 58.3633 27.9299 58.4889C31.618 58.4889 31.6257 52.7095 27.9299 52.7095C23.9551 52.584 19.9815 52.9961 16.1155 53.9347C12.5574 54.9134 14.0725 60.4848 17.6459 59.5061Z" fill="#143B19"/>
<path d="M16.7882 52.1298C22.7719 51.0895 28.9087 51.0124 34.9612 51.0433C38.657 51.0433 38.6647 45.2792 34.9612 45.2638C28.371 45.1124 21.7803 45.5456 15.2655 46.5584C11.6309 47.1903 13.1689 52.7617 16.7959 52.1375L16.7882 52.1298Z" fill="#143B19"/>
<path d="M42.7655 62.8262C44.137 65.1048 45.3861 67.4559 46.5072 69.8694C47.1117 71.164 47.6167 72.6666 48.9864 73.3679C52.6286 75.2327 55.2762 70.2855 57.2886 68.1587C63.5631 61.4391 70.5798 55.6057 76.3263 48.3621C78.6218 45.4878 74.5663 41.3729 72.2632 44.278C68.5075 48.9152 64.4344 53.2822 60.0738 57.3473C58.1609 59.1659 56.2479 60.969 54.4115 62.8647C53.3938 63.905 50.907 67.8813 49.675 68.1048L52.4603 68.8754C51.3891 67.9352 50.8764 65.7159 50.2336 64.4444C49.4685 62.9032 48.6191 61.4237 47.7238 59.9596C45.7956 56.7924 40.8372 59.6976 42.7655 62.8724V62.8262Z" fill="#143B19"/>
<path d="M42.6668 19.7883C45.9953 19.5032 49.3315 19.3876 52.6677 19.1256C56.3252 18.8405 56.3558 13.061 52.6677 13.3461C49.3315 13.6081 45.9953 13.7237 42.6668 14.0089C39.0092 14.3248 38.9786 20.1043 42.6668 19.7883Z" fill="#143B19"/>
<path d="M42.1623 29.6996C45.9882 29.2604 49.8983 29.0677 53.7548 28.667C57.3971 28.2817 57.4353 22.5023 53.7548 22.8876C49.9289 23.2883 46.0188 23.4809 42.1623 23.9202C38.5354 24.344 38.4971 30.1234 42.1623 29.6996Z" fill="#143B19"/>
<path d="M42.4898 40.3938C46.2553 40.6147 50.0324 40.5271 53.7838 40.1318C57.4185 39.7543 57.4567 33.9671 53.7838 34.3524C50.0324 34.7476 46.2553 34.8353 42.4898 34.6144C38.8017 34.414 38.8093 40.1935 42.4898 40.3938Z" fill="#143B19"/>
<path d="M41.8851 52.1466H54.0056C57.6937 52.1466 57.7014 46.3749 54.0056 46.3672H41.8851C38.1893 46.3672 38.1893 52.1466 41.8851 52.1466Z" fill="#143B19"/>
<path d="M15.633 75.2329C24.156 74.3598 32.73 74.1023 41.2895 74.4623C44.9853 74.5702 44.9853 68.7907 41.2895 68.6828C32.73 68.3229 24.156 68.5804 15.633 69.4534C12.0061 69.8772 11.9678 75.6182 15.633 75.2329Z" fill="#143B19"/>
</g>
<defs>
<clipPath id="clip0_336_897">
<rect width="77" height="87" fill="white"/>
</clipPath>
</defs>
</svg>
