<svg width="85" height="80" viewBox="0 0 85 80" fill="none" xmlns="http://www.w3.org/2000/svg">
<g clip-path="url(#clip0_336_866)">
<path d="M38.8914 33.5179C36.5508 29.8392 35.674 25.4144 36.4344 21.1191C37.1947 16.8238 39.5369 12.9709 42.9975 10.3227C50.4223 4.65539 61.9069 4.13737 69.5247 8.85371C78.1459 14.2659 81.1483 25.1754 77.8989 34.925C76.4325 39.3708 73.268 45.6025 68.4365 46.6618C63.0338 47.8447 56.2881 45.3783 51.3871 43.167C48.0065 41.6207 45.0196 46.6154 48.3847 48.1694C57.2297 52.2982 69.6251 56.481 77.2197 47.319C83.8651 39.4094 86.7208 27.7809 83.95 18.3328C82.5821 13.5903 79.8538 9.35467 76.1038 6.152C72.3538 2.94933 67.7472 0.920664 62.8562 0.317898C53.3629 -0.996492 42.5652 1.74053 36.2132 8.52124C29.1356 15.9669 28.3793 27.5567 33.8977 36.3554C35.889 39.5331 40.8441 36.6647 38.8914 33.4792V33.5179Z" fill="#143B19"/>
<path d="M33.9827 33.0138C22.7065 42.1836 12.3256 52.4204 1.7903 60.6392C-0.864744 62.8582 3.49602 66.9096 6.06616 64.8143C16.4394 56.6805 26.8126 46.1809 38.1274 37.1425C41.0294 34.823 36.8461 30.702 33.9827 33.0138Z" fill="#143B19"/>
<path d="M0.0159997 63.0203C0.48938 67.7212 0.975611 72.4221 1.47472 77.123C1.5128 77.5516 1.63846 77.9678 1.84388 78.3458C2.0493 78.7237 2.33011 79.0553 2.66885 79.32C3.0076 79.5846 3.39703 79.7767 3.81299 79.8842C4.22895 79.9918 4.66255 80.0125 5.08683 79.945C10.6979 78.8781 16.3553 78.0198 22.0204 76.8524C22.5914 76.6852 23.0888 76.3287 23.431 75.8412C23.7731 75.3537 23.9398 74.7643 23.9037 74.1695C23.6412 72.4839 23.384 70.7907 23.1318 69.0897C22.2674 70.0407 21.3953 70.984 20.5308 71.9118C22.1942 71.7547 23.869 72.0512 25.3778 72.77C26.7285 73.3731 28.3493 72.1128 28.6503 70.7443C29.1745 68.3093 29.4896 65.8339 29.592 63.3451C28.4574 64.3038 27.3305 65.2625 26.2037 66.2058C27.6084 66.7316 29.0131 67.2496 30.4024 67.7521C30.9973 67.9124 31.6293 67.8622 32.1917 67.6101C32.7541 67.358 33.2125 66.9194 33.4896 66.3682C34.4287 64.659 34.9944 62.7693 35.149 60.8245C33.9964 61.7781 32.8516 62.7343 31.7145 63.693C35.697 64.2806 37.395 61.0178 40.2044 58.5669C44.1793 55.0953 47.6293 51.0516 51.936 47.7425C54.9152 45.423 50.8786 41.2401 47.9303 43.5132C44.9779 45.9207 42.188 48.5217 39.5792 51.2991C38.298 52.5825 36.9705 53.7732 35.6198 54.9793C35.3806 55.1804 32.7718 58.072 33.0188 58.1184C31.0661 57.8324 29.7926 58.9612 29.5842 61.0024C29.5036 61.9301 29.1816 62.8205 28.6503 63.5847L31.7376 62.1853L27.5003 60.639C25.6866 59.974 24.1661 61.7833 24.1043 63.5074C24.0333 65.461 23.7879 67.4042 23.3711 69.3139C24.4671 68.649 25.5553 67.9686 26.6513 67.2805C24.6557 66.4035 22.4671 66.0599 20.2993 66.2831C18.9872 66.4068 17.4127 67.4661 17.6906 69.0975C17.9684 70.7288 18.2617 72.4607 18.5396 74.1308L20.4151 71.4634C14.7036 72.7082 8.99221 73.5123 3.27306 74.556C4.49253 75.507 5.70428 76.4658 6.89288 77.4168C6.49153 72.7777 6.09275 68.0743 5.69655 63.3064C5.41869 59.6338 -0.323607 59.4405 0.0314275 63.0899L0.0159997 63.0203Z" fill="#143B19"/>
<path d="M67.5411 11.8684C63.9907 10.3221 59.2595 10.3221 57.0135 14.1879C54.7676 18.0538 57.6541 21.564 60.6488 23.6438C63.6434 25.7236 67.68 26.9221 70.6283 23.5897C73.4532 20.412 72.6273 16.1827 70.3814 13.2137C69.9508 12.5436 69.2787 12.0658 68.5051 11.8799C67.7315 11.6941 66.9161 11.8146 66.229 12.2163C64.9092 12.9895 64.0062 14.9998 64.971 16.2523C65.627 17.1105 66.5146 18.1466 66.4065 19.345C66.3062 20.381 65.4881 19.4996 64.8629 19.1208C64.2377 18.7419 62.3931 17.7909 62.4085 16.9868C62.424 16.1827 63.6743 16.7626 64.23 16.9868C64.9512 17.3367 65.7738 17.4161 66.5484 17.2104C67.323 17.0047 67.9983 16.5276 68.4518 15.8657C69.2931 14.59 69.0152 12.4792 67.5334 11.853L67.5411 11.8684Z" fill="#143B19"/>
<path d="M39.2395 38.7439C32.6559 43.6226 26.4428 48.9189 20.4613 54.2692C14.4797 59.6196 8.55986 64.1349 3.75146 69.7326C1.60581 72.3073 5.75045 76.4515 7.8961 73.9155C12.3881 68.743 17.9297 64.3359 23.4327 59.3335C29.3834 53.9213 35.5811 48.656 42.1493 43.7927C45.0899 41.6047 42.2265 36.5249 39.2395 38.7517V38.7439Z" fill="#143B19"/>
</g>
<defs>
<clipPath id="clip0_336_866">
<rect width="85" height="80" fill="white"/>
</clipPath>
</defs>
</svg>
