<svg width="55" height="78" viewBox="0 0 55 78" fill="none" xmlns="http://www.w3.org/2000/svg">
<g clip-path="url(#clip0_944_2413)">
<path d="M21.4224 21.9986C10.6025 27.2358 12.113 40.7756 11.8165 50.7028C11.7333 53.4985 11.2742 56.2703 10.4515 58.9439C9.62347 61.6798 8.92414 64.3766 9.18709 67.2576C9.62346 72.0426 12.2529 75.75 17.0195 76.8666C22.44 78.1337 28.0574 78.3234 33.5514 77.425C39.4592 76.3585 44.4831 72.64 49.4007 69.4184C53.9323 66.4536 55.426 62.8579 54.861 57.509C54.4834 53.692 53.4798 49.9628 51.8903 46.4706C51.2022 44.9575 49.7756 43.1932 49.8035 41.4958C49.8035 40.3066 50.363 39.2625 50.2623 38.0006C50.0412 36.5701 49.5042 35.2065 48.6902 34.0085C47.2807 31.5983 45.6353 29.3334 43.7782 27.247C39.4816 22.4844 33.6409 19.3521 27.5036 17.6436C24.8966 16.9177 23.7889 20.9545 26.3847 21.6804C30.9723 22.959 35.4535 25.103 38.9781 28.3525C40.549 29.808 41.9595 31.4271 43.1852 33.1822C44.4887 35.047 46.3685 37.2469 45.9824 39.6142C45.6971 41.4233 45.423 42.7242 46.1671 44.4997C47.1349 46.761 48.4552 48.7319 49.2385 51.0993C50.3965 54.5777 52.2763 60.6748 49.714 63.8517C48.3993 65.4821 46.2734 66.4536 44.5279 67.5535C42.3908 68.8991 40.3263 70.3731 38.0773 71.5345C33.6017 73.8516 28.5666 73.9633 23.6434 73.5389C21.4056 73.3435 18.944 73.2597 16.846 72.4222C14.3229 71.434 13.4557 68.9494 13.3215 66.4257C13.1033 62.2214 15.3467 58.2181 15.7942 54.0529C16.7733 44.9687 13.2432 30.6026 23.5427 25.5776C25.9708 24.3995 23.8448 20.787 21.4224 21.9595V21.9986Z" fill="#1F3A1D"/>
<path d="M15.2781 54.0584C14.5396 50.2059 10.1087 47.7324 6.42194 49.3795C3.10997 50.8591 1.868 56.5095 6.19818 57.4643V53.4275C3.73658 53.8128 0.128091 54.7731 0.00501125 57.7993C-0.0900961 60.1667 2.04702 62.6401 4.48065 61.931L2.10857 58.8546C1.37009 60.5687 -0.0117778 62.5117 0.558866 64.4659C1.12951 66.42 2.48899 66.247 4.10022 66.85L2.84705 65.884C3.91002 67.2799 3.74216 68.7483 5.4485 69.7366C6.13223 70.1233 6.8972 70.3449 7.68215 70.3837C8.4671 70.4225 9.25023 70.2774 9.9689 69.9599C12.4249 68.9382 11.3452 64.8846 8.84999 65.9231C7.17163 66.6266 7.04853 64.0304 5.92962 63.1873C5.44793 62.8039 4.86465 62.5691 4.25125 62.5117C3.64145 62.4056 3.85967 62.5117 4.91144 62.8634C5.20236 62.2381 5.48208 61.6072 5.75062 60.9707C6.42756 59.3962 5.30303 57.3415 3.37851 57.8942L2.95335 58.017L4.57015 58.2292C3.90999 58.3632 4.20652 58.2292 5.4653 57.8496C6.06623 57.6598 6.68473 57.5308 7.31149 57.4643C9.37588 57.146 9.24161 53.8574 7.31149 53.4275C7.75607 53.2019 8.24776 53.0844 8.74649 53.0844C9.24523 53.0844 9.73691 53.2019 10.1815 53.4275C10.4965 53.6031 10.7593 53.8589 10.9431 54.1688C11.1268 54.4787 11.225 54.8317 11.2277 55.1919C11.7312 57.8384 15.776 56.7161 15.2725 54.0752L15.2781 54.0584Z" fill="#1F3A1D"/>
<path d="M41.5061 25.651C43.3914 21.1341 44.8069 16.444 46.5747 11.8824C48.1692 7.77299 47.9174 4.31688 44.5048 1.20135C41.2487 -1.78019 38.3004 1.32976 36.9465 4.55138C35.8944 7.07914 35.0688 9.69494 34.4793 12.3681C34.1828 13.6802 33.959 15.0091 33.7856 16.3379C33.6681 17.248 33.8304 19.3809 33.187 20.0788C31.3688 22.0665 34.3059 25.0313 36.1577 23.038C38.1326 20.8828 37.7297 17.5942 38.2389 14.8862C38.5726 13.1045 39.0135 11.3444 39.5592 9.61551C39.9844 8.25317 40.7788 4.27779 42.5467 3.96512L40.9298 3.75295C45.109 5.58989 42.8096 9.89469 41.7466 12.8706C40.3536 16.779 39.0557 20.6874 37.4612 24.5176C36.4207 27.0022 40.4767 28.0854 41.5061 25.6343V25.651Z" fill="#1F3A1D"/>
<path d="M18.7984 24.0483C16.0057 22.8989 13.6456 20.9029 12.0514 18.3421C11.3241 17.1863 7.34078 8.85031 9.75763 8.25847C11.0388 7.95138 13.3773 10.3187 14.3116 11.0111C15.718 12.0009 17.0719 13.0632 18.3676 14.1936C21.2417 16.8055 23.1182 20.3321 23.6769 24.1711C24.0573 26.8288 28.1021 25.701 27.7217 23.0545C26.9441 17.6497 23.744 13.049 19.5313 9.71573C16.3704 7.22553 10.8262 1.6924 6.66383 5.24902C2.8931 8.47622 5.81347 15.5783 7.65407 19.1126C9.80118 23.211 13.3595 26.3974 17.6739 28.0851C20.1747 29.1069 21.26 25.0589 18.7928 24.0483H18.7984Z" fill="#1F3A1D"/>
<path d="M27.6042 35.762C28.2727 35.3892 28.9875 35.1058 29.7301 34.9189C30.0975 34.823 30.4715 34.7539 30.849 34.7124C31.0672 34.7124 31.2854 34.6844 31.5091 34.6844C31.9903 34.7347 31.9343 34.6453 31.3357 34.422C33.2099 36.365 36.175 33.4003 34.3008 31.4628C32.1973 29.2853 27.6825 30.9045 25.467 32.1496C23.1117 33.4617 25.2265 37.0797 27.5874 35.762H27.6042Z" fill="#1F3A1D"/>
<path d="M29.0522 33.0139L28.9963 33.0809L29.4215 32.7571L29.3543 32.8017L29.8578 32.5951L29.7795 32.6231L30.3389 32.5449H30.255L30.8145 32.6231H30.7306V36.6654C31.2285 36.4812 31.6481 36.2076 32.1236 35.9898L31.6201 36.202C31.7162 36.1638 31.8154 36.134 31.9166 36.1127L29.3375 34.6498C29.4196 34.9124 29.4795 35.1813 29.5166 35.4538L29.4438 34.8955C29.4438 35.13 29.4886 35.3701 29.4998 35.6046C29.4998 36.1599 29.7208 36.6925 30.1142 37.0851C30.5077 37.4778 31.0413 37.6984 31.5977 37.6984C32.1541 37.6984 32.6878 37.4778 33.0812 37.0851C33.4746 36.6925 33.6957 36.1599 33.6957 35.6046V35.5153L33.6174 36.0736C33.6217 36.0125 33.6349 35.9523 33.6565 35.8949L33.4439 36.3974C33.4637 36.3452 33.4942 36.2977 33.5334 36.2579L33.2033 36.6766L33.2593 36.6319L32.8397 36.9558L32.9068 36.9279C33.2621 36.7187 33.5479 36.4098 33.7287 36.0398C33.9095 35.6698 33.9772 35.2548 33.9236 34.8467C33.8699 34.4385 33.6972 34.0551 33.4269 33.7441C33.1566 33.4331 32.8006 33.2083 32.4033 33.0976C31.8559 32.9825 31.2855 33.0574 30.7865 33.3098C30.3823 33.5383 30.0485 33.8731 29.8216 34.2777C29.5948 34.6823 29.4834 35.1412 29.4998 35.6046H33.6733C33.662 34.9051 33.5566 34.2103 33.36 33.5387C33.201 33.0107 32.8443 32.5641 32.3641 32.2917C31.8838 32.0193 31.3168 31.942 30.7809 32.0759C30.219 32.2609 29.6787 32.5062 29.1697 32.8073L29.6732 32.5951L29.5893 32.6231C29.152 32.7549 28.7676 33.0214 28.4913 33.3844C28.215 33.7475 28.0608 34.1885 28.0508 34.6443C28.0573 35.101 28.2102 35.5436 28.487 35.9073C28.7639 36.271 29.1502 36.5367 29.5893 36.6654C30.0145 36.7798 30.4626 36.7779 30.8868 36.66C31.3111 36.5421 31.6957 36.3126 32.0005 35.9954C32.3819 35.5952 32.6012 35.068 32.6159 34.5158C32.6109 33.96 32.3904 33.4277 32.0005 33.0306C31.2117 32.3104 29.7963 32.1485 29.0298 33.0306L29.0522 33.0139Z" fill="#1F3A1D"/>
<path d="M39.4589 34.7516C41.21 33.4675 42.9275 32.1777 45.1374 31.865C46.2563 31.7087 46.8717 30.2794 46.6031 29.2911C46.2675 28.0851 45.1486 27.6663 44.0185 27.8282C41.4785 28.1856 39.3638 29.654 37.3442 31.1392C36.8764 31.4308 36.5378 31.8896 36.3975 32.4219C36.2571 32.9542 36.3256 33.5199 36.5889 34.0035C37.1148 34.9024 38.5414 35.4272 39.4589 34.7516Z" fill="#1F3A1D"/>
<path d="M41.0142 35.8573C41.2212 35.7177 41.4171 35.5614 41.6185 35.4107L41.9318 35.165L41.7248 35.3269C41.8097 35.2435 41.9057 35.1721 42.0101 35.1147C42.1891 34.9863 42.3737 34.8803 42.5695 34.7686C42.7654 34.6569 42.5695 34.8356 42.4576 34.8077C42.5231 34.7821 42.5904 34.7616 42.659 34.7462C42.8213 34.7072 42.7486 34.7127 42.4464 34.7462L40.3877 32.1109C40.3764 32.2021 40.3558 32.2919 40.3261 32.3789L40.4268 32.1444C40.4268 32.1779 40.0967 32.7306 40.2702 32.4515C40.4436 32.1723 40.1191 32.6078 40.0688 32.6636C39.9289 32.8032 39.789 32.9316 39.638 33.06L43.2185 34.5397C43.2185 34.3163 43.2185 34.3833 43.1905 34.7351C43.2577 34.5229 43.2409 34.5732 43.129 34.8802C42.9164 35.1203 42.8884 35.1594 43.0395 34.9975C42.7709 35.1817 42.7374 35.2264 42.9332 35.1259C43.9346 34.6737 44.2535 33.1438 43.6829 32.2616C43.3907 31.7947 42.9306 31.4571 42.3969 31.3179C41.8633 31.1788 41.2965 31.2488 40.8128 31.5135C40.2674 31.8083 39.8126 32.2457 39.4972 32.7788C39.1818 33.3119 39.0178 33.9206 39.0226 34.5397C39.0276 34.9498 39.1526 35.3496 39.3822 35.6898C39.6118 36.0301 39.936 36.2959 40.3149 36.4548C40.6986 36.6106 41.1193 36.6524 41.5263 36.5752C41.9332 36.4979 42.3091 36.3048 42.6087 36.0193C43.5034 35.3093 44.145 34.3303 44.4381 33.2276C44.5169 32.9147 44.5242 32.5881 44.4593 32.272C44.3944 31.956 44.259 31.6585 44.0633 31.4018C43.8738 31.1363 43.6213 30.9218 43.3284 30.7776C43.0355 30.6334 42.7113 30.5639 42.3849 30.5754C41.566 30.6372 40.7747 30.8979 40.08 31.3348C39.8618 31.4744 39.6548 31.6363 39.4478 31.7926L39.0226 32.122L39.1345 32.0327C39.0327 32.0966 38.9354 32.1675 38.8436 32.2449C38.3725 32.5336 38.0315 32.9929 37.8918 33.5266C37.7521 34.0604 37.8245 34.6274 38.0939 35.1092C38.6534 36.0025 40.0017 36.5273 40.9639 35.8573H41.0142Z" fill="#1F3A1D"/>
<path d="M49.7751 32.8974C47.2568 33.8698 44.824 35.0502 42.5022 36.4261C39.9959 37.8834 37.3832 39.7762 34.4573 40.167C28.555 40.9766 22.5017 38.6204 18.0764 34.846C16.0344 33.104 13.0413 36.052 15.1057 37.8052C19.8903 42.015 26.0261 44.3777 32.404 44.4662C39.442 44.5611 44.589 39.2904 50.866 36.9398C53.3668 36.0018 52.2871 31.9538 49.7471 32.8974H49.7751Z" fill="#1F3A1D"/>
</g>
<defs>
<clipPath id="clip0_944_2413">
<rect width="55" height="78" fill="white"/>
</clipPath>
</defs>
</svg>
