<svg width="63" height="69" viewBox="0 0 63 69" fill="none" xmlns="http://www.w3.org/2000/svg">
<g clip-path="url(#clip0_944_2391)">
<path d="M22.6505 40.5981C22.3908 38.6283 21.8769 36.4934 22.0237 34.5066L20.979 36.3511C21.4872 36.0209 23.6671 36.4991 24.3673 36.5447C25.604 36.6301 26.8408 36.6984 28.0775 36.7667C30.6187 36.909 33.16 37.0627 35.7012 37.262C38.4232 37.4726 38.4062 33.2028 35.7012 32.9922C31.4884 32.662 27.2643 32.4912 23.0515 32.1838C21.3573 32.0642 19.138 31.6145 18.0707 33.4306C17.0034 35.2467 18.1554 38.6682 18.4095 40.5981C18.7597 43.2853 23.0007 43.3194 22.6449 40.5981H22.6505Z" fill="#1F3A1D"/>
<path d="M33.3125 32.5762C32.984 29.8838 32.9518 27.1631 33.2165 24.4636C33.4141 21.7252 29.1787 21.7366 28.9811 24.4636C28.722 27.547 28.8053 30.65 29.2296 33.7148C29.6362 36.419 33.7473 35.269 33.3125 32.5762Z" fill="#1F3A1D"/>
<path d="M28.4552 17.6139C26.1568 18.9575 25.9648 22.0203 27.4105 24.0926C28.9352 26.2787 32.0129 26.5292 34.1871 25.2312C36.3613 23.9332 37.7561 21.3372 36.237 18.9688C34.6163 16.4582 31.2562 16.5834 28.6924 17.0161C27.5629 17.204 26.9304 18.6159 27.2128 19.6406C27.3733 20.179 27.7333 20.6344 28.2181 20.9121C28.7029 21.1899 29.2752 21.2687 29.8161 21.1322C30.6895 21.0155 31.5744 21.0155 32.4478 21.1322C32.2388 21.1322 33.2327 21.5933 32.6623 21.0924C32.7414 20.8362 32.7527 20.7849 32.6623 20.9557C32.572 21.1265 32.4365 21.1948 32.3179 21.303C31.996 21.5649 31.2336 22.0089 30.827 21.6161C30.7197 21.5136 30.7536 21.3713 30.6858 21.2575C30.3978 20.7792 31.0247 21.0013 30.5729 21.2575C32.9278 19.874 30.7988 16.1849 28.4326 17.5683L28.4552 17.6139Z" fill="#1F3A1D"/>
<path d="M19.5162 42.7205C22.9892 43.4264 26.5018 43.899 29.9748 44.5821L28.4219 42.5212C28.2336 48.7343 28.0454 54.9473 27.8571 61.1603C27.7724 63.9101 32.0078 63.9101 32.0925 61.1603C32.2845 54.9511 32.4728 48.7381 32.6572 42.5212C32.6542 42.0546 32.5013 41.6016 32.2213 41.23C31.9413 40.8584 31.5494 40.5884 31.1043 40.4603C27.6256 39.7829 24.113 39.3217 20.6457 38.6044C17.9802 38.0351 16.8451 42.174 19.5162 42.7205Z" fill="#1F3A1D"/>
<path d="M20.0199 32.769C13.2432 34.7046 6.33111 32.6152 4.54095 25.1289C3.97623 22.715 3.97621 19.9596 6.63603 18.9633C9.29586 17.967 12.4809 18.9633 14.4687 20.8989C14.7688 21.1865 15.1452 21.3802 15.5522 21.4564C15.9593 21.5327 16.3795 21.4883 16.7621 21.3286C17.1446 21.1689 17.473 20.9008 17.7075 20.5568C17.9419 20.2127 18.0723 19.8075 18.0829 19.3902C18.0829 15.4506 16.1572 11.0044 17.4391 7.15584C18.1619 4.98678 19.7714 4.45163 21.9569 4.3947C24.1423 4.33777 27.7678 4.76475 27.892 7.54297C27.8982 7.86917 27.9774 8.18975 28.1238 8.48072C28.2702 8.77169 28.4799 9.02552 28.7374 9.22319C28.9949 9.42087 29.2934 9.55728 29.6105 9.62221C29.9277 9.68715 30.2553 9.67893 30.5688 9.59816C34.3072 8.90361 37.2381 5.74396 41.1686 6.00584C45.8783 6.32465 49.0069 10.2529 45.6863 14.5454C44.523 16.0484 45.5113 18.8722 47.7475 18.1093C51.8474 16.7202 56.5515 17.7222 58.2965 22.14C59.9907 26.3756 56.8565 30.4348 52.7792 31.4937C50.142 32.1826 51.2601 36.2987 53.9086 35.6098C60.1205 33.9873 64.6383 27.5313 62.4359 21.1209C60.177 14.443 52.9712 11.8412 46.6238 13.9932L48.685 17.5628C52.2822 12.8945 52.4573 6.39866 46.8101 3.27886C44.408 1.98721 41.6653 1.48556 38.9662 1.84421C35.4762 2.31104 32.8446 4.84445 29.4394 5.47638L32.1274 7.54297C31.8225 0.756828 22.9677 -1.42362 17.648 0.893461C10.2728 4.11005 13.8588 13.4638 13.8588 19.3902L17.473 17.8816C11.4926 12.1544 -0.677067 13.515 0.0401253 23.6145C0.345073 27.8558 2.46277 32.2964 5.82849 34.9209C10.2276 38.3368 16.0273 38.3368 21.155 36.885C23.7753 36.1393 22.6628 32.0175 20.0255 32.769H20.0199Z" fill="#1F3A1D"/>
<path d="M36.3735 30.8847C34.5495 32.5129 34.6455 35.5359 35.9839 37.4317C37.5707 39.7089 40.7671 39.6577 42.7323 37.9327C43.6074 37.209 44.2007 36.1968 44.4074 35.0749C44.614 33.9529 44.4208 32.7935 43.8617 31.8013C42.4612 29.3817 39.1915 29.2052 36.7688 29.6891C36.2303 29.8459 35.7741 30.2089 35.4976 30.7004C35.2211 31.1919 35.1463 31.773 35.2893 32.3193C35.4497 32.859 35.8106 33.3153 36.2967 33.5932C36.7828 33.8711 37.3565 33.9491 37.8982 33.8109C38.4087 33.7019 38.9338 33.6807 39.4512 33.7483C39.6595 33.7825 39.8639 33.8378 40.0611 33.9134C40.1854 33.9589 40.4452 34.1639 40.2588 34.0216C40.4056 34.1297 40.2306 34.4486 40.1515 34.5396C40.0727 34.6567 39.9699 34.7554 39.8501 34.829C39.7303 34.9027 39.5962 34.9496 39.4569 34.9666C39.7562 34.9154 39.0729 35.0235 39.3948 34.9268C39.4964 34.9875 39.4851 34.9875 39.3609 34.9268C39.1632 34.8015 39.214 34.8528 39.5246 35.0919C39.5246 34.8243 39.2536 34.5226 39.2479 34.2607C39.2423 33.9988 39.2479 34.1582 39.2818 33.9988C39.3722 33.7426 39.0051 34.2664 39.3948 33.9191C39.6028 33.7236 39.7697 33.4879 39.8854 33.2261C40.0012 32.9642 40.0635 32.6815 40.0685 32.3948C40.0735 32.1082 40.0212 31.8234 39.9146 31.5576C39.8081 31.2918 39.6496 31.0503 39.4485 30.8476C39.2474 30.6448 39.0079 30.485 38.7442 30.3777C38.4805 30.2703 38.1981 30.2175 37.9137 30.2226C37.6294 30.2277 37.349 30.2904 37.0892 30.4071C36.8294 30.5238 36.5956 30.692 36.4018 30.9018L36.3735 30.8847Z" fill="#1F3A1D"/>
<path d="M53.7717 31.949L51.191 31.5277C50.1349 31.3512 48.8192 31.7896 48.5876 33.0193C47.6632 38.1459 47.3429 43.3647 47.6332 48.5671C47.6402 48.8935 47.7202 49.2142 47.8672 49.5051C48.0142 49.796 48.2246 50.0498 48.4824 50.2473C48.7403 50.4449 49.0391 50.5812 49.3565 50.6461C49.6739 50.7111 50.0018 50.7029 50.3157 50.6223C50.6114 50.5609 50.8914 50.4387 51.1382 50.2634C51.385 50.0881 51.5932 49.8633 51.75 49.6032C52.535 48.345 51.5354 46.1874 49.9203 46.3923C49.3556 46.4606 48.8474 46.5403 48.3053 46.6201C47.9947 46.6713 46.6506 46.8592 47.029 46.8136L48.8587 50.0302L47.5881 51.0094L47.7518 50.9752C50.4173 50.4059 49.2878 46.2671 46.6224 46.8592C46.3243 46.9161 46.0419 47.0371 45.7944 47.2139C45.5469 47.3908 45.3401 47.6193 45.188 47.8839C44.6233 49.1819 45.2332 51.2998 47.0177 51.0948C47.5824 51.0379 48.0963 50.9525 48.6328 50.8728C48.9434 50.8272 50.2874 50.628 49.909 50.6735L48.0794 47.4626L49.35 46.4777L49.1862 46.5119L51.863 48.5728C51.5701 43.7527 51.8393 38.9147 52.6649 34.1579L50.0615 35.6495L52.6366 36.0765C55.3021 36.5148 56.4541 32.3988 53.7661 31.9547L53.7717 31.949Z" fill="#1F3A1D"/>
<path d="M42.1793 43.4146C39.6212 44.0693 36.7976 46.0448 36.5322 48.8856C36.295 51.4133 37.8028 54.1346 40.5473 54.1517C43.3709 54.1517 46.6124 51.345 47.0021 48.4586C47.4143 45.4527 44.794 42.9876 41.9196 43.1014C39.2033 43.2039 39.192 47.4737 41.9196 47.3713C42.4448 47.3713 42.8739 47.4794 42.7723 48.043C42.6876 48.4871 41.9704 49.0507 41.6428 49.324C41.4308 49.4981 41.2062 49.656 40.9708 49.7965C40.7054 49.9559 40.4682 49.62 40.6885 49.9104C40.9934 50.3203 40.7901 49.0052 40.6885 49.2215C41.0104 48.2878 42.4617 47.7185 43.3031 47.5136C45.946 46.8418 44.8279 42.72 42.1737 43.3975L42.1793 43.4146Z" fill="#1F3A1D"/>
<path d="M28.23 62.2421C29.0093 62.5837 30.2969 62.8455 30.9406 63.4547C31.3359 63.8361 31.5392 64.6559 30.8616 64.7641C30.1839 64.8723 29.574 64.1208 29.3707 63.5743C29.2296 63.3031 29.1915 62.9893 29.2634 62.6918C29.4102 62.3446 29.7773 62.3502 29.5796 62.3161C30.1204 62.4497 30.6915 62.3696 31.1756 62.0923C31.6597 61.8149 32.0201 61.3613 32.183 60.8245C32.4653 59.7998 31.8385 58.3936 30.7034 58.2C30.0305 58.065 29.3367 58.0778 28.6691 58.2373C28.0016 58.3969 27.3759 58.6995 26.8347 59.1246C26.2936 59.5497 25.8495 60.0874 25.5329 60.701C25.2163 61.3145 25.0344 61.9897 24.9998 62.6804C24.9521 64.0593 25.3672 65.414 26.1777 66.5256C26.9883 67.6371 28.1471 68.4407 29.4667 68.8062C31.0761 69.199 32.6291 69.0453 33.911 67.9067C34.4235 67.4518 34.8342 66.8921 35.1156 66.2649C35.397 65.6376 35.5427 64.9572 35.5431 64.2688C35.5376 63.5282 35.3809 62.7967 35.0826 62.1199C34.7843 61.443 34.3509 60.8354 33.8094 60.3349C32.8155 59.4354 31.5505 59.0767 30.3703 58.553C29.3199 58.0975 28.1114 58.2455 27.4733 59.3215C26.9481 60.2267 27.1739 61.7809 28.23 62.2421Z" fill="#1F3A1D"/>
</g>
<defs>
<clipPath id="clip0_944_2391">
<rect width="63" height="69" fill="white"/>
</clipPath>
</defs>
</svg>
