<svg width="44" height="48" viewBox="0 0 44 48" fill="none" xmlns="http://www.w3.org/2000/svg">
<g clip-path="url(#clip0_944_2402)">
<path d="M15.8204 28.2417C15.639 26.8714 15.2801 25.3862 15.3827 24.0041L14.653 25.2872C15.008 25.0575 16.5304 25.3902 17.0195 25.4219C17.8832 25.4813 18.747 25.5288 19.6107 25.5763C21.3855 25.6753 23.1604 25.7823 24.9352 25.9209C26.8362 26.0674 26.8244 23.0971 24.9352 22.9506C21.9929 22.7209 19.0428 22.6021 16.1005 22.3882C14.9173 22.305 13.3672 21.9922 12.6218 23.2555C11.8764 24.5189 12.681 26.8991 12.8585 28.2417C13.103 30.111 16.065 30.1347 15.8165 28.2417H15.8204Z" fill="#1F3A1D"/>
<path d="M23.2665 22.6611C23.0371 20.7881 23.0146 18.8955 23.1995 17.0175C23.3375 15.1126 20.3795 15.1205 20.2414 17.0175C20.0605 19.1626 20.1187 21.3212 20.4149 23.4532C20.6989 25.3344 23.5702 24.5344 23.2665 22.6611Z" fill="#1F3A1D"/>
<path d="M19.8743 12.254C18.2691 13.1886 18.135 15.3193 19.1447 16.7609C20.2096 18.2817 22.3591 18.456 23.8775 17.553C25.396 16.65 26.3702 14.8441 25.3092 13.1966C24.1773 11.45 21.8306 11.5372 20.0399 11.8381C19.2511 11.9688 18.8094 12.951 19.0066 13.6639C19.1187 14.0384 19.3701 14.3552 19.7087 14.5484C20.0473 14.7416 20.447 14.7965 20.8248 14.7015C21.4348 14.6203 22.0528 14.6203 22.6628 14.7015C22.5168 14.7015 23.211 15.0223 22.8126 14.6738C22.8679 14.4956 22.8757 14.4599 22.8126 14.5787C22.7495 14.6976 22.6549 14.7451 22.5721 14.8203C22.3472 15.0025 21.8148 15.3114 21.5308 15.0381C21.4559 14.9669 21.4795 14.8679 21.4322 14.7886C21.2311 14.456 21.6689 14.6104 21.3533 14.7886C22.998 13.8263 21.5111 11.2599 19.8585 12.2223L19.8743 12.254Z" fill="#1F3A1D"/>
<path d="M13.6308 29.719C16.0564 30.2101 18.5096 30.5388 20.9352 31.0141L19.8506 29.5804C19.7191 33.9025 19.5877 38.2246 19.4562 42.5468C19.397 44.4596 22.3551 44.4596 22.4143 42.5468C22.5484 38.2273 22.6798 33.9052 22.8087 29.5804C22.8066 29.2558 22.6997 28.9406 22.5042 28.6822C22.3086 28.4237 22.0349 28.2358 21.724 28.1468C19.2945 27.6755 16.8413 27.3547 14.4196 26.8557C12.558 26.4596 11.7653 29.3388 13.6308 29.719Z" fill="#1F3A1D"/>
<path d="M13.9812 22.7958C9.24829 24.1423 4.42076 22.6889 3.1705 17.4809C2.77609 15.8017 2.77607 13.8849 4.63373 13.1918C6.49138 12.4988 8.71584 13.1918 10.1041 14.5384C10.3137 14.7384 10.5766 14.8731 10.8609 14.9262C11.1452 14.9793 11.4387 14.9484 11.7059 14.8373C11.9731 14.7262 12.2024 14.5397 12.3662 14.3004C12.5299 14.061 12.621 13.7791 12.6284 13.4889C12.6284 10.7483 11.2834 7.6552 12.1787 4.97797C12.6836 3.46906 13.8076 3.09679 15.334 3.05718C16.8603 3.01758 19.3924 3.31461 19.4792 5.24728C19.4835 5.4742 19.5388 5.69722 19.641 5.89963C19.7433 6.10205 19.8898 6.27862 20.0696 6.41613C20.2494 6.55365 20.4579 6.64854 20.6794 6.69371C20.9009 6.73889 21.1297 6.73317 21.3487 6.67698C23.9597 6.19382 26.0066 3.9958 28.7517 4.17798C32.0411 4.39976 34.2261 7.13243 31.907 10.1186C31.0945 11.1641 31.7847 13.1285 33.3465 12.5978C36.2099 11.6314 39.4953 12.3285 40.7141 15.4017C41.8973 18.3483 39.7083 21.172 36.8607 21.9087C35.0188 22.3879 35.7997 25.2512 37.6495 24.772C41.988 23.6433 45.1432 19.1522 43.605 14.6928C42.0274 10.0473 36.9948 8.23738 32.5617 9.73441L34.0013 12.2176C36.5136 8.97005 36.6359 4.45124 32.6918 2.28095C31.0142 1.38241 29.0986 1.03343 27.2135 1.28293C24.7761 1.60768 22.9381 3.37005 20.5599 3.80966L22.4372 5.24728C22.2243 0.526489 16.04 -0.990343 12.3247 0.621538C7.17371 2.85916 9.6782 9.3661 9.6782 13.4889L12.2024 12.4394C8.02563 8.4552 -0.473833 9.40174 0.027063 16.4275C0.240043 19.378 1.71907 22.4671 4.06973 24.2928C7.14216 26.6691 11.1927 26.6691 14.7739 25.6592C16.604 25.1404 15.827 22.273 13.9851 22.7958H13.9812Z" fill="#1F3A1D"/>
<path d="M25.4036 21.4842C24.1297 22.6169 24.1967 24.7199 25.1315 26.0387C26.2398 27.6229 28.4721 27.5872 29.8446 26.3872C30.4558 25.8838 30.8702 25.1796 31.0145 24.3991C31.1589 23.6187 31.0239 22.8121 30.6335 22.1219C29.6553 20.4387 27.3717 20.3159 25.6797 20.6526C25.3036 20.7616 24.9849 21.0141 24.7918 21.356C24.5987 21.698 24.5465 22.1022 24.6463 22.4823C24.7584 22.8576 25.0105 23.1751 25.35 23.3684C25.6894 23.5617 26.0901 23.616 26.4685 23.5199C26.825 23.444 27.1917 23.4293 27.5531 23.4763C27.6986 23.5001 27.8413 23.5386 27.9791 23.5912C28.0658 23.6228 28.2473 23.7654 28.1171 23.6664C28.2197 23.7417 28.0974 23.9634 28.0422 24.0268C27.9871 24.1082 27.9154 24.1769 27.8317 24.2281C27.748 24.2793 27.6544 24.312 27.5571 24.3238C27.7661 24.2882 27.2889 24.3634 27.5137 24.2961C27.5847 24.3384 27.5768 24.3384 27.49 24.2961C27.352 24.209 27.3875 24.2446 27.6044 24.411C27.6044 24.2248 27.4151 24.0149 27.4111 23.8327C27.4072 23.6506 27.4111 23.7615 27.4348 23.6506C27.4979 23.4724 27.2415 23.8367 27.5137 23.5951C27.659 23.4592 27.7755 23.2952 27.8564 23.113C27.9372 22.9308 27.9807 22.7342 27.9842 22.5348C27.9877 22.3354 27.9512 22.1373 27.8768 21.9524C27.8024 21.7674 27.6917 21.5994 27.5512 21.4584C27.4108 21.3174 27.2435 21.2062 27.0593 21.1315C26.8752 21.0568 26.6779 21.0201 26.4793 21.0237C26.2807 21.0272 26.0849 21.0708 25.9034 21.152C25.722 21.2332 25.5587 21.3502 25.4233 21.4961L25.4036 21.4842Z" fill="#1F3A1D"/>
<path d="M37.5552 22.2254L35.7527 21.9323C35.0152 21.8096 34.0962 22.1145 33.9345 22.9699C33.2889 26.5363 33.0652 30.1667 33.268 33.7858C33.2728 34.0129 33.3287 34.2359 33.4314 34.4383C33.5341 34.6407 33.681 34.8172 33.861 34.9547C34.0411 35.0921 34.2498 35.1869 34.4715 35.2321C34.6932 35.2773 34.9222 35.2716 35.1414 35.2155C35.3479 35.1728 35.5435 35.0878 35.7158 34.9658C35.8882 34.8439 36.0337 34.6875 36.1432 34.5066C36.6914 33.6313 35.9933 32.1303 34.8653 32.2729C34.4709 32.3204 34.1159 32.3759 33.7373 32.4313C33.5204 32.467 32.5817 32.5977 32.846 32.566L34.1238 34.8036L33.2364 35.4848L33.3508 35.461C35.2124 35.065 34.4236 32.1858 32.562 32.5977C32.3538 32.6373 32.1566 32.7215 31.9837 32.8445C31.8108 32.9675 31.6664 33.1265 31.5602 33.3105C31.1658 34.2135 31.5917 35.6868 32.8381 35.5442C33.2325 35.5046 33.5914 35.4452 33.9661 35.3898C34.183 35.3581 35.1217 35.2195 34.8574 35.2511L33.5795 33.0175L34.467 32.3323L34.3526 32.3561L36.2221 33.7898C36.0175 30.4367 36.2055 27.0711 36.7821 23.762L34.9639 24.7997L36.7624 25.0967C38.624 25.4016 39.4286 22.5383 37.5512 22.2294L37.5552 22.2254Z" fill="#1F3A1D"/>
<path d="M29.4591 30.2029C27.6725 30.6583 25.7004 32.0326 25.515 34.0088C25.3494 35.7672 26.4025 37.6603 28.3193 37.6722C30.2913 37.6722 32.5552 35.7197 32.8274 33.7118C33.1153 31.6207 31.2852 29.9059 29.2777 29.9851C27.3806 30.0563 27.3727 33.0266 29.2777 32.9554C29.6445 32.9554 29.9442 33.0306 29.8732 33.4227C29.8141 33.7316 29.3132 34.1237 29.0844 34.3138C28.9363 34.4349 28.7794 34.5448 28.6151 34.6425C28.4297 34.7534 28.2641 34.5197 28.4179 34.7217C28.6309 35.0068 28.4889 34.092 28.4179 34.2425C28.6427 33.593 29.6563 33.1969 30.244 33.0544C32.0898 32.587 31.3089 29.7197 29.4552 30.191L29.4591 30.2029Z" fill="#1F3A1D"/>
<path d="M19.7156 43.2982C20.2599 43.5358 21.1591 43.718 21.6088 44.1417C21.8849 44.4071 22.0268 44.9774 21.5535 45.0526C21.0803 45.1279 20.6543 44.6051 20.5123 44.2249C20.4138 44.0362 20.3871 43.818 20.4374 43.611C20.5399 43.3694 20.7963 43.3734 20.6582 43.3496C21.0359 43.4426 21.4348 43.3869 21.7729 43.1939C22.1109 43.001 22.3627 42.6854 22.4764 42.312C22.6737 41.5992 22.2359 40.6209 21.4431 40.4863C20.9731 40.3924 20.4886 40.4012 20.0223 40.5122C19.5561 40.6232 19.1191 40.8337 18.7412 41.1295C18.3632 41.4252 18.0531 41.7992 17.8319 42.2261C17.6108 42.6529 17.4838 43.1226 17.4596 43.6031C17.4263 44.5623 17.7162 45.5047 18.2823 46.278C18.8484 47.0512 19.6577 47.6102 20.5794 47.8645C21.7034 48.1378 22.788 48.0308 23.6833 47.2388C24.0413 46.9223 24.3281 46.533 24.5246 46.0966C24.7211 45.6603 24.8229 45.187 24.8232 44.7081C24.8194 44.1929 24.7099 43.684 24.5016 43.2131C24.2932 42.7423 23.9905 42.3196 23.6123 41.9714C22.9182 41.3457 22.0347 41.0962 21.2104 40.7318C20.4768 40.415 19.6328 40.518 19.1871 41.2665C18.8203 41.8962 18.9781 42.9774 19.7156 43.2982Z" fill="#1F3A1D"/>
</g>
<defs>
<clipPath id="clip0_944_2402">
<rect width="44" height="48" fill="white"/>
</clipPath>
</defs>
</svg>
