<svg width="70" height="80" viewBox="0 0 70 80" fill="none" xmlns="http://www.w3.org/2000/svg">
<g clip-path="url(#clip0_872_2532)">
<path d="M24.7613 74.4419C17.629 74.2961 10.4967 74.1502 3.3716 74.0116C4.27032 74.9233 5.16905 75.835 6.06777 76.7466C5.47102 52.9195 5.26971 29.085 5.46383 5.25058C4.5651 6.16224 3.66638 7.0739 2.76765 7.98556C21.0082 5.57148 39.3997 4.89321 57.7697 5.95802C56.871 5.04636 55.9723 4.13471 55.0735 3.22304C56.188 27.5753 56.5546 51.9568 56.1592 76.3309C57.0579 75.4192 57.9566 74.5076 58.8554 73.5959C46.1725 73.9095 33.4897 74.2158 20.8069 74.5295C17.3414 74.617 17.327 80.0869 20.8069 79.9994C33.4897 79.6858 46.1725 79.3795 58.8554 79.0659C60.3293 79.0294 61.53 77.8406 61.5515 76.3309C61.947 51.9568 61.5803 27.5753 60.4659 3.22304C60.394 1.67687 59.2796 0.575584 57.7625 0.488064C39.3997 -0.576755 21.0082 0.101521 2.76765 2.5156C1.30812 2.70522 0.0858529 3.60959 0.0714733 5.25058C-0.122652 29.085 0.0786631 52.9195 0.675417 76.7466C0.711366 78.249 1.88331 79.4524 3.3716 79.4816C10.5039 79.6275 17.6362 79.7733 24.7613 79.9119C28.2268 79.9848 28.2268 74.5149 24.7613 74.4419Z" fill="#1F3A1D"/>
<path d="M14.4661 55.8089C17.4427 55.1453 20.4049 54.8681 23.4534 54.9192C26.9261 54.9775 26.9261 49.5076 23.4534 49.4492C19.9448 49.3909 16.4649 49.7701 13.0354 50.5359C9.64177 51.2871 11.0797 56.5674 14.4661 55.8089Z" fill="#1F3A1D"/>
<path d="M13.5444 49.2889C18.8217 48.545 24.135 48.2606 29.4626 48.3408C32.9353 48.3919 32.9353 42.9219 29.4626 42.8709C23.6389 42.7833 17.8799 43.1991 12.1136 44.0159C8.68408 44.4973 10.1436 49.7703 13.5444 49.2889Z" fill="#1F3A1D"/>
<path d="M40.02 58.711C41.2351 61.3585 42.3998 66.1283 44.8084 67.8933C47.3823 69.7749 49.5609 67.4484 51.2792 65.5959C57.2683 59.1413 63.2575 52.6941 69.2466 46.2395C71.6264 43.6796 67.8158 39.7995 65.436 42.3741C62.0352 46.0353 58.6344 49.6965 55.2336 53.3578C53.6159 55.1008 51.9982 56.8439 50.3733 58.587C49.5465 59.4768 47.0085 63.0286 45.8941 63.2329C46.5843 63.3277 47.2817 63.4152 47.9719 63.51C47.2386 62.9557 45.3692 57.4785 44.6646 55.9469C43.2123 52.7597 38.5676 55.5311 40.02 58.711Z" fill="#1F3A1D"/>
<path d="M41.9384 20.7053C44.2822 20.5084 46.6189 20.3114 48.9628 20.1218C50.4152 19.9978 51.659 18.9549 51.659 17.3868C51.659 16.0011 50.4223 14.5279 48.9628 14.6519C46.6189 14.8488 44.2822 15.0457 41.9384 15.2353C40.486 15.3593 39.2422 16.4022 39.2422 17.9703C39.2422 19.356 40.4788 20.8293 41.9384 20.7053Z" fill="#1F3A1D"/>
<path d="M41.5556 29.4727C44.2661 29.1664 46.9839 28.8601 49.6944 28.5537C51.1396 28.3933 52.3906 27.416 52.3906 25.8188C52.3906 24.4695 51.154 22.9233 49.6944 23.0838C46.9839 23.3901 44.2661 23.6964 41.5556 24.0027C40.1104 24.1632 38.8594 25.1405 38.8594 26.7377C38.8594 28.0943 40.1032 29.6404 41.5556 29.4727Z" fill="#1F3A1D"/>
<path d="M41.9372 38.9316C44.7987 39.165 47.5956 39.0046 50.4356 38.6034C51.8807 38.3992 52.6716 36.5321 52.3193 35.2412C51.8951 33.6659 50.4499 33.1262 49.0048 33.3304C46.6681 33.6586 44.2883 33.6513 41.9372 33.4617C38.4789 33.1845 38.5005 38.6545 41.9372 38.9316Z" fill="#1F3A1D"/>
<path d="M39.5291 49.2961C43.0737 49.2961 46.6182 49.2961 50.1628 49.2961C53.6355 49.2961 53.6355 43.8262 50.1628 43.8262C46.6182 43.8262 43.0737 43.8262 39.5291 43.8262C36.0564 43.8262 36.0492 49.2961 39.5291 49.2961Z" fill="#1F3A1D"/>
<path d="M12.329 69.7159C19.8783 69.0231 27.4276 68.797 35.0057 69.0376C38.4784 69.147 38.4712 63.6771 35.0057 63.5677C27.4348 63.327 19.8783 63.5531 12.329 64.246C8.8995 64.5596 8.87075 70.0368 12.329 69.7159Z" fill="#1F3A1D"/>
<path d="M18.354 14.0395C12.106 16.0451 6.75682 22.1058 9.2445 29.1074C11.5812 35.6932 20.3024 37.6843 26.2484 35.4452C32.0074 33.2718 35.3507 26.9267 33.1003 20.9754C30.476 14.0395 22.9914 13.3174 16.6931 14.3312C13.278 14.8782 14.7231 20.1512 18.1239 19.6042C21.2227 19.1083 25.3137 18.8676 27.3988 21.7339C29.5413 24.6876 28.1034 28.451 25.0477 30.0336C22.2365 31.485 17.3906 31.1641 15.1473 28.6917C11.6387 24.8189 16.2618 20.4503 19.7848 19.3198C23.0849 18.255 21.6757 12.9746 18.354 14.0395Z" fill="#1F3A1D"/>
<path d="M21.5276 26.5188C25.0003 26.5188 25.0003 21.0488 21.5276 21.0488C18.0621 21.0488 18.0549 26.5188 21.5276 26.5188Z" fill="#1F3A1D"/>
<path d="M18.0237 32.0754C21.4964 32.0754 21.4964 26.6055 18.0237 26.6055C14.5582 26.6055 14.551 32.0754 18.0237 32.0754Z" fill="#1F3A1D"/>
<path d="M24.8767 32.6965C28.3494 32.6965 28.3494 27.2266 24.8767 27.2266C21.4041 27.2266 21.3969 32.6965 24.8767 32.6965Z" fill="#1F3A1D"/>
<path d="M27.4666 25.2864C30.9393 25.2864 30.9393 19.8164 27.4666 19.8164C23.9939 19.8164 23.9867 25.2864 27.4666 25.2864Z" fill="#1F3A1D"/>
<path d="M16.1995 22.1926C19.6721 22.1926 19.6721 16.7227 16.1995 16.7227C12.734 16.7227 12.7268 22.1926 16.1995 22.1926Z" fill="#1F3A1D"/>
</g>
<defs>
<clipPath id="clip0_872_2532">
<rect width="70" height="80" fill="white"/>
</clipPath>
</defs>
</svg>
