<svg width="66" height="83" viewBox="0 0 66 83" fill="none" xmlns="http://www.w3.org/2000/svg">
<g clip-path="url(#clip0_763_450)">
<path d="M24.0804 14.8374C19.0531 22.5157 14.243 30.3547 9.90384 38.4568C6.39051 45.0319 2.18899 52.2718 0.486654 59.5921C-1.04183 66.1161 1.11695 72.4575 7.44096 75.1752C8.81731 75.767 10.3965 76.0884 11.7004 76.8336C13.0043 77.5788 13.3883 78.9669 14.5111 80.0189C14.928 80.4411 15.4309 80.7669 15.985 80.9738C16.5391 81.1807 17.1311 81.2636 17.7201 81.217C19.7267 81.0271 20.9075 79.0253 22.436 81.6846C23.3777 83.321 25.3771 83.343 26.7027 82.2325C31.4041 78.3093 37.9889 78.2801 43.574 76.4391C49.2967 74.5542 54.5993 71.2739 59.3224 67.57C62.9444 64.7207 66.2114 61.2724 66.0086 56.2973C65.8082 53.8903 65.0649 51.5613 63.8354 49.4884C62.3214 46.7195 59.3876 44.5132 59.5832 41.2037C59.7643 38.0769 60.5322 35.1035 60.4235 31.9182C60.344 29.0801 59.9157 26.263 59.1486 23.5312C57.5694 18.0447 54.5704 15.495 49.007 14.5306C38.0468 12.7115 25.2902 12.3389 19.0386 23.3851C17.2928 26.4535 21.9869 29.2297 23.7254 26.154C26.1667 21.8655 30.245 19.6227 35.0115 19.0967C37.6111 18.8604 40.228 18.8947 42.8206 19.199C45.2835 19.44 49.2967 19.462 51.5134 20.8354C55.3527 23.1952 55.1788 31.341 54.9543 35.2057C54.6573 40.2247 52.781 43.6 56.106 47.8665C58.8732 51.4171 62.5532 56.2242 59.0978 60.498C56.2002 64.0998 51.354 66.8029 47.3263 68.9142C39.4594 73.0492 29.9408 72.5013 22.8996 78.3605L27.1663 78.9157C25.7175 76.4464 23.7761 74.167 20.6902 74.2693C19.35 74.3131 18.517 74.9195 17.3942 75.4601C18.1186 75.1241 18.2997 76.0738 17.5535 74.788C17.2248 74.2622 16.8194 73.7893 16.351 73.3853C14.3662 71.5589 11.6135 71.1132 9.25195 70.0028C5.30398 68.1398 4.90549 63.9536 6.01382 60.0962C8.04938 53.1412 11.809 46.42 15.2572 40.0932C19.4369 32.3857 24.0296 24.9266 28.8251 17.599C30.7593 14.6767 26.058 11.9006 24.131 14.8374H24.0804Z" fill="#1F3A1D"/>
<path d="M15.6967 37.1636C19.7244 41.8173 25.1139 41.8977 30.8512 41.3497C36.8564 40.7653 42.9776 39.611 48.0339 36.1189C50.9315 34.1317 48.1788 29.383 45.2885 31.3848C41.3622 34.1025 36.7333 35.1764 32.061 35.7682C27.5987 36.3015 22.7741 37.054 19.5361 33.3208C17.2325 30.6615 13.4076 34.5481 15.6967 37.1928V37.1636Z" fill="#1F3A1D"/>
<path d="M45.2515 17.7822C46.2439 13.3988 47.3378 7.43003 51.0467 4.50775C53.7994 2.31605 49.9311 -1.51944 47.2074 0.628432C42.774 4.14247 41.2239 11.0683 40.0286 16.3284C39.2463 19.762 44.4837 21.2305 45.266 17.7895L45.2515 17.7822Z" fill="#1F3A1D"/>
<path d="M27.2371 29.7916L27.1212 29.5798L27.3965 30.23C27.3589 30.1284 27.3322 30.0231 27.3168 29.9158L27.4182 30.6464C27.411 30.5589 27.411 30.4709 27.4182 30.3834L27.3168 31.114C27.3308 31.0293 27.3526 30.9462 27.382 30.8656L27.1067 31.5231C27.1216 31.4821 27.1411 31.4429 27.1647 31.4062L24.0933 32.6701C24.3758 32.7724 24.6727 32.787 24.948 32.8966C25.2979 33.0055 25.6699 33.0206 26.0274 32.9404C26.3876 32.9254 26.7375 32.8145 27.0415 32.619C27.6629 32.2517 28.1143 31.6505 28.2963 30.9477C28.4783 30.2449 28.3761 29.498 28.0122 28.8711L27.5921 28.3159C27.2621 27.9698 26.8472 27.7177 26.3896 27.5853C26.1143 27.483 25.8173 27.4611 25.5348 27.3662L24.8104 27.2639C24.4451 27.2469 24.082 27.3302 23.76 27.505C23.2175 27.7233 22.7617 28.1163 22.4634 28.6227C22.1154 29.24 21.9495 29.9446 21.9852 30.6537C21.9978 31.3395 22.1957 32.0089 22.5575 32.5897C22.7275 32.9056 22.9774 33.1703 23.2819 33.3568C23.5432 33.6005 23.8626 33.7717 24.2091 33.8536C24.9162 34.039 25.6671 33.9394 26.3026 33.576C26.91 33.2111 27.3559 32.6255 27.5487 31.9395C27.6473 31.5872 27.6738 31.2183 27.6265 30.8553C27.5792 30.4923 27.459 30.1428 27.2734 29.8282L27.2371 29.7916Z" fill="#1F3A1D"/>
<path d="M35.0259 29.2515C34.8593 29.1493 34.6782 29.0835 34.5261 28.9739L35.0766 29.3977C35.0069 29.3444 34.9438 29.2831 34.8883 29.215L35.3157 29.7702C35.2825 29.7268 35.2534 29.6803 35.2287 29.6314L32.8527 33.7518C33.1488 33.7408 33.4427 33.6967 33.7292 33.6203C34.0045 33.5181 34.2725 33.3939 34.5333 33.277L33.8886 33.5546C33.9465 33.5263 34.0072 33.5042 34.0697 33.4888C34.4168 33.4085 34.7366 33.2371 34.9969 32.9921C35.2836 32.7858 35.5231 32.52 35.6993 32.2125C35.8755 31.905 35.9843 31.563 36.0183 31.2095C36.0992 30.8462 36.0817 30.4677 35.9676 30.1136C35.7837 29.4236 35.3424 28.832 34.7361 28.4625C34.0977 28.1077 33.3502 28.0086 32.6426 28.1849C32.324 28.2894 32.014 28.4188 31.7154 28.5721L32.3673 28.2945L32.1862 28.3529L32.9106 28.258H32.8527C32.3711 28.261 31.8989 28.392 31.4836 28.6379C31.0784 28.8724 30.7412 29.2099 30.5056 29.6168C30.264 30.0375 30.1367 30.5151 30.1367 31.0013C30.1367 31.4874 30.264 31.965 30.5056 32.3857C30.5983 32.5285 30.6999 32.6651 30.8099 32.7948C30.8978 32.9214 30.992 33.0433 31.0924 33.1601L31.201 33.2624C31.3983 33.4286 31.6038 33.5847 31.8168 33.7299C31.9544 33.8249 32.1138 33.8834 32.2587 33.9637C32.558 34.1645 32.9063 34.2783 33.2656 34.2925C33.6257 34.3741 34.0011 34.3564 34.3522 34.2413C35.0195 34.0218 35.5923 33.5783 35.9749 32.9848C36.157 32.6687 36.2744 32.319 36.3205 31.9564C36.3665 31.5938 36.3402 31.2256 36.2429 30.8734C36.0449 30.1901 35.6003 29.6063 34.9969 29.2369L35.0259 29.2515Z" fill="#1F3A1D"/>
</g>
<defs>
<clipPath id="clip0_763_450">
<rect width="66" height="83" fill="white"/>
</clipPath>
</defs>
</svg>
