<svg width="77" height="96" viewBox="0 0 77 96" fill="none" xmlns="http://www.w3.org/2000/svg">
<g clip-path="url(#clip0_872_2632)">
<path d="M29.2073 96.0015C41.5473 95.7003 53.8874 95.4218 66.2275 95.1282C67.7635 95.0906 69.0072 93.8635 69.0372 92.3051C69.4193 69.5623 69.0672 46.8195 67.9807 24.0993C67.9058 22.5109 66.752 21.3591 65.1711 21.2763C58.5777 20.9224 51.9619 20.945 45.361 21.0353C41.922 21.0805 38.2507 20.817 34.8416 21.3515C31.6948 21.8484 32.4665 26.9977 35.5908 26.8998C36.2876 26.8773 36.9844 26.8471 37.6887 26.8246C37.4415 24.9726 37.1942 23.1282 36.9395 21.2763C36.932 21.2763 36.9245 21.2838 36.917 21.2838C33.4555 22.3001 34.924 27.7505 38.408 26.7267C38.4155 26.7267 38.423 26.7192 38.4305 26.7192C41.4125 25.8459 40.9255 21.088 37.6812 21.1709C36.9844 21.1859 36.2876 21.216 35.5834 21.2461C35.8306 23.0981 36.0779 24.9425 36.3326 26.7944C35.2762 26.9601 35.913 26.8471 36.5199 26.8622C37.2467 26.8773 37.9809 26.8246 38.7002 26.802C41.2327 26.7417 43.7651 26.6966 46.2976 26.6665C52.5837 26.5912 58.8849 26.5837 65.1636 26.9224C64.227 25.9814 63.2905 25.0404 62.3539 24.0993C63.4403 46.8195 63.7925 69.5623 63.4103 92.3051C64.3469 91.3641 65.2835 90.423 66.22 89.482C53.8799 89.7756 41.5399 90.0542 29.1998 90.3553C25.5959 90.4381 25.5809 96.0843 29.2073 96.0015Z" fill="#1F3A1D"/>
<path d="M8.79694 47.8647C8.87936 62.8082 9.0367 77.7593 9.41882 92.6953C9.45628 94.2461 10.6775 95.4883 12.2285 95.5184C19.1665 95.6539 26.1045 95.7744 33.05 95.9249C36.6689 96.0002 36.6689 90.354 33.05 90.2787C26.112 90.1282 19.174 90.0077 12.2285 89.8722C13.165 90.8132 14.1016 91.7543 15.0382 92.6953C14.656 77.7518 14.4987 62.8082 14.4163 47.8647C14.3938 44.2286 8.77446 44.221 8.79694 47.8647Z" fill="#1F3A1D"/>
<path d="M24.1711 68.8761C26.9508 68.2663 29.7155 68.0103 32.5626 68.0555C36.1815 68.1157 36.1815 62.4696 32.5626 62.4093C29.2285 62.3566 25.9318 62.718 22.6801 63.4332C19.1511 64.2086 20.6421 69.6515 24.1711 68.8761Z" fill="#1F3A1D"/>
<path d="M23.3026 61.2119C28.2476 60.5193 33.2301 60.2634 38.2201 60.3311C41.8389 60.3838 41.8389 54.7376 38.2201 54.6849C32.7056 54.6097 27.2661 55.0011 21.8041 55.7615C18.2452 56.2659 19.7587 61.7088 23.3026 61.2119Z" fill="#1F3A1D"/>
<path d="M48.2621 75.9971C50.2476 80.2806 52.7576 88.9682 58.4294 83.4049C64.5957 77.3446 70.3049 70.7273 76.224 64.4187C78.704 61.7762 74.733 57.7712 72.253 60.4287C69.0312 63.8616 65.8169 67.302 62.5952 70.7348C61.0667 72.3609 59.5458 73.987 58.0173 75.6131C57.0433 76.652 54.9079 79.6558 53.9714 79.8214C54.6906 79.9193 55.4174 80.0096 56.1367 80.1075C56.7586 80.5742 55.2975 77.849 55.0578 77.3296C54.4134 75.9368 53.7691 74.5441 53.1172 73.1514C51.5888 69.8616 46.7486 72.7223 48.2621 75.9971Z" fill="#1F3A1D"/>
<path d="M50.3058 40.6838C52.5085 40.5031 54.7188 40.3224 56.9216 40.1342C58.4351 40.0062 59.7313 38.9297 59.7313 37.3111C59.7313 35.8807 58.4426 34.36 56.9216 34.488C54.7188 34.6687 52.5085 34.8494 50.3058 35.0376C48.7923 35.1656 47.4961 36.2421 47.4961 37.8607C47.4961 39.291 48.7848 40.8042 50.3058 40.6838Z" fill="#1F3A1D"/>
<path d="M49.9464 48.8584C52.5013 48.5723 55.0562 48.2862 57.6112 48.0077C59.1172 47.8421 60.4208 46.8333 60.4208 45.1846C60.4208 43.7919 59.1321 42.1959 57.6112 42.3615C55.0562 42.6476 52.5013 42.9336 49.9464 43.2122C48.4404 43.3778 47.1367 44.3866 47.1367 46.0353C47.1367 47.428 48.4254 49.024 49.9464 48.8584Z" fill="#1F3A1D"/>
<path d="M50.3058 57.6885C53.033 57.9068 55.6779 57.7487 58.3826 57.3723C59.8886 57.1615 60.7128 55.2343 60.3457 53.9018C59.9036 52.2757 58.3976 51.7186 56.8916 51.9294C54.7113 52.2305 52.4936 52.2154 50.3058 52.0423C48.7923 51.9218 47.4961 53.4275 47.4961 54.8654C47.4961 56.4915 48.7848 57.5605 50.3058 57.6885Z" fill="#1F3A1D"/>
<path d="M48.0373 67.3552C51.3789 67.3552 54.713 67.3552 58.0547 67.3552C61.6735 67.3552 61.6735 61.709 58.0547 61.709C54.713 61.709 51.3789 61.709 48.0373 61.709C44.4184 61.709 44.4109 67.3552 48.0373 67.3552Z" fill="#1F3A1D"/>
<path d="M22.0901 86.4013C29.2005 85.7539 36.3108 85.5431 43.4511 85.7689C47.07 85.8819 47.0625 80.2357 43.4511 80.1228C36.3108 79.8969 29.2005 80.1077 22.0901 80.7551C18.5162 81.0864 18.4862 86.7326 22.0901 86.4013Z" fill="#1F3A1D"/>
<path d="M7.52412 49.7922C6.87977 40.5776 6.23542 31.3631 5.62853 22.1485C4.69197 23.0895 3.75542 24.0306 2.81886 24.9716C14.0725 24.5199 25.1988 24.4371 36.4225 25.5061C35.486 24.5651 34.5494 23.624 33.6129 22.683C33.8601 30.1886 33.4256 37.6567 32.489 45.1021C33.4256 44.161 34.3621 43.22 35.2987 42.279C25.2138 42.9339 15.4137 45.7721 5.24642 44.9214C1.64254 44.6203 1.66502 50.2664 5.24642 50.5676C15.4287 51.4183 25.2063 48.5801 35.2987 47.9176C36.962 47.8122 37.906 46.6981 38.1083 45.0945C39.0449 37.6491 39.4795 30.1811 39.2322 22.6755C39.1798 21.0418 37.981 20.003 36.4225 19.8524C25.1988 18.7834 14.0725 18.8662 2.81886 19.3179C1.38031 19.3781 -0.0957077 20.5676 0.00918676 22.141C0.616076 31.3631 1.26043 40.5776 1.90478 49.7922C2.15203 53.3982 7.77887 53.4283 7.52412 49.7922Z" fill="#1F3A1D"/>
<path d="M10.9643 20.944C9.5707 13.2351 12.5602 5.42081 21.4912 5.66924C24.7279 5.75958 29.7704 6.02307 31.2314 9.39571C32.5651 12.4748 31.2389 16.7433 31.0591 19.9578C30.8493 23.5864 36.4761 23.5789 36.6784 19.9578C36.9706 14.8311 38.574 8.74829 34.8353 4.41203C31.5236 0.572628 25.0426 -0.119969 20.3074 0.0155391C15.1676 0.166104 10.6946 2.46221 7.76502 6.73825C4.53577 11.4509 4.56574 16.9992 5.54725 22.4421C6.1916 26.0105 11.6087 24.4973 10.9643 20.944Z" fill="#1F3A1D"/>
<path d="M17.1053 21.087C16.933 18.1736 16.8505 12.55 20.9714 12.2639C22.3425 12.1736 24.5828 13.3781 25.302 14.6052C26.2985 16.3066 25.5942 18.7834 25.2271 20.545C24.4929 24.0908 29.9099 25.604 30.6442 22.0431C31.3859 18.4822 31.9703 14.7257 29.9549 11.4584C28.329 8.83105 24.7626 6.91888 21.7356 6.66292C18.6412 6.39943 15.7267 8.01047 13.8835 10.4421C11.5309 13.5362 11.2612 17.3229 11.4859 21.0795C11.7032 24.7006 17.3226 24.7231 17.1053 21.087Z" fill="#1F3A1D"/>
<path d="M17.2418 26.725C14.7843 27.8919 14.4396 30.6322 15.3537 32.9584C15.5785 33.523 15.8407 34.0425 16.1854 34.5469C16.3577 34.8028 17.0545 35.8568 16.8147 35.0287C17.1893 36.316 15.998 38.7777 15.6759 40.0048C15.0915 42.1955 17.062 43.8894 19.1299 43.4753C20.7108 43.1592 22.2617 42.7225 23.8426 42.3913C24.959 42.1579 26.0005 40.8329 25.9031 39.6661C25.7382 37.7313 25.6483 35.7514 26.1204 33.8467C26.4875 32.3863 26.967 31.0462 26.42 29.5406C25.2362 26.2507 20.7483 25.6259 17.8786 26.7702C14.552 28.0952 16.0055 33.5531 19.3696 32.2131C19.8192 31.9571 20.3062 31.8442 20.8232 31.8819C21.8272 32.2959 21.9021 32.0776 21.048 31.2194C20.8457 31.2269 20.516 33.1993 20.4785 33.4327C20.1189 35.5105 20.1039 37.5732 20.2837 39.6736C20.973 38.7627 21.6623 37.8593 22.3442 36.9484C20.7632 37.2796 19.2123 37.7162 17.6314 38.0324C18.7852 39.1918 19.9391 40.3511 21.0854 41.5029C21.6623 39.3348 22.539 37.0763 22.4041 34.7953C22.3591 33.9747 22.1493 33.2294 21.7148 32.5293C21.505 32.1905 21.2053 31.9195 20.9805 31.5958C20.8382 31.4603 20.7333 31.2871 20.6658 31.0989C20.471 30.4967 20.2762 30.6623 20.0739 31.5958C23.3481 30.0525 20.501 25.1893 17.2418 26.725Z" fill="#1F3A1D"/>
</g>
<defs>
<clipPath id="clip0_872_2632">
<rect width="77" height="96" fill="white"/>
</clipPath>
</defs>
</svg>
