<svg width="64" height="82" viewBox="0 0 64 82" fill="none" xmlns="http://www.w3.org/2000/svg">
<g clip-path="url(#clip0_738_402)">
<path d="M6.08203 75.021C11.1562 62.8769 17.8468 51.4416 25.2116 40.5415L20.2462 39.8905C20.8551 43.9989 22.3412 48.8811 27.0964 49.6261C33.2072 50.5881 35.7515 44.0495 40.8184 42.5089L37.4767 39.1672C37.0998 40.9321 36.7518 42.6897 36.3966 44.4545C36.0197 46.3351 37.1867 47.666 39.0135 47.8902C43.6237 48.4399 47.1902 45.4599 50.2637 42.4148L45.7186 41.1997C49.3865 51.7309 56.8529 60.4828 58.7086 71.6938L60.6078 68.3594C41.2969 71.0501 22.3629 77.133 2.69679 76.511L5.32086 79.9466C5.98051 77.0535 6.71987 74.2181 7.56799 71.4045C8.58282 68.0557 3.33468 66.6235 2.32709 69.9579C1.47897 72.7715 0.739611 75.6358 0.0799666 78.5C-0.0243258 78.9017 -0.0358378 79.3218 0.0462531 79.7286C0.128344 80.1354 0.30184 80.5183 0.553813 80.8484C0.805787 81.1786 1.12959 81.4473 1.5008 81.6344C1.872 81.8215 2.28097 81.922 2.69679 81.9285C22.8558 82.5722 42.2682 76.3374 62.0503 73.5816C63.6088 73.3647 64.1669 71.5275 63.9495 70.2472C62.0865 58.9928 54.613 50.3205 50.9885 39.7531C50.8541 39.3024 50.6056 38.8937 50.2671 38.5664C49.9286 38.2392 49.5114 38.0043 49.0556 37.8845C48.5999 37.7646 48.1209 37.7638 47.6647 37.882C47.2085 38.0003 46.7904 38.2336 46.4508 38.5597C44.3559 40.6283 42.2175 42.8199 39.0425 42.4438L41.6666 45.8722C42.0145 44.1146 42.3914 42.3497 42.7466 40.5921C43.1526 38.6537 41.4926 36.6212 39.4049 37.2577C36.2662 38.2053 34.3307 40.1509 31.9313 42.2557C30.4381 43.5432 28.307 44.9391 26.734 43.196C25.8206 42.1545 25.7118 39.7531 25.5161 38.4295C25.1464 35.9124 21.7105 36.0643 20.5507 37.7785C12.8348 49.033 6.24304 61.015 0.870065 73.5527C-0.485468 76.7714 4.77718 78.1746 6.11096 74.9993L6.08203 75.021Z" fill="#1F3A1D"/>
<path d="M26.5305 40.5121C27.5342 37.2356 27.9346 33.8048 27.712 30.3859C27.6396 29.0695 26.5232 27.4927 24.9937 27.6736C21.826 28.0931 17.4694 27.6736 17.02 23.5942C16.5488 19.0302 23.8919 16.9977 26.2333 20.7878C28.089 23.775 32.4962 21.1567 30.9305 18.0465C29.0458 14.2998 29.8794 7.56595 34.2722 5.75047C36.2004 4.96932 39.8103 5.23693 40.0133 7.85526C40.2453 10.8208 37.9184 14.7483 36.6281 17.2581C35.258 19.9488 38.6215 22.7768 40.8976 20.5491C44.4496 17.0773 50.7488 12.8677 56.1202 14.3288C60.9044 15.6379 54.4748 16.7952 52.9887 17.2219C50.236 18.0686 47.567 19.1654 45.015 20.4985C42.6447 21.6847 43.7247 25.7351 46.3851 25.5615C48.1786 25.4097 49.98 25.3735 51.7782 25.453C52.8929 25.4973 54.0028 25.6255 55.0982 25.8364C56.548 26.3065 56.8523 26.3427 56.1275 25.9304L56.4029 23.8401C55.3156 26.2631 51.0896 26.2631 48.8279 26.6465C48.3703 26.7638 47.9526 27.0015 47.6186 27.3348C47.2845 27.6682 47.0463 28.0849 46.9287 28.5415C46.1908 32.53 45.6657 36.5548 45.3557 40.5988C45.0802 44.0779 50.5169 44.0634 50.7923 40.5988C51.0625 37.0401 51.5223 33.4981 52.1696 29.9881L50.2704 31.8831C54.1196 31.2249 61.6149 30.234 61.4191 24.8455C61.1944 18.8638 50.1907 19.8764 46.3851 20.1368L47.7551 25.1999C50.636 23.7674 53.6645 22.6518 56.7871 21.8727C58.5341 21.4315 60.4115 20.9758 61.7308 19.7028C64.4999 17.0628 63.7605 12.8532 60.8827 10.6544C53.6339 5.14291 42.4271 11.5151 37.0847 16.7301L41.3543 20.0211C43.529 15.7898 47.2114 9.08487 44.696 4.30388C42.8403 0.781435 38.2301 -0.433704 34.5477 0.159398C25.3344 1.60599 22.5726 13.4391 26.2623 20.7806L30.9595 18.0393C26.7189 11.1824 15.0556 12.1661 12.1125 19.8258C8.8868 28.1799 17.5999 34.0747 25.0082 33.091L22.2754 30.3498C22.487 33.2789 22.1528 36.2217 21.2896 39.0293C20.2603 42.3782 25.5011 43.803 26.5305 40.4759V40.5121Z" fill="#1F3A1D"/>
<path d="M11.3895 53.9215V54.5725L12.7378 52.229L12.6146 52.3085L15.9128 52.7281L15.7895 52.6196C14.1948 51.173 10.9401 52.0482 11.1503 54.5363C11.491 58.5867 15.3329 62.4925 19.4212 62.4925C21.9076 62.4925 24.104 61.2268 26.0466 59.7874C28.2793 58.1311 29.258 55.5923 31.2804 53.9143L29.3594 54.7099C29.9176 54.7099 30.8672 55.925 31.4398 56.2722C32.5128 56.9009 33.765 57.1554 34.9989 56.9955C38.0217 56.6917 41.1605 55.3464 43.973 54.2614L40.6241 50.927C39.8267 54.0227 42.1536 56.5398 45.3648 56.0986C48.9168 55.6068 52.534 52.8293 55.1798 50.5871C57.8256 48.3449 53.9837 44.4969 51.3379 46.7464C50.7362 47.2599 45.1764 50.5871 45.4084 51.0066L45.6766 53.0969L45.8722 52.3736C46.3434 50.5365 44.5384 48.2653 42.5232 49.0392C40.5081 49.8132 36.253 52.1277 34.1291 51.5129C32.1864 50.9415 31.4978 48.7716 28.997 49.343C26.4961 49.9144 25.8727 52.5183 24.2635 54.2253C23.3429 55.2017 21.6683 56.6049 20.3273 56.9232C18.9863 57.2414 16.7029 56.0769 16.587 54.558L11.9477 56.4819L12.0637 56.5904C12.4962 57.0031 13.0499 57.2665 13.6435 57.342C14.2372 57.4175 14.8394 57.3012 15.3619 57.01C16.5362 56.2867 16.8116 55.2813 16.8116 53.9432C16.8116 50.4569 11.3678 50.4497 11.375 53.9432L11.3895 53.9215Z" fill="#1F3A1D"/>
</g>
<defs>
<clipPath id="clip0_738_402">
<rect width="64" height="82" fill="white"/>
</clipPath>
</defs>
</svg>
