<svg width="198" height="33" viewBox="0 0 198 33" fill="none" xmlns="http://www.w3.org/2000/svg">
<g clip-path="url(#clip0_743_505)">
<path d="M34.3371 13.3141L25.8371 29.7651C24.8594 31.6479 24.4198 32.1308 23.787 32.1308C23.0556 32.1308 22.3697 31.4084 21.6383 29.9111L13.3847 12.689L9.23133 25.906C8.9888 26.6771 8.89028 27.3059 8.89028 27.7401C8.89028 28.2716 9.18207 28.7058 9.72019 28.9941C10.9404 29.5742 11.1867 29.8625 11.1867 30.6822C11.1867 31.6966 10.5046 32.1795 9.08733 32.1795H1.46655C0.636644 32.1795 0 31.5057 0 30.7309C0 29.9111 0.341059 29.4769 1.51582 29.0427C2.88384 28.6085 3.17564 28.1743 3.81228 26.1006L9.4246 7.09305C9.66713 6.27331 9.81492 5.5958 9.81492 5.01936C9.81492 4.1023 9.61787 3.9114 8.10584 3.08791C7.51846 2.84835 7.22666 2.36549 7.22666 1.68798C7.22666 0.53136 8.00731 -0.000163128 9.96272 -0.000163128H18.4627C19.9785 -0.000163128 20.7099 0.53136 20.7099 1.59066C20.7099 2.26443 20.2703 2.89327 19.3418 3.42479C18.7052 3.81033 18.4134 4.19588 18.4134 4.53276C18.4134 4.9183 18.5612 5.44982 18.9023 6.17224L24.6662 17.2669C25.0565 18.0866 25.3975 18.4721 25.6439 18.4721C25.9357 18.4721 26.2805 18.0379 26.6708 17.2182L32.1429 6.17224C32.4347 5.59206 32.5825 5.1092 32.5825 4.675C32.5825 3.85525 32.3855 3.61195 30.8242 2.98685C30.2368 2.69863 29.945 2.21576 29.945 1.53826C29.945 0.523874 30.6764 -0.00390625 32.1429 -0.00390625H40.9347C42.7423 -0.00390625 43.3751 0.381636 43.3751 1.53826C43.3751 2.26068 42.9356 2.84087 42.1056 3.17775C41.0787 3.61195 40.5898 4.19213 40.5898 4.81723C40.5898 5.20278 40.7376 5.9252 40.9801 6.98825L46.2059 25.8985C46.6455 27.684 47.0358 28.1182 48.6009 28.7433C49.7719 29.2748 50.1167 29.709 50.1167 30.4801C50.1167 31.588 49.4346 32.1682 48.0666 32.1682H36.9784C35.8074 32.1682 35.0723 31.4945 35.0723 30.5287C35.0723 29.709 35.5611 29.1288 36.4895 28.7919C37.3195 28.5037 37.759 28.0208 37.759 27.392C37.759 27.246 37.562 26.4263 37.2209 24.9328L34.3409 13.3066L34.3371 13.3141Z" fill="#143B19"/>
<path d="M122.722 11.9628C123.893 11.143 125.212 10.7575 126.629 10.7575C129.706 10.7575 131.707 12.397 132.734 15.6797L135.762 25.4717C136.202 26.8229 136.543 27.74 136.884 28.2229C137.225 28.7057 137.763 29.1886 138.593 29.7201C139.131 30.057 139.423 30.4425 139.423 30.9254C139.423 31.7451 138.835 32.1794 137.714 32.1794H128.725C127.164 32.1794 126.379 31.6965 126.379 30.7794C126.379 30.057 126.622 29.765 128.137 29.1399C128.967 28.7544 129.358 28.2715 129.358 27.6427C129.358 27.1598 129.21 26.4374 128.918 25.4717L126.671 18.0902C126.133 16.3048 125.155 15.3877 123.742 15.3877C121.934 15.3877 120.763 17.0759 120.763 19.7784V22.144C120.763 25.2808 120.862 27.1598 121.104 27.886C121.301 28.5148 121.494 28.7544 122.665 29.4768C123.302 29.8624 123.594 30.2966 123.594 30.8281C123.594 31.7451 122.862 32.1794 121.396 32.1794H113.631C112.214 32.1794 111.482 31.7451 111.482 30.8767C111.482 30.3452 111.774 29.8624 112.411 29.4768C113.582 28.7544 113.828 28.4624 114.021 27.6427C114.169 26.9203 114.264 25.0861 114.264 22.144V19.5875C114.264 16.6941 113.336 15.2455 111.479 15.2455C110.357 15.2455 109.33 15.7283 108.5 16.6941C107.769 17.5138 107.424 18.5768 107.424 19.8795V22.1478C107.424 25.2845 107.522 27.1636 107.716 27.8897C107.958 28.5186 108.155 28.7581 109.277 29.4806C109.914 29.8661 110.205 30.3003 110.205 30.8318C110.205 31.7489 109.474 32.1831 108.057 32.1831H100.292C98.8746 32.1831 98.1432 31.7489 98.1432 30.8805C98.1432 30.349 98.435 29.8661 99.0717 29.4806C100.243 28.7581 100.44 28.4662 100.682 27.6464C100.83 26.924 100.925 25.0899 100.925 22.1478V20.1714C100.925 17.8058 100.777 17.4202 99.4089 17.0347C98.382 16.7465 97.8477 16.2636 97.8477 15.5861C97.8477 15.0546 98.238 14.5717 99.0186 14.1375L105.514 10.8585C105.855 10.6639 106.196 10.5703 106.442 10.5703C107.079 10.5703 107.42 11.0532 107.42 11.9702V14.0926C109.91 11.6334 111.914 10.6676 114.503 10.6676C117.091 10.6676 119.19 11.8243 120.46 14.0926C121.29 13.0782 122.021 12.4044 122.707 11.9702L122.722 11.9628Z" fill="#143B19"/>
<path d="M146.088 24.2189C146.528 25.1846 147.016 25.9557 147.604 26.5358C148.923 27.9358 150.582 28.6095 152.538 28.6095C154.736 28.6095 157.081 27.5951 158.791 25.907C159.427 25.2782 159.912 24.9899 160.257 24.9899C160.844 24.9899 161.284 25.4241 161.284 26.1466C161.284 27.0636 160.503 28.1229 158.988 29.2833C156.301 31.357 152.591 32.5174 149.074 32.5174C145.755 32.5174 143.018 31.6003 140.919 29.7175C138.573 27.6438 137.402 24.9413 137.402 21.6136C137.402 18.286 138.573 15.7295 140.968 13.5584C143.314 11.4361 146.046 10.373 149.123 10.373C152.591 10.373 155.376 11.6757 157.574 14.2322C158.601 15.4375 159.624 17.2716 159.624 17.8967C159.624 18.1363 159.575 18.1849 157.767 19.102L156.646 19.6335L146.096 24.2151L146.088 24.2189ZM150.632 19.4426C151.511 19.0571 151.95 18.6715 151.95 18.3347C151.95 17.7545 151.314 16.3583 150.582 15.3926C149.654 14.1386 148.582 13.5098 147.263 13.5098C145.163 13.5098 143.845 15.1006 143.845 17.5636C143.845 19.6373 144.481 21.711 145.213 21.711C145.455 21.711 145.751 21.6136 146.141 21.4227L150.635 19.4464L150.632 19.4426Z" fill="#143B19"/>
<path d="M169.677 22.1935C169.677 25.1356 169.775 26.9697 169.969 27.7408C170.211 28.5119 170.359 28.7065 171.484 29.238C172.265 29.6236 172.655 30.1064 172.655 30.6866C172.655 31.701 171.875 32.1839 170.31 32.1839H162.496C160.98 32.1839 160.199 31.701 160.199 30.7353C160.199 30.1064 160.59 29.6273 161.37 29.238C162.541 28.7065 162.689 28.4669 162.886 27.5012C163.034 26.7301 163.129 24.9447 163.129 22.1935V11.2411C163.129 9.26473 163.03 8.00704 162.787 7.52792C162.59 7.09372 162.496 7.09372 161.078 6.56219C160.54 6.32263 160.248 5.93335 160.248 5.40557C160.248 4.77672 160.54 4.39118 161.908 3.66876L167.721 0.434705C168.063 0.240062 168.404 0.146484 168.699 0.146484C169.336 0.146484 169.677 0.917567 169.677 2.41482V22.1935Z" fill="#143B19"/>
<path d="M194.33 6.62208C194.698 8.18671 193.254 11.024 189.226 10.6684C185.163 10.3128 188.263 7.12366 189.097 6.44616C190.734 5.02751 193.962 5.05746 194.326 6.62208H194.33Z" fill="#143B19"/>
<path d="M58.2009 32.5199C55.8135 32.5199 53.8846 31.8948 52.4029 30.6446C50.9704 29.4431 50.2769 27.9533 50.3224 26.123C50.3755 23.9108 51.5919 22.0355 53.9149 20.5457C55.8438 19.3442 58.2918 18.7191 61.3614 18.7191C61.9942 18.7191 62.9189 18.7677 64.0368 18.8164C63.5366 17.3266 63.078 16.2187 62.5589 15.5936C61.7555 14.5829 60.6982 14.0551 59.3832 14.0551C57.6324 14.0551 56.7457 14.3433 54.5174 15.8818C54.1726 16.0727 53.877 16.17 53.536 16.17C52.9524 16.17 52.4787 15.6422 52.4938 15.0658C52.5166 14.2011 53.2707 13.2391 54.7524 12.2285C56.4842 11.0756 59.1331 10.2559 61.422 10.2559C64.1012 10.2559 66.6061 11.2665 67.9362 12.6589C68.9329 13.7182 69.8575 15.6422 70.6685 18.4308L72.7755 25.7898C73.3174 27.5678 74.3064 28.8667 75.4282 28.8667C75.7692 28.8667 76.944 28.9228 76.9895 29.9896C77.0577 31.5729 75.341 32.5199 72.6618 32.5199C69.9826 32.5199 68.5425 31.7975 67.2276 29.7313C64.2111 31.6066 61.2211 32.5199 58.2009 32.5199ZM57.5112 24.9701C57.4809 26.2689 57.9887 27.3282 59.0422 28.0469C59.8569 28.6234 60.8232 28.9116 61.9904 28.9116C64.1315 28.9116 65.9088 27.9009 65.8937 26.6021C65.8671 25.7374 65.5071 24.5359 64.9122 22.9937C64.5029 21.8408 63.7336 21.4553 62.2254 21.4553C59.5007 21.4553 57.5642 22.8964 57.515 24.9663L57.5112 24.9701Z" fill="#143B19"/>
<path d="M90.867 11.844C92.0834 11.028 93.5462 10.5938 95.2969 10.5938C97.0477 10.5938 97.8776 10.9793 97.8776 11.7953C97.8776 12.0835 97.8284 12.3717 97.7298 12.66L96.0473 17.5672C95.5849 19.1805 93.9062 18.8773 93.4211 18.1773C92.8678 17.4362 92.0341 16.7961 90.9162 16.7961C89.6998 16.7961 88.6766 17.3239 87.896 18.4318C87.3616 19.1543 87.1153 20.5954 87.1153 22.6653V24.8775C87.1153 26.3673 87.2138 27.3779 87.4071 27.9057C87.6496 28.4335 88.1385 28.8677 88.8661 29.2045C89.6922 29.5901 90.0825 30.0692 90.0825 30.6943C90.0825 31.6563 89.3511 32.1354 87.8922 32.1354H80.0061C78.4486 32.1354 77.668 31.6563 77.668 30.6943C77.668 30.0692 78.0583 29.5901 78.8844 29.2045C80.0061 28.6768 80.1994 28.4335 80.3927 27.4752C80.5404 26.7041 80.6352 24.9262 80.6352 22.1862V18.9147C80.6352 17.4249 80.3927 17.1367 78.8844 16.9421C78.3008 16.7961 77.812 16.2683 77.812 15.6432C77.812 15.209 78.0545 14.8721 78.5926 14.5839L84.9704 10.9306C85.3607 10.6911 85.7511 10.5938 86.0883 10.5938C86.5279 10.5938 86.8197 10.7397 86.9637 11.0729C87.1115 11.3124 87.157 12.2258 87.2063 13.7193C87.2063 14.5353 87.2063 15.0668 87.2555 15.4037C88.813 13.6257 90.0295 12.4204 90.8594 11.844H90.867Z" fill="#143B19"/>
<path d="M192.077 16.6264C193.717 18.1124 196.237 18.6477 197.367 20.669C198.356 22.4395 198.246 24.5544 197.378 26.3473C196.435 28.3012 194.813 29.5477 192.906 30.5246C188.871 32.5946 183.857 33.2534 179.454 32.0069C177.862 31.5577 176.369 30.7979 175.137 29.6974C173.148 27.9344 171.984 24.9811 171.984 21.7919C171.984 18.4119 173.197 15.743 175.622 13.6956C178.002 11.6967 180.776 10.4353 183.921 10.6936C188.984 11.1128 189.454 14.2009 192.077 16.6302V16.6264ZM180.681 16.1361C178.991 18.9958 178.302 22.7951 179.806 25.8757C180.268 26.8264 180.95 27.6649 181.803 28.305C183.3 29.4242 185.426 30.068 187.207 29.1696C188.84 28.3461 190.049 26.5157 190.193 24.7153C190.326 23.087 189.791 21.5449 188.988 20.1487C188.476 19.2541 187.965 18.3595 187.45 17.4649C186.601 15.9789 185.831 14.1485 183.827 14.0736C182.383 14.0175 181.363 14.9832 180.681 16.1361Z" fill="#143B19"/>
</g>
<defs>
<clipPath id="clip0_743_505">
<rect width="198" height="32.6887" fill="white"/>
</clipPath>
</defs>
</svg>
