<svg width="74" height="79" viewBox="0 0 74 79" fill="none" xmlns="http://www.w3.org/2000/svg">
<g clip-path="url(#clip0_872_2499)">
<path d="M2.50341 42.8967C11.3599 42.6469 20.3547 42.3345 29.1213 43.8753C30.2422 44.0696 33.2243 44.2223 33.3073 45.3605C33.3834 46.3668 30.0899 47.6577 29.3012 48.2059C27.2047 49.6634 25.5233 51.8079 25.9869 54.5146C27.3015 62.1904 37.1959 58.0749 41.548 56.666C44.0181 55.8679 45.2428 55.9859 47.6368 56.6591C48.9792 57.0408 50.3699 57.131 51.7468 56.9297C54.7082 56.4994 56.9015 54.9032 58.6867 52.5713C60.7209 49.9132 56.2166 47.3245 54.2031 49.941C51.56 53.3902 48.5502 50.7669 45.3189 50.5656C42.0808 50.3643 38.6835 52.1341 35.6598 53.1126C34.9195 53.3486 30.9272 54.8546 31.4184 53.1196C31.6883 52.1618 34.3729 51.3221 35.1478 50.8154C37.2028 49.469 39.0018 47.5119 38.898 44.9094C38.6558 38.9755 30.1868 38.691 25.9454 38.1774C18.1614 37.2474 10.3151 37.4556 2.49649 37.6777C-0.831605 37.7818 -0.845444 42.9869 2.50341 42.8967Z" fill="#1F3A1D"/>
<path d="M36.9832 44.2566C48.4344 42.7367 59.9478 42.119 71.4958 42.3966C74.8377 42.4799 74.8377 37.2748 71.4958 37.1915C59.9478 36.9139 48.4344 37.5316 36.9832 39.0515C33.7243 39.4817 33.6828 44.6938 36.9832 44.2566Z" fill="#1F3A1D"/>
<path d="M37.9916 59.8443C41.9355 61.9471 45.8102 63.6058 49.9894 65.2159C53.1099 66.4166 54.4591 61.3919 51.3663 60.1982C50.1416 59.7263 48.9238 59.2543 47.6992 58.7824C47.1525 58.5742 46.6128 58.366 46.0662 58.1509C46.2946 58.2411 44.6063 57.554 45.0284 57.7483C45.1944 57.8247 44.2258 57.3111 43.9905 57.1862C42.8696 56.5685 41.7418 55.9508 40.607 55.347C37.6595 53.7785 35.0372 58.2688 37.9916 59.8443Z" fill="#1F3A1D"/>
<path d="M47.0211 56.3953C49.3943 57.4641 53.788 58.172 55.5177 60.136C55.2617 59.5253 55.0126 58.9076 54.7566 58.2969C54.9711 60.0666 50.6744 59.8446 49.5119 60.4622C47.9967 61.2742 47.5884 63.0717 46.0109 63.8074C42.9457 65.251 39.9636 63.3146 37.2582 62.0862C34.2345 60.719 31.5983 65.2024 34.6358 66.5835C37.8532 68.0409 40.7177 69.658 44.4195 69.4428C46.3568 69.3318 48.2665 68.7488 49.8371 67.5967C50.4391 67.1526 50.8612 66.5488 51.4009 66.063C52.3765 65.1885 52.9992 65.1677 54.21 64.7721C57.2129 63.7866 61.5374 60.7051 59.5862 56.9783C58.0225 53.994 52.418 53.1542 49.6296 51.8981C46.6198 50.5447 43.9766 55.0281 47.0211 56.3953Z" fill="#1F3A1D"/>
<path d="M20.9847 54.8676C18.8052 56.8872 18.7221 60.1491 20.5211 62.4809C22.7283 65.3472 26.5269 65.2501 29.6682 64.2715C28.6926 62.9945 27.717 61.7245 26.7414 60.4475C23.8492 64.9239 26.9282 69.9555 32.3044 68.6993C36.2206 67.7832 38.8014 63.8967 42.5723 62.6961C45.7413 61.6828 44.3852 56.6581 41.1954 57.6783C39.2858 58.2891 37.5975 59.4897 35.9507 60.6002C35.0651 61.197 34.1864 61.8147 33.2938 62.4046C33.1485 62.5018 30.6092 64.0286 31.225 63.0778C32.4497 61.1831 30.4154 58.5945 28.2982 59.2538C27.9038 59.3717 23.1227 59.9755 24.6657 58.5528C27.115 56.2695 23.441 52.5981 20.9847 54.8676Z" fill="#1F3A1D"/>
<path d="M11.3058 35.1927C11.4995 24.3313 11.6863 13.4699 11.8801 2.60855C11.0152 3.47607 10.1503 4.34359 9.28538 5.21111C21.0825 5.572 32.8796 5.97453 44.6767 6.4187C50.5718 6.64079 56.4738 6.86981 62.3689 7.11272C62.9432 7.13354 65.1711 7.41115 64.8528 7.06414C65.2957 7.54995 64.9359 10.4371 64.9497 11.145C65.012 14.3166 65.0535 17.4952 65.0743 20.6669C65.1434 32.2361 64.9151 43.7985 64.3823 55.3539C64.244 58.2965 64.0917 61.2391 63.9188 64.1887C63.8357 65.549 63.7527 66.9023 63.6628 68.2626C63.5866 69.4494 63.898 71.9964 63.3306 73.0097C62.7909 73.9882 62.7909 73.6482 61.2203 73.6135C59.6358 73.5788 58.0583 73.5441 56.4738 73.5094C53.5332 73.44 50.5925 73.3775 47.6588 73.3081C34.3188 73.0027 20.9787 72.7043 7.63863 72.3989C8.50352 73.2665 9.36841 74.134 10.2333 75.0015C10.517 65.3061 11.0982 55.6315 11.9838 45.9707C12.2883 42.6395 7.09894 42.6603 6.7945 45.9707C5.90885 55.6315 5.32765 65.3061 5.04396 75.0015C5.00245 76.4312 6.26865 77.5763 7.63863 77.6041C20.9787 77.9094 34.3188 78.2079 47.6588 78.5132C51.0492 78.5896 54.4396 78.6659 57.8299 78.7422C60.3485 78.7978 63.6835 79.5195 66.0014 78.2703C67.6828 77.3681 68.1809 75.8968 68.4231 74.0785C68.859 70.8235 68.9075 67.4575 69.1012 64.1818C69.9107 50.5998 70.2982 36.9902 70.2705 23.3874C70.2636 20.2158 70.2359 17.0372 70.1806 13.8655C70.1391 11.138 70.6165 7.68182 69.7239 5.08619C69.0458 3.11518 67.5513 2.34482 65.5932 2.0811C62.0852 1.6161 58.4042 1.74797 54.8755 1.60916C39.6811 0.998428 24.4867 0.470975 9.27846 -0.000956789C7.86004 -0.0425978 6.71147 1.22745 6.68379 2.60161C6.49698 13.463 6.30324 24.3244 6.11643 35.1927C6.05415 38.5378 11.2435 38.5378 11.3058 35.1927Z" fill="#1F3A1D"/>
<path d="M20.306 16.2868C25.0664 15.8218 29.8336 15.572 34.6148 15.5373C37.9498 15.5095 37.9636 10.3044 34.6148 10.3321C29.8336 10.3738 25.0664 10.6236 20.306 11.0817C17.0056 11.4009 16.9779 16.6061 20.306 16.2868Z" fill="#1F3A1D"/>
<path d="M18.8619 26.0734C31.8145 26.8229 44.8156 26.9825 57.7889 26.7327C61.1239 26.6702 61.1378 21.4651 57.7889 21.5275C44.8225 21.7774 31.8145 21.6108 18.8619 20.8682C15.5269 20.6808 15.5339 25.886 18.8619 26.0734Z" fill="#1F3A1D"/>
<path d="M18.8594 34.9905C23.8757 34.6713 28.8921 34.6019 33.9223 34.7684C37.2642 34.8795 37.2573 29.6744 33.9223 29.5633C28.899 29.3898 23.8826 29.4662 18.8594 29.7854C15.5451 30.0005 15.5174 35.2057 18.8594 34.9905Z" fill="#1F3A1D"/>
<path d="M42.7317 34.5333C47.7481 34.5333 52.7713 34.5333 57.7877 34.5333C61.1296 34.5333 61.1296 29.3281 57.7877 29.3281C52.7713 29.3281 47.7481 29.3281 42.7317 29.3281C39.3898 29.3281 39.3828 34.5333 42.7317 34.5333Z" fill="#1F3A1D"/>
</g>
<defs>
<clipPath id="clip0_872_2499">
<rect width="74" height="79" fill="white"/>
</clipPath>
</defs>
</svg>
